<svg xmlns="http://www.w3.org/2000/svg" width="104.058" height="18"><path d="M17.327 3.844a.407.407 0 01-.461.382H14.08v.133c0 .251.019.635.039 1.058 0 .136.038.713.038.828v.036c0 .135-.019.557-.826.557-.365 0-.557-.193-.557-.461v-.132H9.067v1.382h4.225c.135-.175.827-1.037 1-1.037.212 0 1.613.939 1.613 1.306a.429.429 0 01-.48.405H9.067V9.74h5.378s.884-1.135 1.115-1.135c.268 0 1.652 1.038 1.652 1.422 0 .192-.135.385-.461.385H5.8c-.787 0-4.513.037-5.416.153a1.663 1.663 0 01-.385-1v-.038c1.019.116 4.937.213 6.282.213h1.5V8.3H6.339c-.787 0-3.745.017-4.648.133a1.672 1.672 0 01-.384-1V7.4c1.018.116 4.168.231 5.512.231h.961V6.245H6.109c-.961 0-3.093.017-3.747.115a1.561 1.561 0 01-.383-.96c.73.1 3.707.155 4.437.155H7.78V4.226h-1.5c-.788 0-4.994.04-5.9.155a1.666 1.666 0 01-.385-1v-.038c1.019.114 5.4.21 6.743.21H7.78v-1.19H6.205c-.96 0-3.131.019-3.785.115a1.555 1.555 0 01-.383-.96c.729.095 3.745.173 4.475.173H7.76A12.762 12.762 0 007.607.1c1.018 0 2.209.111 2.209.591 0 .174-.135.423-.73.557v.443h3.554s.537-.654.73-.654c.134 0 1.363.674 1.363 1.1 0 .191-.153.365-.634.5 0 .156-.019.539-.019.922h.731c.306-.4.788-1.035.979-1.035.31-.006 1.537.992 1.537 1.32zm-2.594 8.488c0 .193-.192.365-.634.539a4.748 4.748 0 00-.038.652c0 .02.019 1.1.019 1.248 0 .194.019 1.039.039 1.672.019.327.076.655.076.866v.019c0 .074 0 .577-.9.577-.326 0-.576-.135-.576-.425 0-.078.02-.382.02-.691H4.207v.691c0 .309-.461.52-.845.52-.308 0-.6-.137-.6-.423v-.02c0-.21.058-.614.077-.922.039-.633.039-1.344.039-1.785 0 0 .019-1.307.019-1.729a12.681 12.681 0 00-.211-2.056 8.743 8.743 0 011.67.75h8.3c.23-.27.6-.616.749-.616.214.001 1.328.731 1.328 1.133zm-1.978.153H4.207v1.365h8.548zM4.207 14.5v1.6h8.529c.019-.25.019-.5.019-.749V14.5zm8.567-12.137H9.086l-.019 1.19h3.707zM9.067 4.226v1.327l3.707.017V4.226zm21.894-2.017c0 .173-.153.348-.462.348h-3.207c.672.3 1.21.709 1.21 1.265 0 .366-.172.807-.672.807-.269 0-.461-.229-.6-.613a2.69 2.69 0 00-1.13-1.459h-.884a10.618 10.618 0 01-2.978 2.881.33.33 0 01-.306-.309.23.23 0 01.076-.172A10.279 10.279 0 0024.833.02c.672.172 1.94.633 1.94 1.077 0 .23-.25.345-.5.345a1.1 1.1 0 01-.251-.021 3.529 3.529 0 01-.322.479h2.728c.057-.078.73-1.018.98-1.018.228.002 1.553.924 1.553 1.327zM30 10.719a.358.358 0 01-.4.326h-2.9v.749c2.555 1 2.9 1.886 2.9 2.382 0 .654-.443.711-.558.711-.192 0-.423-.153-.6-.481a6.375 6.375 0 00-1.742-1.959v.482c0 .29-.018.825-.018 1.555 0 .537.018 1.153.037 1.844 0 .193.039.788.039 1.019 0 .5-.672.536-.825.536-.27 0-.538-.094-.538-.422 0-.037.018-.633.038-.959.039-.809.057-1.441.076-2.133.02-.364.039-.979.078-1.555a9.213 9.213 0 01-3.171 3.611.432.432 0 01-.384-.345.259.259 0 01.1-.174 13.376 13.376 0 003.168-4.861h-.44c-.558 0-1.538.058-2.056.117a1.225 1.225 0 01-.346-.866c.692.077 2.229.116 2.805.116h.269v-1.5h-.462c-.46 0-1.093.058-1.614.114a1.309 1.309 0 01-.345-.9c.672.076 1.883.113 2.4.113h.02V6.916h-.5c-.557 0-1.326.057-1.843.114a1.322 1.322 0 01-.367-.9c.673.075 2.076.115 2.653.115h.057a14.686 14.686 0 00-.134-2.1c1.5.136 1.843.289 1.843.558 0 .191-.192.385-.538.481v1.061h.711c.308-.406.691-.886.845-.886.289 0 1.364.942 1.364 1.231a.36.36 0 01-.4.326h-2.544V8.24h.537c.442-.6.712-.883.846-.883.212 0 1.344.9 1.344 1.231a.358.358 0 01-.4.326H26.7v1.5h1.056c.615-.846.73-.9.847-.9.207-.004 1.397.898 1.397 1.205zM38.971 9.7c0 .193-.173.326-.4.326H31.73c-.538 0-1.556.039-2 .1a1.217 1.217 0 01-.365-.9c.52.056 1.672.1 2.4.115V7.184a33.28 33.28 0 00-1.729.1 1.221 1.221 0 01-.365-.9c.461.059 1.383.1 2.094.115v-.448a11.393 11.393 0 00-.135-1.633c1.479.038 1.9.25 1.9.539 0 .209-.249.441-.594.537 0 .135 0 .521-.02 1h1.845V6.13a11.15 11.15 0 00-.135-1.614c1.921.055 1.921.345 1.921.535 0 .156-.173.387-.595.5 0 .133 0 .5-.02.939h.423c.653-.883.729-.883.807-.883.115 0 1.383.807 1.383 1.248 0 .194-.173.327-.4.327h-2.21v2.154h.653c.538-.653.749-.9.923-.9.269-.002 1.46.919 1.46 1.264zm.135-7.511c0 .192-.135.367-.442.367H34.88c.73.3 1.19.652 1.19 1.228a.676.676 0 01-.633.748c-.269 0-.481-.23-.634-.6a2.522 2.522 0 00-1.248-1.381H32.44a7.173 7.173 0 01-2.171 2.207A.262.262 0 0130 4.5a.318.318 0 01.057-.174 8.48 8.48 0 002-4.322C33.324.308 34 .538 34 .961c0 .287-.347.384-.6.384-.057 0-.115-.018-.172-.018l-.346.575h3.477c.058-.078.864-1.133 1.076-1.133s1.671.999 1.671 1.421zm-1.671 9.72c0 .192-.154.385-.539.482 0 .362-.018 2.014-.018 2.014 0 .175.038 1.461.057 2.057 0 .211.058.635.058.728 0 .156-.1.559-.865.559-.326 0-.518-.154-.518-.463 0-.211.038-.537.038-.728v-.116h-3.5v.158c0 .135.019.52.019.617 0 .537-.576.595-.807.595-.384 0-.538-.154-.538-.406v-.074c.02-.212.058-.674.058-.826a119.6 119.6 0 00.057-3.344 11.716 11.716 0 00-.152-2.516 7 7 0 011.478.711h3.247c.018-.038.422-.6.672-.6.292 0 1.253.751 1.253 1.153zm-1.768.076h-3.534v1.5h3.534zm-3.534 2.135v1.671h3.534V14.12zm2.632-6.936H32.92v2.152h1.845zm24.371.502c0 .479-.4.554-.711.594a4.205 4.205 0 00-.73.136 34.7 34.7 0 00-4.8 2.016c0 3.111-.23 3.5-.845 3.5-.4 0-.595-.483-.595-.981a2.877 2.877 0 01.115-.692 2.564 2.564 0 00.058-.536c.019-.231.019-.463.038-.674-1.557.961-2.709 1.941-2.709 2.978 0 1.518 2.42 1.711 3.419 1.711a5.332 5.332 0 002.229-.423 1.737 1.737 0 01.864-.193c.865 0 1.171.325 1.171.73 0 .326-.191.654-.749.826a12.63 12.63 0 01-3.245.442c-2.113 0-4.592-.979-4.592-2.8 0-1.519 1.71-3 3.612-4.207 0-.115-.019-.252-.019-.365-.039-.885-.385-1.691-1.192-1.691-1.286 0-2.881 1.978-3.169 2.633a2.152 2.152 0 01-.288.537.91.91 0 01-.653.248c-.153 0-.653-.037-.653-.959a.909.909 0 01.057-.327 7.176 7.176 0 011-1.019 19.714 19.714 0 002.862-3.878 10.471 10.471 0 01-1.882.23c-1.71 0-2.4-.826-2.4-1.614 0-.232.1-.462.268-.462a.425.425 0 01.308.175 3.087 3.087 0 002.017.865 18.126 18.126 0 002.228-.308 6.117 6.117 0 00.385-1.6c0-.461-.424-.653-1.134-.75-.115-.018-.307-.074-.307-.249 0-.384.768-.442.979-.442.768 0 1.845.48 1.845 1.154 0 .1 0 .115-.193.6A9.87 9.87 0 0051.3 3.9a3.8 3.8 0 001.345-.519 2.355 2.355 0 011.229-.25c.326 0 .941.039.941.578 0 .365-.288.535-.769.672s-.96.19-1.44.307c-.538.115-1.21.269-1.9.4-.6 1.054-1.288 2.074-1.979 3.053a3.377 3.377 0 011.973-.784 2.169 2.169 0 012.132 2.114c1.267-.709 2.8-1.5 4.014-2.114.058-.037.423-.191.442-.269 0-.327-.884-.346-1.115-.346-.268 0-.383-.115-.383-.25a.41.41 0 01.441-.362h.116c2.597 0 2.789 1.227 2.789 1.556zm11.021-5.821c0 .19-.154.383-.595.517v7.145c0 .289.058 1.9.058 2.248l.019.71c0 .462-.615.5-.825.5-.346 0-.5-.115-.5-.384v-.421h-2.056v.711a.435.435 0 01-.115.307c.941.286 1.555.595 1.555.9 0 .21-.268.382-.672.4-1.114 1.9-2.8 3.474-3.17 3.474a.322.322 0 01-.326-.324.317.317 0 01.1-.213 8.119 8.119 0 002.325-4.107 1.323 1.323 0 01-.5.094c-.306 0-.537-.094-.537-.422v-.059c0-.115.038-.4.058-.73.018-.614.056-1.785.056-2.267V3.035a15.472 15.472 0 00-.196-2.306 8.4 8.4 0 011.614.692h1.75A6.888 6.888 0 0168.717.9a.31.31 0 01.191-.078c.27.004 1.249.715 1.249 1.043zm-3.9 3.494l-.02 2.69h2.095v-2.69zM66.238 8.7v1.555c0 .191 0 .75.02 1.25h2.056c0-.483.019-1.4.019-1.655V8.7zm2.095-6.627h-2.075v2.615h2.075zM70.6 16.559c0 .9-.6.921-.615.921-.307 0-.538-.364-.653-.749a8.358 8.358 0 00-1.671-3.092.3.3 0 01-.057-.172.311.311 0 01.286-.29c.193 0 2.71 2.036 2.71 3.382zm11.352-3.225a.34.34 0 01-.384.324H79.9v.9c0 .557.02.882.02 1.1v.1a1.925 1.925 0 01-1.845 1.92.348.348 0 01-.306-.211c-.154-.289-.346-.422-1.864-.75-.095-.018-.134-.133-.134-.248 0-.172.077-.365.212-.365H76a14.607 14.607 0 001.862.193c.635 0 .826-.251.826-.77v-1.869h-5.957v.979c0 .365.019 1.173.019 1.673 0 .23.021.652.04.825v.037c0 .5-.577.6-.846.6-.365 0-.5-.155-.5-.442v-.1c.02-.269.058-.729.058-.961.019-.383.059-1.3.059-1.747v-.842c-.5.017-1.019.055-1.346.093a1.58 1.58 0 01-.4-.959c.385.057 1.077.094 1.75.133v-2.265a17.078 17.078 0 00-.135-2.807 5.488 5.488 0 011.5.656h2.111V7.166h-1.367c-.77 0-2.518.018-3.171.115a1.4 1.4 0 01-.383-.942c.614.077 2.208.153 3.322.192v-1.69c-.692.02-1.787.038-2.324.116a1.515 1.515 0 01-.384-.941c.557.076 1.787.133 2.708.154V2.746c-.787 0-2.093.041-2.669.115a1.6 1.6 0 01-.384-.978c.595.076 2 .153 3.053.172a10.6 10.6 0 00-.153-1.9C74.9.154 75.23.4 75.23.635c0 .172-.231.4-.616.539 0 .133 0 .459-.018.9h2.074a10.887 10.887 0 00-.154-1.939c1.23 0 1.959.113 1.959.518 0 .231-.249.384-.615.5 0 .137 0 .481-.018.924h1.036c.154-.232.712-.979.9-.979S81.3 2 81.3 2.421c0 .21-.192.325-.423.325h-3.035v1.442h.633c.039-.057.692-.96.884-.96.269 0 1.537.942 1.537 1.305 0 .193-.192.308-.423.308H77.86v1.69h1.326c.077-.135.692-1 .941-1 .231 0 1.556.9 1.556 1.344 0 .192-.192.29-.422.29H76.19v1.366h2.363c.442-.578.576-.617.653-.617.249 0 1.306.711 1.306 1.114 0 .212-.173.4-.616.538-.018.212-.018.287-.018 1.268l.018 2.113c.1-.193.539-.978.75-.978.192 0 1.306.939 1.306 1.365zm-6.916-4.113h-2.305v1.461h2.305zm0 2.152h-2.305v1.633h2.305zm1.634-8.627H74.6v1.442h2.07zm0 2.1H74.6v1.69h2.07zm2.016 4.38h-2.5v1.461h2.5zm-2.5 2.152v1.633h2.5v-1.638zm27.872 4.702c0 .19-.116.4-.251.4h-.038a2.634 2.634 0 00-1.4.636.278.278 0 01-.192.075c-.287 0-5.09-3.361-6.953-10.39a16.026 16.026 0 01-9.029 10.853c-.192 0-.345-.269-.345-.441a.175.175 0 01.077-.156c3.784-2.149 7.626-6.645 8.567-14.6h-1.387c-.613 0-2.765.077-3.533.153a2 2 0 01-.424-1.094 37.212 37.212 0 003.8.193h1.154c.346-.422.653-.75.807-.75.269 0 1.363.863 1.363 1.209 0 .058 0 .387-.979.5a15.77 15.77 0 008.624 13.156.246.246 0 01.139.256z" fill="#fff" data-name="レイヤー 2"/></svg>