<svg xmlns="http://www.w3.org/2000/svg" width="241" height="61"><defs><style>.cls-1{fill:#f1998a}</style></defs><g id="レイヤー_2" data-name="レイヤー 2"><g id="OL後"><path class="cls-1" d="M241 61H0V0h241zM1 60h239V1H1z"/><path class="cls-1" d="M40.273 34.969l-3.032-3.859.1-.02a1.386 1.386 0 01.14-.027 3.439 3.439 0 002.73-3.239 2.949 2.949 0 00-.879-2.162 4.247 4.247 0 00-3.039-.992H32.85a.025.025 0 00-.025.024.025.025 0 00.023.027c.007 0 .724.072.724 1.642v8.692c0 1.5-.717 1.572-.724 1.572a.026.026 0 000 .051h2.763a.025.025 0 00.025-.025.025.025 0 00-.024-.026c-.007 0-.741-.056-.741-1.572v-9.639h1.453a2.492 2.492 0 012.582 2.616 2.759 2.759 0 01-.22 1.114l-.005.011a2.518 2.518 0 01-2.34 1.457H35.3a.025.025 0 00-.022.015.023.023 0 000 .026l4.727 6.013a.026.026 0 00.02.01h2.033a.024.024 0 00.024-.022.023.023 0 00-.016-.027s-.466-.178-1.793-1.66zm17.142-.169a2.286 2.286 0 01-2.132 1.132H52.6v-4.885h2.982a1.268 1.268 0 011.056.474.028.028 0 00.028.011.026.026 0 00.018-.024v-1.686a.026.026 0 00-.018-.024.036.036 0 00-.028.011 1.268 1.268 0 01-1.073.492H52.6v-4.885h2.391c1.023 0 1.647.345 1.853 1.025a.026.026 0 00.024.019.025.025 0 00.021-.024V24.7a.026.026 0 00-.025-.025h-6.292a.026.026 0 00-.025.023.025.025 0 00.022.027c.007 0 .726.107.726 1.661v8.533c0 1.64-.718 1.713-.725 1.713a.026.026 0 00-.023.026.025.025 0 00.025.025h6.553a.025.025 0 00.024-.022l.312-1.842a.023.023 0 00-.016-.027.022.022 0 00-.03.008zm18.462.175l-4.5-10.846a.024.024 0 00-.022-.016.024.024 0 00-.023.016l-4.538 10.794c-.7 1.656-1.191 1.7-1.245 1.7a.026.026 0 000 .051h2.485a.027.027 0 00.025-.021.025.025 0 00-.015-.027.789.789 0 01-.507-.794 2.993 2.993 0 01.259-1.051l1.104-2.744h4.3l1.21 2.94a2.975 2.975 0 01.276 1.033.623.623 0 01-.42.62.025.025 0 00-.014.028.026.026 0 00.024.02h2.886a.026.026 0 00.026-.026.027.027 0 00-.025-.025c-.075-.01-.655-.142-1.286-1.652zm-4.836-8.25l1.859 4.548h-3.68zm22.183-1.182a8.45 8.45 0 00-4.218-.873H85.6a.026.026 0 00-.025.023.025.025 0 00.022.027c.008 0 .726.105.726 1.574v8.551c0 1.675-.718 1.782-.726 1.783a.024.024 0 00-.022.026.026.026 0 00.025.024h3.424A8.332 8.332 0 0093.4 35.7a5.574 5.574 0 002.707-5.131 5.578 5.578 0 00-2.883-5.026zm-5.6-.127h1.383a6.176 6.176 0 013.688.951 5.064 5.064 0 011.97 4.376 5.054 5.054 0 01-1.763 4.2 6.018 6.018 0 01-3.895.985h-1.384zm33.708 9.673v-8.812c0-1.394.652-1.545.727-1.557a.025.025 0 00.021-.027.026.026 0 00-.025-.023h-2.1a.025.025 0 00-.023.016l-4.166 9.663-4.235-9.663a.025.025 0 00-.023-.016h-2.346a.025.025 0 00-.025.022.025.025 0 00.019.028c.261.058.868.323.868 1.506v8.707c0 1.533-.777 1.682-.866 1.7a.024.024 0 00-.021.026.026.026 0 00.025.024h2.572a.026.026 0 00.025-.024.024.024 0 00-.022-.026c-.008 0-.83-.118-.83-1.7v-8.467l4.576 10.388a.024.024 0 00.022.015.024.024 0 00.023-.015l4.506-10.4v8.57c0 1.408-.562 1.586-.675 1.608a.024.024 0 00-.02.026.025.025 0 00.025.024h2.695a.026.026 0 00.025-.026.026.026 0 00-.024-.025c-.05-.011-.728-.138-.728-1.542zm21.517-1.381l.063-.125a6.252 6.252 0 00.4-1.036l.029-.106a6.956 6.956 0 00.205-1.15c0-.051.01-.1.014-.154.015-.2.05-.394.05-.6a5.96 5.96 0 00-1.839-4.555 4.935 4.935 0 00-.421-.313l-.055-.041a5.693 5.693 0 00-.923-.547h-.008a6.378 6.378 0 00-2.723-.614 6.305 6.305 0 00-4.608 1.776c-.112.113-.193.247-.294.368-.052.062-.1.125-.152.189a5.9 5.9 0 00-.541.849l-.06.119a6.248 6.248 0 00-.4 1.04l-.028.1a7.048 7.048 0 00-.205 1.152c-.006.05-.01.1-.014.155-.015.2-.05.393-.05.6a5.958 5.958 0 001.839 4.554c.127.116.277.205.415.309l.066.049a5.656 5.656 0 00.914.542l.014.006a6.386 6.386 0 002.72.614 6.309 6.309 0 004.609-1.777c.11-.111.191-.245.291-.363.054-.064.106-.13.157-.2a5.815 5.815 0 00.535-.841zm-.682-2.912c0 3.176-1.792 5.309-4.459 5.309a4.723 4.723 0 01-3.567-1.575 5.913 5.913 0 01-1.414-3.978c0-3.176 1.792-5.309 4.459-5.309a4.729 4.729 0 013.566 1.574 5.918 5.918 0 011.415 3.983zm18.096 4.173l-3.033-3.859.1-.02a1.328 1.328 0 01.139-.027 3.44 3.44 0 002.731-3.239 2.949 2.949 0 00-.879-2.162 4.25 4.25 0 00-3.039-.992h-3.442a.026.026 0 00-.025.024.027.027 0 00.023.027c.008 0 .725.072.725 1.642v8.692c0 1.5-.717 1.572-.725 1.572a.026.026 0 000 .051h2.762a.025.025 0 00.025-.025.026.026 0 00-.024-.026c-.007 0-.741-.056-.741-1.572v-9.639h1.452a2.492 2.492 0 012.582 2.616 2.76 2.76 0 01-.22 1.115v.009a2.517 2.517 0 01-2.34 1.458h-1.044a.024.024 0 00-.022.015.023.023 0 000 .026L160 36.668a.023.023 0 00.019.01h2.033a.025.025 0 00.009-.049s-.469-.178-1.798-1.66zm17.171-.182a.022.022 0 00-.03.013 2.287 2.287 0 01-2.133 1.132h-2.686v-4.885h2.982a1.269 1.269 0 011.057.474.026.026 0 00.027.011.026.026 0 00.018-.024v-1.686a.026.026 0 00-.018-.024c-.011 0-.022 0-.027.011a1.274 1.274 0 01-1.075.492h-2.964v-4.885h2.391c1.023 0 1.646.345 1.853 1.025a.026.026 0 00.024.019.025.025 0 00.021-.024V24.7a.025.025 0 00-.025-.025h-6.292a.026.026 0 00-.025.023.025.025 0 00.022.027c.007 0 .726.107.726 1.661v8.533c0 1.64-.718 1.713-.725 1.713a.027.027 0 00-.023.026.025.025 0 00.025.025h6.553a.025.025 0 00.024-.022l.313-1.842a.025.025 0 00-.013-.032zm26.097 3.789l-.707-.707 7.369-7.37-7.369-7.368.707-.707 8.076 8.075-8.076 8.077z"/></g></g></svg>