<svg version="1.1" id="レイヤー_1" xmlns="http://www.w3.org/2000/svg" x="0" y="0" viewBox="0 0 322.1 106" xml:space="preserve"><style>.st0{fill:#5f648c}</style><g id="OL後"><path class="st0" d="M312.2 25.7l-.8.9 8.3 7.7h-47.5V7h-7V0H0v69.8h7v7h265.1V35.5h47.5l-8.3 7.7.8.9 9.9-9.2-9.8-9.2zM271 8.2v26.1h-5.8V8.2h5.8zm-7.1 26.1h-6.5v1.2h6.5v33.1H1.2V1.2h262.7v33.1zm7.1 41.4H8.2v-5.8h256.9V35.5h5.8l.1 40.2zM63.4 97.1c-.1 0-.1 0 0 0-.1.1 0 .1 0 .1.3 0 .5.3.5.6 0 .2 0 .4-.1.6l-2.3 5.5-2.4-5.8c-.1-.1-.1-.3-.1-.5s.1-.3.3-.4l.1-.1s0-.1-.1-.1h-2.1s-.1 0-.1.1c0 0 0 .1.1.1s.5.2.9 1.2l3.2 7.6h.2l3.1-7.6c.5-1.1.9-1.2.9-1.2s.1 0 .1-.1c0 0 0-.1-.1-.1l-2.1.1zm7.9 7.4v-6.2c0-1 .5-1.1.5-1.1s.1 0 .1-.1c0 0 0-.1-.1-.1h-2s-.1 0-.1.1c0 0 0 .1.1.1 0 0 .5.1.5 1.1v6.2c0 1-.5 1.1-.5 1.1s-.1 0-.1.1 0 .1.1.1h2s.1 0 .1-.1c0 0 0-.1-.1-.1 0 0-.5-.1-.5-1.1zm10.9-.2c-.3.5-.9.8-1.5.8h-1.9v-3.4H81c.3 0 .5.1.7.3h.1v-1.3s0-.1-.1-.1h-.1c-.2.2-.4.3-.7.3h-2v-3.4h1.6c.7 0 1.1.2 1.3.7 0 0 0 .1.1.1 0 0 .1 0 .1-.1V97s0-.1-.1-.1h-4.5s-.1 0-.1.1c0 0 0 .1.1.1 0 0 .5.1.5 1.1v6.1c0 1.1-.5 1.2-.5 1.2s-.1 0-.1.1c0 0 0 .1.1.1H82s.1 0 .1-.1l.2-1.3h-.1c.1 0 0 0 0 0zm14.4-7.2c-.1.1 0 .1 0 .2.2 0 .4.2.4.5 0 .2-.1.5-.1.7l-1.8 5.1-2.3-6.6s0-.1-.1-.1c0 0-.1 0-.1.1l-2.4 6.6-1.5-4.9c0-.2-.1-.3-.1-.4-.1-.2-.1-.4-.1-.6 0-.2.1-.3.3-.3 0 0 .1 0 .1-.1 0 0 0-.1-.1-.1h-2.1s-.1 0-.1.1c0 0 0 .1.1.1.4.1.7.5.9 1.2l2.4 7.6s0 .1.1.1c0 0 .1 0 .1-.1l2.4-6.6 2.3 6.6s0 .1.1.1c0 0 .1 0 .1-.1l2.7-7.6c.4-1 .8-1.2 1-1.2 0 0 .1 0 .1-.1 0 0 0-.1-.1-.1l-2.2-.1zm20 7.4l-3.2-7.7h-.2l-3.2 7.7c-.5 1.2-.8 1.2-.8 1.2s-.1 0-.1.1c0 0 0 .1.1.1h1.8s.1 0 .1-.1v-.1c-.2-.1-.3-.3-.3-.5 0-.3.1-.5.2-.7l.8-1.9h3l.8 2.1c.1.2.2.5.2.7 0 .2-.1.3-.3.4v.1s0 .1.1.1h2.1s.1 0 .1-.1c0 0 0-.1-.1-.1-.2-.2-.6-.3-1.1-1.3zm-2.2-2.7H112l1.2-3 1.2 3zm12.8 2.5c-.3.5-.9.8-1.5.8h-2v-6.8c0-1 .5-1.1.5-1.1s.1 0 .1-.1c0 0 0-.1-.1-.1h-2s-.1 0-.1.1c0 0 0 .1.1.1 0 0 .5.1.5 1.1v6.1c0 1.1-.5 1.2-.5 1.2s-.1 0-.1.1 0 .1.1.1h4.8s.1 0 .1-.1l.2-1.3c0-.1 0-.1-.1-.1zm9.9 0c-.3.5-.9.8-1.5.8h-2v-6.8c0-1 .5-1.1.5-1.1s.1 0 .1-.1c0 0 0-.1-.1-.1h-2s-.1 0-.1.1c0 0 0 .1.1.1 0 0 .5.1.5 1.1v6.1c0 1.1-.5 1.2-.5 1.2s-.1 0-.1.1c0 0 0 .1.1.1h4.8s.1 0 .1-.1l.2-1.3c.1-.1.1-.1-.1-.1.1 0 0 0 0 0zm16.2-7.4c-2.5 0-4.5 1.9-4.6 4.4 0 2.5 1.9 4.5 4.4 4.6 1 0 2-.3 2.8-.9v-.8h-.1c-.7.6-1.6.9-2.5.9-2 0-3.4-1.6-3.4-3.9 0-2.2 1.3-3.7 3.3-3.7 1.1 0 2 .5 2.6 1.4h.1s.1 0 .1-.1v-1.5c-.9-.2-1.8-.4-2.7-.4zm12.4 0c-2.4-.1-4.4 1.7-4.6 4.1v.5c-.1 2.3 1.6 4.2 3.9 4.4h.4c2.4.1 4.4-1.7 4.6-4.1v-.5c.1-2.3-1.6-4.2-3.9-4.4h-.4zm0 8.3c-2 0-3.5-1.7-3.5-3.7v-.2c0-2.2 1.3-3.7 3.1-3.7 2 0 3.5 1.7 3.5 3.7v.2c.1 2.2-1.2 3.7-3.1 3.7zm18.2-.6v-6.3c0-.9.4-1 .5-1.1 0 0 .1 0 .1-.1 0 0 0-.1-.1-.1h-1.6l-2.9 6.8-3-6.8h-1.8s-.1 0-.1.1c0 0 0 .1.1.1.2 0 .6.2.6 1v6.2c0 1-.5 1.1-.6 1.2 0 0-.1 0-.1.1 0 0 0 .1.1.1h1.8s.1 0 .1-.1c0 0 0-.1-.1-.1 0 0-.5-.1-.5-1.2v-5.7l3.1 7.1h.2l3.1-7.1v5.8c0 1-.4 1.1-.4 1.1s-.1 0-.1.1c0 0 0 .1.1.1h1.9s.1 0 .1-.1c0 0 0-.1-.1-.1 0 0-.4-.1-.4-1zm7.5-.1v-6.2c0-1 .5-1.1.5-1.1s.1 0 .1-.1c0 0 0-.1-.1-.1h-2s-.1 0-.1.1c0 0 0 .1.1.1 0 0 .5.1.5 1.1v6.2c0 1-.5 1.1-.5 1.1s-.1 0-.1.1c0 0 0 .1.1.1h2s.1 0 .1-.1c0 0 0-.1-.1-.1 0 0-.5-.1-.5-1.1zm10.3-7.6c-2.5 0-4.5 1.9-4.6 4.4 0 2.5 1.9 4.5 4.4 4.6 1 0 2-.3 2.8-.9v-.8h-.1c-.7.6-1.6.9-2.5.9-2 0-3.4-1.6-3.4-3.9 0-2.2 1.3-3.7 3.3-3.7 1.1 0 2 .5 2.6 1.4h.1s.1 0 .1-.1v-1.5c-.9-.2-1.8-.4-2.7-.4zm10.9 4c-1-.5-1.9-.9-1.9-1.8 0-.8.6-1.5 1.4-1.5h.1c.9 0 1.7.6 2 1.4 0 0 .1.1.1 0v-1.5c-.6-.4-1.4-.6-2.1-.6-1.3-.1-2.4.9-2.4 2.2v.1c0 1 .6 1.7 2.1 2.4s1.9 1.2 1.9 2c0 .9-.7 1.6-1.5 1.6h-.1c-1 0-1.9-.7-2.3-1.6 0 0 0-.1-.1 0 0 0-.1 0-.1.1v1.6c.7.5 1.5.7 2.3.7 1.4.1 2.6-1 2.6-2.3v-.2c.2-1.6-1-2.2-2-2.6z"/><path class="st0" d="M53.9 25.3c-.1.2-.2.3-.4.2-.1 0-.3-.1-.4-.1-.2 0-.4.2-.6.5-.7 1.2-1.5 2.5-2.3 3.7v7.9c0 1.9 0 4.2.1 7s.1 4.1.1 3.9c0 .2-.2.3-.5.5-.3.1-.6.2-1 .2s-.6-.2-.6-.5c0 .2 0-1.1.1-4s.1-5.3.1-7.1V32c-1.4 1.9-2.9 3.6-4.4 5.3-.1 0-.2 0-.3-.1-.1-.1-.1-.2-.1-.3 2.9-3.6 5.2-7.6 6.9-11.9.1-.3.2-.7.2-1 0-.2 0-.3.1-.5.1-.1.2-.1.3 0 .9.4 1.7.9 2.5 1.4.2 0 .2.2.2.4zm15.6 16.1c.1.1.2.2.2.4s-.1.3-.3.3h-8.7c0 .8 0 2.1.1 3.7s.1 2.4.1 2.4c0 .2-.2.3-.5.5-.3.1-.7.2-1 .2-.4 0-.6-.2-.6-.5.1-3.9.2-6.2.2-6.8V30.5h-2.3c-1.3 2.1-2.9 4.1-4.6 5.8-.1 0-.2 0-.3-.1-.1-.1-.1-.2-.1-.3 2.6-3.2 4.5-7 5.7-10.9.1-.4.1-.8.1-1.2 0-.3.2-.3.4-.3l2.6 1.3c.1.1.2.2.1.4 0 .2-.2.3-.4.2h-.6c-.2.1-.3.2-.4.4-.6 1.3-1.3 2.6-2.1 3.8h8.5c.1 0 .2 0 .3-.1l1.3-1.3c.1-.1.3-.2.5-.1.7.6 1.3 1.1 1.8 1.5.1.1.2.3.2.4 0 .1-.1.3-.2.3h-8.8v5H65c.1 0 .2 0 .3-.1.3-.4.7-.8 1.1-1.2.1-.1.4-.2.5 0 .6.4 1.1.9 1.6 1.5.1.1.2.2.2.4s-.1.3-.4.3h-7.6v5h4.9c.1 0 .2 0 .3-.1l1.3-1.3c.1-.1.3-.2.5 0 .7.5 1.3 1.1 1.8 1.6zm24.2-3.1c.2.2.2.4-.1.5l-.8.4c-.2.1-.3.3-.2.5 0 1.1 0 2.6.1 4.6s.1 2.9.1 2.8c0 .2-.2.4-.5.5-.3.2-.7.3-1 .3-.4 0-.5-.2-.5-.5v-.9h-5.2v1.3c0 .2-.2.3-.5.5s-.7.2-1.1.2c-.3 0-.5-.1-.5-.4 0 .1 0-1 .1-3s.1-3.7.1-4.9c.1-1.1 0-2.1-.3-3.2-.1-.1 0-.2.1-.3.1-.1.2-.1.3 0 .8.4 1.4.8 2 1.1H90c.1 0 .2 0 .3-.1l1-1c.2-.2.4-.2.6 0 .6.5 1.2 1 1.8 1.6zm-3.1 7.4v-6.9h-5.2v6.9h5.2zM102.5 26c.2.2.2.4-.1.6-.2.1-.5.2-.9.4-.1.1-.2.2-.2.5 0 .9 0 2.3.1 4.1.1 1.8.1 2.6.1 2.5 0 .2-.2.4-.5.5-.3.2-.7.3-1.1.2-.4 0-.5-.1-.5-.4v-.7H90v1.1c0 .2-.2.3-.5.5s-.7.2-1.1.2c-.2 0-.5-.1-.5-.4V35c0 .1 0-.8.1-2.6s.1-3.5.1-4.9c0-.9-.1-1.8-.3-2.7-.1-.1 0-.2 0-.3.1-.1.2-.1.3 0 .4.2 1.2.6 2.1 1.2h8.4c.1 0 .3 0 .4-.1.2-.3.6-.6 1-1 .2-.2.4-.2.6 0 .7.3 1.3.8 1.9 1.4zm-3.1.5H90v6.3h9.4v-6.3zm7.4 11.8c.3.2.2.4 0 .5-.3.1-.6.3-.9.4-.1.1-.2.2-.2.5 0 1 0 2.5.1 4.5s.1 2.9.1 2.8c0 .2-.2.4-.5.6-.3.2-.7.3-1.1.3-.4 0-.5-.2-.5-.5v-.9h-5.5v1.3c0 .2-.2.3-.4.5-.3.2-.7.2-1 .2-.4 0-.6-.1-.6-.4 0 0 0-.9.1-2.9s.1-3.6.1-4.8c.1-1.1 0-2.2-.3-3.3-.1-.1 0-.2 0-.3.1-.1.2-.1.3 0 .5.3 1.2.7 2 1.1h4.6c.1 0 .3 0 .4-.1.2-.3.6-.6.9-1 .2-.2.4-.2.6 0 .5.4 1.2.9 1.8 1.5zm-3.1.5h-5.5v6.9h5.5v-6.9zm38.1-3.7c-2.7 1.2-5.3 2.5-7.7 4.1.2 1.3.3 2.6.3 3.9 0 .4-.1.7-.4 1-.2.2-.5.4-.9.4-.5 0-.7-.3-.7-.8v-3.3c-.9.6-1.7 1.1-2.3 1.5-.9.5-1.4 1.5-1.4 2.5.1.7.7 1.2 1.7 1.4.8.1 1.7.2 2.6.2 1.6 0 3.1-.2 4.6-.6.4-.1.8-.1 1.1 0 .8.4 1.2.8 1.2 1.2 0 .3-.2.5-.7.7-2.1.4-4.3.6-6.4.6-4 0-6-1-6.1-3.1 0-.8.2-1.5.7-2.1.6-.7 1.3-1.3 2.1-1.8.6-.4 1.5-1 2.8-1.7-.3-2.5-1.1-3.7-2.4-3.7-1 0-2 .4-2.8 1.1-.8.7-1.5 1.5-2.1 2.5-.3.6-.6.8-.9.8-.3 0-.6-.2-.7-.5-.2-.3-.3-.6-.4-.9.1-.5.3-.9.7-1.2 1.9-1.9 3.6-4.1 5-6.4h-1.8c-1.9 0-2.8-.9-2.8-2.8.1-.2.3-.2.5-.2 0 0 .1 0 .1.1.1.9.9 1.4 2.3 1.4.9 0 1.8-.1 2.7-.2.5-.8.8-1.6 1-2.5 0-.7-.5-1.3-1.2-1.4-.1-.1-.1-.4 0-.5 0 0 .1 0 .1-.1 1 0 1.9.3 2.8.8.3.2.5.5.5.8 0 .3-.2.6-.4.8-.2.3-.5.5-.7.8l-.6 1c.5-.1 1-.2 1.5-.4.4-.1.9-.1 1.3.2.4.3.6.6.6.8 0 .3-.2.5-.6.6-1.3.3-2.6.5-3.9.6-1.2 1.9-2.1 3.5-3 4.7.8-.7 1.8-1.1 2.8-1.1 1.6 0 2.9 1 3.4 2.5.4-1.3 1.2-2.5 2.2-3.5.9-.9 2.2-1.5 3.5-1.5 1-.1 1.9.2 2.7.7.5.3.8.8.8 1.4.2.6-.2 1.1-.7 1.2zm-2.5-.2c.7-.4 1-.8 1-1.2 0-.5-.4-.7-1.2-.7-1.3 0-2.5.6-3.3 1.6-.9 1-1.5 2.2-1.9 3.5l5.4-3.2zm28.1-5.8c.1.1.2.2.2.4s-.1.3-.3.3H159c-.2 0-.7 0-1.5.1l-.2-1.2c.6.1 1.1.2 1.7.2h5.1c.1 0 .2 0 .3-.1.5-.5.8-.8.9-1 .1-.1.4-.2.5 0 .6.4 1.1.8 1.6 1.3zm-.6 11.1c.2.2.2.4-.1.5-.3.2-.5.3-.8.5 0 .1-.1.1-.1.2 0 .7.1 2.4.2 5.1 0 .2-.1.4-.4.5-.3.2-.7.3-1 .2-.2 0-.5-.1-.5-.4v-.5h-3.9v1.8c0 .5-.4.8-1.3.8-.3 0-.5-.2-.5-.5 0 .1 0-.6.1-2s.1-2.9.1-4.3c.1-1.1 0-2.1-.3-3.2-.1-.1 0-.2 0-.3.1-.1.2-.1.3 0 .6.3 1.2.7 1.9 1.1h3.1c.1 0 .2 0 .3-.1.2-.3.5-.5.7-.8.1-.1.3-.2.5-.1.7.6 1.3 1 1.7 1.5zm-.6-14.8c.1.1.2.2.2.4s-.1.3-.3.3h-6c-.2 0-.7 0-1.5.1l-.2-1.2c.6.1 1.1.2 1.7.2h2.9c.1 0 .2-.1.3-.1l.9-.9c.1-.2.3-.2.5 0 .6.5 1.1.8 1.5 1.2zm-.1 7.3c.1.1.2.2.2.4s-.1.4-.3.4h-5.6c-.2 0-.8 0-1.5.1l-.2-1.2c.6.1 1.1.2 1.7.2h2.6c.1 0 .2 0 .3-.1l.9-.9c.1-.2.4-.2.5 0 .4.3.9.7 1.4 1.1zm-.2 3.6c.1.1.2.2.2.4s-.1.3-.3.3h-5.5c-.2 0-.8 0-1.5.1l-.2-1.2c.6.1 1.1.2 1.7.2h2.4c.1 0 .2-.1.3-.1l.9-.9c.1-.1.4-.1.5 0 .6.4 1 .8 1.5 1.2zm-1.7 4.4h-3.9v4.8h3.9v-4.8zm9.8-3.1c0 .2-.1.3-.3.3-.5 0-.7.2-.7.5-.2 6.1-2.8 9.7-8 10.7-.3-.2-.3-.3-.2-.6 1.8-.5 3.4-1.6 4.5-3.2 1.3-2.1 1.9-4.6 1.8-7 0-.4 0-.9-.1-1.3-.1-.1-.1-.2 0-.3.1-.1.2-.1.3-.1.8.2 1.7.4 2.6.6.1 0 .2.2.1.4zm9-1.9c-.2.2-.4.3-.6.2-.4-.2-.9 0-1.3.3l-2.2 2c-.3 0-.4-.1-.5-.3.5-.8.9-1.7 1.2-2.6h-10.2c.1 2.3-.7 3.7-2.2 3.9-.3.1-.5 0-.7-.2-.2-.2-.3-.4-.3-.7 0-.3.2-.7.5-.8 1.2-.7 1.8-2 2-4 .1-.2.3-.2.5-.1 0 0 .1 0 .1.1.1.4.1.7.1 1h10c.1 0 .3 0 .4-.1.1-.1.4-.4 1-.8.2-.1.4-.1.5 0 .7.7 1.3 1.2 1.7 1.7.1 0 .1.3 0 .4zm-.6-8.4c.1.1.2.3.2.4 0 .2-.1.3-.4.3h-7.1v3h3c.1 0 .2-.1.3-.1.3-.3.7-.7 1.1-1.2.1-.1.3-.2.5 0 .6.4 1.1.9 1.6 1.5.1.1.2.3.2.4 0 .2-.1.3-.4.3h-11.7c-.5 0-1 .1-1.5.1l-.2-1.2c.6.1 1.1.2 1.7.2h3.7v-3h-4.5c-.2 0-.7 0-1.5.1l-.2-1.2c.6.1 1.1.2 1.7.2h4.5v-2c0-.4 0-.9-.2-1.3-.1-.1-.1-.2 0-.3.1-.1.1-.1.3-.1.7.1 1.5.3 2.6.6.2 0 .3.2.2.3 0 .2-.1.3-.2.3-.6 0-.9.2-.9.6V27h3.7c.1 0 .2-.1.3-.1.3-.3.7-.7 1.1-1.2.1-.1.3-.2.4 0 .6.6 1.2 1.1 1.7 1.6zm.9 19.6c0 .5-.5.9-1.4 1.1-1.8.3-3.6.3-5.3.2-.7.1-1.3-.5-1.4-1.2v-8.7c0-.5 0-.9-.2-1.3-.1-.1-.1-.2 0-.3.1-.1.2-.1.3-.1.5.1 1.4.3 2.5.6.2 0 .2.2.2.3 0 .2-.1.3-.3.3-.5 0-.8.3-.8.6v7.3c0 .4.2.6.7.7.7 0 1.4 0 2.2-.1.4 0 .7-.3.8-.6.5-1.4.8-2.9 1.1-4.3.2-.1.4-.1.5 0v.1c-.1 1.7-.2 3-.2 3.9 0 .3.1.5.3.6.7.2 1 .5 1 .9zm35.9-13.1c-.1.5-.4.8-.7.8-.3 0-.6-.1-.8-.3-.5-.3-1-.4-1.6-.4-.7 0-1.4.1-2.1.2-.2-.2-.3-.4-.1-.6.6-.1 1.4-.3 2.3-.5.2-.1.3-.3.1-.8-.2-.4-.5-.7-.8-.9-.3-.3-.6-.4-1-.4-.4.1-.7.3-.9.6-.2.8-.3 1.6-.3 2.4 0 2 .3 3.9.7 5.8.5 2.1.7 3.2.7 3.5 0 1.3-.9 2.5-2.1 3-1.8.8-3.8 1.2-5.8 1.1-4.2 0-6.3-1.2-6.3-3.7 0-.7.1-1.5.4-2.2-1.4-.9-2.4-2.4-2.4-4.1 0-.3-.1-.6-.1-.9-.1-1 .2-1.9.8-2.6.5-.6 1.2-.9 2-.8.2 0 .4 0 .6.1v-2c-.5.1-1.1.1-1.6.1-1.3.2-2.5-.7-2.7-2.1v-.7c.1-.2.3-.2.5-.2 0 0 .1 0 .1.1.1 1 .9 1.5 2.3 1.5.5 0 1-.1 1.5-.2V27c.1-.4-.2-.8-.5-.9-.3-.1-.7-.2-1.1-.3-.2-.1-.2-.3-.1-.5l.1-.1c1-.2 2.1-.1 3 .3.5.2.8.5.8.8-.1.3-.2.6-.3.8-.2.4-.3.7-.4 1.1 0 .3-.1.5-.1.8.5-.2 1.1-.5 1.7-.8.3-.1.7 0 1.3.3.2.1.3.3.3.5 0 .3-.2.5-.6.6-.9.4-1.9.7-2.8.9v.3c0 .9 0 1.8.1 2.6.6.6.9 1.5.8 2.4-.3 1.1-.6 2.1-1.1 3.1-.1.2-.2.5-.2.8 0 0 .1.2.2.7 0 .1.1.2.1.3 0 .6-.3.8-1 .7-.1.5-.2 1-.2 1.5 0 1 .6 1.6 1.9 1.8 1 .1 2.1.2 3.1.2 4.1 0 6.2-.9 6.2-2.7 0-.2-.1-1.4-.4-3.5-.2-1.7-.4-3.4-.4-5.1-.1-1.1.1-2.2.5-3.3.3-.5.7-.9 1.3-1.1.2-.1.4-.1.6-.1 1.4.1 2.6.7 3.5 1.8.5.5.9 1.1.9 1.8.1.7.1.9.1 1.1zM202 36.1c0-1.2-.3-1.9-.9-1.9-.8 0-1.3.7-1.3 2-.1 1 .3 2 1 2.8.3.2.4.4.6.4.2 0 .4-.4.5-1.1 0-.7.1-1.4.1-2.2z"/></g></svg>