<svg xmlns="http://www.w3.org/2000/svg" width="122.049" height="18"><path d="M18.079 4.106c0 .254-.29.407-.755.407a2.69 2.69 0 01-.408-.037 15.408 15.408 0 01-1.568 1.2.417.417 0 01-.388.213H12.5a11.7 11.7 0 00-1.706.1 1.592 1.592 0 01-.386-.912 16.6 16.6 0 002.286.154h.506a4.1 4.1 0 01.716-.7.164.164 0 01.1-.021.453.453 0 01.193.042 5.484 5.484 0 01.814.522c.194-.311.446-.756.64-1.142H9.689v1.456c0 .832.039 1.646.059 2.48v.037c0 .467-.582.506-.833.506-.311 0-.621-.078-.621-.448v-.017a25.934 25.934 0 00.1-2.658V3.935H2.712C2.48 5.757 1.493 6.821.658 6.821A.636.636 0 010 6.141a.96.96 0 01.446-.832 3.434 3.434 0 001.648-2.771c0-.115.154-.194.31-.194.367 0 .367.157.367.891H8.39v-1.3H6.918c-.853 0-3.373.018-4.206.115a1.429 1.429 0 01-.367-.969c.93.1 3.72.193 5.058.193h5.755C13.972.136 14.283.136 14.36.136c.309 0 1.782 1.009 1.782 1.414a.406.406 0 01-.445.389H9.689v1.3h6.084c.389-.386.6-.6.737-.6.077-.005 1.569.889 1.569 1.467zM7.577 7.4c0 .176-.174.308-.408.308H4.515c-.6 0-1.182.079-1.763.119a1.64 1.64 0 01-.369-.91 16.679 16.679 0 002.287.153h.718c.057-.079.6-.756.852-.756.271.002 1.337.701 1.337 1.086zm.078-1.84c0 .195-.176.329-.407.329h-2.5a11.989 11.989 0 00-1.726.1 1.649 1.649 0 01-.367-.912 16.031 16.031 0 002.245.154h.581A2.688 2.688 0 016.3 4.5c.251 0 1.355.672 1.355 1.062zm4.824 11.916c-2.79 0-4.147-.116-4.147-2.149v-.99h-3.9v.213c0 .193.02.369.02.525 0 .385-.117.7-.852.7-.33 0-.583-.093-.583-.464v-.079c.02-.078.117-2.207.117-2.537v-2.038a15.262 15.262 0 00-.173-2.268 6.554 6.554 0 011.569.7h9.127a3.946 3.946 0 01.523-.585.232.232 0 01.156-.074c.116 0 1.374.617 1.374 1.1 0 .215-.154.428-.619.563v2.384c0 .35.02 1.162.038 1.456.021.248.058.617.058.732v.039c0 .039 0 .582-.872.582-.446 0-.6-.174-.6-.465 0-.078.019-.289.019-.484H9.651v.738c0 .91.233 1.123 2.809 1.123 3.237 0 3.643-.347 3.836-.93a20.21 20.21 0 00.583-3.295.241.241 0 01.27-.2c.2 0 .428.115.428.291v.02c-.1.853-.253 3.1-.253 3.138 0 .389 0 .389.348.487a.556.556 0 01.427.562c.001.957-1.937 1.207-5.62 1.207zM8.332 9.747h-3.9v1.609h3.9zm0 2.266h-3.9v1.649h3.9zm5.447-2.266H9.651v1.609h4.128zm0 2.266H9.651v1.649h4.107c.021-.292.021-.622.021-.872zm1.975-4.629c0 .194-.173.326-.406.326h-2.771a12.465 12.465 0 00-1.7.119 1.632 1.632 0 01-.388-.91 16.913 16.913 0 002.287.153h.814a4.078 4.078 0 01.717-.716.336.336 0 01.135-.04c.208 0 1.312.677 1.312 1.068zM38.707 8.7a.434.434 0 01-.446.426H30.8v3.681c0 .525.058 2.113.058 2.5v.039c0 1.416-1.8 2.344-2.674 2.344a.436.436 0 01-.406-.25c-.253-.543-.737-.659-2.559-1.01-.077-.018-.116-.153-.116-.31 0-.192.059-.387.174-.387h.02a24.182 24.182 0 002.848.234 1.152 1.152 0 001.221-1.145l.02-5.7h-2.133c-.676 0-4.63.079-5.58.174a2.319 2.319 0 01-.445-1.163c1.124.158 5.7.234 6.8.234h1.357v-.578a16.136 16.136 0 00-.2-2.558c.37.039.756.078 1.086.118a23.356 23.356 0 003.159-2.926h-4.3c-1.141 0-4.475.095-5.289.172a2.792 2.792 0 01-.465-1.1c1.24.117 4.864.176 5.775.176h4.553c.31-.293.678-.6.853-.6.311 0 1.7.968 1.7 1.435 0 .269-.328.463-.91.463a1.42 1.42 0 01-.29-.02 45.436 45.436 0 01-3.876 2.6.393.393 0 01.175.294c0 .211-.194.385-.542.481-.014.226-.014 1.06-.014 2.048h4.806c.872-1.163 1.027-1.379 1.2-1.379.35 0 1.726 1.359 1.783 1.418a.426.426 0 01.118.289zm10.842-3.022c0 .231-.253.348-.543.348h-4.671l.019 1.319v.58c0 .464 0 .912-.019 1.338h1.783c.349-.426.543-.621.716-.621a2.328 2.328 0 011.319 1.123c0 .176-.136.367-.581.524-.039.368-.039.814-.039 1.163l.019 3.625c0 .27.038 1.664.059 1.86 0 .115.019.309.019.425 0 .35-.252.522-.872.522-.407 0-.542-.153-.542-.443 0-.116.037-.678.037-.931V10h-1.936c-.175 3.487-.893 5.717-2.481 7.653a.186.186 0 01-.174.079.355.355 0 01-.349-.311.219.219 0 01.038-.137c1.221-2.032 1.7-4.319 1.7-9.263V7.44c0-1.005-.039-5.483-.271-6.995.232 0 2.035.038 2.035.583 0 .268-.368.424-.542.484 0 .832.039 2.5.057 3.837h1.686V2.307A11.837 11.837 0 0045.866.2c1.356.037 1.977.211 1.977.542 0 .192-.213.408-.6.5v4.107h.272c.019-.061.5-1.067.755-1.067a3.009 3.009 0 011.279 1.396zm10.405 10.656c0 .176-.135.387-.252.407a2.583 2.583 0 00-1.1.487.306.306 0 01-.214.078c-.232 0-1.937-.99-3.468-3.47a11.381 11.381 0 01-5.135 3.973.455.455 0 01-.368-.41.186.186 0 01.116-.171 11.71 11.71 0 004.787-4.516 20.382 20.382 0 01-1.842-6.277H51.6c0 .386.018.734.018 1.1 0 5.293-1.085 7.541-2.964 9.789a.21.21 0 01-.174.074c-.2 0-.427-.171-.427-.347a.289.289 0 01.039-.1c1.588-2.267 2.21-4.477 2.21-9.437a62.972 62.972 0 00-.308-6.64 6.676 6.676 0 011.667.734h4.728c.329-.486.91-1.22 1.1-1.22.231 0 1.685 1.086 1.685 1.551 0 .172-.116.326-.406.326h-7.244c.02 1.088.039 2.443.06 3.469H56.6c.387-.562.543-.579.62-.579.272 0 1.376.891 1.376 1.24 0 .213-.214.387-.621.482a18.255 18.255 0 01-2.344 5.931 8.874 8.874 0 004.186 3.313.211.211 0 01.137.213zm-6.84-9.9a15.671 15.671 0 001.783 5.23 16.274 16.274 0 001.667-5.23zm25.724 1.181c0 .484-.407.563-.718.6a4.292 4.292 0 00-.736.136 35.288 35.288 0 00-4.843 2.034c0 3.137-.233 3.527-.854 3.527-.407 0-.6-.483-.6-.989a2.96 2.96 0 01.115-.7 2.577 2.577 0 00.058-.543c.02-.233.02-.467.039-.678-1.569.968-2.732 1.957-2.732 3 0 1.53 2.441 1.724 3.448 1.724a5.4 5.4 0 002.25-.426 1.744 1.744 0 01.871-.194c.872 0 1.182.33 1.182.739 0 .326-.193.657-.756.831a12.787 12.787 0 01-3.275.446c-2.13 0-4.631-.988-4.631-2.828 0-1.532 1.725-3.026 3.643-4.244 0-.117-.019-.252-.019-.368-.039-.894-.388-1.707-1.2-1.707-1.3 0-2.906 2-3.2 2.656a2.078 2.078 0 01-.291.542.926.926 0 01-.659.252c-.154 0-.658-.038-.658-.969a.9.9 0 01.058-.332 7.339 7.339 0 011.007-1.026 19.758 19.758 0 002.887-3.912 10.381 10.381 0 01-1.9.231c-1.724 0-2.421-.833-2.421-1.627 0-.231.1-.465.27-.465a.425.425 0 01.311.174 3.107 3.107 0 002.035.873 18.341 18.341 0 002.248-.311 6.14 6.14 0 00.388-1.609c0-.465-.427-.66-1.144-.754-.116-.021-.309-.078-.309-.254 0-.386.774-.446.986-.446.776 0 1.862.485 1.862 1.165 0 .094 0 .115-.2.6a9.784 9.784 0 00-.419 1.037 3.854 3.854 0 001.356-.524 2.4 2.4 0 011.241-.252c.33 0 .949.039.949.581 0 .371-.291.542-.774.679s-.969.194-1.454.31c-.543.116-1.22.272-1.917.407a36.309 36.309 0 01-2 3.08 3.4 3.4 0 012-.8 2.187 2.187 0 012.15 2.133c1.278-.716 2.828-1.512 4.05-2.133.058-.037.425-.191.444-.269 0-.33-.891-.348-1.123-.348-.271 0-.388-.117-.388-.254a.417.417 0 01.446-.367h.116c2.616.003 2.811 1.241 2.811 1.572zm10.648-5.871c0 .2-.155.388-.6.521v7.21c0 .29.058 1.92.058 2.268l.02.717c0 .464-.62.5-.834.5-.349 0-.5-.115-.5-.389v-.426h-2.08v.717a.446.446 0 01-.114.311c.948.289 1.569.6 1.569.912 0 .213-.272.387-.678.4C85.2 16.413 83.5 18 83.128 18a.326.326 0 01-.329-.327.318.318 0 01.1-.215 8.2 8.2 0 002.344-4.146 1.25 1.25 0 01-.5.1c-.31 0-.542-.1-.542-.426v-.057c0-.116.039-.406.058-.736.019-.62.058-1.8.058-2.288V2.927A15.673 15.673 0 0084.118.6a8.274 8.274 0 011.628.7h1.762a7.237 7.237 0 01.523-.522.317.317 0 01.195-.078c.274 0 1.26.715 1.26 1.044zM85.55 5.27l-.018 2.713h2.112V5.27zm-.018 3.372v1.568c0 .2 0 .758.018 1.262h2.076c0-.486.018-1.414.018-1.666V8.642zm2.112-6.685H85.55v2.635h2.094zm2.286 14.61c0 .911-.6.932-.619.932-.31 0-.543-.369-.658-.758a8.376 8.376 0 00-1.688-3.118.321.321 0 01-.057-.174.315.315 0 01.29-.294c.194 0 2.732 2.055 2.732 3.412zm11.454-3.255a.344.344 0 01-.388.329H99.31v.911c0 .562.02.892.02 1.1v.1a1.939 1.939 0 01-1.861 1.936.348.348 0 01-.309-.213c-.156-.289-.351-.426-1.881-.757-.1-.017-.135-.134-.135-.248 0-.176.077-.37.213-.37h.019a14.751 14.751 0 001.879.194c.64 0 .834-.251.834-.776v-1.88h-6.008v.988c0 .369.021 1.185.021 1.687 0 .232.018.658.038.833v.04c0 .5-.582.6-.852.6-.369 0-.5-.157-.5-.447v-.1c.019-.272.058-.736.058-.968.021-.39.058-1.318.058-1.763v-.853c-.5.019-1.026.058-1.357.095a1.566 1.566 0 01-.405-.967c.387.059 1.085.1 1.762.134v-2.278a17.355 17.355 0 00-.134-2.829 5.547 5.547 0 011.51.658h2.133V7.093h-1.382c-.775 0-2.538.017-3.2.116a1.43 1.43 0 01-.388-.952c.621.078 2.229.156 3.352.2V4.746c-.7.02-1.8.04-2.344.118a1.517 1.517 0 01-.387-.951c.562.079 1.8.137 2.731.156V2.634c-.794 0-2.111.04-2.692.115a1.607 1.607 0 01-.388-.986c.6.076 2.015.154 3.08.176A10.708 10.708 0 0092.644.02c1.628 0 1.956.25 1.956.485 0 .174-.233.406-.621.541 0 .136 0 .466-.019.911h2.092A10.879 10.879 0 0095.9 0c1.24 0 1.977.116 1.977.522 0 .231-.253.389-.621.506 0 .135 0 .484-.019.929h1.047c.154-.233.716-.989.911-.989s1.53.91 1.53 1.339c0 .211-.193.327-.426.327h-3.063v1.455h.64c.04-.06.7-.971.891-.971.272 0 1.55.951 1.55 1.321 0 .19-.193.307-.425.307h-2.637v1.706h1.337c.078-.136.7-1.008.95-1.008.233 0 1.57.912 1.57 1.356 0 .193-.195.293-.426.293H95.57v1.375h2.383c.446-.58.581-.621.66-.621.251 0 1.318.717 1.318 1.127 0 .211-.175.4-.621.542-.02.211-.02.29-.02 1.28l.02 2.128c.1-.2.543-.986.755-.986.194 0 1.319.949 1.319 1.374zm-6.976-4.148h-2.327v1.475h2.327zm0 2.171h-2.327v1.646h2.327zm1.645-8.7h-2.092v1.454h2.092zm0 2.112h-2.092v1.705h2.092zm2.036 4.418H95.57v1.475h2.519zm-2.519 2.17v1.646h2.519v-1.646zm26.479 4.75c0 .193-.116.4-.253.4h-.037a2.646 2.646 0 00-1.414.64.273.273 0 01-.195.074c-.291 0-5.135-3.387-7.014-10.48a16.172 16.172 0 01-9.108 10.949c-.2 0-.349-.274-.349-.445a.172.172 0 01.078-.156c3.817-2.171 7.694-6.7 8.642-14.728H111c-.62 0-2.79.079-3.566.157a2.03 2.03 0 01-.426-1.106 37.5 37.5 0 003.837.194h1.162c.349-.426.66-.757.814-.757.272 0 1.377.874 1.377 1.222 0 .057 0 .387-.989.5a15.912 15.912 0 008.7 13.273.249.249 0 01.14.263z" fill="#fff" data-name="レイヤー 2"/></svg>