<svg xmlns="http://www.w3.org/2000/svg" width="82.464" height="28.969"><path d="M28.7 16.009a.647.647 0 01.224.448q0 .384-.352.384H1.952c-.277 0-.844.054-1.7.16L0 15.625a10.056 10.056 0 001.952.256h11.456v-2.368h-8.8q-.417 0-1.7.16L2.624 12.3a10.521 10.521 0 001.984.256h8.8v-2.371H6.08q-.415 0-1.7.16l-.252-1.408a7.818 7.818 0 001.952.255h7.328V6.857H1.952c-.277 0-.844.053-1.7.16L0 5.608a7.484 7.484 0 001.952.257h11.456V3.5H6.08q-.415 0-1.7.16l-.252-1.379a7.774 7.774 0 001.952.256h7.328v-.608a3.248 3.248 0 00-.224-1.5C13.1.3 13.088.19 13.152.105a.392.392 0 01.352-.1q1.472.256 3.072.672a.355.355 0 01.256.416.344.344 0 01-.353.32q-.991.065-.991.735v.385h4.384a.477.477 0 00.352-.128q.32-.415.832-1.056.223-.255.608-.032a15.815 15.815 0 012.048 1.472c.234.191.181.416-.16.672q-.416.224-.832.479a.46.46 0 00-.256.449q0 .608.032 1.472h1.824a.549.549 0 00.352-.129l1.44-1.471a.409.409 0 01.576-.033A24.638 24.638 0 0128.7 5.993a.676.676 0 01.224.48q0 .384-.352.384h-6.044q.192 3.873.192 3.456 0 .319-.48.56a2.476 2.476 0 01-1.12.24q-.576 0-.576-.448v-.48h-5.056v2.368h5.92a.425.425 0 00.352-.16q.8-.8 1.056-1.072a.415.415 0 01.608-.016 15.425 15.425 0 011.792 1.376.613.613 0 01.192.448c0 .256-.118.384-.352.384h-9.568v2.368h8.832a.553.553 0 00.352-.128l1.44-1.472a.374.374 0 01.576-.032q1.152.929 2.012 1.76zm-4.192 3.52c.3.235.266.438-.1.608a10.177 10.177 0 00-1.185.672.989.989 0 00-.031.288q0 1.6.144 4.32t.144 2.688q0 .255-.544.5a2.982 2.982 0 01-1.216.24c-.406 0-.608-.16-.608-.481V27.4H7.648v.8c0 .17-.15.33-.448.48a2.9 2.9 0 01-1.248.256q-.672 0-.672-.544 0 .32.112-2.544t.112-5.36a6.591 6.591 0 00-.256-2.24.243.243 0 01.048-.32.324.324 0 01.368-.032q.833.512 2.24 1.344h12.608a.479.479 0 00.352-.128q.447-.512.9-1.056c.149-.192.352-.2.608-.033q1.276.835 2.14 1.506zm-3.388 3.328V20.2H7.648v2.656zm0 3.583v-2.624H7.648v2.624zm-.576-20.575V3.5h-5.056v2.365zm0 3.327V6.857h-5.056v2.335zM66.368 18.6c0 .214-.118.32-.352.32h-5.344v1.311q3.52.93 4.576 2.273a1.824 1.824 0 01.448 1.184A1.206 1.206 0 0164.9 25q-.544.192-.9-.448a9.728 9.728 0 00-3.328-3.52q.032 1.473.1 4.3t.064 2.895q0 .738-1.568.737-.544 0-.544-.512 0-.032.112-3.072t.112-4.416a27.482 27.482 0 01-6.016 6.816.424.424 0 01-.48-.48 31 31 0 005.632-8.384h-3.1q-.417 0-1.7.16l-.259-1.376a9.894 9.894 0 001.951.256h3.968v-2.72h-2.208q-.417 0-1.7.159l-.256-1.407a7.774 7.774 0 001.952.256h2.208v-2.619h-3.132q-.417 0-1.7.16l-.256-1.376a10.343 10.343 0 001.952.256h3.136V9.353a3.149 3.149 0 00-.224-1.472.274.274 0 010-.352.314.314 0 01.32-.1 24.663 24.663 0 012.56.576.332.332 0 01.256.384.354.354 0 01-.352.352q-.833.065-.832.736v1.184H62.3a.429.429 0 00.352-.16q.288-.32.768-.864a.388.388 0 01.576 0q1.5 1.28 1.5 1.632a.311.311 0 01-.352.352h-4.48v2.624h.9a.477.477 0 00.352-.128c.341-.341.587-.6.736-.768s.341-.17.577 0q1.535 1.152 1.535 1.536a.311.311 0 01-.352.352h-3.74v2.72h2.5a.477.477 0 00.352-.128q.288-.351.768-.9c.17-.17.362-.161.576.032q1.499 1.256 1.5 1.639zm.96-14.88a.613.613 0 01.192.448c0 .277-.118.416-.352.416h-5.312a4.421 4.421 0 012.3 2.048 1.57 1.57 0 01.224.8q0 1.12-.928 1.248-.608.065-.8-.672a8.268 8.268 0 00-1.984-3.424H59.04a35.652 35.652 0 01-5.76 5.792.477.477 0 01-.352-.128.435.435 0 01-.128-.32 33.314 33.314 0 003.168-3.936 19.722 19.722 0 002.592-4.48 4.058 4.058 0 00.16-.928.744.744 0 01.112-.5c.074-.074.2-.08.368-.016q1.216.545 2.72 1.408a.388.388 0 01.192.448.379.379 0 01-.448.256.984.984 0 00-1.088.368 11.322 11.322 0 01-.768 1.04h3.872a.475.475 0 00.352-.128l.928-1.088q.224-.256.608 0a20.369 20.369 0 011.76 1.349zm14.528 0a.647.647 0 01.224.448.368.368 0 01-.416.416h-9.44a4.493 4.493 0 011.92 1.983 1.932 1.932 0 01.16.737q0 1.185-.96 1.248-.608.064-.768-.672a8.177 8.177 0 00-1.664-3.3h-1.024a35.959 35.959 0 01-4.672 4.8c-.32-.021-.47-.181-.448-.48a29.266 29.266 0 002.592-3.451 22.4 22.4 0 002.14-4.032 7.939 7.939 0 01.228-1.344c.064-.085.171-.1.32-.032A23.531 23.531 0 0172.8 1.417a.3.3 0 01.16.416c-.043.191-.182.277-.416.256a1.082 1.082 0 00-1.12.416q-.351.513-.768 1.088h7.232a.475.475 0 00.352-.128q.48-.576 1.216-1.376A.366.366 0 0180 2.057a13.121 13.121 0 011.856 1.664zm.384 12.448a.576.576 0 01.224.448.339.339 0 01-.384.384H67.649c-.279 0-.854.054-1.729.16l-.256-1.408a7.774 7.774 0 001.952.256h2.464v-3.487h-1.632q-.415 0-1.7.16l-.248-1.376a9.98 9.98 0 001.952.256h1.628v-1.44a3.248 3.248 0 00-.224-1.5c-.085-.128-.1-.235-.032-.32a.348.348 0 01.32-.1q1.12.192 2.72.608a.355.355 0 01.256.416.343.343 0 01-.352.32q-.833.064-.832.736v1.28h3.1v-1.44a3.248 3.248 0 00-.224-1.5c-.086-.128-.086-.235 0-.32a.315.315 0 01.32-.1q1.088.192 2.688.608a.355.355 0 01.256.416.328.328 0 01-.32.32q-.833.064-.832.736v1.28h1.088a.475.475 0 00.352-.128l.992-1.088a.408.408 0 01.608-.032 15 15 0 011.5 1.376.647.647 0 01.224.448.339.339 0 01-.384.384h-4.376v3.488h1.888a.475.475 0 00.352-.128l.96-1.056a.38.38 0 01.608-.032 14.886 14.886 0 011.504 1.376zm-1.952 3.424q.449.384-.1.672-.256.16-.832.448a.517.517 0 00-.256.512q0 .96.112 3.792t.112 2.8q0 .29-.512.544a2.4 2.4 0 01-1.088.257c-.406 0-.608-.171-.608-.512v-.9h-7.164v1.023c0 .171-.149.332-.448.481a2.513 2.513 0 01-1.12.224c-.384 0-.576-.15-.576-.448q0 .032.1-2.832t.1-4.72a8.215 8.215 0 00-.288-2.56.244.244 0 01.048-.32.28.28 0 01.336-.033q1.344.673 2.24 1.185h6.24a.553.553 0 00.352-.128q.288-.32.96-.992a.427.427 0 01.64 0q.564.484 1.752 1.508zm-3.168.576h-7.168v2.464h7.168zm0 6.08v-2.655h-7.168v2.656zm-2.08-10.24v-3.487h-3.1v3.488z" fill="#fff" data-name="レイヤー 2"/></svg>