<svg xmlns="http://www.w3.org/2000/svg" width="149.272" height="125.328"><defs><style>.cls-1{fill:#5f648c}</style></defs><g id="レイヤー_2" data-name="レイヤー 2"><g id="OL後"><path class="cls-1" d="M13.146 70.155a3.333 3.333 0 103.333 3.333 3.337 3.337 0 00-3.333-3.333zm0 5.366a2.033 2.033 0 112.033-2.033 2.035 2.035 0 01-2.033 2.033z"/><path class="cls-1" d="M138.084 63.064l-.818.879 9.6 8.946H90.654v-27.56a45.327 45.327 0 10-90.654 0v80h90.654V74.088h56.214l-9.6 8.945.818.879 11.188-10.424zm-48.73 60.963H1.3v-78.7a44.027 44.027 0 1188.054 0v27.56H75.887v1.2h13.467z"/></g></g></svg>