<svg xmlns="http://www.w3.org/2000/svg" width="101.536" height="28.981"><path d="M28.7 7.317a.655.655 0 01-.736.16 1.6 1.6 0 00-1.472.351q-1.248.961-2.912 2.3c-.319.064-.5-.054-.544-.352q.7-1.344 1.632-3.232h-9.724q0 1.665.033 4 .03 2.208.031 2.176c0 .192-.15.368-.447.528a2.083 2.083 0 01-.993.24q-.672 0-.672-.544 0 .129.033-2.256t.031-4.144H4.608a9.928 9.928 0 01-.864 3.712 3.494 3.494 0 01-2.208 2.08 1.866 1.866 0 01-.448.064Q0 12.405 0 11.477a1.2 1.2 0 01.544-.96 8.368 8.368 0 002.192-2.7A10 10 0 003.9 4.277q.319-.384.64-.064a9.7 9.7 0 01.1 1.376h8.32V2.965H4.672a17.044 17.044 0 00-1.728.16l-.255-1.377a10.254 10.254 0 001.952.257H21.7a.475.475 0 00.352-.128q.509-.577 1.213-1.408a.386.386 0 01.575 0A14.127 14.127 0 0125.7 2.1a.725.725 0 01.193.479c0 .257-.14.385-.416.385H14.944v2.625h9.408a.551.551 0 00.352-.128l1.088-1.024a.447.447 0 01.641.032q1.248 1.152 2.239 2.24a.408.408 0 01.028.608zm.225 19.232q0 .864-1.441 1.152a41.873 41.873 0 01-6.272.448q-4 .1-5.535-.032-2.721-.225-2.721-2.272V23H7.168v1.313q0 .256-.56.479a2.783 2.783 0 01-1.04.225q-.639 0-.639-.608 0 .192.128-2.752t.128-5.024a7.987 7.987 0 00-.353-2.944.267.267 0 01.048-.336.24.24 0 01.336-.016q1.375.736 2.24 1.28H20.32a.553.553 0 00.384-.192q.192-.192.96-.928a.428.428 0 01.641 0 19.3 19.3 0 011.663 1.536q.386.384-.128.64-.225.1-.736.352a.543.543 0 00-.288.512q0 1.279.113 4.208t.111 2.96c0 .235-.182.427-.544.576a2.774 2.774 0 01-1.056.224q-.608 0-.608-.48V23h-5.92v2.049q0 1.024 1.185 1.168a34 34 0 004.159.08 27.572 27.572 0 004.7-.32 1.165 1.165 0 00.864-.608 25.023 25.023 0 001.313-4.9.421.421 0 01.672.1q0 .129-.1 2.192t-.1 2.256q0 .48.656.688a.832.832 0 01.668.844zM11.648 9.525a8.612 8.612 0 00-1.7-.16H7.072q-.416 0-1.7.16L5.12 8.117a7.574 7.574 0 001.952.255h2.88a10.409 10.409 0 001.7-.255zm0 2.784a8.612 8.612 0 00-1.7-.16H7.072q-.416 0-1.7.16L5.12 10.9a7.531 7.531 0 001.952.256h2.88a10.332 10.332 0 001.7-.256zM12.96 18.2v-2.627H7.168V18.2zm0 3.839v-2.882H7.168v2.879zm7.872-3.839v-2.627h-5.92V18.2zm0 3.839v-2.882h-5.92v2.879zm1.952-12.514a8.6 8.6 0 00-1.7-.16H18.24q-.415 0-1.727.16l-.257-1.408a7.818 7.818 0 001.952.255h2.912a9.859 9.859 0 001.664-.255zm0 2.784a8.6 8.6 0 00-1.7-.16H18.24q-.415 0-1.727.16l-.257-1.409a7.774 7.774 0 001.952.256h2.912a9.787 9.787 0 001.664-.256zm41.985 1.344a.616.616 0 01.191.448q0 .415-.352.416H51.424v1.536q0 2.944.1 5.888t.095 2.656q0 3.008-3.456 4.128a4.149 4.149 0 00-1.424-2.112 7.416 7.416 0 00-2.8-.768.41.41 0 01.061-.672q2.657.161 4.32.16a.863.863 0 00.992-.961v-9.855H37.984q-.416 0-1.7.16L36 13.269a7.891 7.891 0 001.984.256h11.328V9.748a3.027 3.027 0 00-.224-1.471.274.274 0 010-.352.318.318 0 01.32-.1q.768.162 1.952.385 2.177-2.368 4.161-4.832H40.9q-.417 0-1.7.16l-.288-1.377a10.362 10.362 0 001.984.257h14.528a.691.691 0 00.384-.128q.447-.353 1.472-1.056a.569.569 0 01.736.032q.8.641 2.432 2.24a.482.482 0 01.032.64.559.559 0 01-.672.256 2.849 2.849 0 00-2.112.288q-.48.257-5.6 3.712.7.161.673.48a.318.318 0 01-.321.352q-1.024.064-1.024.736v3.552h8.448a.473.473 0 00.352-.128q.608-.672 1.5-1.728a.424.424 0 01.608-.064 19.835 19.835 0 012.437 2.051zM85.344 9.2a.652.652 0 01.224.449.339.339 0 01-.384.383h-9.312q0 3.361-.128 5.7h3.1a.427.427 0 00.352-.16l.928-.928a.423.423 0 01.608 0 13.079 13.079 0 011.568 1.44q.319.319-.064.56c-.256.16-.485.294-.688.4a.592.592 0 00-.3.575q0 2.625.112 5.985t.112 3.04c0 .192-.182.384-.544.576a2.086 2.086 0 01-.928.288q-.641 0-.64-.576V16.693h-3.68q-.641 8.416-3.936 12.256a.4.4 0 01-.544-.384 19.807 19.807 0 002.4-8.224q.416-3.776.416-12.192 0-6.879-.352-7.712a.341.341 0 010-.352c.042-.085.148-.106.32-.064q1.28.224 2.976.672a.312.312 0 01.256.384.317.317 0 01-.352.32q-.96.1-.96.736v6.944h3.1V2.293a2.668 2.668 0 00-.22-1.312q-.129-.192 0-.321a.252.252 0 01.319-.1q1.154.192 2.945.672a.312.312 0 01.256.383.318.318 0 01-.352.321q-1.024.1-1.024.736v6.4h.96a.433.433 0 00.32-.128c.277-.3.608-.662.992-1.088a.41.41 0 01.608-.033Q84 7.99 85.344 9.2zm16.192 17.185a4.889 4.889 0 00-2.784 1.952 20.657 20.657 0 01-5.376-5.7 21.721 21.721 0 01-8.608 6.3.4.4 0 01-.289-.577 22.262 22.262 0 008-7.295 25.517 25.517 0 01-2.719-10.901h-1.12v.929q0 12.479-6.88 17.888c-.342 0-.5-.16-.48-.48a15.661 15.661 0 004.16-7.136 43.994 43.994 0 001.344-12q0-7.2-.48-8.32a.28.28 0 01.064-.352q.128-.127.352 0 .735.416 2.336 1.376h7.9a.422.422 0 00.351-.16q.865-.864 1.057-1.088a.425.425 0 01.608 0q.9.639 1.792 1.376a.517.517 0 01.192.416q0 .416-.352.416H88.64v6.144h7.007a.685.685 0 00.481-.128l1.088-.96a.393.393 0 01.608 0 18.579 18.579 0 011.76 1.632q.416.415-.1.672-.288.128-.848.368a1 1 0 00-.656.72 27.4 27.4 0 01-3.584 9.7 15.949 15.949 0 007.14 5.212zM96.1 10.164h-5.38a21.908 21.908 0 002.624 9.377 27.72 27.72 0 002.756-9.377z" fill="#fff" data-name="レイヤー 2"/></svg>