<svg xmlns="http://www.w3.org/2000/svg" width="145.862" height="7.262"><path d="M.859 5.554A2.831 2.831 0 010 3.48a2.828 2.828 0 01.859-2.073A2.827 2.827 0 012.933.548a2.93 2.93 0 012.548 1.461 2.869 2.869 0 01.4 1.471 2.87 2.87 0 01-.4 1.472 2.924 2.924 0 01-2.548 1.461 2.827 2.827 0 01-2.074-.859zM.7 2.178a2.618 2.618 0 000 2.605 2.558 2.558 0 00.943.947 2.512 2.512 0 001.3.35 2.528 2.528 0 001.3-.35 2.578 2.578 0 00.948-.947 2.54 2.54 0 00.349-1.3 2.539 2.539 0 00-.349-1.3 2.589 2.589 0 00-.948-.948 2.537 2.537 0 00-1.3-.349 2.52 2.52 0 00-1.3.349 2.568 2.568 0 00-.943.943zM4.3 4.19a2.512 2.512 0 01-.083.346c-.056.2-.1.305-.132.319a3.014 3.014 0 01-1.139.2 1.49 1.49 0 01-1.092-.438A1.454 1.454 0 011.41 3.54a1.577 1.577 0 01.43-1.117 1.419 1.419 0 011.085-.462 3.339 3.339 0 011.2.2c.115.408.172.627.172.655s-.019.048-.057.068a.248.248 0 01-.115.029.168.168 0 01-.075-.013.488.488 0 00-.068-.15 1.069 1.069 0 00-.155-.183.8.8 0 00-.307-.167 1.5 1.5 0 00-.469-.067.949.949 0 00-.731.333 1.134 1.134 0 00-.3.784 1.226 1.226 0 00.351.935 1.113 1.113 0 00.776.333 1.14 1.14 0 00.774-.2.435.435 0 00.091-.143.858.858 0 00.051-.15.175.175 0 01.019-.062c.132-.006.204.005.218.027zM18.937.1q.156 0 1.256-.054a.265.265 0 01.035.172.312.312 0 01-.035.172 2.563 2.563 0 00-.44.049c-.186.031-.287.073-.3.123a2.972 2.972 0 00-.054.8v2.129a10.331 10.331 0 001.214-1.085q.624-.618.87-.881c.165-.175.33-.369.5-.58a.6.6 0 00.15-.333.185.185 0 00-.016-.078.144.144 0 00-.049-.058.348.348 0 00-.069-.043.394.394 0 00-.092-.033l-.089-.013c-.027 0-.058-.006-.094-.008h-.199A.329.329 0 0121.5.223a.535.535 0 01.026-.18c.083 0 .211.012.385.024s.329.023.466.03a7.592 7.592 0 001.056-.019l.489-.035a.548.548 0 01.019.19c0 .1-.016.143-.041.143l-.086.005c-.057 0-.109.009-.155.014a1.688 1.688 0 00-.189.035 1.3 1.3 0 00-.218.07 1.563 1.563 0 00-.214.11.822.822 0 00-.2.167 36.535 36.535 0 01-1.219 1.255c-.143.139-.354.342-.631.607l-.637.607a.075.075 0 000 .086l.3.352.306.357.282.325.293.338c.057.067.147.169.268.307s.216.242.283.313.15.164.254.278.194.207.269.284l.244.247c.087.088.173.171.255.25a1.911 1.911 0 00.5.338 1.957 1.957 0 00.674.156.28.28 0 01.019.169.575.575 0 01-.029.142 5.882 5.882 0 01-1.526-.118 1.929 1.929 0 01-.73-.462q-.3-.289-2.417-2.717c-.014-.022-.047-.033-.1-.033a.207.207 0 00-.1.022v2a3.475 3.475 0 00.054.8c.014.05.115.091.3.124a2.883 2.883 0 00.44.048.31.31 0 01.035.172.262.262 0 01-.035.171q-1.1-.054-1.256-.053t-1.268.053a.262.262 0 01-.035-.171.319.319 0 01.035-.172 2.883 2.883 0 00.44-.048c.186-.033.287-.074.3-.124a3.475 3.475 0 00.054-.795V1.354a3.475 3.475 0 00-.05-.795c-.014-.05-.115-.092-.3-.123a2.563 2.563 0 00-.44-.049.322.322 0 01-.035-.172.265.265 0 01.035-.172Q18.77.1 18.937.1zm10.797 0q.156 0 1.257-.054a.23.23 0 01.035.154.277.277 0 01-.035.155 2.883 2.883 0 00-.44.048c-.186.034-.287.075-.3.124a3.481 3.481 0 00-.054.8v4.581a3.475 3.475 0 00.054.8c.014.05.115.092.3.123a2.668 2.668 0 00.44.049.279.279 0 01.035.156.23.23 0 01-.035.155q-1.1-.054-1.257-.053t-1.267.053a.23.23 0 01-.035-.155.279.279 0 01.035-.156 2.668 2.668 0 00.44-.049c.186-.031.287-.073.3-.123a3.475 3.475 0 00.054-.795V1.321a3.481 3.481 0 00-.054-.795c-.014-.049-.115-.09-.3-.124a2.883 2.883 0 00-.44-.048.277.277 0 01-.035-.154.23.23 0 01.035-.156Q29.568.1 29.734.1zm8.741-.025a2.455 2.455 0 01.754.125 2.638 2.638 0 01.7.347 1.717 1.717 0 01.526.588 1.615 1.615 0 01.2.8A1.608 1.608 0 0140.212 3a2.352 2.352 0 01-1.018.706 28.085 28.085 0 001.735 2.524 1.656 1.656 0 00.513.465 1.72 1.72 0 00.7.18.28.28 0 01.019.169.518.518 0 01-.03.142 5.091 5.091 0 01-1.418-.128 1.56 1.56 0 01-.526-.29 1.434 1.434 0 01-.172-.183q-.139-.187-.69-1t-1.017-1.546a.358.358 0 00-.322-.129h-.57v2a3.537 3.537 0 00.054.8c.014.05.115.092.3.123a2.668 2.668 0 00.44.049.27.27 0 01.035.156.23.23 0 01-.035.155q-1.1-.054-1.256-.053t-1.268.053a.23.23 0 01-.035-.155.287.287 0 01.035-.156 2.668 2.668 0 00.44-.049c.186-.031.287-.073.3-.123a4.14 4.14 0 00.054-.795l-.005-4.587a3.544 3.544 0 00-.054-.795c-.014-.049-.115-.09-.3-.124a2.883 2.883 0 00-.44-.048.276.276 0 01-.035-.161.235.235 0 01.036-.156Q36.783.1 36.949.1q.183 0 .682-.011c.333-.01.615-.014.844-.014zm1.181 1.955a1.664 1.664 0 00-.4-1.178A1.635 1.635 0 0038 .419q-.489 0-.537.107a3.213 3.213 0 00-.054.806v2.245h.575a1.729 1.729 0 001.163-.432 1.4 1.4 0 00.509-1.115zM47.366.1q.156 0 1.257-.054a.237.237 0 01.034.154.279.279 0 01-.034.155 2.881 2.881 0 00-.441.045c-.186.034-.287.075-.3.124a3.567 3.567 0 00-.053.8v4.584a3.56 3.56 0 00.053.8c.014.05.115.092.3.123a2.667 2.667 0 00.441.049.28.28 0 01.034.156.237.237 0 01-.034.155q-1.1-.054-1.257-.053t-1.266.048a.236.236 0 01-.035-.155.287.287 0 01.035-.156 2.667 2.667 0 00.441-.049c.186-.031.286-.073.3-.123a3.475 3.475 0 00.054-.795V1.321a3.481 3.481 0 00-.054-.795c-.014-.049-.114-.09-.3-.124A2.881 2.881 0 0046.1.354.286.286 0 0146.063.2.236.236 0 0146.1.043Q47.2.1 47.366.1zm8.267-.1a3.45 3.45 0 01.444.027 2.916 2.916 0 01.34.062l.387.1c.169.044.319.082.451.11q.07.467.151 1.525c0 .032-.022.06-.075.083a.37.37 0 01-.151.035.159.159 0 01-.118-.043 1.832 1.832 0 00-.091-.365 2.017 2.017 0 00-.2-.408 2.265 2.265 0 00-.3-.379 1.375 1.375 0 00-.405-.276 1.193 1.193 0 00-.5-.108 1.3 1.3 0 00-.551.111.9.9 0 00-.367.292 1.362 1.362 0 00-.191.381 1.379 1.379 0 00-.062.409 1.192 1.192 0 00.038.3 1.274 1.274 0 00.094.258 1.012 1.012 0 00.161.229c.069.077.133.141.191.2a2.254 2.254 0 00.236.185c.1.07.183.126.247.167s.155.1.271.166.2.125.266.164l.279.172.315.193q.12.075.306.207a3.468 3.468 0 01.3.236 3.29 3.29 0 01.258.258 1.566 1.566 0 01.22.3 1.6 1.6 0 01.135.33 1.387 1.387 0 01.053.379 1.754 1.754 0 01-.188.8 1.856 1.856 0 01-.5.626 2.411 2.411 0 01-.72.394 2.5 2.5 0 01-.835.143 4.5 4.5 0 01-.545-.037c-.2-.026-.357-.051-.486-.077s-.293-.06-.491-.107-.336-.076-.411-.091c-.058-.283-.11-.609-.156-.98s-.07-.6-.07-.685a.39.39 0 01.279-.129.106.106 0 01.118.1 2.666 2.666 0 00.094.33 2.908 2.908 0 00.2.422 2.023 2.023 0 00.325.435 1.545 1.545 0 00.491.322 1.646 1.646 0 00.672.135 1.284 1.284 0 00.918-.352 1.26 1.26 0 00.371-.959 1.4 1.4 0 00-.033-.307 1.2 1.2 0 00-.083-.252.876.876 0 00-.145-.211 2.056 2.056 0 00-.174-.175 1.985 1.985 0 00-.218-.159 5.282 5.282 0 00-.505-.292c-.113-.06-.2-.112-.271-.151-.15-.09-.246-.145-.287-.169s-.134-.08-.277-.169-.241-.155-.292-.2l-.258-.2a1.609 1.609 0 01-.256-.234 21.95 21.95 0 01-.193-.244 1.1 1.1 0 01-.169-.284 2.912 2.912 0 01-.094-.3 1.384 1.384 0 01-.043-.346 1.7 1.7 0 01.3-.989 1.982 1.982 0 01.78-.678 2.326 2.326 0 011.02-.23zm8.086.1q.156 0 1.257-.054a.273.273 0 01.034.172.324.324 0 01-.034.172 2.562 2.562 0 00-.441.049c-.186.031-.286.073-.3.123a3.56 3.56 0 00-.053.8v1.871l.021.033q1.579.031 1.687.032.194 0 1.643-.032a.066.066 0 00.022-.043V1.354A3.475 3.475 0 0067.5.559c-.014-.05-.115-.092-.3-.123a2.563 2.563 0 00-.44-.049.322.322 0 01-.035-.172.265.265 0 01.035-.172Q67.86.1 68.026.1t1.257-.057a.265.265 0 01.035.172.322.322 0 01-.035.172 2.563 2.563 0 00-.44.049c-.186.031-.287.073-.3.123a3.475 3.475 0 00-.054.8v4.517a3.475 3.475 0 00.054.8c.014.05.115.091.3.124a2.883 2.883 0 00.44.048.319.319 0 01.035.172.262.262 0 01-.035.171q-1.1-.054-1.257-.053t-1.267.053a.262.262 0 01-.035-.171.319.319 0 01.035-.172A2.883 2.883 0 0067.2 6.8c.186-.033.287-.074.3-.124a3.475 3.475 0 00.054-.795V3.749l-.022-.043c-.086 0-.328-.012-.728-.024s-.7-.019-.915-.019a9.941 9.941 0 00-1.7.065l-.01.021v2.127a3.56 3.56 0 00.053.8c.015.05.115.091.3.124a2.881 2.881 0 00.441.048.321.321 0 01.034.172.269.269 0 01-.034.171q-1.1-.054-1.257-.053t-1.268.053a.268.268 0 01-.035-.171.329.329 0 01.035-.172 2.881 2.881 0 00.441-.048c.186-.033.286-.074.3-.124a3.475 3.475 0 00.054-.795V1.354a3.475 3.475 0 00-.054-.795c-.014-.05-.114-.092-.3-.123a2.562 2.562 0 00-.441-.049.332.332 0 01-.035-.172.271.271 0 01.035-.172Q63.552.1 63.719.1zm11.538 0q.156 0 1.257-.054a.23.23 0 01.035.154.277.277 0 01-.035.155 2.883 2.883 0 00-.44.048c-.186.034-.287.075-.3.124a3.481 3.481 0 00-.054.8v4.581a3.475 3.475 0 00.054.8c.014.05.115.092.3.123a2.668 2.668 0 00.44.049.279.279 0 01.035.156.23.23 0 01-.035.155q-1.1-.054-1.257-.053t-1.267.053a.23.23 0 01-.035-.155.279.279 0 01.035-.156 2.668 2.668 0 00.44-.049c.186-.031.287-.073.3-.123a3.475 3.475 0 00.054-.795V1.321a3.481 3.481 0 00-.054-.795c-.014-.049-.115-.09-.3-.124a2.883 2.883 0 00-.44-.048.277.277 0 01-.035-.154.23.23 0 01.035-.157Q75.091.1 75.257.1zm7.21 0q.279 0 .87-.054c.061.193.224.605.486 1.235s.578 1.38.943 2.248.648 1.555.849 2.06c.007.015.021.021.043.021a.054.054 0 00.053-.042q1.569-4.046 1.644-4.233l.473-1.292c.458.028.741.043.848.043q.666 0 1.2-.043l.033.311a2.3 2.3 0 00-.438.062c-.192.041-.3.085-.325.132a1.082 1.082 0 00-.046.408c.008.219.017.605.03 1.157l.043 1.945c.017.745.027 1.274.027 1.592a3.7 3.7 0 00.129 1.042c.021.065.124.112.309.14a3.126 3.126 0 00.442.043.329.329 0 01.038.166.448.448 0 01-.016.145q-1.074-.054-1.278-.053c-.147 0-.287 0-.419.008s-.283.013-.451.024-.309.018-.419.021c-.015-.014-.023-.058-.024-.131a.47.47 0 01.024-.18 2.841 2.841 0 00.37-.035 1.1 1.1 0 00.328-.083c.064-.036.1-.187.1-.451 0-.05 0-.154-.011-.309s-.011-.261-.011-.314q-.092-3.309-.14-4.6a.476.476 0 00-.024-.137C88.131.9 88.107.87 88.075.87c-.014 0-.033.026-.054.075q-.248.614-2.267 5.683a2.3 2.3 0 01-.193.325c-.093.138-.165.212-.215.223a.245.245 0 01-.1-.022L82.628.881q-.021 1.031-.056 2.377a936.103 936.103 0 01-.083 3.091.982.982 0 00.043.333q.044.1.354.147a3.7 3.7 0 00.494.046.239.239 0 01.038.156.5.5 0 01-.016.155q-.145 0-.36-.021c-.143-.011-.274-.018-.392-.024s-.247-.008-.387-.008-.284 0-.41.008-.272.013-.433.024-.3.018-.414.021a.243.243 0 01-.024-.131.47.47 0 01.024-.18 3.287 3.287 0 00.492-.051.626.626 0 00.378-.142 1.032 1.032 0 00.129-.537q.15-4.012.151-5.135a1.431 1.431 0 00-.043-.43c-.018-.057-.125-.109-.32-.156a2.125 2.125 0 00-.432-.07c-.011 0-.016-.048-.016-.147a.4.4 0 01.016-.164l.378.024.35.022c.105.005.231.011.378.011zm12.758 5.561Q96.643 2.013 97.3.344a.731.731 0 01.191-.2.434.434 0 01.218-.116.066.066 0 01.035.014.272.272 0 00.029.019L99.957 5.8l.274.709a.535.535 0 00.336.265 1.255 1.255 0 00.394.1.288.288 0 01.033.158.734.734 0 01-.011.153q-1.074-.054-1.182-.053c-.147 0-.283 0-.411.008s-.269.013-.427.024-.293.018-.408.021a.236.236 0 01-.035-.155.224.224 0 01.046-.156 1.9 1.9 0 00.33-.04.608.608 0 00.271-.1.207.207 0 00.043-.15 2.911 2.911 0 00-.182-.669q-.183-.524-.365-.975l-.183-.45a.09.09 0 00-.064-.043 28.638 28.638 0 00-1.064-.011q-.677 0-1.16.033l-.054.032q-.3.795-.483 1.31a2.431 2.431 0 00-.151.763.185.185 0 00.1.156.664.664 0 00.241.094 2.406 2.406 0 00.245.04c.068.007.12.011.156.011a.291.291 0 01.029.143.472.472 0 01-.008.168c-.1 0-.217-.01-.338-.021s-.235-.018-.339-.024-.225-.008-.365-.008-.276 0-.39.008-.236.013-.373.024-.265.018-.386.021a.251.251 0 01-.022-.139.506.506 0 01.022-.172 1.493 1.493 0 00.354-.057.528.528 0 00.29-.147 4.4 4.4 0 00.505-1.01zm2.106-4.329l-.989 2.621c0 .028.008.043.022.043q.558.023.977.022.4 0 .9-.033a.034.034 0 00.021-.01.1.1 0 00.011-.033v-.01zM114.919.075a2.466 2.466 0 01.755.121 2.618 2.618 0 01.7.347 1.7 1.7 0 01.526.588 1.615 1.615 0 01.2.8A1.6 1.6 0 01116.656 3a2.355 2.355 0 01-1.017.706 28.085 28.085 0 001.735 2.524 1.656 1.656 0 00.513.465 1.715 1.715 0 00.7.18.28.28 0 01.019.169.575.575 0 01-.029.142 5.086 5.086 0 01-1.418-.128 1.566 1.566 0 01-.527-.29 1.434 1.434 0 01-.172-.183q-.139-.187-.69-1t-1.018-1.541a.358.358 0 00-.322-.129h-.569v2a3.475 3.475 0 00.054.8c.014.05.114.092.3.123a2.667 2.667 0 00.441.049.28.28 0 01.034.156.231.231 0 01-.034.155q-1.1-.054-1.257-.053t-1.268.053a.231.231 0 01-.034-.155.28.28 0 01.034-.156 2.667 2.667 0 00.441-.049c.186-.031.286-.073.3-.123a4.272 4.272 0 00.053-.795V1.333a3.481 3.481 0 00-.054-.795c-.014-.049-.115-.09-.3-.124a2.883 2.883 0 00-.44-.048.277.277 0 01-.04-.166.23.23 0 01.035-.156q1.1.054 1.268.054c.121 0 .349 0 .682-.011s.614-.012.843-.012zM116.1 2.03a1.664 1.664 0 00-.4-1.178 1.632 1.632 0 00-1.254-.433c-.325 0-.5.036-.537.107a3.267 3.267 0 00-.054.806l.006 2.245h.575a1.731 1.731 0 001.163-.432 1.407 1.407 0 00.501-1.115zM123.81.1q.156 0 1.257-.054A.23.23 0 01125.1.2a.286.286 0 01-.035.155 2.881 2.881 0 00-.441.048c-.186.034-.286.075-.3.124a3.481 3.481 0 00-.054.8v4.581a3.475 3.475 0 00.054.8c.014.05.114.092.3.123a2.667 2.667 0 00.441.049.287.287 0 01.035.156.23.23 0 01-.035.155q-1.1-.054-1.257-.053t-1.268.053a.237.237 0 01-.034-.155.28.28 0 01.034-.156 2.667 2.667 0 00.441-.049c.186-.031.287-.073.3-.123a3.56 3.56 0 00.053-.795V1.321a3.567 3.567 0 00-.053-.795c-.014-.049-.115-.09-.3-.124a2.881 2.881 0 00-.441-.048.279.279 0 01-.032-.154.237.237 0 01.034-.156Q123.643.1 123.81.1zm7.682 5.808a2.084 2.084 0 00.065.774.486.486 0 00.238.092c.1.009.27.015.524.015h.613a3.47 3.47 0 00.692-.072 1.524 1.524 0 00.564-.218 1.931 1.931 0 00.677-1.085c.011-.043.061-.064.151-.064a.393.393 0 01.268.064c-.032.093-.086.242-.161.445s-.135.37-.18.5-.091.272-.14.433a3.354 3.354 0 00-.1.408c-.369 0-.947-.006-1.735-.021s-1.43-.022-1.928-.022c-.175 0-.4.006-.671.016s-.475.016-.607.016a.23.23 0 01-.035-.155.27.27 0 01.035-.156 2.668 2.668 0 00.44-.049c.186-.031.287-.073.3-.123a3.475 3.475 0 00.054-.795v-4.59a3.481 3.481 0 00-.056-.795c-.014-.049-.115-.09-.3-.124a2.883 2.883 0 00-.44-.048.269.269 0 01-.032-.154.23.23 0 01.035-.156q1.1.054 1.267.054t1.257-.054a.23.23 0 01.035.156.277.277 0 01-.035.155 2.883 2.883 0 00-.44.048c-.186.034-.287.075-.3.124a2.981 2.981 0 00-.054.8zm8.601-.247q1.419-3.648 2.073-5.317a.731.731 0 01.191-.2.438.438 0 01.218-.116.066.066 0 01.035.014.272.272 0 00.029.019l2.186 5.739.274.709a.535.535 0 00.336.265 1.259 1.259 0 00.4.1.3.3 0 01.032.158.734.734 0 01-.011.153q-1.074-.054-1.182-.053c-.147 0-.283 0-.411.008s-.269.013-.426.024-.294.018-.409.021a.236.236 0 01-.035-.155.224.224 0 01.046-.156 1.89 1.89 0 00.33-.04.614.614 0 00.272-.1.212.212 0 00.043-.15 2.879 2.879 0 00-.183-.669q-.183-.524-.365-.975l-.183-.451a.088.088 0 00-.064-.043 28.638 28.638 0 00-1.064-.011q-.677 0-1.16.033l-.054.032q-.3.795-.483 1.31a2.426 2.426 0 00-.15.763.184.184 0 00.1.156.671.671 0 00.241.094 2.451 2.451 0 00.245.04c.068.007.12.011.156.011a.291.291 0 01.029.143.472.472 0 01-.008.168c-.1 0-.217-.01-.338-.021s-.235-.018-.339-.024-.225-.008-.365-.008-.276 0-.389.008-.237.013-.373.024-.266.018-.387.021a.251.251 0 01-.022-.139.506.506 0 01.022-.172 1.493 1.493 0 00.354-.057.528.528 0 00.29-.147 4.4 4.4 0 00.499-1.009zm2.107-4.329l-.989 2.621c0 .028.008.043.022.043q.558.023.977.022.4 0 .9-.033a.034.034 0 00.021-.01.077.077 0 00.011-.033v-.01z" fill="#fff" data-name="レイヤー 2"/></svg>