<svg xmlns="http://www.w3.org/2000/svg" width="184.223" height="181.461"><path d="M112.99 10.347l-3.083-5.553-.775 3.4c-.237 1.04.161 1.3.25 1.332l-2.028-.463c.069 0 .587-.018.83-1.085l1.516-6.627c.24-1.053-.188-1.3-.274-1.351l2.028.464c-.082-.005-.563.037-.806 1.1l-.727 3.188 3.83-2.4c.647-.406.943-.671.985-.855a.261.261 0 00-.121-.32l2.067.473a3.829 3.829 0 00-2.116.833l-3.617 2.25 2.505 4.382c.709 1.325 1.123 1.572 1.16 1.6zm7.61 1.076l2.328-6.365c.413-1.128-.113-1.379-.113-1.379l2.016.738s-.577-.153-.99.975l-2.328 6.365c-.418 1.141.126 1.384.126 1.384l-2.029-.743s.571.166.99-.975zm13.707.141a1.951 1.951 0 00-.868-2.75l-1.022-.522L129 14.977c-.554 1.082-.037 1.376-.037 1.376l-1.912-.977s.536.228 1.083-.842l3.075-6.012c.571-1.118.073-1.419.073-1.419l2.38 1.218c1.984 1.015 2.134 2.472 1.587 3.542a2.65 2.65 0 01-3.014 1.265c-.023-.012-.186-.05-.21-.063l.738 3.777a5.156 5.156 0 00.66 1.794l-1.406-.72-1.143-5.833.721.369a1.966 1.966 0 002.712-.888zm4.493 9.055L142.59 15c.673-.995.222-1.364.222-1.364l1.778 1.2s-.522-.287-1.194.708l-3.796 5.619c-.68 1.007-.21 1.372-.21 1.372l-1.79-1.208s.519.299 1.2-.708zm5.651 4.95l1.063-1.24a2.785 2.785 0 00.763 3.073 1.792 1.792 0 002.573-.178c.659-.77.562-1.528-.175-3.138-.691-1.518-.788-2.526-.041-3.4a2.44 2.44 0 013.539-.185 4.31 4.31 0 011.3 1.969l-.949 1.107a2.6 2.6 0 00-.734-2.692 1.661 1.661 0 00-2.4.165c-.694.81-.2 1.855.284 2.947.532 1.185 1.049 2.43.047 3.6a2.628 2.628 0 01-3.847.171 4.41 4.41 0 01-1.423-2.199zm12.977 11.98l2.317-2.006-3.322-3.838-2.317 2.005c-.919.8-.561 1.271-.561 1.271l-1.4-1.623s.41.412 1.329-.383l5.124-4.435c.909-.786.57-1.261.57-1.261l1.4 1.623s-.429-.413-1.337.373l-2.358 2.041 3.321 3.838 2.358-2.041c.909-.786.561-1.27.561-1.27l1.405 1.623s-.411-.412-1.329.383l-5.125 4.434c-.909.786-.561 1.272-.561 1.272l-1.413-1.634s.419.423 1.338-.372zm4.778 6.566l5.66-3.723c1-.66.73-1.174.73-1.174l1.179 1.793s-.371-.467-1.375.193l-5.661 3.723c-1.014.668-.722 1.185-.722 1.185l-1.186-1.8s.36.47 1.375-.197zm6.194 14.031c.041.056.351.432 1.378-.048l6.111-2.861L167 55.5l5.86-6.707-6.037 2.827c-1.039.486-.964 1.062-.93 1.165l-.847-1.808c.052.079.426.56 1.5.056l6.124-2.867c.916-.429.81-1.005.783-1.127l.773 1.65-5.431 6.194 8.211-.253.694 1.47c-.047-.067-.381-.462-1.359 0l-6.2 2.9c-.953.446-.882.949-.854 1.04zm6.661 8.034l-2.3-.274a2.311 2.311 0 00-.847.02.634.634 0 00-.507.556l-.5-1.863c.021.078.211.418 1.547.6l9.012 1.213-7.218 5.574c-.971.752-1 1.22-.987 1.315l-.585-2.163a.5.5 0 00.571.2 2.287 2.287 0 00.725-.42l1.969-1.511zm1.356 2.891l3.095-2.361-3.857-.453zm4.823 13.049a1.948 1.948 0 001.812-2.241l-.128-1.14-7.457.84c-1.207.136-1.168.729-1.168.729l-.24-2.133s.1.572 1.3.438l6.706-.756c1.248-.14 1.223-.721 1.223-.721l.3 2.656c.25 2.213-.882 3.142-2.076 3.276a2.646 2.646 0 01-2.717-1.813c0-.027-.061-.184-.064-.21l-2.739 2.7a5.126 5.126 0 00-1.13 1.54l-.177-1.569 4.23-4.171.09.805a1.965 1.965 0 002.235 1.77zm-5.061 8.731l6.779.108c1.2.019 1.265-.561 1.265-.561l-.033 2.148s-.045-.6-1.247-.614l-6.779-.108c-1.216-.019-1.265.574-1.265.574l.034-2.16s.031.595 1.246.613zm7.631 8.549l-.257 2.13s.018-.595-1.175-.74l-7.435-.9-.265 2.2a1.778 1.778 0 00.683 1.767l-1.391-.412.623-5.158s-.029.581 1.27.738l6.632.8c1.192.142 1.315-.425 1.315-.425zm-7.781 11.9l-1.847-1.392a2.324 2.324 0 00-.742-.41.637.637 0 00-.718.226l.5-1.863c-.021.078-.028.467 1.034 1.3l7.176 5.581-9.04 1.185c-1.218.162-1.477.552-1.515.64l.583-2.163a.506.506 0 00.394.456 2.315 2.315 0 00.838 0l2.461-.315zm-.283 3.179l3.862-.482-3.1-2.332zm-6.641 14.602l-1.1 2.107-.694-.36 1.095-2.108zm-11.132 25.167a.513.513 0 00.767.022l-1.371 1.58c.043-.07.35-.589-.3-1.729l-4.316-7.609 7.355 2.935-3.886-6.93 8 3.425c1.116.486 1.589.147 1.671.093l-1.469 1.691a.413.413 0 00-.088-.577 5.556 5.556 0 00-1.07-.517l-5.366-2.407 3.851 6.972-7.315-2.9 3.075 5.333a2.535 2.535 0 00.462.618zm-8.937 8.893a4.441 4.441 0 01-6.531-.826 4.667 4.667 0 01.811-6.9 4.441 4.441 0 016.531.826 4.666 4.666 0 01-.811 6.9zm-.075-.663c1.6-1.262 1.72-3.438.165-5.408s-3.977-2.379-5.734-.991c-1.6 1.263-1.721 3.439-.165 5.408s3.973 2.38 5.734.991zm-14.952 7.19a1.949 1.949 0 002.766.813l1-.556-3.639-6.567c-.59-1.062-1.122-.8-1.122-.8l1.878-1.041s-.489.317.094 1.369l3.273 5.9c.609 1.1 1.136.852 1.136.852l-2.338 1.3c-1.949 1.08-3.242.392-3.824-.659a2.648 2.648 0 01.631-3.206c.024-.013.146-.127.17-.14l-3.545-1.494a5.166 5.166 0 00-1.857-.453l1.382-.765 5.477 2.3-.708.394a1.964 1.964 0 00-.774 2.753zm-15.309-.637l5.622 2.946-1.216-3.263c-.372-1-.847-1-.939-.975l1.947-.726c-.058.036-.479.337-.1 1.362l2.371 6.362c.378 1.012.872.987.971.979l-1.949.726c.072-.041.45-.341.068-1.365l-1.141-3.061-1.885 4.1c-.318.695-.42 1.078-.354 1.256a.258.258 0 00.277.2l-1.987.74c.11-.054.644-.4 1.311-1.856l1.786-3.864-4.5-2.286a4.107 4.107 0 00-1.843-.7zm-6.45 2.488l.345 1.6a2.787 2.787 0 00-2.909-1.25 1.79 1.79 0 00-1.412 2.157c.213.99.876 1.371 2.6 1.758 1.626.366 2.488.9 2.73 2.021a2.439 2.439 0 01-1.991 2.931 4.322 4.322 0 01-2.355-.154l-.308-1.426a2.6 2.6 0 002.589 1.043 1.66 1.66 0 001.319-2.012c-.226-1.042-1.355-1.282-2.519-1.555-1.265-.293-2.569-.633-2.894-2.138a2.627 2.627 0 012.189-3.167 4.411 4.411 0 012.616.192zm-17.898 5.073l-2.377.038-.013-.783 2.377-.038zM73.17 171.21l3.214 5.473.693-3.414c.213-1.044-.192-1.292-.282-1.324l2.038.413c-.069 0-.585.034-.8 1.1l-1.351 6.654c-.215 1.059.219 1.3.306 1.344l-2.037-.414c.082 0 .561-.051.779-1.123l.65-3.2-3.77 2.485c-.636.422-.926.694-.963.879a.256.256 0 00.129.315l-2.078-.421a3.835 3.835 0 002.1-.883l3.559-2.336-2.608-4.318c-.74-1.306-1.161-1.544-1.2-1.565zm-7.604-.882l-2.166 6.419c-.385 1.138.148 1.375.148 1.375l-2.033-.687s.579.139.964-1l2.168-6.418c.388-1.151-.162-1.379-.162-1.379l2.046.691s-.576-.152-.965.999zm-13.72.187a1.948 1.948 0 00.936 2.724l1.034.5 3.25-6.761c.525-1.095 0-1.376 0-1.376l1.934.928s-.541-.215-1.061.868l-2.922 6.08c-.544 1.131-.038 1.419-.038 1.419l-2.408-1.157c-2.007-.964-2.193-2.416-1.673-3.5a2.647 2.647 0 012.979-1.338c.024.012.188.045.212.057l-.831-3.753a5.1 5.1 0 00-.7-1.774l1.423.683 1.286 5.8-.73-.351a1.966 1.966 0 00-2.691.951zm-4.731-8.951l-3.662 5.706c-.649 1.012-.189 1.372-.189 1.372l-1.808-1.161s.53.276 1.179-.736l3.661-5.706c.657-1.023.178-1.378.178-1.378l1.819 1.167s-.522-.287-1.178.736zm-5.749-4.798l-1.031 1.266a2.787 2.787 0 00-.84-3.053 1.79 1.79 0 00-2.566.244c-.64.785-.525 1.541.252 3.131.729 1.5.85 2.5.125 3.395a2.438 2.438 0 01-3.532.273 4.321 4.321 0 01-1.35-1.935l.922-1.13a2.6 2.6 0 00.8 2.673 1.66 1.66 0 002.4-.226c.674-.827.156-1.858-.357-2.938-.561-1.172-1.109-2.4-.137-3.595a2.629 2.629 0 013.841-.268 4.417 4.417 0 011.473 2.163zM28.1 145.1l-2.269 2.061 3.414 3.758 2.269-2.061c.9-.817.529-1.284.529-1.284l1.444 1.589s-.42-.4-1.32.415l-5.017 4.558c-.89.807-.539 1.273-.539 1.273l-1.444-1.589s.44.4 1.329-.4l2.309-2.1-3.414-3.758-2.308 2.1c-.89.808-.53 1.284-.53 1.284l-1.444-1.59s.42.4 1.32-.414l5.017-4.557c.889-.809.53-1.284.53-1.284l1.453 1.6s-.429-.416-1.329.399zm-4.949-6.463l-5.569 3.863c-.987.685-.7 1.191-.7 1.191l-1.222-1.763s.382.458 1.369-.227l5.569-3.86c1-.693.694-1.2.694-1.2l1.23 1.775s-.373-.471-1.371.221zm-6.515-13.843c-.043-.055-.362-.423-1.378.083l-6.042 3.014 8.89-.481-5.7 6.856 5.969-2.978c1.028-.513.938-1.086.9-1.188l.892 1.788c-.055-.079-.441-.55-1.5-.02l-6.055 3.02c-.906.452-.786 1.026-.756 1.146l-.814-1.631 5.279-6.33-8.208.457-.729-1.463c.048.067.392.453 1.359-.028l6.127-3.057c.943-.469.858-.97.828-1.061zm-6.863-7.886l2.3.216a2.323 2.323 0 00.847-.04.637.637 0 00.493-.569l.549 1.85c-.023-.077-.221-.413-1.561-.563l-9.039-.99 7.078-5.751c.953-.775.968-1.245.954-1.339l.638 2.148a.5.5 0 00-.574-.182 2.319 2.319 0 00-.715.438l-1.931 1.559zm-1.427-2.857l-3.036 2.436 3.866.359zm-5.141-12.923a1.951 1.951 0 00-1.759 2.286l.156 1.137 7.44-1.018c1.2-.165 1.15-.758 1.15-.758l.291 2.128s-.118-.569-1.309-.406l-6.691.915c-1.245.17-1.206.751-1.206.751l-.363-2.649c-.3-2.208.808-3.164 2-3.328a2.649 2.649 0 012.761 1.749c0 .027.066.182.07.208l2.675-2.764a5.105 5.105 0 001.094-1.568l.214 1.566L5.6 103.65l-.11-.8a1.966 1.966 0 00-2.285-1.722zm4.855-8.887l-6.779.108c-1.2.019-1.247.6-1.247.6L0 90.8s.064.593 1.265.575l6.779-.108c1.216-.019 1.247-.614 1.247-.614l.034 2.16s-.05-.59-1.265-.572zM.213 83.938l.2-2.137s0 .6 1.194.711l7.461.711.21-2.2a1.782 1.782 0 00-.728-1.751l1.4.377-.488 5.171s.015-.582-1.289-.706l-6.654-.635c-1.197-.114-1.306.459-1.306.459zm7.494-12.114l1.883 1.347a2.3 2.3 0 00.752.391.635.635 0 00.713-.244l-.455 1.877c.019-.079.016-.469-1.067-1.274l-7.317-5.405 9.014-1.409c1.214-.191 1.463-.59 1.5-.678l-.53 2.178a.507.507 0 00-.406-.446 2.343 2.343 0 00-.838.019l-2.456.377zm.205-3.188l-3.851.579 3.163 2.255zm6.288-14.76l1.042-2.135.7.343L14.9 54.22zm10.5-25.418a.514.514 0 00-.767 0l1.331-1.613c-.041.071-.336.6.347 1.72l4.5 7.5-7.424-2.75 4.056 6.83-8.082-3.225c-1.127-.458-1.592-.106-1.672-.051l1.425-1.727a.414.414 0 00.1.575 5.506 5.506 0 001.082.49l5.421 2.272-4.011-6.879 7.382 2.717-3.205-5.254a2.58 2.58 0 00-.483-.605zm8.73-9.12a4.444 4.444 0 016.554.668 4.67 4.67 0 01-.645 6.92 4.444 4.444 0 01-6.553-.667 4.67 4.67 0 01.644-6.921zm.092.661c-1.569 1.3-1.638 3.481-.035 5.414s4.036 2.283 5.761.853c1.568-1.3 1.637-3.482.034-5.415s-4.035-2.284-5.76-.851zm14.758-7.535a1.95 1.95 0 00-2.786-.744l-.989.581 3.8 6.472c.615 1.048 1.141.771 1.141.771L47.6 20.631s.48-.329-.129-1.365l-3.418-5.822c-.635-1.082-1.156-.823-1.156-.823l2.3-1.354c1.921-1.127 3.23-.471 3.838.565a2.647 2.647 0 01-.552 3.22c-.023.013-.142.131-.165.144l3.58 1.4a5.125 5.125 0 001.867.408l-1.362.8-5.532-2.169.7-.411a1.964 1.964 0 00.709-2.76zm15.332.257l-5.69-2.809 1.3 3.232c.4.99.87.974.963.952l-1.929.773c.057-.038.471-.349.064-1.363L55.79 7.2c-.4-1-.895-.964-.993-.954l1.929-.773c-.07.042-.441.351-.034 1.366l1.215 3.032 1.784-4.147c.3-.7.393-1.087.323-1.263a.26.26 0 00-.281-.193l1.967-.784c-.108.058-.634.414-1.265 1.888l-1.692 3.9 4.551 2.175a4.084 4.084 0 001.859.65zM70 10.074l-.384-1.588a2.787 2.787 0 002.938 1.179 1.79 1.79 0 001.36-2.19c-.239-.985-.91-1.35-2.646-1.694-1.635-.327-2.509-.838-2.779-1.953A2.439 2.439 0 0170.4.85a4.318 4.318 0 012.357.1l.343 1.413a2.594 2.594 0 00-2.612-.979 1.661 1.661 0 00-1.27 2.044c.251 1.036 1.385 1.248 2.556 1.493 1.272.262 2.582.569 2.944 2.065a2.628 2.628 0 01-2.11 3.22A4.41 4.41 0 0170 10.074zm17.769-5.515l2.374-.085.028.783-2.371.086zm6.036 118.573a29.4 29.4 0 0140.273.143l.831.737V71.164l-.168-.149a30.378 30.378 0 00-41.436-.282 30.378 30.378 0 00-41.436.282l-.168.148v52.849l.831-.737a29.4 29.4 0 0140.273-.143l.5.437zm-1-1.321a30.293 30.293 0 00-40.1 0v-50.2a29.393 29.393 0 0140.1 0zm41.1 0a30.293 30.293 0 00-40.1 0v-50.2a29.393 29.393 0 0140.1 0zM77.4 136.801h31.809v1H77.4z" fill="#f4aca0" data-name="レイヤー 2"/></svg>