<svg xmlns="http://www.w3.org/2000/svg" width="148.236" height="140.978"><defs><style>.cls-1{fill:#f5b5aa}</style></defs><g id="レイヤー_2" data-name="レイヤー 2"><g id="OL後"><path class="cls-1" d="M51.618 63.241a.427.427 0 01-.275-.433 1.833 1.833 0 01.16-.644l.688-1.711h2.643l.755 1.835a1.85 1.85 0 01.171.631.318.318 0 01-.221.322l-.409.191h2.3v-.062.062l.009-.2s-.362-.06-.758-1.01L53.7 55.04l-3 7.147c-.433 1.023-.719 1.044-.722 1.044v.2h2.06zm.843-3.444l1.047-2.612 1.066 2.615zm9.257 3.437l-.82.2h2.684a5.03 5.03 0 001.728-.2 1.958 1.958 0 001.473-1.934 2.007 2.007 0 00-1.649-1.864 2.076 2.076 0 001.314-1.961 1.845 1.845 0 00-1.085-1.665 4.1 4.1 0 00-1.781-.253h-2.539l.682.2c.119.034.4.2.4.964v5.521c-.004.858-.339.977-.407.992zM65.69 61.3c0 .984-.54 1.484-1.606 1.484h-.96v-2.967h.7a1.956 1.956 0 011.309.3 1.472 1.472 0 01.557 1.183zm-1.762-2.13h-.8V56.2h.67a1.616 1.616 0 011.11.314 1.472 1.472 0 01.519 1.181 1.542 1.542 0 01-.427 1.06 1.386 1.386 0 01-1.072.417zm11.346 4.395a3.938 3.938 0 004.16-4.16 3.781 3.781 0 00-3.915-3.98 3.938 3.938 0 00-4.16 4.159 3.782 3.782 0 003.915 3.981zm-.045-7.473a3.2 3.2 0 013.113 3.481c0 1.989-1.117 3.324-2.778 3.324a3.2 3.2 0 01-3.112-3.48c0-1.988 1.116-3.325 2.777-3.325zm9.318.608v3.993a2.834 2.834 0 105.666-.022V56.7c0-.876.385-.935.4-.937l-.009-.2H89l-.009.2s.4.054.4.937v4.027c0 1.374-.674 2.131-1.9 2.131-1.252 0-1.941-.769-1.941-2.165v-4.031c0-.843.376-.9.378-.9l-.009-.2h-1.741l-.009.2s.378.05.378.938zm12.63-.5v6.1c0 .9-.381.936-.382.937v.2h1.775l.007-.2s-.4-.044-.4-.937v-6.1H99.2a1.214 1.214 0 011.194.614l.273.547-.253-1.806h-5.466l-.248 1.81.273-.547a1.213 1.213 0 011.193-.614zM65.234 83.086a4.428 4.428 0 01-1.117-1.039l-1.862-2.369h.022a2.294 2.294 0 001.817-2.161c0-1.019-.683-2.108-2.6-2.108h-2.207l-.009.2s.389.056.389.971v5.577c0 .873-.385.927-.387.927l.007.2h1.774l.006-.2s-.4-.045-.4-.927V79.24l3.175 4.039h1.868zm-4.564-7.034h.848a1.585 1.585 0 01.011 3.169h-.859zm8.864 7.028l.007.2h1.784v-.089.089-.2s-.4-.054-.4-.937v-5.6c0-.876.386-.936.4-.938l-.009-.2h-1.764l-.012.2s.391.063.391.938v5.6c0 .883-.395.937-.397.937zm8.229-6.537c0-.876.385-.936.4-.938l-.009-.2H76.38l-.011.2s.39.063.39.938v5.521c0 .958-.385 1.016-.386 1.016l.007.2h4.379l.331-1.955-.305.629a1.384 1.384 0 01-1.293.681h-1.729zm13.58 5.527l-2.981-7.181-3 7.147c-.433 1.023-.719 1.044-.722 1.044v.2h2.06l-.424-.19a.427.427 0 01-.276-.435 1.824 1.824 0 01.16-.643l.689-1.711h2.642l.756 1.835a1.867 1.867 0 01.17.631.318.318 0 01-.221.322l-.408.19h2.3v-.061.061l.009-.2s-.358-.059-.754-1.009zm-2.115-2.425h-2.113l1.047-2.613zm-49.807 22.244l-2.757-3 2.436-2.406c.948-.948 1.438-1.024 1.49-1.03l-.01-.2h-2.6l.821.2c.053.013.079.059.079.137s-.1.3-.606.8L35.8 98.85v-2.459c0-.871.359-.938.362-.939l-.016-.2h-2.427l.682.195c.119.034.4.2.4.942V102c0 .844-.372.925-.387.928l.018.2h1.718l.014-.2c-.1-.015-.36-.208-.36-.928v-2.615l3.358 3.742h2.055l-.608-.194c-.043-.013-.409-.15-1.188-1.044zm7.534-6.436l-.009-.2h-1.773l-.012.2s.391.063.391.938v5.6c0 .884-.4.938-.4.938l.007.2h1.784v-.089.089-.2s-.4-.054-.4-.938v-5.6c.013-.876.398-.936.412-.938zm9.876 6.447l-1.862-2.37h.022a2.293 2.293 0 001.817-2.161c0-1.018-.683-2.107-2.6-2.107H52l-.009.2s.388.056.388.971V102c0 .873-.384.927-.386.927l.007.2h1.774l.006-.2s-.4-.045-.4-.927v-2.912l3.175 4.039h1.868l-.479-.193a4.428 4.428 0 01-1.113-1.034zm-3.447-6h.848a1.585 1.585 0 01.011 3.169h-.859zm10.664-.447l-.009-.2h-1.774l-.011.2s.391.063.391.938v5.6c0 .884-.4.938-.4.938l.006.2h1.785v-.089.089-.2s-.4-.054-.4-.938v-5.6c.012-.876.398-.936.412-.938zm7.076 7.808a2.281 2.281 0 002.42-2.275c0-1.368-1.12-1.9-2.02-2.322l-.068-.032c-.842-.4-1.638-.777-1.638-1.572a1.278 1.278 0 011.317-1.294A2.039 2.039 0 0172.951 97l.191.434V95.7l-.042-.03a3.675 3.675 0 00-1.927-.55 2.122 2.122 0 00-2.219 2.118c0 1.089.764 1.667 1.91 2.2 1.348.623 1.738 1.022 1.738 1.783a1.375 1.375 0 01-1.417 1.394 2.212 2.212 0 01-2.038-1.454l-.193-.49v1.929l.043.03a3.737 3.737 0 002.127.631zm13.588-1.271v-5.6c0-.883.385-.938.386-.938l-.006-.2h-1.774l-.011.2c.017 0 .4.062.4.938v2.476h-3.992v-2.475c0-.876.385-.936.4-.938l-.009-.2h-1.774l-.011.2s.391.063.391.938v5.6c0 .883-.385.938-.387.938l.007.2h1.774l.009-.2s-.4-.054-.4-.938v-2.433h3.994v2.432c0 .884-.4.938-.4.938l.007.2H85.1v-.073.073l.006-.2c-.006-.002-.394-.063-.394-.938zm7.23-6.537l-.01-.2h-1.773l-.011.2s.39.063.39.938v5.6c0 .884-.395.938-.4.938l.007.2h1.784v-.089.089-.2s-.4-.054-.4-.938v-5.6c.013-.876.398-.936.413-.938zm13.248-.001l-.016-.2h-1.415l-2.623 6.084-2.667-6.084h-2.476l.883.2c.148.033.491.186.491.884v5.588c0 .913-.434 1-.483 1.006l.014.2h1.651l.012-.2c-.005 0-.459-.066-.459-1v-5.041l2.868 6.511 2.821-6.516v5.094c0 .856-.327.944-.365.951l.019.2h1.729v-.062.062l.009-.2s-.393-.065-.393-.906v-5.655c.01-.843.384-.913.4-.916zm11.022 6.466l-2.98-7.182-3 7.148c-.434 1.022-.72 1.044-.723 1.044v.2h2.06l-.424-.19a.427.427 0 01-.275-.434 1.833 1.833 0 01.16-.644l.689-1.711h2.643l.755 1.835a1.862 1.862 0 01.171.631.319.319 0 01-.222.323l-.408.19h2.3v-.062.062l.009-.2s-.359-.06-.755-1.01zm-2.112-2.426h-2.113l1.047-2.612z"/><path class="cls-1" d="M74.375.187L74.117 0 .257 53.662 0 53.85l28.311 87.128h91.615l28.31-87.128zM119.289 140.1H28.947L1.029 54.184l73.088-53.1 73.09 53.1z"/><path class="cls-1" d="M65.64 117.013h16.956v.875H65.64z"/></g></g></svg>