<svg xmlns="http://www.w3.org/2000/svg" width="371.277" height="116.37"><defs><style>.cls-1{fill:#f5c6c0}</style></defs><g id="レイヤー_2" data-name="レイヤー 2"><g id="OL後"><path class="cls-1" d="M224.414 65.128h-23.538a.585.585 0 010-1.17h23.538a.585.585 0 010 1.17z"/><path class="cls-1" d="M196.849 116.37a58.185 58.185 0 1158.185-58.186 58.251 58.251 0 01-58.185 58.186zm0-115.2a57.015 57.015 0 1057.015 57.014A57.08 57.08 0 00196.849 1.17zm77.2 56.541a.05.05 0 00-.007.1c.005 0 .538.1.538 1.274V65.8c0 1.135-.531 1.2-.536 1.206a.05.05 0 00-.045.052.049.049 0 00.05.047h2.151a.05.05 0 00.05-.046.051.051 0 00-.05-.059c-.006 0-.551-.083-.551-1.206v-3.07h2.287c.724 0 .785.335.788.349a.049.049 0 00.049.043.05.05 0 00.047-.05v-1.321a.051.051 0 00-.047-.05.051.051 0 00-.05.044s-.052.348-.787.348h-2.287v-3.736h2.03a1.112 1.112 0 011.207.8.051.051 0 00.054.039.05.05 0 00.045-.049v-1.38a.05.05 0 00-.05-.05zm15.997 8.013l-2.325-2.958.028-.006c.034-.008.086-.019.108-.021A2.707 2.707 0 00290 60.191c0-1.829-1.588-2.48-3.075-2.48h-2.674a.05.05 0 000 .1c.006 0 .535.061.535 1.248v6.751c0 1.134-.529 1.192-.534 1.193a.05.05 0 000 .1h2.148a.05.05 0 000-.1c-.006 0-.547-.047-.547-1.193v-7.459h1.1a1.989 1.989 0 01.014 3.978h-.811a.05.05 0 00-.039.081l3.673 4.673a.05.05 0 00.04.018h1.58a.048.048 0 00.048-.041.048.048 0 00-.032-.055 5.387 5.387 0 01-1.38-1.281zm10.721-8.175a5.012 5.012 0 00-3.527 8.527 4.763 4.763 0 003.229 1.188A5.013 5.013 0 00304 58.736a4.765 4.765 0 00-3.233-1.187zm.053 9.048c-2.224 0-3.839-1.8-3.839-4.286 0-2.449 1.381-4.095 3.435-4.095 2.224 0 3.839 1.8 3.839 4.285 0 2.449-1.38 4.099-3.435 4.099zm19.248-.761V58.99c0-1.058.484-1.171.539-1.181a.049.049 0 00.042-.052.049.049 0 00-.05-.046h-1.634a.051.051 0 00-.046.03l-3.209 7.443-3.262-7.444a.051.051 0 00-.046-.029h-1.822a.05.05 0 00-.012.1c.2.044.65.244.65 1.14v6.766c0 1.16-.579 1.278-.646 1.287a.05.05 0 00-.042.054.049.049 0 00.05.045h2a.05.05 0 00.006-.1c-.006 0-.618-.092-.618-1.287v-6.435l3.5 7.94a.052.052 0 00.046.029.051.051 0 00.046-.03l3.44-7.948v6.51c0 1.066-.417 1.2-.5 1.221a.049.049 0 00-.04.054.048.048 0 00.049.044h2.1a.05.05 0 000-.1c-.053-.008-.541-.119-.541-1.165zm18.875-.112l-2.325-2.958.028-.006c.034-.008.086-.019.108-.021a2.707 2.707 0 002.146-2.548c0-1.829-1.588-2.48-3.075-2.48h-2.674a.05.05 0 000 .1c.006 0 .535.061.535 1.248v6.751c0 1.134-.529 1.192-.534 1.193a.05.05 0 000 .1h2.148a.05.05 0 000-.1c-.006 0-.547-.047-.547-1.193v-7.459h1.1a1.989 1.989 0 01.014 3.978h-.811a.05.05 0 00-.039.081l3.673 4.673a.05.05 0 00.04.018h1.58a.048.048 0 00.048-.041.048.048 0 00-.032-.055 5.387 5.387 0 01-1.383-1.281zm7.691.076v-6.783c0-1.134.544-1.206.549-1.207a.05.05 0 000-.1h-2.147a.05.05 0 000 .1s.536.073.536 1.207V65.8c0 1.147-.543 1.2-.548 1.206a.05.05 0 000 .1h2.163a.05.05 0 100-.1c-.035-.006-.553-.09-.553-1.206zm11.516-.2a1.746 1.746 0 01-1.629.863h-2.165v-7.446c0-1.134.544-1.206.549-1.207a.048.048 0 00.045-.051.049.049 0 00-.05-.048h-2.147a.05.05 0 000 .1s.535.073.535 1.207V65.7c0 1.239-.529 1.3-.534 1.3a.05.05 0 000 .1h5.2a.048.048 0 00.046-.04l.244-1.431a.051.051 0 00-.035-.057.052.052 0 00-.059.028zm13.078 1.4c-.061-.011-.494-.123-.97-1.267l-3.5-8.426a.05.05 0 00-.092 0l-3.525 8.386C362.6 66.987 362.219 67 362.2 67a.05.05 0 100 .1h1.931a.049.049 0 00.049-.039.05.05 0 00-.028-.056.585.585 0 01-.376-.589 2.275 2.275 0 01.2-.805l.852-2.116h3.3l.933 2.265a2.267 2.267 0 01.212.791.453.453 0 01-.309.455.049.049 0 00-.027.055.047.047 0 00.048.039h2.245a.05.05 0 100-.1zm-3.36-4.159H365.1l1.371-3.422zM5.447 65.6a1.748 1.748 0 01-1.63.863H1.652v-7.445c0-1.134.544-1.206.549-1.207a.05.05 0 000-.1H.05a.049.049 0 00-.05.047.05.05 0 00.045.052c.005 0 .536.073.536 1.207V65.7c0 1.239-.53 1.3-.535 1.3a.05.05 0 000 .1h5.2a.049.049 0 00.049-.041l.243-1.431a.05.05 0 00-.094-.03zm12.107.137l-3.5-8.427a.05.05 0 00-.092 0l-3.523 8.39C9.892 66.988 9.515 67 9.5 67a.05.05 0 100 .1h1.93a.049.049 0 00.049-.039.05.05 0 00-.028-.056.585.585 0 01-.376-.589 2.275 2.275 0 01.2-.805l.851-2.116h3.3l.933 2.265a2.267 2.267 0 01.212.791.453.453 0 01-.309.455.051.051 0 00-.028.055.049.049 0 00.049.039h2.244a.05.05 0 100-.1c-.065-.008-.497-.12-.973-1.263zm-2.39-2.893H12.4l1.371-3.422zm13.642-5.132h-6.4a.049.049 0 00-.049.043l-.189 1.35a.05.05 0 00.035.055.053.053 0 00.059-.025 1.534 1.534 0 011.508-.784h1.3V65.8c0 1.171-.527 1.206-.532 1.206a.05.05 0 00-.049.051.049.049 0 00.05.048h2.147a.05.05 0 000-.1c-.006 0-.547-.047-.547-1.206v-7.448h1.3a1.534 1.534 0 011.508.784.053.053 0 00.06.025.05.05 0 00.034-.055l-.189-1.35a.049.049 0 00-.046-.043zM39.169 65.6a1.746 1.746 0 01-1.629.863h-2.058v-3.736h2.287a.933.933 0 01.8.356.051.051 0 00.056.02.048.048 0 00.036-.047v-1.31a.05.05 0 00-.036-.048.054.054 0 00-.057.022.94.94 0 01-.808.368h-2.278v-3.737h1.828c.779 0 1.254.261 1.41.776a.056.056 0 00.055.035.051.051 0 00.043-.05v-1.35a.05.05 0 00-.05-.05H33.88a.05.05 0 00-.006.1s.537.086.537 1.261V65.7c0 1.239-.53 1.3-.535 1.3a.05.05 0 000 .1h5.091a.049.049 0 00.049-.041l.243-1.431a.05.05 0 00-.034-.057.051.051 0 00-.056.029zm8.26-3.764l-.081-.039c-1.041-.494-2.024-.961-2.024-1.969a1.619 1.619 0 011.665-1.639 2.54 2.54 0 012.263 1.537.05.05 0 00.1-.02v-1.458a.049.049 0 00-.023-.042 4.377 4.377 0 00-2.3-.656 2.5 2.5 0 00-2.616 2.494c0 1.111.636 1.84 2.271 2.6 1.664.769 2.145 1.267 2.145 2.223a1.735 1.735 0 01-1.787 1.76 2.748 2.748 0 01-2.533-1.806c-.008-.022-.031-.042-.055-.03a.049.049 0 00-.041.049v1.634a.052.052 0 00.021.041 4.457 4.457 0 002.541.752 2.692 2.692 0 002.858-2.684c.001-1.613-1.333-2.242-2.404-2.747zm13.614-4.124h-6.4a.051.051 0 00-.05.043l-.189 1.35a.051.051 0 00.035.055.056.056 0 00.06-.025 1.534 1.534 0 011.507-.784h1.3V65.8c0 1.171-.527 1.206-.532 1.206a.049.049 0 00-.048.051.048.048 0 00.049.048h2.147a.05.05 0 000-.1c-.006 0-.547-.047-.547-1.206v-7.448h1.3a1.536 1.536 0 011.508.784.052.052 0 00.059.025.05.05 0 00.035-.055l-.189-1.35a.051.051 0 00-.045-.043zm18.833 0a.049.049 0 00-.049.043.046.046 0 00.036.054 1.1 1.1 0 01.665 1.182v6.023l-6.245-7.285a.052.052 0 00-.038-.017H72.57a.049.049 0 00-.009.1 1.327 1.327 0 011.053 1.262v6.752c0 .968-.415 1.148-.543 1.18a.051.051 0 00-.037.055.049.049 0 00.049.043h1.9a.049.049 0 00.05-.044A.048.048 0 0075 67c-.149-.028-.635-.193-.635-1.167V59.5l6.826 7.959a.049.049 0 00.039.017h.017a.047.047 0 00.032-.046v-8.44c0-1.014.429-1.161.515-1.181a.05.05 0 00.039-.054.05.05 0 00-.05-.044zM92.683 65.6a1.749 1.749 0 01-1.63.863H89v-3.736h2.287a.937.937 0 01.8.356.05.05 0 00.056.02.047.047 0 00.035-.047v-1.31a.049.049 0 00-.036-.048.053.053 0 00-.056.022.942.942 0 01-.808.368H89v-3.737h1.827c.78 0 1.255.261 1.411.776a.053.053 0 00.055.035.051.051 0 00.043-.05v-1.35a.05.05 0 00-.05-.05h-4.892a.05.05 0 00-.05.047.049.049 0 00.043.052c.006 0 .537.086.537 1.261V65.7c0 1.239-.529 1.3-.534 1.3a.05.05 0 000 .1h5.09a.05.05 0 00.05-.041l.243-1.431a.05.05 0 00-.094-.03zm15.192-7.888a.05.05 0 000 .1c.292.024.44.208.44.545a2.415 2.415 0 01-.16.74l-1.965 5.684-2.559-7.291a.05.05 0 00-.046-.033.051.051 0 00-.047.032l-2.69 7.34-1.657-5.486a10.35 10.35 0 00-.148-.471 2.323 2.323 0 01-.161-.663.364.364 0 01.337-.4.049.049 0 00.041-.053.05.05 0 00-.05-.045h-2.246a.048.048 0 00-.046.044.054.054 0 00.04.055c.411.117.761.575.985 1.29l2.66 8.292a.05.05 0 00.095 0l2.64-7.348 2.559 7.348a.051.051 0 00.047.033.052.052 0 00.048-.033l2.917-8.251c.394-1.135.917-1.306 1.068-1.333a.049.049 0 00.042-.052.049.049 0 00-.05-.046zm9.538 4.124l-.082-.039c-1.04-.494-2.023-.961-2.023-1.969a1.619 1.619 0 011.665-1.639 2.542 2.542 0 012.263 1.537.05.05 0 00.056.029.051.051 0 00.04-.049v-1.458a.048.048 0 00-.024-.042 4.371 4.371 0 00-2.3-.656 2.5 2.5 0 00-2.616 2.494c0 1.111.637 1.84 2.271 2.6 1.664.769 2.145 1.267 2.145 2.223a1.735 1.735 0 01-1.787 1.76 2.747 2.747 0 01-2.532-1.806c-.009-.022-.032-.042-.056-.03a.05.05 0 00-.041.049v1.634a.052.052 0 00.021.041 4.462 4.462 0 002.541.752 2.692 2.692 0 002.859-2.684c.005-1.613-1.329-2.242-2.4-2.747z"/><path class="cls-1" d="M218.131 38.365H206.05v-3.821h8.25v-6.733h-12.18v10.554h-19.459a12.847 12.847 0 00-12.331 9.316h-5.947a.54.54 0 00-.058.011.522.522 0 00-.356.161.582.582 0 00-.17.408v20.318a.585.585 0 00.585.585h5.445v7.059h24.5v19.06a.585.585 0 101.17 0v-19.06h5.063v19.06a.585.585 0 101.17 0v-19.06h29.237V51.2a12.848 12.848 0 00-12.838-12.835zm-14.842-9.384h9.84v4.393h-8.249v20.71h-1.591zm-8.964 46.072H171v-5.889h19.134v-1.17h-25.166V49.677l11.393 11.384a3.985 3.985 0 005.627 0l8.144-8.138v-1.654l-8.971 8.964a2.81 2.81 0 01-3.973 0L165.8 48.851h24.336v-1.17h-18.59a11.663 11.663 0 0122.779 3.519zm35.47 0H195.5V51.2a12.839 12.839 0 00-7.512-11.662h14.136v15.716h3.931V39.535h12.081A11.676 11.676 0 01229.8 51.2z"/></g></g></svg>