<svg xmlns="http://www.w3.org/2000/svg" width="250" height="57.291"><path d="M20.505 32.039c-8.19 0-15.749-5.849-15.749-16.064C4.756 6.75 11.056 0 21.135 0A19 19 0 0130.5 2.3v5a11.3 11.3 0 00-9.72-5.4C12.9 1.891 8.356 7.92 8.356 15.615c0 9 5.669 14.309 12.689 14.309a13.638 13.638 0 009.45-3.33v2.16a17.058 17.058 0 01-9.99 3.285zM66.315 0C74.19 0 81.7 5.221 81.7 15.66c0 9.629-6.524 16.379-16.379 16.379-7.875 0-15.39-5.219-15.39-15.658C49.935 6.75 56.46 0 66.315 0zm-1.17 1.891c-6.795 0-11.609 5.445-11.609 13.814 0 8.324 5.489 14.445 12.959 14.445 6.8 0 11.609-5.445 11.609-13.814C78.1 8.01 72.615 1.891 65.145 1.891zM127.244 31.5c.225-.045 1.8-.451 1.8-4.23V4.771l-11.79 27.223-11.969-27.178v22.229c0 3.824 1.845 4.41 2.2 4.455h-6.66c.315-.045 2.3-.5 2.3-4.455V4.5c0-3.375-1.89-3.869-2.3-3.959h6.075L117.929 25.7 128.774.541h5.445c-.27.045-1.935.494-1.935 4.094v22.814c0 3.51 1.62 4.006 1.935 4.051zm29.34-4.185V4.727c0-4.006-1.935-4.186-1.935-4.186h7.151s-1.98.18-1.98 4.186v22.588c0 4.05 1.98 4.185 1.98 4.185h-7.2s1.984-.135 1.984-4.185zm40.41 4.724c-8.19 0-15.749-5.849-15.749-16.064C181.245 6.75 187.544 0 197.624 0a18.992 18.992 0 019.359 2.3v5a11.3 11.3 0 00-9.719-5.4c-7.875 0-12.42 6.029-12.42 13.724 0 9 5.67 14.309 12.69 14.309a13.634 13.634 0 009.449-3.33v2.16a17.052 17.052 0 01-9.989 3.276zm30.196-2.474v-5.446a9.279 9.279 0 008.594 6.121 5.968 5.968 0 006.12-6.031c0-3.375-1.89-5.084-7.245-7.559-5.04-2.339-7.469-4.679-7.469-8.5 0-4.9 3.869-8.145 8.549-8.145a14.4 14.4 0 017.56 2.16v4.856A8.646 8.646 0 00235.6 1.8a5.533 5.533 0 00-5.715 5.625c0 3.554 3.51 5.129 7.11 6.84 3.915 1.843 7.919 3.869 7.919 9 0 5.578-4.409 8.773-9.359 8.773a14.7 14.7 0 01-8.365-2.473zM0 56.291h250v1H0z" fill="#5f648c" data-name="レイヤー 2"/></svg>