<svg xmlns="http://www.w3.org/2000/svg" width="584.206" height="153.801"><defs><style>.cls-1{fill:#5f648c}</style></defs><g id="レイヤー_2" data-name="レイヤー 2"><g id="デザイン"><path class="cls-1" d="M10.172 117.767a2.73 2.73 0 00.635-.1 2.919 2.919 0 00.595-.205.409.409 0 01.389-.041q.246 2.142.533 3.527a.462.462 0 01-.389.143.327.327 0 01-.287-.1 4.538 4.538 0 00-.728-1.82 1.5 1.5 0 00-1.24-.682H7.074v10.459a6.6 6.6 0 00.1 1.518c.027.1.218.174.574.236a5.278 5.278 0 00.84.092.532.532 0 01.066.3.434.434 0 01-.066.3q-2.1-.1-2.4-.1-.319 0-2.42.1a.439.439 0 01-.066-.3.532.532 0 01.066-.3 5.278 5.278 0 00.84-.092c.356-.062.547-.14.575-.236a6.688 6.688 0 00.1-1.518v-10.463H2.645a1.493 1.493 0 00-1.241.682 4.509 4.509 0 00-.728 1.82.327.327 0 01-.287.1.462.462 0 01-.389-.141q.287-1.386.533-3.527a.554.554 0 01.467.061 2.642 2.642 0 00.555.195 2.443 2.443 0 00.593.092zm9.986 4.574a3.2 3.2 0 011.127.174 1.994 1.994 0 01.76.492 2.205 2.205 0 01.465.871 6.064 6.064 0 01.232 1.211q.061.655.061 1.6v2.255a6.566 6.566 0 00.1 1.518c.026.1.2.174.518.236a4.269 4.269 0 00.773.092.548.548 0 01.067.3.45.45 0 01-.067.3q-2.1-.1-2.193-.1c-.24 0-.471 0-.694.016s-.476.025-.763.045-.527.035-.717.041a.443.443 0 01-.068-.3.546.546 0 01.068-.3 4.309 4.309 0 00.773-.092c.319-.062.491-.14.518-.236a6.666 6.666 0 00.1-1.518v-2.05a5.8 5.8 0 00-.416-2.651 1.687 1.687 0 00-1.594-.713 1.858 1.858 0 00-.826.246 4.51 4.51 0 00-.8.512q-.322.267-.322.369v4.287a6.566 6.566 0 00.1 1.518c.026.1.2.174.518.236a4.269 4.269 0 00.773.092.548.548 0 01.067.3.45.45 0 01-.067.3q-2.1-.1-2.193-.1c-.24 0-.471 0-.694.016s-.476.025-.763.045-.528.035-.717.041a.443.443 0 01-.068-.3.538.538 0 01.068-.3 4.309 4.309 0 00.773-.092c.319-.062.491-.14.518-.236a6.666 6.666 0 00.1-1.518v-9.068a3.418 3.418 0 00-.1-1.066c-.1-.247-.52-.37-1.25-.37-.008 0-.016-.043-.022-.129a2.5 2.5 0 010-.261c0-.088.019-.137.046-.143a9.389 9.389 0 002.913-.82c.046 0 .1.035.148.107a.381.381 0 01.078.221 5.607 5.607 0 00-.226 1.783v4.635c0 .027.021.041.062.041.012 0 .033-.014.061-.041a5.851 5.851 0 011.261-.973 2.97 2.97 0 011.512-.523zm7.811 3.896a3.955 3.955 0 00.927 2.907 3.183 3.183 0 002.416 1.031 2.539 2.539 0 001.338-.36 3.71 3.71 0 00.918-.728.146.146 0 01.051.037.324.324 0 01.076.107.293.293 0 01.037.143.737.737 0 01-.123.369 3.414 3.414 0 01-.41.533 5.04 5.04 0 01-.615.555 3.311 3.311 0 01-1.969.656 3.891 3.891 0 01-2.949-1.215 4.26 4.26 0 01-1.152-3.05 4.992 4.992 0 01.378-1.918 5.2 5.2 0 01.965-1.559 4.878 4.878 0 011.3-1.019 2.932 2.932 0 011.395-.385 3.526 3.526 0 011.261.215 2.694 2.694 0 01.893.527 2.836 2.836 0 01.543.713 3.191 3.191 0 01.3.728 2.493 2.493 0 01.082.606 1.806 1.806 0 01-.108.713.4.4 0 01-.384.25q-.42.032-2.66.088t-2.51.056zm.1-.759h3.342c.295 0 .451-.157.473-.471a1.678 1.678 0 00-.082-.514 3.25 3.25 0 00-.278-.635 1.581 1.581 0 00-.533-.554 1.416 1.416 0 00-.789-.225 1.656 1.656 0 00-.883.246 2 2 0 00-.631.6 4.686 4.686 0 00-.379.707 3.848 3.848 0 00-.205.6c-.034.168-.045.246-.032.246zM42 122.36a1.677 1.677 0 01.754.176 1.117 1.117 0 01.5.42 1.732 1.732 0 01.082.553 1.194 1.194 0 01-.234.785.637.637 0 01-.442.281.56.56 0 01-.252-.056 2.144 2.144 0 01-.3-.184 4.772 4.772 0 00-.211-.148 1.34 1.34 0 00-.757-.247 1.44 1.44 0 00-1.118.7 2.128 2.128 0 00-.523 1.144v3.158a6.649 6.649 0 00.1 1.518c.027.1.269.174.724.236a8.468 8.468 0 001.039.092.545.545 0 01.069.3.443.443 0 01-.069.3q-2.1-.1-2.543-.1-.192 0-2.3.1a.456.456 0 01-.067-.3.539.539 0 01.067-.3 4.308 4.308 0 00.775-.092c.318-.062.49-.14.517-.236a8.06 8.06 0 00.1-1.518v-3.812a3.407 3.407 0 00-.1-1.066q-.061-.156-.39-.247a2.771 2.771 0 00-.547-.107 4.885 4.885 0 00-.4-.016.457.457 0 01-.044-.246.564.564 0 01.044-.287 8.79 8.79 0 002.934-.861c.047 0 .1.041.148.123a.416.416 0 01.077.2q-.021.123-.082.928c-.041.537-.061.855-.061.959a.066.066 0 00.02.056.04.04 0 00.037.01.059.059 0 00.025-.025 5.184 5.184 0 011.066-1.477A2.018 2.018 0 0142 122.36zm5.162 3.877a3.956 3.956 0 00.928 2.907 3.18 3.18 0 002.416 1.031 2.544 2.544 0 001.338-.36 3.729 3.729 0 00.918-.728.157.157 0 01.05.037.325.325 0 01.077.107.3.3 0 01.037.143.737.737 0 01-.123.369 3.423 3.423 0 01-.411.533 5.04 5.04 0 01-.615.555 3.3 3.3 0 01-1.968.656 3.894 3.894 0 01-2.95-1.215 4.264 4.264 0 01-1.152-3.05 4.974 4.974 0 01.379-1.918 5.158 5.158 0 01.965-1.559 4.847 4.847 0 011.3-1.019 2.925 2.925 0 011.394-.385 3.532 3.532 0 011.262.215 2.679 2.679 0 01.892.527 2.813 2.813 0 01.543.713 3.191 3.191 0 01.3.728 2.493 2.493 0 01.082.606 1.827 1.827 0 01-.107.713.4.4 0 01-.385.25q-.418.032-2.66.088t-2.51.056zm.1-.759h3.341c.3 0 .452-.157.473-.471a1.619 1.619 0 00-.082-.514 3.243 3.243 0 00-.277-.635 1.59 1.59 0 00-.533-.554 1.421 1.421 0 00-.79-.225 1.65 1.65 0 00-.882.246 1.977 1.977 0 00-.631.6 4.513 4.513 0 00-.379.707 3.648 3.648 0 00-.2.6c-.038.168-.05.246-.036.246zm18.838-.821v4.287a6.733 6.733 0 00.1 1.518c.027.1.2.174.518.236a4.308 4.308 0 00.775.092.54.54 0 01.066.3.457.457 0 01-.066.3q-2.1-.1-2.195-.1c-.24 0-.471 0-.692.016s-.476.025-.763.045-.528.035-.719.041a.434.434 0 01-.066-.3.54.54 0 01.066-.3 4.289 4.289 0 00.773-.092c.319-.062.491-.14.52-.236a8.251 8.251 0 00.1-1.518v-3.816a3.5 3.5 0 00-.1-1.066c-.041-.1-.172-.186-.391-.247a2.759 2.759 0 00-.549-.107 4.814 4.814 0 00-.394-.016.447.447 0 01-.047-.246.558.558 0 01.047-.287 8.784 8.784 0 002.933-.861c.047 0 .1.041.149.123a.413.413 0 01.076.2 11.661 11.661 0 00-.142 1.353zm-1.672-4.767a1.04 1.04 0 11.728.3.985.985 0 01-.728-.3zm8.746 2.47a6.6 6.6 0 011.136.12c.452.078.77.126.956.148a12.458 12.458 0 01.246 2.256c0 .068-.069.1-.2.1a.535.535 0 01-.35-.1 3.567 3.567 0 00-.662-1.284 1.348 1.348 0 00-1.067-.6 1.5 1.5 0 00-1.082.359 1.236 1.236 0 00-.373.932 1.468 1.468 0 00.076.477 1.688 1.688 0 00.17.365 1.412 1.412 0 00.313.318c.146.116.262.2.344.256s.228.141.439.262.359.2.441.25a26.493 26.493 0 01.877.517l.432.288a2.356 2.356 0 01.424.349c.1.106.2.233.314.379a1.469 1.469 0 01.241.461 1.845 1.845 0 01.072.508 2.553 2.553 0 01-.94 2.025 3.3 3.3 0 01-2.218.805 4.964 4.964 0 01-.786-.057c-.242-.037-.525-.094-.851-.168s-.578-.131-.764-.164a5.617 5.617 0 01-.236-1.021 7.517 7.517 0 01-.111-1.112.6.6 0 01.369-.123.333.333 0 01.183.041 3.013 3.013 0 00.83 1.338 1.945 1.945 0 001.385.61 1.479 1.479 0 001.063-.395 1.428 1.428 0 00.414-1.082 1.585 1.585 0 00-.127-.644 1.508 1.508 0 00-.426-.534 5.507 5.507 0 00-.533-.4c-.158-.1-.4-.233-.719-.4s-.553-.3-.7-.384a4.033 4.033 0 01-1.139-.928 1.955 1.955 0 01-.42-1.268 2.187 2.187 0 01.893-1.8 3.262 3.262 0 012.086-.7zm17.181.022a1.979 1.979 0 011.565.82 3.04 3.04 0 01.672 1.988v4.225q0 .965.635.965a1.045 1.045 0 00.179-.016.591.591 0 00.149-.041 1.246 1.246 0 00.129-.062.8.8 0 00.1-.061.633.633 0 00.072-.056c.024-.02.039-.032.047-.032.055 0 .082.055.082.164a.761.761 0 01-.1.391 4.071 4.071 0 01-.742.5 1.8 1.8 0 01-.8.283 1.032 1.032 0 01-.789-.416 1.98 1.98 0 01-.463-.918 7.027 7.027 0 01-1.174.836 2.927 2.927 0 01-1.348.539 2.342 2.342 0 01-1.707-.681 2.259 2.259 0 01-.693-1.678 1.75 1.75 0 01.324-1.041 1.588 1.588 0 01.7-.6c.227-.082.637-.224 1.231-.429s1.092-.379 1.492-.524.689-.256.867-.338a.353.353 0 00.2-.154.913.913 0 00.047-.359v-.553a2.076 2.076 0 00-.517-1.35 1.579 1.579 0 00-1.246-.619.918.918 0 00-.764.313 2.12 2.12 0 00-.365.959q-.174.984-.963.984a.6.6 0 01-.5-.268.973.973 0 01-.2-.593 1.154 1.154 0 01.045-.252.819.819 0 01.1-.24 7.529 7.529 0 011.687-1.139 4.461 4.461 0 012.048-.547zm-1.107 8a2.524 2.524 0 001.144-.334c.426-.223.641-.391.641-.508v-2.789q-1.59.472-1.908.6a2.158 2.158 0 00-.918.631 1.475 1.475 0 00-.332.968 1.426 1.426 0 00.4 1 1.278 1.278 0 00.973.43zm17.676-8.022a6.606 6.606 0 011.138.12c.452.078.77.126.954.148a12.458 12.458 0 01.246 2.256c0 .068-.069.1-.2.1a.529.529 0 01-.348-.1 3.567 3.567 0 00-.656-1.287 1.348 1.348 0 00-1.067-.6 1.5 1.5 0 00-1.082.359 1.23 1.23 0 00-.375.932 1.416 1.416 0 00.078.477 1.793 1.793 0 00.168.365 1.456 1.456 0 00.313.318c.148.116.262.2.344.256s.228.141.441.262l.441.25.411.236c.21.123.367.217.466.281s.243.163.43.288a2.38 2.38 0 01.426.349c.095.106.2.233.312.379a1.435 1.435 0 01.243.461 1.844 1.844 0 01.07.508 2.557 2.557 0 01-.938 2.025 3.3 3.3 0 01-2.22.805 4.956 4.956 0 01-.784-.057c-.244-.037-.527-.094-.851-.168s-.58-.131-.764-.164a5.45 5.45 0 01-.236-1.021 7.3 7.3 0 01-.113-1.112.6.6 0 01.369-.123.34.34 0 01.185.041 3 3 0 00.83 1.338 1.942 1.942 0 001.385.61 1.477 1.477 0 001.061-.395 1.421 1.421 0 00.416-1.082 1.553 1.553 0 00-.129-.644 1.486 1.486 0 00-.426-.534 5.056 5.056 0 00-.533-.4c-.157-.1-.4-.233-.717-.4s-.555-.3-.7-.384a4.005 4.005 0 01-1.139-.928 1.944 1.944 0 01-.42-1.268 2.187 2.187 0 01.893-1.8 3.259 3.259 0 012.078-.697zm7.105 3.877a3.947 3.947 0 00.928 2.907 3.179 3.179 0 002.414 1.031 2.539 2.539 0 001.338-.36 3.691 3.691 0 00.918-.728c.008 0 .023.012.051.037a.34.34 0 01.078.107.327.327 0 01.035.143.737.737 0 01-.123.369 3.414 3.414 0 01-.41.533 4.981 4.981 0 01-.616.555 3.152 3.152 0 01-.886.471 3.2 3.2 0 01-1.082.185 3.889 3.889 0 01-2.947-1.215 4.254 4.254 0 01-1.155-3.05 5.011 5.011 0 01.379-1.918 5.2 5.2 0 01.965-1.559 4.871 4.871 0 011.3-1.019 2.925 2.925 0 011.394-.385 3.513 3.513 0 011.26.215 2.674 2.674 0 01.893.527 2.86 2.86 0 01.543.713 3.2 3.2 0 01.3.728 2.493 2.493 0 01.082.606 1.866 1.866 0 01-.107.713.4.4 0 01-.385.25q-.422.032-2.662.088t-2.505.056zm.1-.759h3.344c.292 0 .451-.157.47-.471a1.512 1.512 0 00-.082-.514 3.073 3.073 0 00-.277-.635 1.59 1.59 0 00-.533-.554 1.413 1.413 0 00-.789-.225 1.644 1.644 0 00-.881.246 1.956 1.956 0 00-.631.6 4.353 4.353 0 00-.379.707 3.648 3.648 0 00-.2.6c-.042.168-.054.246-.04.246zm15.535-2.071a1.02 1.02 0 01-.236.742.732.732 0 01-.543.243.751.751 0 01-.41-.133 3.672 3.672 0 01-.436-.344 2.959 2.959 0 00-.344-.283 2.73 2.73 0 00-.568-.313 1.925 1.925 0 00-.6-.076 2 2 0 00-1.589.947 4.033 4.033 0 00-.708 2.477 3.4 3.4 0 00.928 2.6 3.36 3.36 0 002.395.871 2.461 2.461 0 001.3-.338 3.676 3.676 0 00.877-.709.157.157 0 01.05.037.31.31 0 01.076.107.3.3 0 01.038.143.73.73 0 01-.124.369 3.414 3.414 0 01-.41.533 5.04 5.04 0 01-.615.555 3.311 3.311 0 01-1.969.656 4.107 4.107 0 01-3.634-2.129 4.146 4.146 0 01-.508-2.013 4.516 4.516 0 01.312-1.662 4.731 4.731 0 01.83-1.4 6.3 6.3 0 011.165-1.041 5.325 5.325 0 011.337-.676 4.221 4.221 0 011.338-.23 3.257 3.257 0 011.846.492.7.7 0 01.139.25.962.962 0 01.063.325zm8.326-1.047a1.663 1.663 0 01.752.176 1.118 1.118 0 01.5.42 1.732 1.732 0 01.082.553 1.183 1.183 0 01-.236.785.632.632 0 01-.44.281.552.552 0 01-.251-.056 2.032 2.032 0 01-.3-.184 8.236 8.236 0 00-.211-.148 1.348 1.348 0 00-.758-.247 1.44 1.44 0 00-1.119.7 2.132 2.132 0 00-.522 1.144v3.158a6.649 6.649 0 00.1 1.518c.027.1.267.174.722.236a8.494 8.494 0 001.041.092.539.539 0 01.067.3.444.444 0 01-.067.3q-2.1-.1-2.543-.1-.195 0-2.3.1a.433.433 0 01-.067-.3.548.548 0 01.067-.3 4.289 4.289 0 00.773-.092c.318-.062.49-.14.52-.236a8.293 8.293 0 00.1-1.518v-3.812a3.516 3.516 0 00-.1-1.066c-.041-.1-.172-.186-.391-.247a2.773 2.773 0 00-.549-.107 4.814 4.814 0 00-.394-.016.437.437 0 01-.047-.246.558.558 0 01.047-.287 8.791 8.791 0 002.933-.861c.047 0 .1.041.149.123a.423.423 0 01.076.2q-.021.123-.082.928c-.041.537-.061.855-.061.959a.066.066 0 00.02.056.037.037 0 00.035.01.05.05 0 00.027-.025 5.094 5.094 0 011.067-1.477 2.006 2.006 0 011.36-.714zm5.166 3.877a3.956 3.956 0 00.928 2.907 3.18 3.18 0 002.416 1.031 2.541 2.541 0 001.338-.36 3.729 3.729 0 00.918-.728c.006 0 .023.012.051.037a.339.339 0 01.076.107.3.3 0 01.037.143.737.737 0 01-.123.369 3.414 3.414 0 01-.41.533 5.055 5.055 0 01-.616.555 3.3 3.3 0 01-1.968.656 3.894 3.894 0 01-2.95-1.215 4.264 4.264 0 01-1.152-3.05 4.974 4.974 0 01.379-1.918 5.158 5.158 0 01.965-1.559 4.862 4.862 0 011.3-1.019 2.925 2.925 0 011.394-.385 3.532 3.532 0 011.262.215 2.694 2.694 0 01.893.527 2.86 2.86 0 01.543.713 3.183 3.183 0 01.3.728 2.493 2.493 0 01.082.606 1.827 1.827 0 01-.107.713.4.4 0 01-.385.25q-.419.032-2.66.088t-2.511.056zm.1-.759h3.344q.441 0 .472-.471a1.619 1.619 0 00-.082-.514 3.184 3.184 0 00-.277-.635 1.59 1.59 0 00-.533-.554 1.421 1.421 0 00-.79-.225 1.65 1.65 0 00-.882.246 1.977 1.977 0 00-.631.6 4.686 4.686 0 00-.379.707 3.648 3.648 0 00-.205.6c-.035.168-.047.246-.033.246zm10.984-3.014h2.645c.068 0 .1.074.1.225a.866.866 0 01-.287.615h-2.458v5.373q0 1.681 1.354 1.681a2.265 2.265 0 001.332-.47c.041.019.062.068.062.142a.439.439 0 01-.082.309 5.386 5.386 0 01-.457.445 3.354 3.354 0 01-.722.451 2.1 2.1 0 01-.934.231 2.812 2.812 0 01-.779-.1 2.084 2.084 0 01-.676-.338 1.525 1.525 0 01-.5-.687 2.961 2.961 0 01-.18-1.088V123.3h-1.189c-.069 0-.1-.061-.1-.184a1.012 1.012 0 01.225-.312c.15-.176.254-.289.308-.344h.758v-1.293q.165-.194.473-.527l.533-.58c.15-.165.232-.252.246-.266a.259.259 0 01.127-.072.278.278 0 01.139-.006c.041.011.062.029.062.056zm15.768-.104a6.625 6.625 0 011.137.12c.451.078.769.126.955.148a12.458 12.458 0 01.246 2.256c0 .068-.069.1-.205.1a.535.535 0 01-.35-.1 3.567 3.567 0 00-.656-1.287 1.348 1.348 0 00-1.067-.6 1.5 1.5 0 00-1.082.359 1.236 1.236 0 00-.373.932 1.468 1.468 0 00.076.477 1.688 1.688 0 00.17.365 1.412 1.412 0 00.313.318c.146.116.262.2.344.256s.228.141.439.262.359.2.441.25a26.493 26.493 0 01.877.517c.099.064.243.163.432.288a2.392 2.392 0 01.424.349c.1.106.2.233.314.379a1.469 1.469 0 01.241.461 1.845 1.845 0 01.072.508 2.553 2.553 0 01-.94 2.025 3.3 3.3 0 01-2.218.805 4.964 4.964 0 01-.786-.057c-.242-.037-.525-.094-.851-.168s-.578-.131-.764-.164a5.617 5.617 0 01-.236-1.021 7.517 7.517 0 01-.111-1.112.6.6 0 01.369-.123.333.333 0 01.183.041 3.013 3.013 0 00.83 1.338 1.945 1.945 0 001.385.61 1.479 1.479 0 001.063-.395 1.428 1.428 0 00.414-1.082 1.585 1.585 0 00-.127-.644 1.508 1.508 0 00-.426-.534 5.507 5.507 0 00-.533-.4c-.158-.1-.4-.233-.719-.4s-.553-.3-.7-.384a4.033 4.033 0 01-1.139-.928 1.955 1.955 0 01-.42-1.268 2.187 2.187 0 01.893-1.8 3.264 3.264 0 012.085-.697zm8.109.104h2.647c.068 0 .1.074.1.225a.862.862 0 01-.287.615h-2.461v5.373q0 1.681 1.354 1.681a2.271 2.271 0 001.334-.47c.041.019.06.068.06.142a.439.439 0 01-.082.309 5.837 5.837 0 01-.455.445 3.36 3.36 0 01-.725.451 2.091 2.091 0 01-.931.231 2.8 2.8 0 01-.78-.1 2.1 2.1 0 01-.677-.338 1.537 1.537 0 01-.5-.687 2.919 2.919 0 01-.18-1.088V123.3h-1.184c-.069 0-.1-.061-.1-.184a1.039 1.039 0 01.227-.312c.15-.176.252-.289.306-.344h.76v-1.293q.163-.194.471-.527l.533-.58c.15-.165.232-.252.246-.266a.274.274 0 01.129-.072.278.278 0 01.139-.006c.041.011.06.029.06.056zm9.567-.145a4.206 4.206 0 013.193 1.256 4.476 4.476 0 011.195 3.215 4.722 4.722 0 01-1.246 3.334 4.057 4.057 0 01-3.1 1.342 4.2 4.2 0 01-3.2-1.276 4.527 4.527 0 01-1.206-3.236 4.639 4.639 0 011.252-3.307 4.112 4.112 0 013.112-1.328zm-.227.678a1.916 1.916 0 00-1.383.533 2.863 2.863 0 00-.775 1.3 6.52 6.52 0 00.1 3.695 3.97 3.97 0 00.985 1.606 2.141 2.141 0 001.549.656 1.92 1.92 0 001.384-.533 2.873 2.873 0 00.774-1.3 6.4 6.4 0 00-.1-3.682 4.092 4.092 0 00-.988-1.621 2.128 2.128 0 00-1.546-.651zm12.943-.637a1.677 1.677 0 01.754.176 1.106 1.106 0 01.5.42 1.732 1.732 0 01.082.553 1.194 1.194 0 01-.234.785.636.636 0 01-.441.281.56.56 0 01-.252-.056 2.086 2.086 0 01-.3-.184 5.546 5.546 0 00-.211-.148 1.343 1.343 0 00-.758-.247 1.44 1.44 0 00-1.117.7 2.12 2.12 0 00-.523 1.144v3.158a6.733 6.733 0 00.1 1.518c.027.1.27.174.725.236a8.453 8.453 0 001.039.092.546.546 0 01.068.3.443.443 0 01-.068.3q-2.1-.1-2.543-.1-.194 0-2.3.1a.462.462 0 01-.067-.3.548.548 0 01.067-.3 4.308 4.308 0 00.775-.092c.319-.062.49-.14.518-.236a8.1 8.1 0 00.1-1.518v-3.812a3.45 3.45 0 00-.1-1.066c-.041-.1-.172-.186-.391-.247a2.757 2.757 0 00-.547-.107 4.885 4.885 0 00-.4-.016.453.453 0 01-.045-.246.562.562 0 01.045-.287 8.784 8.784 0 002.933-.861c.047 0 .1.041.149.123a.413.413 0 01.076.2q-.021.123-.082.928c-.041.537-.06.855-.06.959a.066.066 0 00.019.056.041.041 0 00.037.01.056.056 0 00.026-.025 5.146 5.146 0 011.066-1.477 2.016 2.016 0 011.36-.714zm4.969.246a17.962 17.962 0 002.051-.1.816.816 0 01.014.344c-.016.166-.049.25-.1.25a3.282 3.282 0 00-.334.021 1.775 1.775 0 00-.436.108c-.158.058-.236.13-.236.22a.164.164 0 00.021.082l2.174 5.537q1.047-2.727 1.825-4.656a1.693 1.693 0 00.123-.656.532.532 0 00-.329-.481 1.821 1.821 0 00-.861-.175c-.049 0-.072-.084-.072-.256a.541.541 0 01.072-.338 14.345 14.345 0 001.846.1q.7 0 1.722-.1a.55.55 0 01.032.344c-.022.166-.051.25-.092.25a2.1 2.1 0 00-.7.164.967.967 0 00-.59.533q-2.195 5.229-3.076 7.4c-.069.164-.215.547-.442 1.149s-.423 1.086-.593 1.455a7.171 7.171 0 01-.6 1.047A2.186 2.186 0 01205.01 136a.785.785 0 01-.893-.883.935.935 0 01.246-.594 3.273 3.273 0 001.282-.2 2.93 2.93 0 001.037-.968 6.566 6.566 0 00.568-1.067 9.21 9.21 0 00.416-1q-2.053-5.229-3.221-7.773-.2-.411-1.127-.41c-.021 0-.031-.094-.031-.282a.747.747 0 01.031-.312 19.7 19.7 0 002.051.095zm19.49-.142h2.641c.068 0 .1.074.1.225a.862.862 0 01-.287.615h-2.461v5.373q0 1.681 1.354 1.681a2.265 2.265 0 001.332-.47c.041.019.062.068.062.142a.439.439 0 01-.082.309 5.386 5.386 0 01-.457.445 3.354 3.354 0 01-.722.451 2.1 2.1 0 01-.934.231 2.812 2.812 0 01-.779-.1 2.094 2.094 0 01-.676-.338 1.525 1.525 0 01-.5-.687 2.961 2.961 0 01-.18-1.088V123.3h-1.18c-.069 0-.1-.061-.1-.184a1.012 1.012 0 01.225-.312c.15-.176.254-.289.308-.344h.758v-1.293q.165-.194.473-.527l.533-.58c.15-.165.232-.252.246-.266a.259.259 0 01.127-.072.278.278 0 01.139-.006c.041.011.062.029.062.056zm10.662-.123a3.2 3.2 0 011.127.174 1.994 1.994 0 01.76.492 2.22 2.22 0 01.467.871 6.067 6.067 0 01.23 1.211q.061.655.061 1.6v2.255a6.6 6.6 0 00.1 1.518c.027.1.2.174.517.236a4.309 4.309 0 00.773.092.536.536 0 01.069.3.443.443 0 01-.069.3q-2.1-.1-2.193-.1c-.24 0-.471 0-.691.016s-.479.025-.766.045-.525.035-.717.041a.439.439 0 01-.066-.3.549.549 0 01.066-.3 4.3 4.3 0 00.774-.092c.318-.062.49-.14.517-.236a6.6 6.6 0 00.1-1.518v-2.05a5.8 5.8 0 00-.416-2.651 1.684 1.684 0 00-1.594-.713 1.869 1.869 0 00-.826.246 4.488 4.488 0 00-.8.512c-.215.178-.324.3-.324.369v4.287a6.688 6.688 0 00.1 1.518c.028.1.2.174.518.236a4.309 4.309 0 00.773.092.545.545 0 01.069.3.443.443 0 01-.069.3q-2.1-.1-2.193-.1c-.24 0-.471 0-.691.016s-.479.025-.766.045-.525.035-.717.041a.434.434 0 01-.066-.3.549.549 0 01.066-.3 4.308 4.308 0 00.774-.092c.318-.062.49-.14.517-.236a6.6 6.6 0 00.1-1.518v-9.068a3.386 3.386 0 00-.1-1.066c-.1-.247-.519-.37-1.25-.37-.008 0-.013-.043-.021-.129a2.256 2.256 0 010-.261c0-.088.017-.137.045-.143a9.384 9.384 0 002.912-.82c.049 0 .1.035.15.107a.379.379 0 01.076.221 5.665 5.665 0 00-.226 1.783v4.635c0 .027.021.041.062.041.014 0 .034-.014.061-.041a5.886 5.886 0 011.262-.973 2.976 2.976 0 011.515-.523zm10.479.041a1.976 1.976 0 011.562.82 3.024 3.024 0 01.672 1.988v4.225q0 .965.637.965a1.076 1.076 0 00.18-.016.62.62 0 00.148-.041 1.055 1.055 0 00.127-.062.875.875 0 00.1-.061c.023-.017.047-.035.072-.056a.14.14 0 01.045-.032c.055 0 .082.055.082.164a.751.751 0 01-.1.391 4.137 4.137 0 01-.744.5 1.793 1.793 0 01-.795.283 1.034 1.034 0 01-.789-.416 2 2 0 01-.461-.918 7.071 7.071 0 01-1.174.836 2.942 2.942 0 01-1.349.539 2.343 2.343 0 01-1.707-.681 2.266 2.266 0 01-.692-1.678 1.763 1.763 0 01.323-1.041 1.576 1.576 0 01.7-.6c.224-.082.635-.224 1.23-.429s1.092-.379 1.492-.524.688-.256.866-.338a.355.355 0 00.2-.154.965.965 0 00.045-.359v-.553a2.062 2.062 0 00-.518-1.35 1.576 1.576 0 00-1.246-.619.92.92 0 00-.764.313 2.1 2.1 0 00-.363.959c-.117.656-.437.984-.965.984a.6.6 0 01-.5-.268.979.979 0 01-.2-.593 1.071 1.071 0 01.047-.252.747.747 0 01.1-.24 7.567 7.567 0 011.686-1.139 4.459 4.459 0 012.053-.547zm-1.108 8a2.528 2.528 0 001.143-.334c.428-.223.641-.391.641-.508v-2.789c-1.059.315-1.7.514-1.906.6a2.14 2.14 0 00-.918.631 1.467 1.467 0 00-.335.968 1.423 1.423 0 00.4 1 1.281 1.281 0 00.975.43zm9.546-7.918h2.644c.068 0 .1.074.1.225a.863.863 0 01-.288.615h-2.46v5.373q0 1.681 1.353 1.681a2.263 2.263 0 001.332-.47c.041.019.063.068.063.142a.438.438 0 01-.083.309 5.386 5.386 0 01-.457.445 3.354 3.354 0 01-.722.451 2.1 2.1 0 01-.934.231 2.812 2.812 0 01-.779-.1 2.094 2.094 0 01-.676-.338 1.525 1.525 0 01-.5-.687 2.961 2.961 0 01-.18-1.088V123.3h-1.189c-.068 0-.1-.061-.1-.184a1.032 1.032 0 01.225-.312c.15-.176.254-.289.309-.344h.757v-1.293q.165-.194.473-.527l.533-.58c.151-.165.233-.252.246-.266a.263.263 0 01.127-.072.278.278 0 01.139-.006c.041.011.063.029.063.056zm16.978-.145a4.206 4.206 0 013.193 1.256 4.477 4.477 0 011.2 3.215 4.722 4.722 0 01-1.246 3.334 4.061 4.061 0 01-3.1 1.342 4.2 4.2 0 01-3.2-1.276 4.527 4.527 0 01-1.2-3.236 4.639 4.639 0 011.252-3.307 4.111 4.111 0 013.101-1.328zm-.227.678a1.915 1.915 0 00-1.382.533 2.874 2.874 0 00-.776 1.3 6.533 6.533 0 00.1 3.695 3.979 3.979 0 00.984 1.606 2.142 2.142 0 001.549.656 1.921 1.921 0 001.385-.533 2.871 2.871 0 00.773-1.3 6.413 6.413 0 00-.1-3.682 4.093 4.093 0 00-.989-1.621 2.128 2.128 0 00-1.544-.651zm13.328-.656a3.212 3.212 0 011.129.174 1.986 1.986 0 01.758.492 2.17 2.17 0 01.467.871 6.065 6.065 0 01.231 1.211c.04.437.062.971.062 1.6v2.255a6.649 6.649 0 00.1 1.518c.027.1.2.174.519.236a4.279 4.279 0 00.774.092.549.549 0 01.066.3.451.451 0 01-.066.3c-1.4-.069-2.133-.1-2.2-.1-.238 0-.468 0-.691.016s-.477.025-.764.045-.527.035-.719.041a.457.457 0 01-.066-.3.549.549 0 01.066-.3 4.317 4.317 0 00.776-.092c.318-.062.49-.14.517-.236a6.649 6.649 0 00.1-1.518v-2.05a5.808 5.808 0 00-.414-2.651 1.688 1.688 0 00-1.6-.713 1.862 1.862 0 00-.824.246 4.547 4.547 0 00-.8.512q-.323.267-.322.369v4.287a6.733 6.733 0 00.1 1.518c.028.1.2.174.52.236a4.269 4.269 0 00.773.092.548.548 0 01.067.3.444.444 0 01-.067.3c-1.4-.069-2.132-.1-2.195-.1-.238 0-.469 0-.691.016s-.477.025-.764.045-.527.035-.719.041a.457.457 0 01-.066-.3.549.549 0 01.066-.3 4.317 4.317 0 00.776-.092c.318-.062.49-.14.517-.236a6.649 6.649 0 00.1-1.518v-3.732a3.82 3.82 0 00-.1-1.148c-.041-.1-.172-.186-.39-.247a2.771 2.771 0 00-.547-.107 4.919 4.919 0 00-.4-.016.453.453 0 01-.045-.246.562.562 0 01.045-.287 8.79 8.79 0 002.934-.861c.047 0 .1.041.148.123a.416.416 0 01.077.2 10.186 10.186 0 00-.124 1.168c0 .055.014.082.042.082s.035-.014.062-.041a5.835 5.835 0 011.262-.973 2.964 2.964 0 011.52-.522zm7.393-2.461a3.429 3.429 0 00-.1-1.066c-.1-.247-.52-.37-1.25-.37-.008 0-.014-.043-.022-.129a2.256 2.256 0 010-.261c0-.088.018-.137.045-.143a9.376 9.376 0 002.912-.82c.049 0 .1.035.151.107a.386.386 0 01.076.221 5.632 5.632 0 00-.227 1.783v9.742a6.6 6.6 0 00.1 1.518c.027.1.2.174.517.236a4.328 4.328 0 00.774.092.546.546 0 01.068.3.443.443 0 01-.068.3q-2.1-.1-2.194-.1c-.24 0-.47 0-.691.016s-.478.025-.766.045-.525.035-.716.041a.433.433 0 01-.067-.3.548.548 0 01.067-.3 4.289 4.289 0 00.773-.092c.318-.062.49-.14.518-.236a6.688 6.688 0 00.1-1.518zm6.736 2.726a17.95 17.95 0 002.051-.1.76.76 0 01.016.344c-.018.166-.051.25-.1.25a3.315 3.315 0 00-.334.021 1.78 1.78 0 00-.435.108c-.157.058-.237.13-.237.22a.177.177 0 00.022.082l2.174 5.537q1.046-2.727 1.824-4.656a1.693 1.693 0 00.123-.656.532.532 0 00-.328-.481 1.828 1.828 0 00-.862-.175c-.046 0-.07-.084-.07-.256a.566.566 0 01.07-.338 14.345 14.345 0 001.846.1q.7 0 1.723-.1a.537.537 0 01.031.344c-.02.166-.051.25-.092.25a2.106 2.106 0 00-.7.164.975.975 0 00-.59.533q-2.194 5.229-3.076 7.4-.1.246-.439 1.149a19.94 19.94 0 01-.6 1.455 7.16 7.16 0 01-.594 1.047 2.188 2.188 0 01-1.782 1.152.785.785 0 01-.892-.883.935.935 0 01.246-.594 3.285 3.285 0 001.283-.2 2.928 2.928 0 001.035-.968 6.334 6.334 0 00.568-1.067 9 9 0 00.416-1q-2.05-5.229-3.22-7.773c-.129-.274-.506-.41-1.127-.41-.022 0-.032-.094-.032-.282a.72.72 0 01.032-.312 19.679 19.679 0 002.05.095zm19.491-.142h2.644c.069 0 .1.074.1.225a.866.866 0 01-.287.615h-2.461v5.373q0 1.681 1.353 1.681a2.263 2.263 0 001.332-.47c.041.019.063.068.063.142a.444.444 0 01-.082.309 5.539 5.539 0 01-.457.445 3.339 3.339 0 01-.723.451 2.093 2.093 0 01-.934.231 2.812 2.812 0 01-.779-.1 2.094 2.094 0 01-.676-.338 1.525 1.525 0 01-.5-.687 2.962 2.962 0 01-.179-1.088V123.3h-1.19c-.068 0-.1-.061-.1-.184a1.019 1.019 0 01.224-.312 7.08 7.08 0 01.309-.344h.758v-1.293c.109-.129.267-.305.472-.527l.533-.58c.151-.165.233-.252.247-.266a.259.259 0 01.127-.072.274.274 0 01.138-.006c.041.011.063.029.063.056zm6.633 3.773a3.947 3.947 0 00.927 2.907 3.18 3.18 0 002.414 1.031 2.536 2.536 0 001.338-.36 3.673 3.673 0 00.918-.728c.008 0 .024.012.051.037a.326.326 0 01.078.107.314.314 0 01.035.143.737.737 0 01-.123.369 3.414 3.414 0 01-.41.533 5.04 5.04 0 01-.615.555 3.158 3.158 0 01-.887.471 3.2 3.2 0 01-1.082.185 3.89 3.89 0 01-2.947-1.215 4.254 4.254 0 01-1.155-3.05 5.011 5.011 0 01.379-1.918 5.217 5.217 0 01.965-1.559 4.871 4.871 0 011.3-1.019 2.928 2.928 0 011.394-.385 3.513 3.513 0 011.26.215 2.674 2.674 0 01.893.527 2.836 2.836 0 01.543.713 3.253 3.253 0 01.3.728 2.543 2.543 0 01.082.606 1.863 1.863 0 01-.108.713.4.4 0 01-.384.25c-.282.021-1.168.051-2.663.088s-2.326.056-2.503.056zm.1-.759h3.344c.293 0 .451-.157.471-.471a1.542 1.542 0 00-.083-.514 3.073 3.073 0 00-.277-.635 1.59 1.59 0 00-.533-.554 1.411 1.411 0 00-.789-.225 1.649 1.649 0 00-.881.246 1.956 1.956 0 00-.631.6 4.353 4.353 0 00-.379.707 3.746 3.746 0 00-.2.6c-.043.168-.055.246-.041.246zm9.538-5.598a3.429 3.429 0 00-.1-1.066c-.1-.247-.52-.37-1.25-.37-.008 0-.016-.043-.022-.129a2.248 2.248 0 01-.006-.261c0-.088.02-.137.047-.143a9.384 9.384 0 002.912-.82c.047 0 .1.035.149.107a.381.381 0 01.078.221 5.6 5.6 0 00-.227 1.783v9.742a6.545 6.545 0 00.1 1.518c.025.1.2.174.517.236a4.288 4.288 0 00.774.092.549.549 0 01.066.3.445.445 0 01-.066.3q-2.1-.1-2.193-.1c-.241 0-.471 0-.694.016s-.477.025-.764.045-.527.035-.716.041a.443.443 0 01-.069-.3.545.545 0 01.069-.3 4.309 4.309 0 00.773-.092c.318-.062.49-.14.518-.236a6.688 6.688 0 00.1-1.518zm6.492 0a3.429 3.429 0 00-.1-1.066c-.1-.247-.52-.37-1.25-.37-.008 0-.014-.043-.022-.129s-.007-.171 0-.261.018-.137.045-.143a9.382 9.382 0 002.913-.82c.048 0 .1.035.15.107a.379.379 0 01.076.221 5.665 5.665 0 00-.226 1.783v9.742a6.688 6.688 0 00.1 1.518c.027.1.2.174.518.236a4.309 4.309 0 00.773.092.545.545 0 01.069.3.448.448 0 01-.069.3c-1.4-.069-2.133-.1-2.193-.1-.24 0-.471 0-.692.016s-.478.025-.765.045-.526.035-.717.041a.434.434 0 01-.066-.3.54.54 0 01.066-.3 4.289 4.289 0 00.773-.092c.319-.062.491-.14.518-.236a6.688 6.688 0 00.1-1.518zm8.649 2.48a6.625 6.625 0 011.139.12c.451.078.769.126.953.148a12.458 12.458 0 01.246 2.256c0 .068-.069.1-.2.1a.529.529 0 01-.348-.1 3.567 3.567 0 00-.656-1.287 1.348 1.348 0 00-1.067-.6 1.5 1.5 0 00-1.082.359 1.23 1.23 0 00-.375.932 1.416 1.416 0 00.078.477 1.793 1.793 0 00.168.365 1.456 1.456 0 00.313.318c.148.116.262.2.344.256s.228.141.441.262l.441.25.411.236c.211.123.367.217.466.281s.243.163.43.288a2.38 2.38 0 01.426.349c.095.106.2.233.312.379a1.435 1.435 0 01.243.461 1.844 1.844 0 01.07.508 2.557 2.557 0 01-.938 2.025 3.3 3.3 0 01-2.22.805 4.956 4.956 0 01-.784-.057c-.244-.037-.527-.094-.851-.168s-.58-.131-.764-.164a5.45 5.45 0 01-.236-1.021 7.3 7.3 0 01-.113-1.112.6.6 0 01.369-.123.34.34 0 01.185.041 3 3 0 00.83 1.338 1.942 1.942 0 001.385.61 1.477 1.477 0 001.061-.395 1.421 1.421 0 00.416-1.082 1.553 1.553 0 00-.129-.644 1.486 1.486 0 00-.426-.534 5.056 5.056 0 00-.533-.4c-.157-.1-.4-.233-.717-.4s-.555-.3-.7-.384a4.005 4.005 0 01-1.137-.923 1.944 1.944 0 01-.42-1.268 2.187 2.187 0 01.893-1.8 3.257 3.257 0 012.076-.702zm14.324.246a17.962 17.962 0 002.051-.1.816.816 0 01.014.344c-.016.166-.049.25-.1.25a3.282 3.282 0 00-.334.021 1.765 1.765 0 00-.436.108c-.158.058-.236.13-.236.22a.164.164 0 00.021.082l2.174 5.537q1.046-2.727 1.824-4.656a1.674 1.674 0 00.123-.656.531.531 0 00-.328-.481 1.821 1.821 0 00-.861-.175c-.049 0-.072-.084-.072-.256a.541.541 0 01.072-.338 14.345 14.345 0 001.846.1q.7 0 1.722-.1a.557.557 0 01.032.344c-.022.166-.051.25-.092.25a2.1 2.1 0 00-.7.164.967.967 0 00-.59.533q-2.195 5.229-3.076 7.4c-.069.164-.215.547-.442 1.149s-.424 1.086-.594 1.455a7.166 7.166 0 01-.595 1.047 2.186 2.186 0 01-1.782 1.152.785.785 0 01-.893-.883.935.935 0 01.246-.594 3.264 3.264 0 001.281-.2 2.923 2.923 0 001.038-.968 6.647 6.647 0 00.568-1.067 9.21 9.21 0 00.416-1q-2.054-5.229-3.221-7.773-.2-.411-1.127-.41c-.021 0-.031-.094-.031-.282a.747.747 0 01.031-.312 19.7 19.7 0 002.051.095zm14.004-.287a4.207 4.207 0 013.195 1.256 4.484 4.484 0 011.194 3.215 4.713 4.713 0 01-1.246 3.334 4.058 4.058 0 01-3.1 1.342 4.2 4.2 0 01-3.2-1.276 4.518 4.518 0 01-1.2-3.236 4.637 4.637 0 011.25-3.307 4.111 4.111 0 013.107-1.328zm-.225.678a1.921 1.921 0 00-1.385.533 2.868 2.868 0 00-.773 1.3 6.152 6.152 0 00-.221 1.711 6.222 6.222 0 00.317 1.984 4.023 4.023 0 00.984 1.606 2.146 2.146 0 001.549.656 1.918 1.918 0 001.385-.533 2.871 2.871 0 00.773-1.3 6.044 6.044 0 00.221-1.7 6.184 6.184 0 00-.322-1.985 4.075 4.075 0 00-.991-1.621 2.124 2.124 0 00-1.537-.648zm13.883 1.764a2.633 2.633 0 00-.164-1.108c-.152-.273-.533-.41-1.148-.41a.4.4 0 01-.057-.252.457.457 0 01.057-.281 11.05 11.05 0 002.808-.41c.047 0 .1.066.149.2a.984.984 0 01.078.293 3.667 3.667 0 00-.145 1.332v4.307a7.3 7.3 0 00.145 1.558c.019.09.094.162.224.217a1.528 1.528 0 00.395.108 6.13 6.13 0 00.59.044c.041.022.062.1.062.227a.617.617 0 01-.052.195c-.034.088-.071.133-.112.133-.2.014-.426.041-.683.082s-.494.088-.717.143-.43.109-.621.164l-.471.135-.174.05c-.049 0-.088-.035-.119-.1a.539.539 0 01-.045-.225v-.943l-.041-.1a4.639 4.639 0 01-1.324.928 3.555 3.555 0 01-1.588.426 2.183 2.183 0 01-1.842-.932 3.494 3.494 0 01-.441-.974 6.455 6.455 0 01-.225-1.082 10.073 10.073 0 01-.057-1.092v-2.625a2.585 2.585 0 00-.164-1.108q-.225-.41-1.148-.41a.412.412 0 01-.057-.252.464.464 0 01.057-.281 11.076 11.076 0 002.811-.41c.046 0 .095.053.148.158a.625.625 0 01.076.252 4.129 4.129 0 00-.142 1.414v3.016a4.591 4.591 0 00.492 2.41 1.713 1.713 0 001.558.767 2.445 2.445 0 001.282-.373q.615-.375.605-.754zm5.981 6.439a1.1 1.1 0 01-.344-.805 1.036 1.036 0 01.344-.783 1.13 1.13 0 01.8-.324 1.1 1.1 0 011.108 1.107 1.135 1.135 0 01-.323.805 1.027 1.027 0 01-.785.344 1.094 1.094 0 01-.8-.344zM3.607 56.761c0-13.528 9.768-23.494 24.551-23.494a30.412 30.412 0 0114.254 3.367v7.324c-2.771-4.816-8.912-7.918-14.387-7.918-11.812 0-19.138 7.852-19.138 20.193 0 13.924 9.24 20.92 19.4 20.92a23.015 23.015 0 009.637-2.177V64.087c0-4.619-2.905-5.213-2.905-5.213H45.58s-2.9.33-2.9 4.816V75.7a29.8 29.8 0 01-15.641 4.487c-12.08.002-23.432-7.587-23.432-23.426zm77.815 5.082L77.2 72.337a11.361 11.361 0 00-.99 4.025 3.105 3.105 0 001.981 3.1H68.75c.4 0 2.244-.463 4.818-6.533l17.225-40.981 17.092 41.18c2.31 5.543 4.488 6.269 4.949 6.336h-10.955a2.469 2.469 0 001.65-2.442 11.358 11.358 0 00-1.056-3.96l-4.62-11.219zM96.8 59.138l-7.195-17.621-7.062 17.621zm40.192-25.078h10.494s-2.9.263-2.9 6.136v36.627H155.4c4.092 0 7-1.914 8.184-4.355l-1.188 7h-25.404s2.838-.2 2.838-6.6V40.2c0-5.877-2.838-6.14-2.838-6.14zm51.877 0h10.492s-2.9.263-2.9 6.136v36.627h10.822c4.092 0 7-1.914 8.184-4.355l-1.188 7h-25.41s2.838-.2 2.838-6.6V40.2c0-5.877-2.838-6.14-2.838-6.14zm51.875 45.404s2.838-.2 2.838-6.6V40.46c0-6.07-2.838-6.4-2.838-6.4h23.889v6.6c-.461-1.517-1.848-3.961-7.127-3.961h-9.172v18.743h11.35a4.864 4.864 0 004.158-1.914v6.4a4.85 4.85 0 00-4.092-1.848h-11.416v18.743h10.3c4.092 0 6.994-1.914 8.182-4.355l-1.188 7zM317.17 46.73c0-4.883-3.1-10.032-9.9-10.032h-5.609v36.694c0 5.939 2.9 6.072 2.9 6.072h-10.489s2.838-.2 2.838-6.072v-33c0-6.139-2.838-6.336-2.838-6.336h13.067c10.888 0 14.783 6 14.783 11.879a12.941 12.941 0 01-10.3 12.208c-.133 0-.924.2-1.057.2l11.616 14.783c5.148 5.742 6.863 6.336 6.863 6.336h-7.721L303.377 56.63h3.959a9.609 9.609 0 009.834-9.9zm69.1-12.67c-.395.066-2.375.726-5.61 6.336L369.244 60v13.33c0 5.28 2.178 6.072 2.639 6.139h-10.03c.329-.067 2.639-.727 2.639-6.139v-13.4l-11.285-19.6c-3.1-5.412-5.346-6.139-5.74-6.269h11.086a1.926 1.926 0 00-1.651 2.111c0 .857.66 2.047 1.651 3.762l9.568 16.828 9.57-16.565a6.955 6.955 0 001.121-3.761 2.425 2.425 0 00-2.244-2.375zM584.206 153.8H472.955V55.627a55.626 55.626 0 11111.251 0zm-109.655-1.6H582.61V55.627a54.03 54.03 0 10-108.059 0z"/><path class="cls-1" d="M489.086 94.273a4.09 4.09 0 114.091-4.088 4.092 4.092 0 01-4.091 4.088zm0-6.584a2.495 2.495 0 102.5 2.5 2.5 2.5 0 00-2.5-2.5z"/></g></g></svg>