<svg xmlns="http://www.w3.org/2000/svg" width="263.608" height="56.19"><path d="M0 16.92C0 7.7 6.66.9 16.74.9a20.755 20.755 0 019.719 2.3v4.99a11.8 11.8 0 00-9.809-5.4C8.6 2.791 3.6 8.145 3.6 16.559c0 9.5 6.3 14.265 13.229 14.265A15.7 15.7 0 0023.4 29.34v-7.426c0-3.15-1.979-3.555-1.979-3.555h7.2s-1.979.225-1.979 3.286v8.189A20.328 20.328 0 0115.975 32.9C7.74 32.9 0 27.719 0 16.92zm52.155 3.465l-2.88 7.154a7.756 7.756 0 00-.674 2.744A2.119 2.119 0 0049.95 32.4h-6.434c.269 0 1.529-.315 3.285-4.456L58.545 0 70.2 28.078c1.575 3.781 3.061 4.276 3.375 4.321h-7.47a1.682 1.682 0 001.125-1.665 7.752 7.752 0 00-.72-2.7l-3.151-7.648zm10.485-1.846L57.734 6.525 52.92 18.539zM90.945 1.44H98.1s-1.981.181-1.981 4.185V30.6h7.381c2.789 0 4.77-1.3 5.579-2.971l-.809 4.77H90.945s1.935-.135 1.935-4.5V5.625c0-4.004-1.935-4.185-1.935-4.185zm36.27 0h7.154s-1.979.181-1.979 4.185V30.6h7.38c2.79 0 4.769-1.3 5.58-2.971l-.811 4.77h-17.324s1.935-.135 1.935-4.5V5.625c0-4.004-1.935-4.185-1.935-4.185zm36.269 30.96s1.936-.135 1.936-4.5V5.805c0-4.139-1.936-4.365-1.936-4.365h16.29v4.5c-.315-1.036-1.26-2.7-4.86-2.7h-6.254v12.78h7.74a3.316 3.316 0 002.835-1.3v4.36a3.307 3.307 0 00-2.79-1.26h-7.785V30.6h7.02c2.789 0 4.769-1.3 5.58-2.971l-.811 4.77zM217.4 10.08c0-3.33-2.116-6.84-6.75-6.84h-3.826v25.02c0 4.049 1.98 4.139 1.98 4.139h-7.154s1.935-.135 1.935-4.139V5.76c0-4.186-1.935-4.32-1.935-4.32h8.91c7.424 0 10.079 4.1 10.079 8.1a8.826 8.826 0 01-7.02 8.326c-.09 0-.63.135-.719.135l7.92 10.078c3.509 3.916 4.679 4.321 4.679 4.321h-5.265l-12.245-15.57h2.7a6.551 6.551 0 006.711-6.75zm46.208-8.64c-.27.044-1.62.5-3.825 4.32L252 19.125v9.09c0 3.6 1.485 4.139 1.8 4.184h-6.84c.225-.045 1.8-.5 1.8-4.184V19.08l-7.695-13.365c-2.116-3.69-3.645-4.186-3.916-4.275h7.56a1.314 1.314 0 00-1.125 1.441 6.588 6.588 0 001.125 2.564l6.525 11.475 6.525-11.3a4.753 4.753 0 00.764-2.564 1.654 1.654 0 00-1.529-1.621zM1.279 55.19h260v1h-260z" fill="#5f648c" data-name="レイヤー 2"/></svg>