<svg xmlns="http://www.w3.org/2000/svg" width="319.572" height="39.475"><path d="M0 20.305C0 9.234 7.992 1.08 20.088 1.08a24.917 24.917 0 0111.664 2.754v5.994c-2.268-3.941-7.29-6.479-11.772-6.479-9.666 0-15.66 6.425-15.66 16.523 0 11.4 7.56 17.119 15.876 17.119a18.838 18.838 0 007.885-1.782V26.3c0-3.78-2.376-4.267-2.376-4.267h8.64s-2.377.271-2.377 3.943V35.8a24.392 24.392 0 01-12.8 3.672C9.288 39.475 0 33.265 0 20.305zm64.746 4.158l-3.456 8.586a9.3 9.3 0 00-.81 3.294 2.541 2.541 0 001.62 2.538h-7.722c.324 0 1.836-.378 3.942-5.346L72.415 0 86.4 33.7c1.891 4.536 3.673 5.131 4.051 5.185h-8.965a2.018 2.018 0 001.35-2 9.3 9.3 0 00-.863-3.24l-3.781-9.18zm12.583-2.214L71.442 7.83l-5.778 14.419zm33.964-20.521h8.586s-2.379.216-2.379 5.022v29.971h8.856c3.348 0 5.724-1.566 6.7-3.564l-.973 5.724h-20.79s2.322-.162 2.322-5.4V6.75c0-4.806-2.322-5.022-2.322-5.022zm43.524 0h8.583s-2.376.216-2.376 5.022v29.971h8.856c3.348 0 5.724-1.566 6.7-3.564l-.973 5.724h-20.79s2.322-.162 2.322-5.4V6.75c0-4.806-2.322-5.022-2.322-5.022zm43.523 37.153s2.323-.162 2.323-5.4V6.967c0-4.969-2.323-5.239-2.323-5.239h19.549v5.4c-.378-1.241-1.512-3.239-5.832-3.239h-7.506v15.336h9.288a3.979 3.979 0 003.4-1.567V22.9a3.969 3.969 0 00-3.348-1.511h-9.342v15.332h8.424c3.348 0 5.724-1.566 6.7-3.564l-.972 5.724zM261.953 12.1c0-4-2.538-8.208-8.1-8.208h-4.59v30.021c0 4.859 2.376 4.968 2.376 4.968h-8.586s2.322-.162 2.322-4.968v-27c0-5.021-2.322-5.184-2.322-5.184h10.692c8.91 0 12.1 4.915 12.1 9.72a10.59 10.59 0 01-8.424 9.991c-.108 0-.756.162-.864.162l9.5 12.1c4.213 4.7 5.616 5.185 5.616 5.185h-6.318L250.667 20.2h3.24a7.861 7.861 0 008.046-8.1zm57.619-10.372c-.324.054-1.945.594-4.591 5.184l-9.342 16.038v10.908c0 4.321 1.782 4.969 2.16 5.023h-8.208c.27-.054 2.16-.594 2.16-5.023V22.9l-9.234-16.042c-2.538-4.427-4.374-5.022-4.7-5.13h9.072a1.576 1.576 0 00-1.35 1.728 7.9 7.9 0 001.35 3.078l7.83 13.771 7.83-13.555a5.708 5.708 0 00.918-3.078 1.986 1.986 0 00-1.836-1.944z" fill="#5f648c" data-name="レイヤー 2"/></svg>