<svg xmlns="http://www.w3.org/2000/svg" width="272" height="57.291"><path d="M29.435 27.314V17.1H12.516v10.214c0 4.051 1.98 4.186 1.98 4.186H7.341s1.935-.135 1.935-4.186V4.727C9.276.721 7.341.541 7.341.541H14.5s-1.98.18-1.98 4.186v10.394h16.915V4.727c0-4.006-1.98-4.186-1.98-4.186h7.155s-1.935.135-1.935 4.186v22.587c0 4.006 1.98 4.186 1.98 4.186h-7.2s1.98-.135 1.98-4.186zm27.541 0V4.727c0-4.006-1.935-4.186-1.935-4.186H62.2s-1.98.18-1.98 4.186v22.587c0 4.051 1.98 4.186 1.98 4.186H55s1.976-.135 1.976-4.186zm25.424 2.25v-5.445A9.279 9.279 0 0091 30.24a5.968 5.968 0 006.119-6.031c0-3.375-1.89-5.084-7.244-7.559-5.04-2.339-7.47-4.679-7.47-8.5C82.4 3.24 86.271 0 90.95 0a14.4 14.4 0 017.56 2.16v4.862a8.645 8.645 0 00-7.7-5.221 5.533 5.533 0 00-5.71 5.625c0 3.554 3.509 5.129 7.109 6.84 3.915 1.843 7.92 3.869 7.92 9 0 5.578-4.41 8.773-9.359 8.773a14.694 14.694 0 01-8.37-2.475zm35.1-24.523l.629-4.5h21.329l.631 4.5c-.72-1.439-2.341-2.7-5.175-2.7h-4.5v24.973c0 4.1 1.98 4.186 1.98 4.186h-7.154s1.935-.045 1.935-4.186V2.34h-4.5c-2.835 0-4.454 1.26-5.175 2.701zM171.815 0c7.874 0 15.385 5.221 15.385 15.66 0 9.629-6.525 16.379-16.38 16.379-7.874 0-15.389-5.219-15.389-15.658C155.435 6.75 161.96 0 171.815 0zm-1.17 1.891c-6.8 0-11.61 5.445-11.61 13.814 0 8.324 5.49 14.445 12.96 14.445 6.794 0 11.609-5.445 11.609-13.814-.004-8.326-5.49-14.445-12.959-14.445zm49.994 7.289c0-3.33-2.115-6.84-6.75-6.84h-3.825v25.019c0 4.051 1.98 4.141 1.98 4.141h-7.155s1.935-.135 1.935-4.141V4.861c0-4.185-1.935-4.32-1.935-4.32h8.91c7.425 0 10.079 4.094 10.079 8.1a8.823 8.823 0 01-7.019 8.324c-.09 0-.63.135-.72.135l7.92 10.08c3.509 3.914 4.679 4.32 4.679 4.32h-5.264l-12.24-15.57h2.7a6.551 6.551 0 006.705-6.75zM268.653.541c-.27.045-1.62.494-3.824 4.32l-7.785 13.364v9.089c0 3.6 1.485 4.141 1.8 4.186H252c.225-.045 1.8-.5 1.8-4.186V18.18l-7.691-13.364c-2.115-3.691-3.645-4.185-3.915-4.275h7.56a1.313 1.313 0 00-1.125 1.439 6.578 6.578 0 001.125 2.565l6.525 11.475L262.8 4.727a4.766 4.766 0 00.764-2.567 1.654 1.654 0 00-1.525-1.619zM0 56.291h272v1H0z" fill="#5f648c" data-name="レイヤー 2"/></svg>