<svg xmlns="http://www.w3.org/2000/svg" width="227.663" height="39.691"><path d="M36.829 1.026c-.486.108-2.215.81-2.215 4.915v33.75L6.966 7.452v25.866c0 4.051 2.106 4.752 2.7 4.861H2.052c.432-.109 2.322-.756 2.322-4.914v-27A5.5 5.5 0 000 1.026h6.7l25.322 29.539V5.941c0-4.1-2.213-4.752-2.808-4.915zm35.422 37.153s2.322-.162 2.322-5.4V6.265c0-4.969-2.322-5.239-2.322-5.239H91.8v5.4c-.378-1.241-1.511-3.239-5.832-3.239h-7.507v15.335h9.288a3.978 3.978 0 003.4-1.566v5.238a3.967 3.967 0 00-3.349-1.511h-9.339v15.336h8.424c3.348 0 5.724-1.566 6.7-3.564l-.972 5.724zM169.074 3.4c0-1.35-.594-2.268-1.944-2.376h8.37c-.324.054-2.7.486-4.428 5.454l-11.664 33-10.422-29.919-10.746 29.916L127.6 6.318c-1.458-4.644-3.726-5.184-4.1-5.292h8.964a1.654 1.654 0 00-1.512 1.783c0 1.079.594 2.376 1.242 4.589L139 29.917 149.958 0l10.422 29.7 8.046-23.274a10.167 10.167 0 00.648-3.026zm37.313 32.456v-6.534a11.139 11.139 0 0010.313 7.345 7.161 7.161 0 007.344-7.236c0-4.05-2.268-6.1-8.694-9.073-6.048-2.807-8.964-5.616-8.964-10.206 0-5.885 4.644-9.774 10.26-9.774a17.283 17.283 0 019.072 2.592V8.8a10.378 10.378 0 00-9.234-6.265 6.64 6.64 0 00-6.858 6.75c0 4.267 4.212 6.156 8.532 8.208 4.7 2.214 9.5 4.645 9.5 10.8 0 6.695-5.292 10.53-11.232 10.53a17.629 17.629 0 01-10.039-2.967z" fill="#5f648c" data-name="レイヤー 2"/></svg>