<svg xmlns="http://www.w3.org/2000/svg" width="300" height="57.19"><path d="M18.478.9c7.874 0 15.389 5.219 15.389 15.659 0 9.631-6.524 16.381-16.379 16.381C9.613 32.94 2.1 27.719 2.1 17.279 2.1 7.65 8.623.9 18.478.9zm-1.17 1.891C10.513 2.791 5.7 8.234 5.7 16.605c0 8.325 5.489 14.444 12.959 14.444 6.794 0 11.609-5.446 11.609-13.815-.001-8.324-5.49-14.443-12.96-14.443zM69.732 1.44h7.56c-.27.044-1.935.5-3.645 4.544L62.262 33.478 50.7 5.85c-1.575-3.78-3.24-4.321-3.555-4.41h7.515a1.463 1.463 0 00-1.215 1.576 7.014 7.014 0 00.675 2.339l8.73 21.373L71.307 5.94a5.56 5.56 0 00.45-2.116 2.279 2.279 0 00-2.025-2.384zm21.78 30.96s1.936-.134 1.936-4.5V5.805c0-4.139-1.936-4.365-1.936-4.365H107.8v4.5c-.315-1.036-1.26-2.7-4.86-2.7h-6.253v12.78h7.74a3.316 3.316 0 002.835-1.3v4.36a3.307 3.307 0 00-2.79-1.26h-7.785V30.6h7.02c2.79 0 4.77-1.3 5.58-2.971l-.81 4.769zm51.21-22.32c0-3.33-2.115-6.84-6.75-6.84h-3.825v25.02c0 4.049 1.98 4.138 1.98 4.138h-7.155s1.936-.134 1.936-4.138V5.76c0-4.186-1.936-4.32-1.936-4.32h8.91c7.425 0 10.08 4.1 10.08 8.1a8.825 8.825 0 01-7.02 8.326c-.09 0-.63.135-.72.135l7.92 10.078c3.51 3.916 4.68 4.32 4.68 4.32h-5.265l-12.24-15.569h2.7a6.551 6.551 0 006.705-6.75zm23.67 20.385V25.02a9.28 9.28 0 008.595 6.119 5.967 5.967 0 006.12-6.03c0-3.375-1.89-5.084-7.245-7.56-5.04-2.34-7.47-4.68-7.47-8.5 0-4.9 3.87-8.145 8.55-8.145a14.4 14.4 0 017.56 2.161V7.92a8.65 8.65 0 00-7.7-5.221 5.534 5.534 0 00-5.715 5.625c0 3.555 3.51 5.131 7.11 6.84 3.914 1.846 7.919 3.871 7.919 9 0 5.58-4.409 8.776-9.359 8.776a14.7 14.7 0 01-8.365-2.475zm35.64 1.935s1.935-.134 1.935-4.5V5.805c0-4.139-1.935-4.365-1.935-4.365h16.29v4.5c-.315-1.036-1.261-2.7-4.86-2.7h-6.255v12.78h7.74a3.319 3.319 0 002.835-1.3v4.36a3.31 3.31 0 00-2.791-1.26h-7.784V30.6h7.02c2.789 0 4.769-1.3 5.579-2.971L219 32.4zm41.13-12.015l-2.88 7.154a7.761 7.761 0 00-.675 2.744 2.117 2.117 0 001.35 2.115h-6.435c.27 0 1.53-.314 3.285-4.455L249.552 0l11.654 28.078c1.575 3.781 3.06 4.275 3.375 4.32h-7.47a1.679 1.679 0 001.125-1.664 7.724 7.724 0 00-.72-2.7l-3.15-7.648zm10.484-1.846l-4.9-12.014-4.814 12.014zm26.325 11.926V25.02a9.28 9.28 0 008.595 6.119 5.967 5.967 0 006.12-6.03c0-3.375-1.89-5.084-7.245-7.56-5.04-2.34-7.47-4.68-7.47-8.5 0-4.9 3.87-8.145 8.55-8.145a14.4 14.4 0 017.56 2.161V7.92a8.649 8.649 0 00-7.695-5.22 5.534 5.534 0 00-5.715 5.625c0 3.555 3.51 5.131 7.11 6.84 3.915 1.846 7.919 3.871 7.919 9 0 5.58-4.409 8.776-9.359 8.776a14.7 14.7 0 01-8.37-2.476zM0 56.19h300v1H0z" fill="#5f648c" data-name="レイヤー 2"/></svg>