<svg xmlns="http://www.w3.org/2000/svg" width="279.499" height="37.025"><path d="M10.661 20.748a26.749 26.749 0 01-4.681-.469v11.338c0 4.576 2.288 4.783 2.288 4.783H0s2.236-.156 2.236-4.783V5.564C2.236.883 0 .623 0 .623h10.192c3.745 0 5.773.52 7.385 1.352a9.2 9.2 0 014.836 8.32c0 5.98-4.42 10.453-11.752 10.453zM10.037 2.7H5.98v15.552a24.853 24.853 0 004.681.416c4.888 0 7.748-3.119 7.748-7.695 0-4.889-3.276-8.273-8.372-8.273zm51.22 7.907c0-3.847-2.444-7.9-7.8-7.9h-4.42v28.91c0 4.68 2.288 4.783 2.288 4.783h-8.269s2.236-.156 2.236-4.783v-26c0-4.836-2.236-4.992-2.236-4.992h10.3C61.933.623 65 5.355 65 9.984a10.2 10.2 0 01-8.111 9.616c-.105 0-.729.157-.832.157l9.152 11.648c4.056 4.526 5.408 4.992 5.408 4.992h-6.084L50.388 18.408h3.12a7.572 7.572 0 007.749-7.801zM107.692 0c9.1 0 17.785 6.031 17.785 18.1 0 11.129-7.54 18.929-18.929 18.929-9.1 0-17.784-6.033-17.784-18.1C88.764 7.8 96.3 0 107.692 0zm-1.352 2.184c-7.852 0-13.416 6.292-13.416 15.964 0 9.62 6.344 16.692 14.976 16.692 7.853 0 13.417-6.291 13.417-15.963 0-9.621-6.344-16.693-14.977-16.693zm46.592.516v14.77h9c3.068 0 3.224-1.508 3.224-1.508v5.098s-.208-1.507-3.224-1.507h-9v12.011c0 4.577 2.288 4.836 2.288 4.836h-8.269s2.237-.207 2.237-4.836V5.719c0-4.784-2.237-5.1-2.237-5.1h18.825v5.309c-.312-1.405-1.664-3.225-4.836-3.225zm36.607 28.864V5.459c0-4.627-2.239-4.836-2.239-4.836h8.268s-2.288.209-2.288 4.836v26.105c0 4.68 2.288 4.836 2.288 4.836h-8.32s2.291-.156 2.291-4.836zM218.086.623h8.269s-2.289.209-2.289 4.836V34.32h8.534c3.224 0 5.512-1.508 6.448-3.431l-.936 5.511h-20.026s2.236-.156 2.236-5.2V5.459c0-4.627-2.236-4.836-2.236-4.836zM258.958 36.4s2.236-.156 2.236-5.2V5.668c0-4.785-2.236-5.045-2.236-5.045h18.825v5.2c-.364-1.2-1.456-3.121-5.616-3.121h-7.228v14.77h8.944a3.832 3.832 0 003.276-1.508v5.043a3.822 3.822 0 00-3.224-1.455h-9V34.32h8.112c3.224 0 5.512-1.508 6.448-3.431l-.936 5.511z" fill="#5f648c" data-name="レイヤー 2"/></svg>