<svg xmlns="http://www.w3.org/2000/svg" width="260" height="57.29"><path d="M15.011 17.953a23.311 23.311 0 01-4.05-.4v9.81c0 3.959 1.98 4.139 1.98 4.139H5.787s1.935-.135 1.935-4.139V4.815C7.722.766 5.787.539 5.787.539h8.819c3.24 0 4.995.451 6.39 1.17a7.961 7.961 0 014.185 7.2c0 5.175-3.825 9.044-10.17 9.044zm-.54-15.613h-3.51V15.8a21.5 21.5 0 004.05.359c4.23 0 6.705-2.7 6.705-6.66 0-4.235-2.835-7.159-7.245-7.159zM59.7 9.18c0-3.33-2.115-6.84-6.75-6.84h-3.829v25.019c0 4.049 1.98 4.139 1.98 4.139h-7.155s1.935-.135 1.935-4.139v-22.5c0-4.185-1.935-4.32-1.935-4.32h8.91c7.425 0 10.08 4.1 10.08 8.1a8.826 8.826 0 01-7.02 8.326c-.09 0-.63.135-.72.135l7.92 10.078C66.625 31.094 67.8 31.5 67.8 31.5h-5.269l-12.24-15.57h2.7A6.551 6.551 0 0059.7 9.18zM100.781 0c7.874 0 15.389 5.219 15.389 15.658 0 9.631-6.525 16.381-16.38 16.381-7.874 0-15.389-5.221-15.389-15.66C84.4 6.75 90.926 0 100.781 0zm-1.17 1.891C92.816 1.891 88 7.334 88 15.705c0 8.324 5.49 14.443 12.96 14.443 6.794 0 11.609-5.445 11.609-13.814.001-8.324-5.488-14.443-12.958-14.443zm41.22.449v12.779h7.784c2.655 0 2.79-1.3 2.79-1.3v4.41s-.18-1.3-2.79-1.3h-7.784v10.4c0 3.958 1.98 4.183 1.98 4.183h-7.155s1.935-.18 1.935-4.183V4.949c0-4.138-1.935-4.41-1.935-4.41h16.289v4.59c-.27-1.215-1.44-2.789-4.185-2.789zm32.579 24.975V4.725c0-4-1.935-4.186-1.935-4.186h7.155s-1.98.182-1.98 4.186v22.59c0 4.048 1.98 4.183 1.98 4.183h-7.2s1.98-.135 1.98-4.183zM199.015.539h7.155s-1.98.182-1.98 4.186V29.7h7.38c2.79 0 4.769-1.3 5.579-2.971l-.81 4.77h-17.324s1.935-.135 1.935-4.5V4.725c0-4.004-1.935-4.186-1.935-4.186zm36.27 30.961s1.935-.135 1.935-4.5V4.9c0-4.138-1.935-4.365-1.935-4.365h16.29v4.5c-.315-1.035-1.261-2.7-4.86-2.7h-6.255v12.784h7.74a3.317 3.317 0 002.835-1.3v4.361a3.307 3.307 0 00-2.79-1.26h-7.785V29.7h7.02c2.789 0 4.769-1.3 5.58-2.971l-.811 4.77zM0 56.29h260v1H0z" fill="#5f648c" data-name="レイヤー 2"/></svg>