<svg xmlns="http://www.w3.org/2000/svg" width="594.129" height="23.5"><path d="M0 3.7L.462.4h15.644l.462 3.3a3.93 3.93 0 00-3.8-1.979h-3.3v18.313c0 3 1.452 3.07 1.452 3.07H5.677S7.1 23.07 7.1 20.034V1.717H3.8A3.93 3.93 0 000 3.7zm30.491 19.4s1.42-.1 1.42-3.3V3.6c0-3.036-1.42-3.2-1.42-3.2h11.948v3.3c-.231-.758-.924-1.979-3.565-1.979h-4.587v9.369h5.677a2.432 2.432 0 002.079-.957v3.2A2.425 2.425 0 0040 12.41h-5.71v9.373h5.149a4.354 4.354 0 004.092-2.178l-.594 3.5zM58.475.4h5.248s-1.452.131-1.452 3.069v18.314h5.413a4.354 4.354 0 004.092-2.178l-.594 3.5H58.475s1.419-.1 1.419-3.3V3.466C59.894.528 58.475.4 58.475.4zm27.258 0h5.248s-1.452.131-1.452 3.069v18.314h5.412a4.355 4.355 0 004.093-2.178l-.594 3.5H85.733s1.419-.1 1.419-3.3V3.466C87.152.528 85.733.4 85.733.4zM148.4.4c-.2.033-1.189.363-2.806 3.168l-5.71 9.8v6.667c0 2.641 1.09 3.036 1.321 3.07h-5.015c.165-.034 1.32-.364 1.32-3.07v-6.7l-5.644-9.8C130.315.825 129.193.462 129 .4h5.545a.963.963 0 00-.826 1.055 4.816 4.816 0 00.826 1.882l4.785 8.416 4.786-8.284a3.489 3.489 0 00.561-1.882A1.212 1.212 0 00143.55.4zm23.959-.4c5.776 0 11.287 3.829 11.287 11.486 0 7.063-4.785 12.014-12.013 12.014-5.776 0-11.288-3.829-11.288-11.486C160.345 4.951 165.131 0 172.359 0zm-.859 1.387c-4.984 0-8.515 3.993-8.515 10.132 0 6.106 4.026 10.594 9.505 10.594 4.984 0 8.515-3.993 8.515-10.133.001-6.105-4.026-10.593-9.505-10.593zm44.684 13.829c0 5.28-3.235 8.284-7.955 8.284-5.28 0-8.218-3.1-8.218-8.219V3.466C200.011.5 198.625.4 198.625.4h5.149s-1.386.131-1.386 2.969v11.912c0 4.192 2.046 6.7 6.039 6.7 3.532 0 5.908-2.112 5.908-6.6V3.466C214.335.5 212.883.4 212.883.4h4.753s-1.452.131-1.452 3.069zm54.581 7.884c.165-.034 1.32-.331 1.32-3.1V3.5l-8.647 19.968-8.779-19.937v16.305c0 2.806 1.353 3.234 1.617 3.268h-4.884c.231-.034 1.683-.364 1.683-3.268V3.3c0-2.476-1.387-2.839-1.683-2.9h4.455l8.086 18.449L271.887.4h3.994c-.2.033-1.419.363-1.419 3v16.733c0 2.574 1.188 2.937 1.419 2.971zM302.84 0c5.776 0 11.287 3.829 11.287 11.486 0 7.063-4.785 12.014-12.013 12.014-5.776 0-11.288-3.829-11.288-11.486C290.826 4.951 295.612 0 302.84 0zm-.858 1.387c-4.984 0-8.516 3.993-8.516 10.132 0 6.106 4.027 10.594 9.506 10.594 4.984 0 8.515-3.993 8.515-10.133 0-6.105-4.027-10.593-9.505-10.593zm38.642 5.346a4.766 4.766 0 00-4.95-5.016h-2.8v18.35c0 2.97 1.452 3.037 1.452 3.037h-5.248s1.419-.1 1.419-3.037V3.565C330.492.5 329.073.4 329.073.4h6.535c5.446 0 7.393 3 7.393 5.94a6.472 6.472 0 01-5.149 6.106c-.066 0-.462.1-.528.1l5.809 7.394c2.574 2.871 3.432 3.168 3.432 3.168H342.7l-8.977-11.42h1.98a4.8 4.8 0 004.921-4.955zM360.093 23.1s1.419-.1 1.419-3.3V3.6c0-3.036-1.419-3.2-1.419-3.2h11.947v3.3c-.23-.758-.923-1.979-3.564-1.979h-4.587v9.369h5.676a2.43 2.43 0 002.079-.957v3.2a2.423 2.423 0 00-2.046-.924h-5.709v9.373h5.148a4.356 4.356 0 004.093-2.178l-.594 3.5zm46.859-1.415v-3.994a6.809 6.809 0 006.3 4.489 4.377 4.377 0 004.489-4.423c0-2.476-1.387-3.73-5.314-5.545-3.7-1.716-5.479-3.433-5.479-6.238A5.961 5.961 0 01413.223 0a10.569 10.569 0 015.545 1.584v3.564a6.345 6.345 0 00-5.644-3.828 4.059 4.059 0 00-4.191 4.126c0 2.608 2.574 3.763 5.214 5.017 2.872 1.353 5.809 2.838 5.809 6.6 0 4.092-3.234 6.436-6.865 6.436a10.783 10.783 0 01-6.139-1.814zm26.4-17.985l.462-3.3h15.644l.462 3.3a3.93 3.93 0 00-3.8-1.979h-3.3v18.313c0 3 1.452 3.07 1.452 3.07h-5.247s1.419-.034 1.419-3.07V1.717h-3.3a3.93 3.93 0 00-3.792 1.983zM475.164 0c5.776 0 11.288 3.829 11.288 11.486 0 7.063-4.786 12.014-12.014 12.014-5.776 0-11.288-3.829-11.288-11.486C463.15 4.951 467.936 0 475.164 0zm-.858 1.387c-4.984 0-8.515 3.993-8.515 10.132 0 6.106 4.026 10.594 9.5 10.594 4.984 0 8.516-3.993 8.516-10.133.005-6.105-4.022-10.593-9.501-10.593zm38.643 5.346A4.766 4.766 0 00508 1.717h-2.805v18.35c0 2.97 1.452 3.037 1.452 3.037H501.4s1.419-.1 1.419-3.037V3.565C502.816.5 501.4.4 501.4.4h6.535c5.446 0 7.393 3 7.393 5.94a6.472 6.472 0 01-5.149 6.106c-.066 0-.462.1-.527.1l5.808 7.394c2.575 2.871 3.433 3.168 3.433 3.168h-3.862l-8.977-11.42h1.98a4.805 4.805 0 004.915-4.955zm20.887 13.301V3.466c0-2.938-1.419-3.066-1.419-3.066h5.248s-1.452.131-1.452 3.069v16.565c0 2.971 1.452 3.07 1.452 3.07h-5.281s1.452-.099 1.452-3.07zm19.437 3.066s1.419-.1 1.419-3.3V3.6c0-3.036-1.419-3.2-1.419-3.2h11.948v3.3c-.231-.758-.924-1.979-3.565-1.979h-4.587v9.369h5.677a2.432 2.432 0 002.079-.957v3.2a2.426 2.426 0 00-2.047-.924h-5.709v9.373h5.148a4.355 4.355 0 004.093-2.178l-.594 3.5zm27.852-1.415v-3.994a6.809 6.809 0 006.3 4.489 4.377 4.377 0 004.489-4.423c0-2.476-1.387-3.73-5.314-5.545-3.7-1.716-5.479-3.433-5.479-6.238A5.961 5.961 0 01587.4 0a10.569 10.569 0 015.545 1.584v3.564A6.345 6.345 0 00587.3 1.32a4.059 4.059 0 00-4.191 4.126c0 2.608 2.574 3.763 5.214 5.017 2.871 1.353 5.809 2.838 5.809 6.6 0 4.092-3.234 6.436-6.865 6.436a10.781 10.781 0 01-6.142-1.814z" fill="#5f648c" data-name="レイヤー 2"/></svg>