<svg xmlns="http://www.w3.org/2000/svg" width="221.164" height="55.604"><path d="M37.979 2.834c0-1.125-.5-1.891-1.621-1.981h6.975c-.27.045-2.25.407-3.689 4.545l-9.72 27.5-8.685-24.933-8.954 24.928L3.42 5.264C2.205 1.394.315.943 0 .853h7.47A1.38 1.38 0 006.209 2.34a18.433 18.433 0 001.036 3.824l5.669 18.764L22.049 0l8.685 24.748 6.7-19.4a8.5 8.5 0 00.545-2.514zm38.61-2.52c7.874 0 15.389 5.219 15.389 15.659 0 9.63-6.524 16.38-16.379 16.38-7.875 0-15.39-5.22-15.39-15.66 0-9.629 6.525-16.379 16.38-16.379zm-1.17 1.891c-6.8 0-11.61 5.443-11.61 13.814 0 8.325 5.49 14.444 12.96 14.444 6.795 0 11.609-5.445 11.609-13.815 0-8.324-5.489-14.443-12.959-14.443zm52.694 7.289c0-3.33-2.115-6.84-6.749-6.84h-3.825v25.02c0 4.049 1.98 4.138 1.98 4.138h-7.155s1.935-.134 1.935-4.138v-22.5c0-4.186-1.935-4.321-1.935-4.321h8.909c7.425 0 10.08 4.1 10.08 8.1a8.825 8.825 0 01-7.02 8.326c-.089 0-.629.135-.72.135l7.92 10.078c3.51 3.916 4.68 4.32 4.68 4.32h-5.265l-12.24-15.568h2.7a6.551 6.551 0 006.705-6.75zm45.855 22.318l-14.129-15.748v11.61c0 3.554 1.485 4.094 1.8 4.138h-6.93c.225-.044 1.89-.494 1.89-4.138V5.039c0-3.6-1.575-4.1-1.89-4.186h6.93c-.27.045-1.8.541-1.8 4.186v10.889L170.5 5.309c1.8-1.8 2.565-2.879 2.565-3.51a.862.862 0 00-.629-.946h7.064c-.4.045-2.475.5-6.255 4.276l-10.079 9.99 11.384 12.373c3.285 3.781 4.815 4.276 4.95 4.32zm23.896-1.933v-5.445a9.278 9.278 0 008.594 6.119 5.967 5.967 0 006.12-6.03c0-3.375-1.89-5.084-7.245-7.56-5.04-2.34-7.469-4.68-7.469-8.5 0-4.9 3.869-8.145 8.549-8.145a14.4 14.4 0 017.56 2.161v4.855a8.649 8.649 0 00-7.7-5.221 5.534 5.534 0 00-5.714 5.625c0 3.555 3.509 5.131 7.109 6.84 3.915 1.846 7.92 3.871 7.92 9 0 5.58-4.41 8.775-9.36 8.775a14.7 14.7 0 01-8.364-2.474zM1.164 54.604h220v1h-220z" fill="#5f648c" data-name="レイヤー 2"/></svg>