<svg xmlns="http://www.w3.org/2000/svg" width="277.072" height="39.475"><path d="M45.577 3.4c0-1.35-.595-2.268-1.945-2.376H52c-.323.054-2.7.486-4.427 5.454l-11.665 33-10.42-29.919-10.746 29.916L4.1 6.318C2.646 1.674.378 1.134 0 1.026h8.964a1.653 1.653 0 00-1.512 1.783c0 1.079.594 2.376 1.242 4.589l6.8 22.519L26.46 0l10.422 29.7 8.047-23.274a10.167 10.167 0 00.648-3.026zM96.228.378c9.45 0 18.468 6.265 18.468 18.793 0 11.556-7.83 19.656-19.656 19.656-9.451 0-18.469-6.265-18.469-18.793C76.571 8.479 84.4.378 96.228.378zm-1.4 2.269c-8.155 0-13.932 6.534-13.932 16.578 0 9.99 6.588 17.334 15.551 17.334 8.155 0 13.933-6.535 13.933-16.579-.004-9.99-6.592-17.333-15.556-17.333zm67.549 8.753c0-4-2.538-8.208-8.1-8.208h-4.59v30.019c0 4.859 2.376 4.968 2.376 4.968h-8.586s2.322-.162 2.322-4.968v-27c0-5.022-2.322-5.184-2.322-5.184h10.692c8.91 0 12.1 4.914 12.1 9.72a10.588 10.588 0 01-8.424 9.99c-.108 0-.756.162-.864.162l9.5 12.1c4.212 4.7 5.616 5.184 5.616 5.184h-6.318l-14.688-18.689h3.24a7.861 7.861 0 008.046-8.094zm59.345 26.779l-16.956-18.9v13.932c0 4.266 1.782 4.914 2.16 4.968h-8.316c.27-.054 2.268-.594 2.268-4.968V6.048c0-4.319-1.89-4.914-2.268-5.022h8.316c-.324.054-2.16.648-2.16 5.022v13.068l12.8-12.744c2.16-2.16 3.078-3.456 3.078-4.212a1.032 1.032 0 00-.756-1.134h8.478c-.486.054-2.969.594-7.506 5.13l-12.1 11.989 13.662 14.85c3.942 4.535 5.778 5.13 5.94 5.184zm34.078-2.323v-6.534a11.14 11.14 0 0010.314 7.345 7.162 7.162 0 007.345-7.236c0-4.05-2.268-6.1-8.694-9.073-6.049-2.807-8.965-5.616-8.965-10.206 0-5.885 4.644-9.774 10.261-9.774a17.283 17.283 0 019.072 2.592V8.8a10.379 10.379 0 00-9.234-6.264 6.64 6.64 0 00-6.858 6.75c0 4.267 4.212 6.156 8.532 8.208 4.7 2.214 9.5 4.645 9.5 10.8 0 6.695-5.292 10.53-11.232 10.53a17.634 17.634 0 01-10.041-2.968z" fill="#5f648c" data-name="レイヤー 2"/></svg>