<svg xmlns="http://www.w3.org/2000/svg" width="178.221" height="177.254"><path d="M115.535 3.645a.5.5 0 00-.315-.672l1.961.5c-.079-.007-.662-.047-1.361 1.014l-4.69 7.037-.667-7.624-4.292 6.37-.525-8.4C105.581.692 105.081.432 105 .384l2.1.532a.4.4 0 00-.46.327 5.3 5.3 0 00.019 1.149l.257 5.679 4.343-6.358.679 7.576 3.262-4.974a2.5 2.5 0 00.335-.67zm3.623 10.321s.529.19 1.038-.968l2.577-5.859c.483-1.1 0-1.383 0-1.383l4.32 1.9-.525 1.194c.038-.311-.019-.863-.974-1.283l-1.658-.73-1.491 3.389 2.053.9a.959.959 0 00.9-.016l-.509 1.158a.959.959 0 00-.593-.66l-2.064-.908-1.491 3.389 1.862.819a1.721 1.721 0 001.826-.137l-.771 1.171zm14.118-3.079l1.774 1.075s-.518-.253-1.119.74l-3.752 6.191L132.008 20a1.721 1.721 0 001.829.1l-.917 1.061-4.294-2.6s.5.256 1.155-.825l3.346-5.522c.602-.991.149-1.327.149-1.327zm7.088 16.065a4.46 4.46 0 01-.567-6.5 4.447 4.447 0 016.608-.559 5.506 5.506 0 011.672 2.236l-.92 1.118a3.273 3.273 0 00-1.181-3c-1.762-1.45-3.89-.937-5.307.785-1.657 2.014-1.365 4.247.2 5.539a3.957 3.957 0 002.728 1l-.4.483a4.942 4.942 0 01-2.833-1.102zm16.176 2.937a4.293 4.293 0 01-.5 6.345 4.512 4.512 0 01-6.7-.466 4.3 4.3 0 01.5-6.346 4.512 4.512 0 016.7.467zm-.636.1c-1.292-1.486-3.4-1.5-5.23.089a3.872 3.872 0 00-.694 5.582c1.293 1.486 3.4 1.5 5.23-.089s2.116-3.945.69-5.578zm3.589 20.04c.045.05.378.383 1.321-.173l5.615-3.311-8.529 1.064 5.021-6.987-5.548 3.271c-.954.563-.829 1.109-.787 1.206l-.98-1.662c.058.072.461.5 1.45-.083l5.626-3.317c.842-.5.688-1.042.65-1.156l.9 1.516-4.656 6.453 7.874-1 .8 1.359c-.052-.061-.409-.41-1.308.119l-5.693 3.358c-.876.516-.761.994-.726 1.079zm3.291 6.852s.241.508 1.419.048l5.963-2.33c1.118-.437.975-.983.975-.983l1.717 4.4-1.214.475c.246-.194.6-.625.216-1.6l-.66-1.691-3.45 1.347.816 2.09a.962.962 0 00.652.627l-1.179.46a.957.957 0 00.046-.886l-.821-2.1-3.449 1.348.74 1.895a1.72 1.72 0 001.39 1.193l-1.373.284zM175.3 71.862l1.317-.013.918 6.112-1.262.374a1.552 1.552 0 00.551-1.6l-.194-1.29-7.156 1.076c-1.173.176-1.114.747-1.114.747l-.308-2.05s.1.553 1.282.375l7.156-1.076-.193-1.289a1.553 1.553 0 00-.997-1.366zm2.92 17.122a4.294 4.294 0 01-4.613 4.387 4.512 4.512 0 01-4.671-4.826 4.3 4.3 0 014.613-4.388 4.513 4.513 0 014.671 4.827zm-.542-.348c.032-1.97-1.524-3.392-3.951-3.432a3.874 3.874 0 00-4.249 3.689c-.032 1.97 1.524 3.392 3.95 3.431a3.873 3.873 0 004.25-3.688zm-7.342 17.374l-.521 2.234-.736-.171.521-2.235zm-3.662 20.407a1.883 1.883 0 002.626-.925l.472-1-6.558-3.088c-1.062-.5-1.329.008-1.329.008l.883-1.876s-.2.524.846 1.018l5.9 2.778c1.1.516 1.371.026 1.371.026l-1.1 2.335c-.917 1.946-2.318 2.137-3.368 1.642a2.556 2.556 0 01-1.315-2.867c.011-.024.043-.182.053-.206l-3.619.832a4.959 4.959 0 00-1.71.694l.65-1.38 5.591-1.287-.333.708a1.9 1.9 0 00.94 2.588zm-8.607 4.642l5.538 3.485c.982.618 1.325.171 1.325.171l-1.1 1.754s.261-.513-.72-1.131l-5.539-3.485c-.992-.625-1.331-.16-1.331-.16l1.111-1.765s-.276.506.716 1.131zm1.952 10.873l-1.292 1.62s.316-.481-.591-1.2l-5.657-4.514-1.334 1.672a1.721 1.721 0 00-.335 1.8l-.934-1.046 3.131-3.924s-.319.463.67 1.252l5.045 4.025c.907.72 1.297.315 1.297.315zm-12.428 5.815l-.814-2.081a2.253 2.253 0 00-.4-.713.612.612 0 00-.7-.178l1.357-1.279c-.057.054-.26.371.193 1.592l3.075 8.228-8.038-3.607c-1.083-.484-1.494-.293-1.57-.24l1.576-1.484a.487.487 0 00.093.575 2.267 2.267 0 00.688.426l2.185.988zm-1.844 2.472l3.421 1.56-1.371-3.491zm-19.507 8.857l5.813 1.966-1.654-2.933c-.506-.9-.958-.823-1.045-.789l1.751-.987c-.05.043-.407.394.113 1.315l3.223 5.718c.513.909.981.81 1.074.788l-1.751.987c.062-.05.378-.393-.141-1.314l-1.551-2.751-1.182 4.2c-.2.711-.238 1.093-.148 1.252a.25.25 0 00.294.149l-1.785 1.006c.1-.069.555-.478.971-1.971l1.124-3.959-4.639-1.5a3.973 3.973 0 00-1.865-.387zm-6.14 4.17l2.474 6.059c.439 1.074.977.91.977.91l-1.919.784s.511-.266.073-1.34l-2.474-6.058c-.444-1.087-.989-.906-.989-.906l1.931-.789s-.514.253-.073 1.34zm-9.876 8.801a1.884 1.884 0 002.408 1.4l1.07-.291-1.9-7c-.308-1.133-.869-1.008-.869-1.008l2-.543s-.531.185-.227 1.305l1.709 6.295c.318 1.17.87 1.061.87 1.061l-2.493.677c-2.077.563-3.131-.381-3.435-1.5a2.558 2.558 0 011.331-2.862c.025-.007.166-.085.191-.092l-2.981-2.219a4.948 4.948 0 00-1.637-.852l1.473-.4 4.606 3.425-.755.205a1.9 1.9 0 00-1.361 2.399zm-9.096-3.556l.934 6.48c.166 1.149.728 1.121.728 1.121l-2.052.3s.56-.134.395-1.282l-.935-6.481c-.167-1.162-.741-1.119-.741-1.119l2.065-.3s-.562.119-.394 1.281zm-7.246.127l.046 1.577a2.686 2.686 0 00-2.54-1.7 1.729 1.729 0 00-1.722 1.8c.029.977.591 1.456 2.163 2.127 1.479.635 2.2 1.292 2.235 2.4a2.355 2.355 0 01-2.407 2.431 4.165 4.165 0 01-2.207-.562l-.042-1.407a2.51 2.51 0 002.273 1.447 1.6 1.6 0 001.607-1.678c-.03-1.029-1.06-1.455-2.117-1.92-1.149-.5-2.326-1.054-2.37-2.539a2.537 2.537 0 012.636-2.621 4.263 4.263 0 012.445.645zm-17.036-.118l-.346 2.94 4.871.58.349-2.941c.139-1.166-.427-1.272-.427-1.272l2.061.245s-.562-.028-.7 1.138l-.774 6.5c-.137 1.153.414 1.271.414 1.271l-2.06-.245s.577.016.714-1.137l.356-2.992-4.871-.58-.36 2.993c-.138 1.153.426 1.272.426 1.272l-2.06-.244s.562.027.7-1.139l.774-6.5c.137-1.153-.427-1.273-.427-1.273l2.073.247s-.574-.029-.713 1.137zm-7.695-1.59l-1.631 6.342c-.29 1.124.241 1.315.241 1.315l-2.009-.517s.569.093.858-1.032l1.632-6.342c.292-1.137-.254-1.318-.254-1.318l2.022.52s-.566-.105-.859 1.032zm-13.511-5.995c-.065-.013-.532-.08-.954.931l-2.51 6.02 6.192-5.969.17 8.607 2.48-5.947c.427-1.023 0-1.386-.093-1.438l1.781.743c-.088-.023-.668-.124-1.11.936l-2.515 6.032c-.377.9.074 1.246.172 1.315l-1.626-.678-.143-7.96-5.708 5.52-1.456-.607c.077.018.573.083.974-.879l2.545-6.1c.392-.939.014-1.253-.065-1.3zm-9.976-1.423l1.819-1.3a2.269 2.269 0 00.593-.565.614.614 0 000-.727l1.571 1c-.066-.042-.422-.162-1.5.575l-7.226 4.991 1.534-8.674c.206-1.169-.08-1.521-.149-1.581l1.823 1.165a.487.487 0 00-.534.231 2.234 2.234 0 00-.246.772l-.424 2.359zm-2.848-1.185l-.676 3.7 3.049-2.182zm-11.533-10.36l-1.628-1.62.534-.536 1.627 1.62zm-17.66-12.339a4.294 4.294 0 011.443-6.2 4.513 4.513 0 016.555 1.466 4.3 4.3 0 01-1.444 6.2 4.513 4.513 0 01-6.554-1.466zm.644-.007c1.055 1.664 3.136 2 5.186.7a3.872 3.872 0 001.523-5.416c-1.055-1.664-3.136-2-5.185-.7s-2.684 3.588-1.524 5.415zm-5.995-11.439l3.394-1.487-.906-2.067c-.308-.7-.671-.589-.671-.589l1.171-.513s-.325.2-.022.893l.906 2.067 2.76-1.209c1.051-.461.881-1.012.881-1.012l.832 1.9s-.273-.493-1.337-.027l-5.938 2.6c-1.1.482-.946 1.027-.946 1.027L6.5 121.42l1.219-.534a1.121 1.121 0 00-.254 1.436zM4.384 113.7l3.553-1.044-.637-2.166c-.217-.738-.591-.669-.591-.669l1.226-.36s-.348.157-.135.882l.636 2.165 2.891-.85c1.1-.323 1-.892 1-.892l.584 1.989s-.208-.523-1.321-.2l-6.219 1.828c-1.151.338-1.068.9-1.068.9l-1.331-4.529 1.276-.375a1.121 1.121 0 00-.434 1.392zm4.773-11.115l-6.45 1.126c-1.144.2-1.1.761-1.1.761l-.357-2.043s.15.557 1.293.357l6.45-1.126c1.156-.2 1.1-.774 1.1-.774l.359 2.056s-.139-.559-1.295-.357zm.136-11.568A4.461 4.461 0 014.85 95.79a4.448 4.448 0 01-4.843-4.532 5.494 5.494 0 01.541-2.741l1.446-.066a3.276 3.276 0 00-1.435 2.886c.1 2.281 1.91 3.517 4.139 3.415 2.606-.119 4.069-1.831 3.976-3.864a3.953 3.953 0 00-1.09-2.688l.626-.029a4.944 4.944 0 011.083 2.846zm-1.169-9.188L1.6 81.292c-1.157-.095-1.255.46-1.255.46l.17-2.067s.005.576 1.162.671l6.526.537c1.171.095 1.256-.474 1.256-.474l-.17 2.08s.005-.575-1.165-.67zM7.062 72.5l1.856 1.245a2.261 2.261 0 00.737.357.615.615 0 00.681-.256l-.386 1.823c.016-.077 0-.453-1.066-1.2l-7.217-5.006 8.66-1.618c1.166-.219 1.395-.611 1.427-.7l-.448 2.117a.489.489 0 00-.4-.419 2.273 2.273 0 00-.809.042l-2.357.434zm.106-3.083l-3.7.669 3.117 2.086zM4.794 59.57l.713-1.946s-.148.556.941.956l6.792 2.489.736-2.007a1.721 1.721 0 00-.252-1.813l1.216.7-1.727 4.711s.157-.54-1.03-.975l-6.058-2.22c-1.089-.403-1.331.105-1.331.105zm14.274-25.576a.5.5 0 00-.738.059l1.149-1.662c-.034.071-.274.6.476 1.628l4.952 6.848-7.374-2.037L22 45.072l-8.047-2.44c-1.123-.348-1.542.029-1.615.089l1.231-1.781a.4.4 0 00.146.545 5.406 5.406 0 001.082.384l5.408 1.74-4.437-6.285 7.332 2.008-3.52-4.794a2.423 2.423 0 00-.512-.544zM30 34.189s.362-.43-.547-1.311l-4.6-4.458c-.862-.835-1.3-.477-1.3-.477l3.286-3.392.937.908c-.278-.143-.816-.282-1.542.467l-1.262 1.3 2.661 2.578 1.559-1.604a.961.961 0 00.3-.853l.908.881a.958.958 0 00-.825.326l-1.57 1.616 2.661 2.579 1.416-1.462a1.722 1.722 0 00.508-1.761l.829 1.131zm9.253-8.613l-1.692 1.33c.034-.043.361-.449-.348-1.352l-3.988-5.075c-.661-.841-1.108-.672-1.2-.636l1.681-1.322a4.629 4.629 0 011.777-1.031 2.028 2.028 0 012.079.705 2.314 2.314 0 01-.073 3.01 2.361 2.361 0 013.145.265 2.173 2.173 0 01.037 2.707 5.713 5.713 0 01-1.418 1.399zm-5.026-6.8l-.707.555 2.288 2.913.831-.653a1.732 1.732 0 00.723-1.232A1.909 1.909 0 0036.969 19a1.819 1.819 0 00-1.423-.756 2 2 0 00-1.319.535zm2.642 3.3l-.739.58 2.288 2.912.975-.766a1.714 1.714 0 00.424-2.688 1.833 1.833 0 00-1.454-.732 2.371 2.371 0 00-1.494.695zm9.539-2.292l-.8-1.363a2.69 2.69 0 003.047.273 1.73 1.73 0 00.649-2.4c-.495-.845-1.219-1-2.921-.831-1.6.153-2.555-.077-3.115-1.034a2.357 2.357 0 01.946-3.291 4.179 4.179 0 012.208-.567l.712 1.217a2.505 2.505 0 00-2.69-.179 1.6 1.6 0 00-.606 2.244c.521.89 1.63.77 2.781.671 1.25-.112 2.549-.192 3.3 1.091a2.539 2.539 0 01-1.056 3.567 4.256 4.256 0 01-2.455.602zm9.632-5.828l-2.64-5.99c-.468-1.062-1-.884-1-.884l1.9-.837s-.5.28-.035 1.341l2.635 5.991c.473 1.073 1.014.878 1.014.878l-1.909.842s.51-.267.035-1.341zm4.248-8.679l-.209-1.3 5.909-1.815.558 1.193a1.553 1.553 0 00-1.664-.308l-1.246.383 2.126 6.919c.348 1.134.9.991.9.991l-1.982.609s.532-.178.18-1.325l-2.122-6.918-1.246.383a1.551 1.551 0 00-1.204 1.188zm13.358 4.341s.547-.13.342-1.378l-1.042-6.316C72.751.741 72.187.768 72.187.768L76.844 0l.212 1.286C76.917 1 76.568.574 75.539.744l-1.788.295.6 3.652 2.212-.364a.962.962 0 00.749-.507l.206 1.248a.959.959 0 00-.857-.229l-2.226.367.6 3.653 2.007-.331A1.721 1.721 0 0078.5 7.417l-.007 1.4zm17.347-4.599l2.294.083-.028.756-2.293-.083z" fill="#89b4e8" data-name="レイヤー 2"/></svg>