<svg xmlns="http://www.w3.org/2000/svg" width="2496.627" height="833.187"><style>.st2{fill:#8ab5e7}.st3{fill:#89b4e7}.st4{fill:#8bb5e8}</style><path class="st2" d="M270.119 324.119c-1.942-.959-4.872-1.475-5.554-2.998-.716-1.599.347-4.35 1.299-6.266 1.724-3.467 4.239-6.545 5.903-10.034 6.849-14.356 19.413-22.824 32.171-30.866 2.64-1.664 7.072-.792 10.627-.486.931.08 2.637 2.891 2.283 3.62-.66 1.359-2.47 2.322-3.995 3.044-1.093.517-2.499.372-3.765.522.939 1.077 1.784 2.256 2.831 3.216 6.112 5.599 13.337 7.791 21.556 6.98 1.298-.128 2.925-.255 3.887.387 1.213.81 2.297 2.319 2.614 3.713.124.545-1.9 1.771-3.103 2.371-1.255.626-2.7.871-4.062 1.282.882 1.314 1.624 2.753 2.669 3.921 4.1 4.579 9.048 8.597 12.268 13.714 4.233 6.727 7.444 14.162 10.51 21.536 2.624 6.31 4.773 12.872 6.497 19.488 1.915 7.352 4.087 14.847 4.426 22.358.879 19.443.995 38.929.984 58.398-.002 4.33-1.761 8.662-2.753 12.984-.258 1.124-.686 2.208-1.02 3.315-2.08 6.88-4.196 13.749-6.212 20.647-.736 2.517-1.577 5.08-1.761 7.665-.307 4.313.411 8.743-.242 12.979-2.199 14.273 4.931 23.514 15.758 31.118 11.335 7.961 22.991 15.101 36.338 19.459 10.299 3.363 20.209 7.922 30.283 11.97 1.887.758 3.733 1.617 5.598 2.429-1.771-1.43-3.446-3.001-5.327-4.267-12.81-8.62-24.251-18.896-32.646-31.76-4.25-6.512-6.054-14.775-3.076-22.973 2.229-6.134 6.034-7.263 9.913-2.202 3.994 5.211 6.846 11.281 10.424 16.83 7.268 11.271 16.694 20.274 29.134 25.558 10.117 4.298 20.45 8.1 30.759 11.93 8.738 3.248 17.447 6.693 26.41 9.187 9.346 2.6 18.979 4.171 28.489 6.182 5.641 1.193 11.378 2.062 16.873 3.732 1.656.504 2.644 3.208 3.938 4.904-1.787 1.167-3.651 3.427-5.349 3.308-6.416-.448-12.84-1.373-19.145-2.678-7.074-1.464-14.042-3.464-21.018-5.372-2.995-.819-6.011-1.743-8.806-3.065-4.404-2.083-8.324-2.354-11.602 1.83-3.542 4.521-8.249 5.748-13.75 5.346-5.963-.435-12.152.292-17.873-1.056-8.346-1.967-16.431-5.15-24.491-8.179-4.257-1.6-8.109-4.266-12.352-5.919-4.992-1.945-10.318-3.035-15.3-5.003-6.239-2.464-12.595-4.906-18.328-8.319-9.605-5.719-19.029-11.834-27.981-18.516-4.397-3.282-7.896-7.97-11.18-12.476-2.35-3.225-3.514-2.929-5.927-.202-4.569 5.163-9.03 10.654-14.502 14.705-3.689 2.731-8.945 4.044-13.656 4.554-10.789 1.169-21.496-.281-32.026-2.956-5.526-1.404-12.355-9.937-12.383-15.703-.013-2.667.179-5.352-.07-7.996-.926-9.83 2.775-17.949 8.946-25.244.581-.686.832-1.651 1.237-2.487-.808-.106-1.727-.517-2.408-.271-5.796 2.094-11.557 4.29-17.311 6.499-1.22.468-2.434 1.014-3.542 1.699-5.071 3.134-10.623 5.832-9.501 13.506.466 3.187-1.382 5.862-4.684 5.804-3.261-.058-4.669-2.672-4.642-5.939.049-5.832-.096-11.669.083-17.497.174-5.659 5.125-11.194 10.722-12.775 4.817-1.361 9.492-3.23 14.322-4.533 21.846-5.895 44.089-5.037 66.282-3.146 4.375.373 8.509 3.393 12.797 5.081 1.214.478 3.27 1.209 3.747.702 1.276-1.356 2.466-3.284 2.581-5.057.07-1.08-1.731-2.998-3.006-3.329-7.234-1.879-14.436-2.779-22.106-1.665-7.513 1.091-15.296.244-22.957.414a2138.9 2138.9 0 00-34.909 1.059c-1.583.061-3.167.826-4.693 1.416-.91.352-1.692 1.407-2.556 1.437-2.959.101-7.532 1.031-8.575-.433-2.465-3.458.876-5.818 3.6-8.382 4.14-3.896 9.186-3.473 13.949-4.336 22.893-4.148 46.045-3.229 69.135-3.032 3.564.03 7.324 1.432 10.618 2.991 4.851 2.295 5.459 2.162 6.029-3.013.212-1.926 1.176-3.756 1.61-5.673.799-3.523 1.577-7.06 2.103-10.63.14-.951-.409-2.71-1.077-2.967-7.912-3.042-15.24-7.897-24.313-7.356-8.168.487-16.279.086-24.019-3.233-1.747-.749-3.91-.708-5.883-.722a3971.893 3971.893 0 00-37.497-.107c-3.796.008-6.989-1.154-6.82-5.339.148-3.661 2.837-5.826 6.692-6.004 7.798-.361 15.606-1.087 23.391-.899 5.196.125 10.343 1.692 15.543 2.386 4.594.613 9.234.872 13.846 1.355 10.029 1.049 20.069 2.021 30.067 3.313 2.158.279 4.169 1.754 6.226 2.726.998.471 1.944 1.052 2.913 1.583.344-1.189 1.069-2.409.974-3.561-.95-11.556-2.034-23.102-3.081-34.65-.269-2.968-.301-5.983-.871-8.893-.713-3.631-1.88-7.173-2.831-10.758-.379-1.428-1.203-2.957-.969-4.289.971-5.534-2.482-9.417-4.75-13.741-.362-.691-1.091-1.45-1.802-1.658-10.491-3.058-20.038-8.923-31.423-9.535-4.933-.265-9.953-2.572-14.533-4.781-5.1-2.46-8.737-1.164-9.946 4.467-.234 1.092-.435 2.44-1.161 3.139-7.861 7.573-16.078 14.792-23.697 22.597-10.311 10.563-20.637 21.176-30.081 32.498-5.954 7.138-10.59 15.447-15.279 23.542-3.307 5.709-5.765 11.916-8.493 17.949-1.354 2.995-2.514 6.082-3.64 9.172-.229.629.084 1.456.147 2.191.563-.275 1.359-.399 1.649-.85 1.256-1.951 2.464-3.946 3.507-6.017 2.824-5.613 5.456-11.326 8.409-16.869.556-1.044 2.24-1.488 3.403-2.209.431 1.187 1.469 2.542 1.195 3.533-1.658 5.978-2.972 12.185-5.647 17.712-2.923 6.04-7.34 11.34-10.817 17.135-1.472 2.453-2.279 5.322-3.263 8.047-1.568 4.343-3.504 4.907-6.76 1.834-1.09-1.029-2.117-2.125-3.18-3.183-4.518-4.497-9.488-7.706-16.351-6.715-2.775.401-5.71.415-8.48-.002-8.265-1.243-12.602 3.721-15.753 10.017-2.991 5.977-4.621 12.712-8.086 18.355-4.815 7.844-3.3 16.253-4.04 24.513-.782 8.723-2.772 17.458-2.483 26.129.53 15.898 7.428 29.231 19.498 39.753 3.756 3.275 7.778 6.299 11.193 9.899 5.85 6.167 13.285 6.629 20.957 6.738 2.261.032 3.436-.1 2.075-3.002-3.121-6.655-5.328-13.786-8.931-20.143-1.303-2.3-5.461-3.118-8.439-4.306-8.618-3.441-13.764-10.396-19.053-17.545-5.624-7.601-4.422-15.652-2.944-23.809.286-1.575 2.588-2.785 3.96-4.164 1.434 1.632 3.303 3.067 4.166 4.959.695 1.525.41 3.637.155 5.431-1.4 9.851 11.801 25.024 20.142 26.581.646.121 2.261-1.335 2.289-2.098.216-5.993-.2-12.024.278-17.987.486-6.056 1.773-12.048 2.702-18.07.379-2.458.663-4.933 1.123-7.376.907-4.819 1.538-9.732 2.962-14.399 1.739-5.701 1.45-7.185-3.792-9.891-7.031-3.629-15.118-.644-17.608 6.743-1.323 3.926-4.219 3.959-7.222 3.315-3.086-.661-3.313-3.114-2.962-5.906 1.729-13.752 16.171-21.547 28.453-15.54 3.84 1.878 8.416 4.601 13.455 1.446 1.231-.77 3.704.445 5.607.747-.37 1.95-.689 3.912-1.138 5.843-.143.615-1.048 1.304-.902 1.698 2.936 7.918-3.163 13.979-4.753 20.856-4.259 18.417-2.95 36.916-3.655 55.409-.282 7.397 3.758 13.123 5.996 19.582 3.071 8.865 11.918 13.7 14.902 22.911 1.333 4.115 6.82 7.003 10.662 10.155 4.091 3.357 8.566 6.244 12.7 9.553 14.717 11.78 29.201 23.858 44.135 35.353 4.066 3.129 9.238 5.106 14.19 6.739 10.108 3.333 20.378 6.197 30.644 9.028 13.293 3.665 26.632 7.166 39.991 10.586 2.048.524 4.311.159 6.463.339 14.533 1.211 29.061 2.468 43.594 3.683 1.989.166 3.991.252 5.988.255 16.666.029 33.351-.446 49.99.223 9.674.389 18.743-1.851 27.936-3.743 14.524-2.989 28.204-8.307 41.757-14.452 17.859-8.098 32.931-19.693 46.228-33.622 4.923-5.157 7.85-12.237 11.586-18.501 2.149-3.604 4.415-7.192 6.052-11.033 2.218-5.203 3.902-10.636 5.769-15.986.322-.923.22-2.025.65-2.874 4.903-9.687 4.726-11.226-4.614-16.369-12.693-6.988-21.5-18.116-31.102-28.367-5.197-5.548-9.603-11.837-14.368-17.79-.415-.519-.899-.989-1.268-1.538-1.053-1.566-2.063-3.161-3.091-4.745.213 2.07.309 4.16.664 6.205.847 4.88 1.276 9.927 2.886 14.553 1.639 4.709 3.762 9.62 6.956 13.341 7.25 8.446 15.331 16.176 22.966 24.298 1.331 1.416 2.817 3.253 3.012 5.029.254 2.316-.297 6.597-1.225 6.806-2.507.562-6.116.273-7.956-1.268-2.352-1.97-3.401-4.47-7.121-2.069-1.106.713-4.016-.595-5.635-1.673-1.576-1.049-3.01-2.807-3.725-4.57-3.354-8.279-11.086-10.754-18.316-12.306-7.11-1.526-12.664-5.053-17.943-9.227-9.364-7.405-18.67-14.959-27.339-23.149-13.537-12.788-25-27.453-34.955-43.143-7.571-11.932-14.132-24.506-21.128-36.802-3.523-6.192-7.328-12.25-10.411-18.655-2.173-4.514-3.323-9.517-4.979-14.285a28.573 28.573 0 00-1.711-3.976c-.379-.715-1.373-1.186-1.563-1.907-1.616-6.125-3.135-12.276-4.615-18.435-.229-.953.194-2.132-.196-2.967-5.841-12.489-2.944-26.575-7.227-39.351-.563-1.679-.491-3.614-.498-5.431-.062-15.832-.033-31.665-.14-47.497-.021-3.133-.539-6.261-.773-9.395-.099-1.325-.552-2.963.033-3.926 1.145-1.885 2.906-3.395 4.412-5.06 1.294 1.389 2.793 2.645 3.809 4.213.676 1.043.86 2.524.922 3.826.396 8.299 1.359 16.642.881 24.898-.827 14.281 2.605 28.049 3.88 42.066.045.496.226.99.205 1.479-.375 8.629.687 16.973 3.265 25.315 2.308 7.468 2.966 15.436 5.073 22.982 1.426 5.106 4.137 9.848 6.206 14.78 1.64 3.909 2.96 7.967 4.811 11.769a350.597 350.597 0 009.583 18.335c4.626 8.237 9.764 16.193 14.207 24.524 11.636 21.815 26.776 40.77 45.463 56.919 4.893 4.228 9.566 8.79 14.856 12.454 3.776 2.615 7.391 6.796 13.271 4.475.926-.365 3.11 2.13 4.544 3.481 1.162 1.095 2.036 2.491 3.148 3.649.105.109 1.48-.702 1.445-.803-.576-1.669-.876-3.7-2.032-4.856-4.581-4.579-9.756-8.59-14.124-13.349-7.712-8.403-15.674-16.719-22.23-25.992-4.805-6.796-7.854-14.711-10.386-23.057-4.149-13.68-3.385-27.847-6.656-41.502-1.139-4.756-.389-9.937-.806-14.898-1.125-13.372-2.42-26.73-3.633-40.095-.135-1.489-.338-2.997-.239-4.478.78-11.721-1.14-23.155-3.447-34.569-.489-2.419-.538-4.947-.588-7.429-.13-6.463.452-12.951-2.815-19.037-1.035-1.928-1.025-4.517-1.14-6.821-.262-5.251.732-10.701-2.958-15.305-.367-.458-.261-1.287-.396-1.939-1.586-7.633-2.818-15.364-4.891-22.863-1.415-5.118-4.019-9.905-6.067-14.85-1.619-3.909-3.207-7.832-4.8-11.752-7.135-17.564-18.317-32.326-31.954-45.245-2.827-2.678-4.754-5.253-3.936-8.962.308-1.399 2.634-3.663 3.373-3.429 3.184 1.009 6.932 2.087 8.997 4.438 6.306 7.178 12.366 14.662 17.696 22.581 5.417 8.047 9.922 16.715 14.689 25.189 2.39 4.249 4.837 8.529 6.603 13.051 2.046 5.24 3.391 10.755 4.993 16.165.232.783-.085 1.861.345 2.431 3.269 4.338 3.271 9.504 4.249 14.525 1.883 9.661 5.184 19.078 6.62 28.786 2.176 14.712 3.17 29.596 4.85 44.386.783 6.899 2.226 13.726 2.946 20.63.636 6.101.523 12.277 1.025 18.396 1.028 12.551 2.242 25.087 3.393 37.628.121 1.319.523 2.638.468 3.943-.423 10.175.488 20.149 3.401 29.981 1.945 6.566 2.714 13.514 5.007 19.934 1.684 4.717 4.626 9.123 7.646 13.194 4.931 6.646 10.359 12.927 15.654 19.297.538.647 1.608.852 2.431 1.263.15-.782.447-1.568.428-2.346-.243-10.077-.73-20.155-.652-30.228.017-2.189 1.484-5.366 3.238-6.305 2.513-1.345 4.813-.109 6.56 3.168 10.691 20.057 24.32 37.987 41.043 53.402 5.42 4.995 11.614 9.171 17.62 13.488.933.67 3.089.622 4.126-.007 4.592-2.785 5.919.098 7.784 3.534 1.109 2.044 3.399 4.302 5.533 4.777 7.064 1.572 14.385 2.018 21.412 3.708 1.974.474 4.451 3.616 4.669 5.742.673 6.552 3.747 11.849 7.001 17.231 2.871 4.749 5.47 9.661 8.25 14.466.899 1.554 2.484 2.881 2.864 4.519.456 1.967-.041 4.155-.126 6.247-1.881-.18-3.916.025-5.599-.649-1.698-.681-3.047-2.234-4.548-3.406-.168 1.928-.408 3.853-.485 5.785-.08 1.996.151 4.012-.019 5.997-.803 9.352 3.517 16.898 8.505 24.175.628.916 2.046 1.289 3.098 1.913-.023-1.09-.133-2.186-.054-3.269.594-8.079 1.207-16.158 1.883-24.231.049-.59.585-1.177.987-1.693 2.752-3.535 13.01-5.937 17.334-4.265 1.294.5 2.838.491 4.265.474 1.648-.019 3.29-.371 4.941-.462 9.675-.533 19.161.074 28.93-3.18 7.05-2.349 13.333-4.451 18.021-10.118 3.361-4.062 6.43-8.38 9.41-12.733.778-1.137 1-2.829 1.029-4.274.108-5.497.075-10.999-.007-16.498-.019-1.302-.21-2.689-.7-3.881-2.09-5.093-4.629-10.021-6.419-15.212-1.945-5.64-2.638-11.765-4.99-17.197-2.303-5.319-5.721-10.242-9.19-14.939-2.532-3.427-5.903-6.245-8.967-9.265-7.062-6.96-11.033-19.676-6.664-28.748.495-1.027.996-2.213.962-3.308-.261-8.433 4.416-15.193 7.087-22.695 4.193-11.772 11.06-23.128 8.887-36.469-.411-2.526-1.967-4.85-2.512-7.372-1.9-8.799-3.626-17.637-5.341-26.475-.782-4.03-1.589-8.077-1.951-12.155-.117-1.317.827-3.242 1.905-3.962.665-.444 2.764.57 3.749 1.454 1.579 1.418 3.403 3.069 4.008 4.975 2.115 6.655 3.732 13.468 5.579 20.209.855 3.121 1.845 6.206 2.694 9.328.52 1.91 1.234 3.854 1.266 5.793.145 8.664.604 17.376-.12 25.98-.412 4.898-2.692 9.694-4.475 14.406-2.345 6.195-4.352 12.671-7.739 18.28-4.135 6.849-3.01 14.045-3.696 21.239-.599 6.287 2.104 10.627 5.884 15.058 5.771 6.764 11.371 13.703 16.578 20.904 2.052 2.838 3.07 6.511 4.178 9.927 1.976 6.095 3.625 12.296 5.484 18.43 1.509 4.98 3.321 9.875 4.651 14.9 2.12 8.007 3.15 16.264-1.68 23.562-6.781 10.243-13.829 20.698-25.211 26.266-5.629 2.753-12.341 3.997-18.668 4.452-9.78.703-19.652.121-29.484.128-5.507.004-12.548 7.637-13.485 13.01-2.077 11.903 7.193 16.545 13.873 22.774 3.736 3.484 8.215 6.158 12.148 9.451 1.091.913 2.349 3.425 1.921 3.997-1.042 1.389-3.204 3.099-4.604 2.86-6.413-1.095-12.832-.754-19.324-3.369-10.613-4.276-20.904-8.741-29.949-15.768-2.483-1.929-4.597-4.328-6.951-6.433-.553-.495-1.39-.672-2.096-.995-.263.727-.732 1.449-.753 2.183-.09 3.164.111 6.342-.099 9.495-.22 3.31-1.523 4.9-5.519 4.263-11.286-1.798-19.927-8.763-29.379-14.18-2.002-1.148-4.197-2.005-6.067-3.329-3.449-2.441-3.324-6.182.562-7.037 3.229-.71 7.318-.269 10.284 1.182 5.388 2.635 10.14 6.538 15.32 9.64 3.164 1.895 5.663.237 5.899-4.474.251-5.004 3.06-7.107 7.264-8.125 1.337-.324 2.929-.305 4.239.097 4.41 1.355 5.977.532 4.461-3.887-2.608-7.603-2.969-15.236-2.869-23.058.003-.218-2.042-.959-2.615-.609-5.6 3.422-11.045 7.095-16.622 10.556-7.259 4.505-15.476 4.586-23.584 4.445-3.824-.066-6.33 1.275-7.234 4.663-1.783 6.685-6.165 11.21-11.482 15.078-10.816 7.869-21.355 16.182-32.619 23.351-7.157 4.555-15.385 7.445-23.187 10.961-4.916 2.215-9.822 4.548-14.931 6.217-6.728 2.198-13.642 3.835-20.495 5.645-21.21 5.603-42.894 4.291-64.44 3.909-12.404-.22-24.773-2.087-37.173-2.996-6.954-.509-13.975-.233-20.902-.936-7.028-.714-13.99-2.126-20.958-3.363-8.11-1.44-16.247-2.791-24.273-4.616-6.089-1.385-12.051-3.362-18.018-5.242-7.013-2.21-14.011-4.482-20.939-6.942-9.581-3.402-19.078-6.78-27.087-13.619-10.574-9.029-21.705-17.405-32.588-26.072-1.038-.827-1.908-2.22-3.052-2.477-1.723-.386-4.39-.75-5.303.19-3.472 3.574-7.199 2.605-11.076 1.543-2.649-.726-5.222-1.782-7.903-2.326-8.347-1.694-16.76-3.077-25.077-4.899-2.116-.464-4.664-1.641-5.799-3.314-2.084-3.073-4.537-3.839-7.99-3.83-10.765.029-21.614.813-31.949-3.599-1.996-.852-4.615-.199-6.942-.327-4.464-.245-5.739-2.973-5.859-7.055-.124-4.228 1.662-6.007 5.785-6.371 2.375-.21 4.673-1.292 7.006-1.982-2.198-.201-4.395-.555-6.594-.574-7.832-.07-15.666.009-23.498-.055a15.178 15.178 0 01-4.4-.683c-6.999-2.218-13.964-4.543-20.943-6.825-.314-.103-.662-.269-.964-.219-8.427 1.386-12.947-5.761-19.313-8.861-.715-.348-1.28-1.067-1.822-1.694-2.241-2.593-4.343-5.376-1.821-8.803 2.05-2.786 6.477-2.632 9.933-.2 3.637 2.559 7.483 4.822 11.095 7.414 5.527 3.966 11.297 2.944 17.162 1.18 2.981-.896 6.284-1.272 8.866-2.835 5.569-3.371 6.301-8.994 5.555-14.942-.619-4.929-.719-10.017-2.09-14.733-1.348-4.636-3.752-9.035-6.149-13.281-3.392-6.009-7.822-11.508-10.594-17.763-1.579-3.562-.764-8.193-.973-12.346-.045-.902.142-1.815.222-2.723l-2.641.807c-4.759 1.45-9.572 2.845-11.828 7.974-.582 1.323-1.391 2.744-1.363 4.105.218 10.667 3.516 20.127 12.443 26.558 2.117 1.525 5.64 1.26 8.542 1.499 5.481.451 9.006 3.909 7.93 8.547-.338 1.457-1.986 3.525-3.26 3.703-9.099 1.273-17.337-.154-24.168-7.346-4.148-4.367-9.619-7.448-14.002-11.625-10.904-10.391-13.009-23.114-9.841-37.48 2.276-10.319 9.465-15.895 17.606-20.983.766-.479 1.359-1.235 2.033-1.862-.821-.088-1.7-.018-2.455-.291-4.787-1.729-9.61-3.381-14.3-5.349-7.373-3.093-14.706-6.294-21.941-9.694-3.232-1.518-6.481-3.281-9.178-5.573-2.453-2.084-.929-6.096 2.478-6.126 7.031-.062 14.307-1.523 20.939 2.534 1.456.891 3.459 1.148 5.229 1.214 4.66.174 9.335-.034 13.997.118 14.525.473 25.584-6.45 35.068-16.522 1.315-1.396 2.119-3.782 2.191-5.745.245-6.656.852-13.455-.183-19.96-1.12-7.036-4.531-13.691-5.842-20.718-1.537-8.237-2.095-16.682-2.654-25.065-.228-3.421.532-6.935 1.052-10.375 1.502-9.933 2.321-20.06 4.897-29.714 2.652-9.939 5.776-20.058 12.587-28.213a1594.95 1594.95 0 0129.845-34.681c2.721-3.075 6.283-5.4 9.386-8.151.663-.588 1.011-1.533 1.504-2.313-.908.056-2.045-.223-2.691.218-10.953 7.474-22.023 14.797-32.699 22.652-9.992 7.352-17.982 16.765-24.391 27.332-4.675 7.706-8.861 15.717-10.041 24.981-.241 1.89-2.663 3.502-4.079 5.242-1.243-1.863-3.407-3.655-3.558-5.603-.483-6.229-.896-12.61-.035-18.75.714-5.091 2.938-10.072 5.089-14.833 2.841-6.29 7.27-12.011 9.251-18.514 6.281-20.617 21.738-33.383 37.574-45.97 8.297-6.595 16.398-13.513 25.171-19.417 11.399-7.67 23.464-14 37.962-13.674 13.659.307 27.331.05 40.997.12 1.791.009 4.081-.122 5.277.861 3.7 3.04 5.622.356 8.847-1.114 5.501-2.507 6.034-8.038 9.4-11.482 5.533-5.661 11.82-10.73 18.347-15.24 8.095-5.592 16.54-10.78 25.263-15.319 4.82-2.508 10.55-3.229 15.809-4.942 6.017-1.959 11.973-4.105 17.943-6.208 5.107-1.799 10.097-4.026 15.315-5.388 6.968-1.818 14.241-2.514 21.147-4.511 24.5-7.083 49.597-5.776 74.59-5.619 9.096.057 18.202 1.134 27.272 2.06 5.88.6 8.616 4.301 8.991 10.686.045.761 1.478 1.986 2.357 2.071 11.378 1.101 22.819 1.674 34.139 3.178 4.922.654 9.756 2.794 14.357 4.866 7.686 3.461 15.179 7.358 22.705 11.166 9.584 4.849 19.082 9.869 28.692 14.666 5.678 2.834 11.686 5.047 17.206 8.144a163.077 163.077 0 0117.76 11.514c3.701 2.763 6.567 6.618 10.022 9.746 9.69 8.775 19.461 17.462 29.258 26.118 8.321 7.352 16.154 14.839 21.574 24.979 4.048 7.574 10.811 13.649 15.872 20.742 5.329 7.468 10.217 15.265 15.025 23.086 3.666 5.963 7.695 11.89 10.146 18.368 3.362 8.889 10.399 16.547 9.328 27.052-.339 3.328-1.107 6.486-4.556 6.466-1.49-.009-3.368-3.262-4.366-5.374-3.684-7.795-7.006-15.761-10.597-23.601-2.983-6.513-5.755-13.172-9.344-19.346-4.112-7.074-8.841-13.816-13.651-20.448-3.104-4.279-7.083-7.921-10.226-12.176-3.871-5.241-6.86-11.169-10.995-16.168-5.123-6.194-10.35-12.668-16.749-17.36-11.176-8.195-20.629-18.038-30.476-27.603-6.105-5.931-12.97-11.289-20.181-15.81-6.066-3.803-13.216-5.832-19.715-8.999-6.898-3.361-13.534-7.255-20.394-10.699-6.261-3.143-12.698-5.932-18.999-8.999-4.424-2.153-8.566-5.035-13.165-6.647-6.307-2.211-12.887-4.784-19.421-4.994-19.978-.644-39.996-.502-59.987-.089-7.213.149-14.412 1.819-21.582 3.006-8.911 1.475-17.795 3.124-26.67 4.804-1.75.331-3.399 1.175-5.111 1.733-2.314.754-4.641 1.466-6.967 2.183-2.028.625-4.037 1.332-6.097 1.826-7.338 1.759-14.629 3.887-22.07 4.97-3.85.56-5.722-3.137-6.131-6.594-.461-3.897 2.655-4.789 5.702-5.619 6.999-1.905 13.968-3.923 20.931-5.956 5.677-1.658 11.351-3.333 16.986-5.128 7.006-2.232 13.928-4.739 20.975-6.83 2.809-.834 5.887-.723 8.774-1.355 1.088-.238 1.983-1.36 2.966-2.079-.981-.383-1.992-1.159-2.94-1.09-14.176 1.041-28.528-.886-42.537 3.405-7.5 2.298-15.538 2.785-23.152 4.78-7.194 1.884-14.121 4.769-21.224 7.03-5.403 1.72-10.919 3.078-16.344 4.734-5.342 1.631-10.739 3.165-15.908 5.246-4.158 1.674-8.258 3.742-11.954 6.264-9.92 6.769-19.674 13.791-29.308 20.963-1.128.84-1.025 3.267-1.614 4.915-.638 1.787-1.409 5.039-2.138 5.044-6.23.039-10.456 8.813-17.711 4.07-.408-.267-1.557.654-2.384.96-3.128 1.158-6.233 3.159-9.405 3.275-11.318.414-22.661.079-33.992.238-6.806.095-13.673.113-20.383 1.075-3.726.534-7.453 2.514-10.707 4.585-6.105 3.886-11.986 8.155-17.743 12.549-9.063 6.917-18.747 13.282-26.675 21.347-7.662 7.795-13.454 17.433-19.997 26.314-.355.482-.065 1.44-.075 2.177.853-.37 1.85-.566 2.537-1.137 6.627-5.511 12.974-11.389 19.861-16.547 5.608-4.2 11.771-7.685 17.824-11.256 5.935-3.5 11.947-6.896 18.105-9.978 4.478-2.242 9.245-3.908 13.89-5.815 5.357-2.199 10.553-5.158 16.127-6.359 5.892-1.269 12.149-1.073 18.239-.991 1.174.016 2.944 2.338 3.237 3.832.177.904-1.754 2.646-3.087 3.354-10.259 5.448-20.846 10.321-30.865 16.171-14.697 8.581-27.431 19.618-38.375 32.744-5.488 6.582-11.9 12.417-17.157 19.164-5.374 6.898-9.425 14.549-10.97 23.527-1.668 9.691-5.435 19.097-6.4 28.814-1.245 12.54-3.719 25.238 2.001 37.793 6.207 13.622 6.465 28.457 5.272 43.099-.56 6.873-5.525 12.002-10.791 16.133-11.082 8.694-23.538 13.913-37.922 13.668-1.17-.02-2.352.611-3.528.94 1.148.666 2.239 1.469 3.453 1.976 12.264 5.124 24.964 1.687 37.484 1.991 2.145.052 5.127 1.18 6.194 2.81 2.388 3.652-1.132 7.65-6.238 7.041-17.023-2.03-28.168 8.072-39.149 18.617-.119.115-.23.245-.317.386-2.397 3.86-.834 26.351 2.107 30.047.38.478.896.848 1.349 1.267.153-.721.487-1.458.427-2.161-.198-2.308-.553-4.602-.825-6.904-1.298-10.996 5.988-16.609 13.915-21.516 4.196-2.597 8.807-4.319 14.118-3.776 5.307.542 8.499 3.906 7.797 9.235-.173 1.315-.456 2.615-.671 3.924-1.148 6.984.772 13.142 5.258 18.479 7.324 8.712 11.629 18.974 13.71 29.874 1.579 8.275 3.614 17.337-2.343 24.917-2.473 3.147-6.389 5.154-9.621 7.715-.684.542-1.243 1.241-1.859 1.868.856.367 1.701 1.024 2.57 1.057 15.475.594 30.821.264 45.555-5.542 4.303-1.695.479-2.645-.211-3.393-5.712-6.199-11.842-12.032-17.304-18.437-7.737-9.073-12.092-19.619-11.83-31.776.294-13.643.303-27.302 1.047-40.921.226-4.129 2.332-8.205 3.841-12.205 3.492-9.253 6.444-18.743 12.988-26.573 2.58-3.087 5.328-6.649 2.032-11.096-.334-.451-.207-1.303-.169-1.961.638-11.089.959-22.212 2.09-33.252.566-5.531 2.542-10.93 4.065-16.337.248-.879 1.456-1.488 2.22-2.222.958 1.04 2.733 2.083 2.728 3.118-.02 3.784.034 7.789-1.144 11.307-4.153 12.394-1.906 25.111-2.396 37.675-.032.811 1.923 2.328 3.057 2.437 3.408.329 5.983-1.327 6.22-4.914.307-4.647-.238-9.361.217-13.984.38-3.853 1.506-7.665 2.603-11.407 1.616-5.51 3.41-10.972 5.297-16.396a215.934 215.934 0 015.322-13.795c.283-.663 1.84-.782 2.807-1.153.421 1.476 1.465 3.102 1.153 4.402-1.145 4.772-2.593 9.487-4.196 14.13-3.496 10.13-7.223 20.188-6.624 31.18.045.831.006 1.666.001 2.5-.062 9.381-.463 8.329 8.175 8.667 3.093.121 6.667 1.165 9.052 3.028 3.577 2.794 4.865.422 5.961-1.867.969-2.024.882-4.524 1.511-6.744 2.243-7.914 4.609-15.793 6.884-23.699.406-1.412.862-2.886.854-4.329-.089-16.311 6.538-30.26 15.72-43.073 3.131-4.37 7.96-7.493 11.824-11.374 8.697-8.732 17.223-17.634 25.938-26.346 2.392-2.391 5.207-4.357 7.829-6.519.892-.372 1.971-.54 2.64-1.154 1.949-1.791 4.301-2.994 5.875-.404.929 1.528.911 4.787-.138 6.123-2.245 2.86-5.349 5.089-8.266 7.366-2.707 2.113-5.962 3.608-8.396 5.972-10.273 9.973-20.773 19.774-30.271 30.456-4.538 5.104-7.084 12.003-10.354 18.183-.379.717.387 2.04.622 3.082.674-.619 1.462-1.151 2.006-1.869 5.743-7.583 10.7-15.931 17.322-22.641 12.583-12.75 26.091-24.59 39.268-36.751 2.277-2.101 4.242-3.947 2.893-7.577-.422-1.135.452-3.673 1.479-4.258 3.373-1.922 6.954-3.96 10.697-4.663 13.05-2.454 26.199-4.419 39.368-.457.754.227 1.586.193 2.382.28-.35-.844-.478-1.928-1.087-2.492-4-3.695-7.789-7.754-12.286-10.728-2.956-1.954-6.934-2.902-10.543-3.191-4.414-.354-8.937.306-13.379.821-2.066.239-4.354.73-6.017 1.871-4.755 3.261-9.529 6.602-13.747 10.504-3.723 3.446-6.707 7.689-10.016 11.579zm422.965 340.986c.055.147.078.323.176.431.061.068.234.036.357.049l-.51-.504-.998-1.002-.998-1.002-.999-1.001c-.046-.153-.059-.333-.151-.449-.058-.073-.237-.05-.362-.07l.483.55 1 1 1.002.999c.332.334.666.667 1 .999zm-24.346-13.641l.993.328-.306-1.018-1.033-.351c.114.349.228.698.346 1.041zm-464.814-37.949l.494-2.005c1.636 1.183 3.842 2.06 4.703 3.66.555 1.031-.608 3.283-1.478 4.693-.746 1.211-2.156 2.019-3.299 2.973-.349.291-.788.475-1.185.708.343.19.666.478 1.034.554 7.888 1.638 15.772 3.3 23.683 4.818 1.175.226 2.485-.249 3.732-.399-.588-1.081-1.071-2.239-1.801-3.214-.473-.633-1.375-.926-1.966-1.493-6.202-5.954-12.827-11.549-18.405-18.043-3.58-4.168-6.511-6.014-11.786-4.114-1.807.651-3.862 1.343-5.677 1.094-4.537-.622-8.978-1.922-13.509-2.624-1.496-.232-3.366.153-4.686.913-4.373 2.519-8.611 5.281-12.806 8.091-.84.563-1.266 1.745-1.882 2.642.964.461 1.901 1.246 2.896 1.329 5.61.468 11.233 1.046 16.853 1.058 8.36.018 16.722-.405 25.085-.641zm421.259 9.793c11.056-2.304 21.765-5.163 29.762-14.138 1.748-1.962 4.78-3.045 7.429-3.849 1.935-.587 3.055-.38 1.834-2.972-2.02-4.289-3.445-8.855-5.251-13.251-1.216-2.962-5.221-4.05-6.753-1.901-1.8 2.524-3.177 5.394-5.204 7.703-5.618 6.398-10.831 13.257-20.825 13.434-2.039.036-4.25 3.834-5.915 6.223-.953 1.368-.689 3.529-1.465 5.089-1.43 2.877-.14 3.599 2.402 3.656 1.328.031 2.657.006 3.986.006zM470.58 560.062l4.458-1.013c-1.726-.873-3.432-1.788-5.181-2.612-8.604-4.054-17.587-7.46-25.74-12.274-10.979-6.483-19.515-15.82-26.448-26.559-1.256-1.946-2.704-3.768-4.064-5.647.286 2.737.464 5.493.92 8.202.151.9.98 1.706 1.558 2.512 8.713 12.158 19.741 21.847 32.295 29.812 6.472 4.106 13.409 7.22 22.202 7.579zm-167.994-55.215c1.162 0 2.327.064 3.484-.011 6.369-.411 9.303-3.98 9.962-9.929.854-7.707-3.599-6.42-8.199-5.79-1.08.148-2.248-.499-3.393-.647-6.104-.788-9.713 2.957-10.096 10.429-.259 5.044 1.001 5.955 8.242 5.948zm341.673 80.419c-.377-1.367-.412-2.709-.837-2.847a104.658 104.658 0 00-10.316-2.781c-.353-.075-1.265 1.411-1.557 2.292-1.287 3.892-2.557 7.797-3.594 11.76-.51 1.946-.499 4.029-.724 6.049 2.029-.808 4.227-1.348 6.042-2.495 2.069-1.307 3.995-2.978 5.622-4.812 2.034-2.291 3.702-4.911 5.364-7.166zM464.411 149.392c3.436-.537 7.155-1.114 10.865-1.749.04-.007-.03-1.12-.081-1.123-3.856-.21-7.733-.635-11.568-.399-1.904.117-3.733 1.458-5.596 2.246l6.38 1.025zM294.797 292.014c3.286-.402 5.949-.563 8.509-1.166.58-.137.797-1.81 1.182-2.776-1.769-.622-3.836-2.131-5.239-1.661-2.176.73-3.899 2.81-5.814 4.318a2059.8 2059.8 0 001.362 1.285zM149.112 605.161l4.523-3.155c-.569-.372-1.294-1.176-1.678-1.037-1.291.468-2.521 1.193-3.616 2.027-.174.134.462 1.332.771 2.165z"/><path class="st2" d="M583.673 396.125c1.68-12.619 3.136-25.272 5.118-37.843 1.307-8.286 3.306-16.468 5.166-24.658.271-1.194 1.496-2.171 2.28-3.248.666 1.179 1.982 2.419 1.878 3.526-.348 3.727-1.297 7.392-1.837 11.107-.64 4.401-.792 8.892-1.685 13.235-2.45 11.916-4.267 23.898-3.251 36.071 1.129 13.527 2.258 27.085 4.302 40.49.865 5.674 3.986 11.024 6.227 16.462 3.123 7.58 6.233 15.171 9.63 22.629 2.706 5.941 5.778 11.718 8.786 17.517 3.572 6.885 7.299 13.689 10.869 20.575 4.502 8.685 10.566 16.006 18.594 21.637.646.453 1.53.569 2.303.842-.052-.896.166-1.923-.197-2.667-3.247-6.666-6.67-13.246-9.893-19.923-3.423-7.089-6.656-14.27-10.025-21.385-3.3-6.968-6.681-13.898-9.999-20.858-1.689-3.543-3.432-7.067-4.951-10.684-3.101-7.387-5.971-14.871-9.123-22.235-2.05-4.789-4.964-9.265-6.536-14.187-2.247-7.037-4.086-14.28-5.239-21.571-1.239-7.838-2.07-15.841-1.959-23.757.078-5.521 1.931-11.043 3.271-16.495.241-.979 1.755-2.005 2.856-2.262.552-.129 2.073 1.369 2.155 2.226.229 2.403-.193 4.86-.125 7.29.29 10.388.827 20.773.944 31.162.066 5.857 2.339 11.083 3.54 16.532 2.492 11.298 9.178 20.379 13.295 30.732 5.667 14.251 12.658 27.99 19.409 41.788 3.539 7.234 7.991 14.018 11.634 21.207 3.23 6.373 5.755 13.101 8.916 19.512 1.216 2.467 3.326 4.494 5.033 6.717 2.157 2.81 2.801 5.633.106 8.503a7.944 7.944 0 00-.633.772c-1.644 2.282-3.282 4.567-4.922 6.851-1.843-2.027-3.45-4.36-5.584-6.013-3.509-2.719-7.522-4.789-11.035-7.505-8.609-6.654-15.556-14.616-20.125-24.72-3.042-6.725-7.306-12.887-10.668-19.483-1.759-3.45-2.603-7.353-4.121-10.941-2.853-6.743-5.914-13.398-8.854-20.106-2.117-4.832-4.51-9.577-6.201-14.557-5.732-16.877-8.983-34.183-7.973-52.125-.458-.051-.917-.105-1.376-.16zM695.847 525.65c0 6.515-.101 11.344.032 16.165.104 3.76-.26 7.294-4.737 8.01-4.399.703-6.862-2.423-8.245-5.877-3.178-7.937-6.053-16.002-8.813-24.097-2.575-7.552-6.144-15.076-6.935-22.85-1.117-10.977-.229-22.179.194-33.27.066-1.736 1.856-3.965 3.469-4.961 2.889-1.782 6.798.971 5.719 4.106-2.492 7.238 1.969 11.716 5.348 16.979 3.69 5.748 6.438 12.092 9.968 17.953 5.619 9.33 3.395 19.597 4 27.842zm-9.188-8.381c-1.019-9.308-4.445-18.112-8.796-26.616-.22-.431-.967-.592-1.469-.879-.129.624-.475 1.295-.353 1.866 1.303 6.098 2.564 12.208 4.089 18.252.663 2.63 1.904 5.114 2.89 7.661.859 2.219 1.729 4.433 2.594 6.649l1.045-6.933zM410.9 668.465c-8.035-1.613-13.507-6.175-19.025-10.527-4.812-3.796-9.294-8.01-14.109-11.802-1.474-1.161-3.54-2.073-5.38-2.162-3.532-.17-5.589-2.168-5.696-5.093-.083-2.266 1.051-5.809 2.69-6.592 2.009-.959 5.7-.486 7.636.853 9.207 6.368 18.044 13.268 27.054 19.924 4.351 3.214 10.327 3.148 14.802.225 1.442-.941 3.238-1.338 4.87-1.989 5.555-2.216 11.085-4.498 16.677-6.616 1.796-.68 3.743-.982 5.64-1.368 5.615-1.142 11.207-2.472 16.874-3.242 2.391-.325 5.21.055 7.317 1.13 1.035.528 1.768 3.878 1.089 5.057-1.282 2.222-3.424 4.915-5.669 5.441-8.147 1.906-16.575 2.613-24.717 4.534-5.052 1.192-9.797 3.719-14.65 5.721-5.283 2.179-10.53 4.444-15.403 6.506zm340.471-88.098c.636-5.479-2.071-9.261-5.609-12.867-5.236-5.336-10.422-10.74-15.267-16.424-.976-1.145-.333-3.67-.437-5.559 1.403.806 3.058 1.358 4.165 2.46 5.661 5.634 11.183 11.408 16.75 17.136 8.905 9.162 8.901 22.074-.12 31.054-3.015 3.001-6.214 5.826-9.439 8.604-6.568 5.658-14.219 2.552-21.424 2.253-2.464-.102-2.324-2.356-.699-4.071 8.873-9.366 9.086-20.611 6.156-32.048-2.403-9.381-6.032-18.444-8.797-27.743-.319-1.074 1.119-3.579 2.263-3.998 2.766-1.012 6.695-.759 7.006 2.581 1.42 15.22 10.03 29.262 7.38 45.066-.53 3.161-1.885 6.177-2.744 9.293-.405 1.471-.536 3.018-.791 4.53 1.271-.111 2.547-.18 3.812-.339 7.569-.948 12.359-5.938 16.103-11.868 1.372-2.176 1.173-5.344 1.692-8.06z"/><path class="st3" d="M1558.879 473.535c-.039 14.945.083 29.8-3.486 44.593-1.914 7.93-.827 16.547-1.548 24.814-.69 7.908-.892 16.129-3.391 23.508-1.5 4.429-3.728 8.439-3.949 13.351-.048 1.063-3.222 2.795-4.911 2.745-1.649-.049-3.697-1.679-4.713-3.191-.788-1.172-.099-3.256-.364-4.886-.189-1.162-.871-2.244-1.333-3.362-.996.812-2.297 1.443-2.908 2.481-.723 1.228-1.329 2.869-1.153 4.222.757 5.787-1.699 10.687-3.96 15.632-2.46 5.38-8.828 7.371-13.098 4.033-1.16-.907-2.194-2.607-2.361-4.05-1.162-10.038-2.055-20.107-3.115-30.158-.109-1.031-.748-2.005-1.141-3.006-.927.784-2.33 1.385-2.709 2.378-5.221 13.674-14.034 25.026-23.027 36.298-1.053 1.32-1.605 3.324-1.722 5.055-.501 7.456-.731 14.929-1.116 22.393-.067 1.307.011 2.925-.699 3.836-1.833 2.349-3.702 5.341-6.233 6.311-3.564 1.366-6.955-.926-8.646-4.251-2.673-5.254-5.982-5.282-10.447-2.409-6.275 4.038-12.866 3.728-19.551.906-3.898-1.645-7.426-1.659-11.145 1.22-8.359 6.472-16.764 12.974-25.706 18.575-6.672 4.179-14.215 6.966-21.368 10.377-5.672 2.705-11.368 5.362-16.976 8.194-.677.342-.703 1.797-1.321 2.467-1.398 1.514-2.741 3.533-4.523 4.16-9.171 3.226-18.53 5.917-27.707 9.128-4.454 1.558-8.555 4.131-13.014 5.67-2.039.704-4.568.134-6.855-.075-1.655-.151-3.551-1.385-4.87-.888-7.87 2.96-15.46 6.72-23.428 9.349-6.703 2.211-13.785 3.282-20.716 4.779-2.101.454-4.35.358-6.374 1.005-16.686 5.332-33.749 4.192-50.82 3.188-2.492-.146-4.998-.055-7.497-.055-12.935 0-25.854.47-38.51-3.452-5.95-1.844-12.448-1.897-18.423-3.682-9.446-2.823-18.899-5.878-27.905-9.844-9.064-3.992-17.693-9.03-26.305-13.971-5.018-2.879-9.677-6.398-14.41-9.754-6.484-4.596-12.895-9.295-19.317-13.977-13.354-9.736-23.384-22.371-31.612-36.531-2.06-3.546-3.085-7.918-5.761-10.83-4.066-4.424-9.133-7.936-13.821-11.78-9.07-7.437-16.752-16.148-22.491-26.322-1.663-2.948-1.64-7.088-1.659-10.685-.134-24.829-.752-49.685.198-74.477.504-13.167-1.196-26.699 3.459-39.577.374-1.034.163-2.308.081-3.46-.029-.408-.519-1.132-.734-1.109-.546.058-1.365.334-1.527.74-.855 2.143-1.504 4.368-2.293 6.539-1.465 4.032-2.73 8.17-4.634 11.987-.516 1.036-3.746 1.968-4.46 1.387-1.365-1.109-2.799-3.546-2.481-5.073 1.581-7.595 3.728-15.073 5.66-22.596.246-.956.661-1.973.524-2.891-.118-.792-.912-1.483-1.407-2.219-.416.628-1.003 1.202-1.22 1.893-1.093 3.471-1.756 7.124-3.247 10.405-.897 1.974-3.033 3.384-4.612 5.048-1.178-1.884-3.467-3.844-3.344-5.639.552-8.069 1.443-16.153 2.868-24.114 1.687-9.426 3.826-18.788 6.194-28.069 1.504-5.896 3.79-11.592 5.71-17.382 2.076-6.258 4.013-12.566 6.242-18.769 1.5-4.175 3.328-8.238 5.143-12.292 3.558-7.945 6.897-16.01 10.909-23.723 4.175-8.028 8.88-15.797 13.646-23.498 4.07-6.576 8.646-12.839 12.769-19.385.673-1.069.157-2.887.191-4.359-2.204.087-4.787-.519-6.519.429-2.393 1.309-4.053 3.899-6.211 5.722-1.029.87-2.964 2.06-3.643 1.662-1.408-.826-3.15-2.634-3.122-4.004.047-2.288.826-5.001 2.259-6.746 5.989-7.294 12.1-14.522 18.667-21.289 2.652-2.733 6.656-4.118 9.923-6.3 7.107-4.747 14.086-9.687 21.211-14.406 6.851-4.538 13.627-9.242 20.787-13.247 9.186-5.138 18.723-9.651 28.109-14.431.741-.378 1.474-1.036 2.234-1.071 6.983-.329 8.678-3.798 7.781-10.51-.364-2.724 2.045-6.709 4.387-8.748 9.575-8.332 20.987-13.538 32.854-17.84 5.678-2.058 11.089-4.915 16.843-6.689 6.359-1.96 12.975-3.089 19.475-4.593 1.446-.335 2.868-.772 4.318-1.083 4.626-.991 9.353-3.051 13.87-2.671 8.341.7 15.011-3.258 22.239-5.855 3.225-1.159 6.475-2.617 9.81-2.939 1.621-.157 3.464 1.987 5.206 3.089-1.216 1.452-2.159 3.37-3.698 4.27-4.762 2.786-9.757 5.173-14.636 7.762-.294.156-.368.728-.544 1.106.469.136.966.448 1.403.38 3.104-.484 6.19-1.089 9.295-1.574 5.224-.816 10.446-2.149 15.688-2.247 15.992-.3 31.998-.349 47.988.002 6.064.133 12.097 1.63 18.146 2.492 3.277.467 6.555.934 9.839 1.346 1.97.247 4.023.123 5.918.623 8.441 2.229 16.842 4.608 25.25 6.963 9.992 2.799 20.119 5.21 29.917 8.573 8.583 2.946 16.916 6.718 25.132 10.605 8.288 3.921 16.531 8.044 24.369 12.782 10.964 6.629 20.698 14.675 28.08 25.518 3.794 5.573 9.477 9.822 13.679 15.164 8.594 10.926 17.068 21.973 25.003 33.379 5.534 7.955 10.371 16.438 14.983 24.975 3.188 5.903 5.412 12.322 8.156 18.47 3.338 7.478 6.982 14.827 10.093 22.397 2.372 5.773 4.28 11.753 6.105 17.729 2.443 7.997 4.601 16.08 6.891 24.124 1.869 6.563 3.73 13.129 5.636 19.682 2.106 7.242 5.249 14.342 6.202 21.729 2.668 20.682 4.44 41.48 6.566 62.232-.488.057-.973.109-1.459.162zm-355.446 219.936l.003.935c1.333 0 2.672.082 3.999-.013 13.448-.96 27.339 2.765 40.277-3.803.818-.415 2.001-.037 2.964-.252 8.235-1.839 16.624-3.205 24.641-5.743 9.106-2.883 17.755-7.193 26.831-10.195 6.891-2.279 14.397-2.788 21.169-5.317 11.494-4.292 22.555-9.725 33.933-14.348 6.968-2.831 14.684-4.146 21.177-7.743 10.515-5.825 20.385-12.846 30.274-19.726 1.099-.765 1.29-4.192.624-5.879-1.862-4.716-4.096-9.349-6.735-13.678-3.82-6.266-7.185-13.253-12.434-18.104-8.847-8.177-19.106-14.81-28.611-22.295-9.124-7.185-18.035-14.641-27.075-21.934-.709-.572-1.699-.797-2.559-1.183.035.858-.201 1.85.146 2.555 5.306 10.778 10.825 21.454 15.927 32.326.916 1.953.499 4.745.031 7.011-.15.726-2.696 1.721-3.717 1.364-3.542-1.237-7.128-2.654-10.265-4.674-4.282-2.757-8.138-6.168-12.227-9.232-19.41-14.547-36.441-31.439-50.723-51.085-.977-1.344-2.708-2.141-4.088-3.192-.09 1.836-.454 3.709-.215 5.501.544 4.08 1.808 8.113 1.888 12.182.031 1.557-2.101 3.703-3.769 4.538-.962.482-3.005-1.044-4.49-1.806-1.141-.586-2.175-1.383-3.248-2.101-10.569-7.065-21.339-13.853-31.632-21.299-6.841-4.948-12.98-10.864-19.503-16.262-.577-.477-1.677-.323-2.535-.461.196.739.164 1.688.622 2.186a1842.447 1842.447 0 0017.297 18.499c2.061 2.176 4.337 4.15 6.36 6.357 2.722 2.969 3.357 6.424.307 9.334-2.765 2.639-6.219 2.815-9.582.536-17.153-11.625-34.352-23.182-51.445-34.895-2.512-1.721-3.971-2.014-6.188.578-1.306 1.527-4.034 2.589-6.117 2.579-13.639-.065-27.276-.507-40.915-.733-1.194-.02-2.4.628-3.6.966.449 1.15.573 2.674 1.399 3.388 5.481 4.736 5.719 10.639 1.648 15.554-5.742 6.931-12.56 13.009-19.263 19.07-1.213 1.097-4.375 1.059-6.135.33-4.486-1.858-9.003-3.962-12.932-6.772-6.208-4.441-10.415-10.244-9.397-18.599.46-3.779.738-7.624.551-11.413-.06-1.226-1.82-3.344-2.874-3.39-7.937-.345-15.893-.288-23.843-.328-6-.031-12.011.181-17.991-.159-1.621-.092-3.151-1.796-4.723-2.76 1.07-1.704 1.792-3.896 3.308-4.973 1.493-1.06 3.774-1.27 5.734-1.368 8.965-.448 17.94-1.048 26.909-1.008 32.793.143 65.586.526 98.379.771.703.005 1.809-.397 2.008-.896.218-.544-.251-1.537-.694-2.13-.69-.926-1.645-1.649-2.429-2.511-9.807-10.777-19.551-21.613-29.454-32.302-1.728-1.865-3.904-3.708-6.237-4.542-6.346-2.268-12.988-3.708-19.331-5.982-16.945-6.075-33.334-14.094-52.082-13.356-1.983.078-4.064-2.315-6.099-3.561 1.896-1.859 3.644-5.088 5.718-5.314 5.561-.605 11.466-.811 16.864.432 10.912 2.513 21.597 6.03 32.337 9.26 3.454 1.039 6.757 2.576 10.2 3.663.955.301 2.162-.198 3.254-.33-.266-.885-.353-1.884-.831-2.634-2.035-3.193-4.224-6.288-6.287-9.464-4.766-7.341-9.562-14.664-14.216-22.076-7.857-12.514-16.369-24.682-21.051-38.918-.239-.726-.616-1.407-.929-2.109-.661.659-1.552 1.202-1.947 1.994-6.267 12.559-12.619 25.08-18.634 37.76-3.659 7.714-6.737 15.702-10.15 23.535-3.234 7.42-6.66 14.757-9.825 22.206-3.085 7.261-5.335 14.945-9.055 21.85-4.843 8.988-7.4 18.23-7.064 28.382.341 10.306.308 20.63.885 30.922.406 7.251 1.305 14.501 2.444 21.679 1.293 8.144 2.804 16.279 4.746 24.29 3.71 15.302 3.951 31.846 15.518 44.435 6.719 7.313 12.646 15.536 20.167 21.883 9.186 7.751 19.905 13.653 29.533 20.921 11.88 8.968 25.351 14.796 38.61 21.159 15.389 7.385 32.178 9.181 48.604 11.563 12.377 1.794 25.223.354 37.86.354zM996.178 522.526c0-2.552.041-7.213-.043-11.872-.013-.716-.495-1.515-.988-2.073-.148-.167-1.331.177-1.598.58-2.736 4.131-6.119 8.034-7.885 12.561-2.945 7.551-4.969 15.419-4.392 23.805.361 5.254-1.76 11.049-.225 15.777 3.643 11.223 12.432 19.029 21.208 26.491 1.883 1.601 3.094.562 2.738-1.834-.632-4.257-1.006-8.594-2.113-12.73-4.268-15.934-7.257-32.016-6.702-50.705zm446.841 100.775c2.733-1.077 5.694-2.077 8.472-3.45.736-.364.905-1.874 1.334-2.857-1.062-.108-2.13-.34-3.182-.278-.613.036-1.194.551-1.796.836-3.99 1.895-9.219.832-12.082-2.451-3.295-3.779-1.316-10.169 3.49-11.27 4.283-.981 4.428-1.913 2.181-5.69-4.913-8.256-9.515-16.696-14.286-25.037-.676-1.182-1.583-2.231-2.383-3.342-.412 1.351-.915 2.684-1.202 4.061-.165.792.039 1.658.043 2.49.051 11.944.197 23.888.08 35.83-.035 3.555.523 6.224 4.437 7.201 4.815 1.201 9.595 2.542 14.894 3.957z"/><path class="st3" d="M1195.811 658.106c10.131 1.06 20.722 3.338 30.301 9.103.984.593 2.24 1.26 2.63 2.2.708 1.707 1.642 4.021.995 5.365-.505 1.048-3.43 1.703-4.993 1.33-5.942-1.414-11.731-3.459-17.649-4.991-4.948-1.282-9.999-2.165-14.998-3.254-1.295-.282-2.939-.294-3.764-1.102-1.28-1.254-2.726-3.092-2.713-4.67.01-1.204 1.978-2.907 3.428-3.453 1.777-.668 3.921-.362 6.763-.528z"/><path class="st4" d="M1917.797 462.169c9 0 18.03-.453 26.989.152 6.479.437 11.05-2.124 15.394-6.277 16.926-16.184 34.062-32.15 50.839-48.487a2054.344 2054.344 0 0043.687-43.839c7.95-8.223 15.154-17.164 22.918-25.574 1.087-1.178 3.458-1.17 5.234-1.711.15 2.281 1.327 5.348.281 6.714a485.248 485.248 0 01-20.726 25.259c-7.166 8.159-14.494 16.211-22.225 23.828-11.435 11.265-23.267 22.13-34.979 33.112-3.999 3.75-8.155 7.333-12.225 11.009a8187.94 8187.94 0 00-26.227 23.762c-.642.585-1.014 1.468-1.512 2.212.745.23 1.554.771 2.225.635 2.876-.582 6.434-.508 8.445-2.208 14.079-11.9 28.143-23.855 41.561-36.483 6.459-6.079 11.377-13.772 17.301-20.462 1.207-1.363 4.118-2.501 5.67-1.993 2.849.933 2.357 3.683.898 5.822-3.266 4.787-6.364 9.737-10.076 14.163-11.693 13.94-25.117 26.094-39.453 37.267-1.069.833-1.788 2.116-2.669 3.19 1.399.249 2.787.608 4.197.731 16.641 1.449 31.72-3.933 46.527-10.608 10.266-4.628 20.731-8.834 30.871-13.718 5.801-2.794 11.191-6.471 16.652-9.932 4.451-2.821 8.586-6.173 13.174-8.728 1.417-.789 5.136-.34 5.589.605 1.161 2.417 2.358 6.145 1.276 8.085-5.056 9.065-10.854 17.717-16.439 26.483-1.78 2.793-3.771 5.451-5.551 8.245-.366.574-.217 1.476-.305 2.227.711-.246 1.62-.293 2.104-.77 5.08-5.012 10.484-9.765 15.051-15.216 15.133-18.063 29.949-36.392 44.909-54.601 2.065-2.513 2.008-4.449-1.21-5.812-5.314-2.251-10.631-4.496-15.929-6.785-3.607-1.558-7.121-3.353-10.792-4.733-3.185-1.197-6.478-2.334-9.822-2.823-4.304-.63-5.516-3.343-5.564-6.95-.049-3.612 2.143-5.884 5.618-5.448 4.3.539 8.521 1.859 12.712 3.063 3.639 1.045 7.272 2.199 10.76 3.659 6.519 2.729 12.893 5.804 19.405 8.552 2.978 1.257 5.385 1.127 7.47-2.374 4.133-6.941 9.321-13.267 13.283-20.292 1.835-3.254 2.167-7.518 2.539-11.386.334-3.468.828-5.545 4.921-6.749 2.51-.738 4.82-4.39 5.914-7.235 2.201-5.721 3.599-11.761 5.155-17.715 1.172-4.484 1.735-9.155 3.247-13.508.677-1.951 3.012-3.327 4.594-4.964 1.259 1.955 3.347 3.807 3.605 5.886.55 4.43.768 9.09-.024 13.447-.892 4.908-2.847 9.664-4.7 14.344-1.973 4.984-4.35 9.809-6.588 14.686-1.154 2.515-2.681 4.896-3.535 7.503-2.68 8.178.577 15.324 4.835 21.886 15.359 23.671 32.996 45.55 52.545 65.908 5.287 5.505 10.003 11.562 15.344 17.01 1.646 1.679 4.406 2.722 6.809 3.114 6.893 1.124 13.389 2.962 17.694 8.862 3.081 4.223 5.465 8.949 8.444 13.255 2.824 4.081 5.993 7.926 9.075 11.824.466.59 1.281.904 1.935 1.346.273-.851.829-1.725.761-2.548-.149-1.809-.102-3.935-1.035-5.326-4.747-7.073-2.592-15.223-3.633-22.81-.988-7.198-.286-14.637-.186-21.969.022-1.609.14-3.686 1.104-4.699 1.293-1.359 3.539-2.692 5.213-2.514 1.199.128 2.907 2.686 3.048 4.278.598 6.778.111 13.688 1.12 20.384 1.397 9.264 3.578 18.43 5.825 27.538 1.288 5.223 3.17 10.331 5.168 15.338 1.314 3.292 2.944 6.591 5.078 9.395 4.611 6.057 9.852 11.635 14.438 17.709 5.336 7.066 13.35 5.572 20.445 6.89 2.602.484 2.564-1.248 1.182-3.076-4.071-5.386-8.395-10.617-12.023-16.29-4.843-7.573-9.276-15.424-13.577-23.323-1.826-3.354-1.473-7.633 1.943-9.24 2.347-1.104 6.603-.385 8.958 1.138 12.302 7.957 23.789 17.293 36.536 24.397 7.347 4.095 16.268 6.75 25.326 2.2 2.957-1.485 6.805-1.146 10.212-1.813 1.05-.206 1.99-.98 2.98-1.494-.944-.346-1.892-.681-2.831-1.04-5.937-2.273-11.905-4.467-17.794-6.857-3.935-1.596-7.766-3.452-11.627-5.228-10.125-4.655-17.542-12.347-23.209-21.661-5.732-9.42-8.696-19.982-11.874-30.489-1.199-3.965-4.556-7.282-3.618-11.964.357-1.782.442-3.674 1.119-5.323.956-2.329 2.459-3.735 4.718-.991.391.475 1.16.638 1.755.945.053-.649.299-1.354.128-1.937-2.344-8.008-4.857-15.969-7.098-24.005-1.734-6.218-2.998-12.567-4.754-18.778a80.367 80.367 0 00-4.154-11.381c-4.615-10.138-9.416-20.192-14.206-30.25-2.412-5.065-4.5-10.364-7.539-15.033-5.85-8.986-11.892-17.903-18.576-26.272-5.482-6.864-12.009-12.892-18.074-19.29-.573-.605-1.431-1.109-1.669-1.822-.381-1.141-.352-2.418-.497-3.638 1.053.242 2.4.15 3.115.778 6.988 6.133 14.467 11.849 20.647 18.726 9.959 11.081 19.233 22.8 28.4 34.558 3.616 4.637 6.137 10.122 9.219 15.183a139.098 139.098 0 005.12 7.834c.403.571 1.359.751 2.061 1.111.218-.676.775-1.458.603-2.013-2.162-6.973-4.288-13.964-6.722-20.845-1.533-4.334-3.377-8.585-5.416-12.708-4.265-8.622-7.786-17.833-13.357-25.542-10.442-14.45-21.569-28.504-33.503-41.737-6.76-7.496-15.693-13.034-23.643-19.458-2.321-1.876-5.088-3.44-6.764-5.782-.954-1.333-.936-4.796.099-5.799 1.788-1.733 4.95-3.519 7.103-3.093 4.276.846 8.225 3.268 12.374 4.869 2.514.97 5.133 2.233 7.736 2.309 10.325.3 20.677-.125 30.99.347 5.541.254 11.027 1.766 16.531 2.748 1.466.262 2.893.787 4.365.951.923.103 1.896-.243 2.846-.387-.622-.708-1.105-1.696-1.886-2.08-8.939-4.391-17.919-8.696-26.896-13.009a2705.942 2705.942 0 00-14.083-6.703c-.75-.355-1.508-.739-2.304-.945-20.532-5.304-41.272-8.747-62.608-7.386-5.311.339-10.664-.024-15.995.078-1.613.031-3.321.287-4.805.885-4.256 1.716-6.76.17-7.462-4.471-.911-6.014-1.164-12.354-3.348-17.906-6.332-16.1-15.568-30.003-30.749-39.653-10.31-6.554-20.638-12.797-32.1-17.048-3.416-1.267-6.865-2.447-10.319-3.608-.716-.241-1.52-.222-2.283-.322.335.831.47 1.844 1.036 2.463 4.37 4.787 9.266 9.163 13.157 14.303 7.543 9.965 14.716 20.211 18.583 32.374 1.326 4.171 3.634 8.019 5.253 12.11 2.214 5.594 4.474 11.202 6.093 16.979.416 1.485-1.12 4.043-2.501 5.279-.658.589-3.604-.259-4.576-1.318-7.024-7.647-16.213-11.233-25.735-14.261-.887-.282-1.908-.144-2.867-.201.605.837 1.032 1.955 1.842 2.469 8.093 5.138 16.314 10.077 24.342 15.313 2.096 1.367 5.964 2.892 3.902 6.167-2.396 3.806-5.175.492-7.601-.961-13.441-8.056-26.656-16.528-40.39-24.049-9.06-4.962-18.562-9.598-28.422-12.481-9.602-2.807-19.871-3.938-29.918-4.48-16.429-.887-32.853-.332-49.087 3.276-8.974 1.995-18.244 2.649-27.234 4.59-6.392 1.381-12.556 3.844-18.786 5.933-4.372 1.466-8.678 3.127-13.02 4.682-8.521 3.052-17.121 5.898-25.553 9.177-16.236 6.314-32.422 12.786-46.512 23.383-1.059.796-2.027 1.728-2.966 2.667-13.759 13.763-27.761 27.294-41.174 41.386-10.776 11.321-19.472 24.302-26.5 38.269-2.267 4.505-3.33 9.614-4.949 14.445-.37 1.104-.465 2.487-1.199 3.244-1.556 1.605-3.82 4.337-5.131 4.003-3.146-.801-2.494-3.827-2.014-6.665 2.58-15.257 10.529-27.792 19.235-40.154 14.406-20.456 33.124-36.846 50.743-54.207 9.702-9.56 20.783-17.8 33.926-22.816 12.848-4.903 25.288-10.875 38.145-15.752 11.763-4.462 23.823-8.146 35.787-12.068 21.693-7.111 43.924-11.058 66.799-10.762 11.629.151 23.333-.024 34.852 1.281 8.774.994 17.507 3.519 25.889 6.427 6.91 2.398 13.328 6.262 19.866 9.665 3.204 1.668 6.144 3.834 9.279 5.646 2.353 1.36 3.892 1.491 3.954-2.182.083-4.933 2.254-5.729 6.756-3.637 5.063 2.353 10.363 4.2 15.59 6.188.656.249 1.497.013 2.252.002-.192-.602-.367-1.211-.578-1.806-5.37-15.157-12.599-29.381-22.094-42.349-3.02-4.125-6.933-7.626-10.619-11.227-5.83-5.696-11.853-11.195-17.691-16.882-.967-.942-2.281-2.918-1.92-3.549.819-1.429 2.603-3.28 3.957-3.251 4.565.098 9.199.569 13.648 1.591 6.676 1.533 13.275 3.471 19.794 5.584 4.588 1.487 9.153 3.232 13.432 5.437 6.261 3.226 12.49 6.622 18.315 10.562 11.507 7.785 21.263 17.488 28.803 29.194 4.702 7.299 8.826 14.904 9.454 23.951.185 2.662 1.549 5.313 2.744 7.79.352.728 1.995 1.212 3.023 1.174 7.466-.278 14.936-1.171 22.385-1.002 11.444.26 22.975.499 34.271 2.127 7.623 1.098 14.919 4.529 22.334 6.997 4.423 1.473 8.88 2.9 13.166 4.715 4.839 2.049 9.529 4.458 14.238 6.804 5.371 2.675 10.805 5.254 16 8.245 4.39 2.528 8.386 5.735 12.732 8.349 2.66 1.6 5.596 2.796 8.511 3.9 2.739 1.036 5.801 1.829 5.023 5.593-.748 3.622-2.661 6.692-7.027 6.354-6.4-.496-12.764-1.555-19.168-1.879-11.124-.564-22.269-.691-33.4-1.125-4.135-.161-8.253-.711-12.385-.993-1.483-.101-2.983.067-4.476.112.871 1.319 1.584 2.783 2.639 3.931 4.952 5.386 10.229 10.489 14.961 16.057 9.706 11.42 19.386 22.896 26.471 36.239 3.994 7.521 8.102 14.99 11.806 22.654 3.777 7.813 7.594 15.666 10.509 23.818 2.408 6.734 2.77 14.229 5.402 20.845 3.363 8.452 1.116 17.622 4.02 25.758 7.123 19.955 6.733 40.557 6.662 61.186-.007 1.98-.525 4.553-1.817 5.815-3.195 3.121-3.864 5.316-1.989 10.119 3.111 7.965 7.232 14.762 13.675 20.108 3.008 2.496 6.45 4.705 10.045 6.211 7.485 3.135 15.241 5.615 22.812 8.553a548.976 548.976 0 0120.904 8.604c3.193 1.393 4.493 4.556 3.252 7.471-.831 1.953-3.478 3.349-5.586 4.484-2.219 1.196-4.761 1.797-7.169 2.637-4.152 1.449-8.222 3.728-12.479 4.161-12.492 1.273-25.332 4.614-37.244-2.31-6.834-3.973-13.258-8.65-19.902-12.954-.748-.485-1.733-.604-2.608-.892.242.987.254 2.117.762 2.939 3.118 5.041 6.197 10.119 9.593 14.971 2.509 3.584 5.788 5.789 10.543 6.511 3.307.502 6.778 2.785 9.252 5.213 3.217 3.157-.171 9.713-5.846 10.506-4.641.649-5.344 2.909-5.117 6.704.463 7.733-3.506 13.864-7.572 19.867-3.981 5.876-7.687 12.064-12.458 17.245-5.11 5.549-11.03 10.479-17.118 14.973-9.962 7.354-21.678 10.684-33.669 13.05-6.132 1.21-12.358 2.042-18.387 3.633-2.123.56-4.261 2.541-5.581 4.438-10.919 15.696-26.382 26.509-40.888 38.333-6.029 4.914-12.017 10.068-18.704 13.936-7.344 4.247-15.418 7.267-23.273 10.586-9.052 3.824-18.024 7.996-27.375 10.911-11.399 3.554-22.227 9.066-34.568 9.704-6.318.327-12.508 2.64-18.824 3.611-6.847 1.053-13.757 1.943-20.668 2.258-8.315.38-16.674.363-24.993.018-20.406-.847-40.818-1.719-61.19-3.122-8.89-.612-17.796-2.083-26.49-4.065-5.184-1.182-9.975-4.098-14.932-6.257-6.591-2.871-13.153-5.809-19.762-8.639-16.041-6.869-31.637-14.578-44.357-26.806-8.838-8.495-16.984-17.707-25.71-26.323-1.399-1.382-5.197-2.527-6.211-1.708-3.549 2.865-7.253 2.01-10.962 1.685-4.612-.405-9.183-1.537-13.791-1.675-5.655-.169-10.028-3.05-14.293-6.002-7.583-5.249-15.348-10.392-22.155-16.553-5.656-5.12-8.029-12.368-7.085-20.23.612-5.1.047-5.642-5.072-5.18-5.282.477-10.597.813-15.896.784-3.65-.02-6.811-1.604-6.148-5.981.231-1.521 2.152-3.893 3.42-3.972 9.824-.613 16.625-6.241 21.758-13.648 3.046-4.396 6.001-9.244 5.804-15.365-.364-11.321-.064-22.662-.114-33.995-.005-1.026-.546-2.05-.838-3.074-.703.601-1.423 1.184-2.107 1.805-6.129 5.571-12.18 11.232-18.407 16.692-3.356 2.944-5.435 6.254-6.182 10.805-.449 2.737-2.103 5.605-4.006 7.696-2.61 2.868-6.229 1.37-6.76-2.557-.265-1.963-.42-4.085.036-5.976 1.569-6.513 3.222-13.021 5.236-19.406 1.975-6.261 4.307-12.42 6.72-18.529 1.622-4.104 3.707-8.023 5.495-12.065 1.258-2.843 2.394-5.742 3.474-8.657.066-.178-.833-1.03-1.295-1.04-7.267-.161-14.539-.139-21.804-.357a675.493 675.493 0 01-22.897-1.054c-4.07-.26-8.361-.069-11.373-3.805-2.417-2.997-1.934-5.555 1.735-6.937 1.673-.63 3.551-.784 5.355-.985 12.009-1.338 24.3-1.467 35.964-4.242 13.598-3.236 25.975-9.888 35.097-21.184.608-.752.597-2.003.874-3.022-1.006.296-2.1.428-3.004.914-9.438 5.079-18.462 11.194-28.364 15.075-11.242 4.406-23.345 4.165-35.413 2.442-8.846-1.263-17.887-1.126-26.767-2.211-4.499-.55-9.015-2.03-13.152-3.909-1.501-.682-2.937-3.982-2.549-5.659.393-1.701 2.881-3.455 4.814-4.099 1.675-.558 3.918.193 5.805.731 9.543 2.722 19.407 4.322 28.959 1.79 7.364-1.952 14.192-6.058 21.112-9.5 3.382-1.682 6.55-3.872 9.608-6.114 8.163-5.985 13.395-13.778 13.28-24.223-.17-15.477-.237-30.948 3.088-46.151 1.084-4.957 3.136-9.709 4.836-14.522 4.796-13.585 8.885-27.487 14.708-40.618 4.445-10.024 10.449-19.546 16.94-28.43 10.646-14.572 23.781-26.742 39.02-36.641 5.951-3.866 11.015-9.092 16.937-13.011 5.982-3.958 12.412-7.303 18.872-10.453 3.766-1.836 7.91-3.08 12.02-3.933 1.514-.314 3.419 1.262 5.146 1.976-.833 1.803-1.241 4.739-2.564 5.236-14.395 5.405-26.928 14.15-39.323 22.762-18.07 12.555-34.862 26.763-46.984 45.651-5.308 8.271-10.014 16.552-12.495 26.348-2.458 9.704-7.598 18.698-10.562 28.311-4.136 13.418-10.85 26.269-8.993 41.166.859 6.893-.364 14.027.257 20.971 1.161 12.994-6.59 21.587-14.589 29.625-4.913 4.937-11.586 8.119-17.446 12.123-.645.441-1.136 1.107-1.699 1.669.789.423 1.538 1.097 2.373 1.229 7.765 1.231 14.216-2.801 20.646-5.91 8.244-3.985 16.037-8.929 23.894-13.675 2.507-1.514 4.527-3.812 6.898-5.58 2.816-2.101 5.49-5.469 9.551-2.562 3.075 2.201 2.774 6.628.356 10.816-2.152 3.727-3.167 8.119-5.366 11.811-5.722 9.604-13.749 16.885-23.826 21.798-3.656 1.782-7.434 3.312-11.12 5.034-.682.319-1.191 1.008-1.779 1.527.688.232 1.385.687 2.062.66 5.013-.204 9.624-.856 14.692-2.65 23.24-8.226 37.832-26.626 53.311-43.736 10.924-12.076 20.31-25.606 29.778-38.917 8.76-12.318 16.737-25.194 25.005-37.859 1.254-1.921 1.755-4.693 3.442-5.869 1.697-1.182 4.44-.862 6.725-1.2.218 1.875 1.25 4.184.519 5.553-4.325 8.104-8.875 16.105-13.71 23.917-4.562 7.37-9.438 14.557-14.415 21.656-6.037 8.61-11.832 17.463-18.619 25.457-10.202 12.016-20.623 23.954-31.996 34.833-8.915 8.528-19.239 15.64-29.261 22.935-8.818 6.419-16.722 13.248-19.914 24.277-1.362 4.706-3.609 9.155-5.422 13.734-.279.705-.39 1.477-.579 2.218.845-.215 1.953-.159 2.495-.686 6.546-6.366 13.24-12.607 19.412-19.323 4.05-4.407 7.633-5.67 10.239-2.199.664.885.849 2.372.753 3.541-.329 4.043-1.538 8.118-1.23 12.09 1.234 15.958 1.618 31.859-1.439 47.653-.46 2.377-1.99 4.528-2.718 6.879-.384 1.239-.606 2.957-.041 3.987 2.732 4.982 3.013 5.069 6.741.489 4.893-6.01 10.04-11.938 13.981-18.554 2.533-4.251 3.197-9.65 4.498-14.588.786-2.982.5-7.438 4.407-7.307 4.01.134 4.066 4.361 4.394 7.792.662 6.925-2.82 12.464-5.928 18.005-2.644 4.713-6.133 8.949-9.192 13.434-.308.452-.229 1.167-.33 1.76.595-.038 1.301.119 1.769-.144a975.675 975.675 0 0014.078-8.086c6.516-3.81 6.096-10.472 6.681-16.654.25-2.645.113-5.329.099-7.996-.016-3.167.913-6.317-3.986-7.583-3.004-.776-4.333-4.117-1.253-7.168 3.656-3.621 5.676-8.571 11.284-10.653 4.577-1.699 3.489-6.85 2.552-10.652-1.859-7.544-4.079-15.013-6.472-22.408-2.18-6.737-1.158-7.619 4.807-11.034 10.701-6.126 22.127-6.097 33.74-6.011 6.167.041 12.334.003 18.5.004zm-50.416 87.131c-2.125 22.153 2.509 43.049 12.695 62.587 10.223 19.608 25.362 35.006 43.268 47.852 16.882 12.111 36.447 18.797 55.045 27.367 14.34 6.608 30.118 7.257 45.704 8.129 13.746.769 27.463 2.34 41.213 2.672 14.287.345 28.645.232 42.883-.844 9.154-.692 18.142-3.52 27.218-5.321 4.685-.93 9.594-1.138 14.062-2.666 11.705-4.001 23.178-8.672 34.827-12.846 16.38-5.869 32.47-11.814 46.008-23.657 13.731-12.012 28.797-22.483 40.303-36.939 8.22-10.328 15.982-20.807 17.005-34.649.057-.774.62-1.502.889-2.272 1.723-4.94 4.407-9.779 4.954-14.849 1.522-14.101 1.981-28.314 3.309-42.44.224-2.387 2.312-5.017 4.285-6.612.771-.623 3.946.892 5.425 2.143 4.327 3.661 4.947 9.066 4.861 14.153-.12 7.101-1.037 14.205-1.904 21.272-.862 7.028-1.875 14.053-3.252 20.995-.549 2.766.496 3.116 2.423 2.521 4.711-1.456 9.902-2.324 13.887-4.96 8.23-5.444 15.952-11.702 23.577-17.995 3.704-3.057 2.997-5.709-1.481-7.741-3.914-1.775-8.077-3.056-11.848-5.08-5.502-2.952-10.996-6.05-15.959-9.795-1.481-1.118-2.306-5.194-1.432-6.875 1.443-2.774.265-3.816-1.244-5.454-6.302-6.844-12.398-13.884-18.854-20.577-2.838-2.943-6.246-5.395-9.653-7.686-.768-.516-3.398.17-3.818.993a37.6 37.6 0 00-3.198 8.816c-3.137 14.037-6.005 28.134-9.141 42.171-2.055 9.197-7.068 17.124-15.409 20.957-7.042 3.236-15.319 4.479-23.169 5.105-13.082 1.042-26.282.517-39.388 1.344-10.894.688-21.93 1.455-32.534 3.831-15.253 3.419-30.54 4.454-46.021 3.931-2.7-.091-6.417-.455-7.854-2.192-5.559-6.715-11.98-13.397-15.141-21.271-5.871-14.622-8.18-30.317-8.376-46.211-.152-12.332 2.712-11.503-12.107-10.966-3.805.138-7.61 2.875-11.196 4.822-.98.532-1.675 2.547-1.634 3.854.49 15.604.748 31.232 1.891 46.794.779 10.599-3.293 17.24-14.194 16.418-7.954-.6-15.994-.257-23.989-.067-8.47.201-16.956.441-25.394 1.158-16.345 1.389-32.631 3.856-48.996 4.509-16.266.649-32.602-.287-48.899-.798-2.02-.063-5.042-1.261-5.806-2.815-4.186-8.511-8.162-17.166-11.517-26.034-2.498-6.601-3.863-13.625-5.929-20.401-.379-1.242-1.699-2.196-2.585-3.283-1.151 1.148-2.594 2.132-3.358 3.497-.59 1.054-.426 2.584-.432 3.904-.038 7.169-.02 14.335-.02 21.501zm352.168-75.444l-.013-.51c-16.111.502-32.271.375-48.32 1.652-24.756 1.97-49.761.71-74.299 5.741-3.673.753-4.599 2.167-2.549 4.754 2.591 3.268 2.189 6.296.943 9.766-.597 1.662-1.042 3.613-.779 5.313 2.018 13.03.433 26.561 5.644 39.163 1.931 4.67 2.693 9.862 4.898 14.371 4.222 8.636 5.881 9.174 15.606 8.326 2.977-.259 6.011.131 8.984-.152 6.756-.643 13.511-1.373 20.229-2.329 14.889-2.119 29.695-5.04 44.646-6.443 16.584-1.555 33.433.544 49.857-4.06 5.122-1.436 9.621-5.207 10.314-10.775.55-4.417 1.402-8.798 2.163-13.187.957-5.518 1.466-11.173 3.045-16.509 2.846-9.62 6.436-19.018 9.446-28.594.364-1.156-.532-3.553-1.547-4.123-2.193-1.232-4.833-2.262-7.308-2.301-13.65-.214-27.306-.103-40.96-.103zM2041.197 522.9l.576-.058v-4.498c.001-1.666.288-3.396-.071-4.98-.401-1.765-1.003-3.763-2.195-5.017-3.489-3.671-3.534-6.413-.096-10.297 1.174-1.326 2.09-3.273 2.255-5.019.342-3.633-.076-7.331.152-10.982.252-4.029-1.578-5.261-5.349-5.154-6.158.175-12.338.284-18.486-.029-11.605-.59-22.487 2.672-33.379 5.863-6.435 1.885-12.717 4.289-19.134 6.244-2.014.613-4.266.399-6.367.789-2.288.425-4.672.798-6.756 1.756-3.761 1.73-7.227 4.109-11.009 5.781-3.251 1.437-6.729.721-7.927-2.734-.488-1.407 1.457-4.322 3.046-5.654 4.178-3.5 8.776-6.498 13.184-9.727.491-.359.833-.921 1.244-1.389-.674-.279-1.362-.825-2.02-.79-3.308.174-6.607.719-9.911.736-17.657.09-35.315.027-52.972.099-3.777.016-7.553.369-11.328.58-.926.052-1.849.155-2.773.234.131 1.098.113 2.24.42 3.286 1.009 3.444 1.932 6.936 3.291 10.245.832 2.028 2.486 3.703 3.615 5.628 1.375 2.344 4.041 5.081 3.622 7.133-2.182 10.696 3.83 19.607 5.752 29.346 1.324 6.708 4.377 13.1 6.9 19.538 1.224 3.124 2.122 6.776 6.889 6.552 24.866-1.164 49.736 1.228 74.676-2.66 20.401-3.181 41.313-3.19 62.018-4.233 4.244-.214 5.085-1.681 4.669-5.377-.947-8.392-1.702-16.806-2.536-25.212zm166.223-64.667c12.492 0 24.985.018 37.477-.032 1.076-.004 2.149-.466 3.224-.715-.471-.965-.762-2.087-1.443-2.869-3.055-3.506-6.369-6.793-9.322-10.38-14.217-17.272-28.619-34.403-42.376-52.036-5.743-7.361-10.009-15.87-15.077-23.774-.471-.734-2.647-1.362-2.758-1.195a380.008 380.008 0 00-8.927 14.169c-1.435 2.388-.685 3.898 1.99 4.947 4.307 1.688 8.655 3.412 12.656 5.697 3.7 2.113 7.211 4.721 10.346 7.609 2.289 2.108 1.154 5.801-1.87 6.064-3.544.309-7.408.174-10.736-.948-6.547-2.207-12.744-5.438-19.26-7.755-1.479-.526-4.433.348-5.414 1.595-9.193 11.693-17.863 23.802-27.176 35.395-7.06 8.788-14.85 16.988-22.271 25.488-.707.81-1.104 1.891-1.644 2.847 1.026.1 2.057.318 3.079.28 3.317-.125 6.634-.31 9.946-.531 19.027-1.273 38.04-2.811 57.083-3.752 10.798-.534 21.646-.097 32.473-.104zm162.414 90.246c-1.52-1.451-2.694-3.43-3.666-3.336-2.755.267-6.393-2.151-8.121 2.374-1.317 3.448-2.705 7.061-4.92 9.941-8.179 10.635-18.087 19.252-31.121 23.429-5.124 1.642-10.473 2.659-15.782 3.615-3.161.569-4.16 2.157-4.886 5.184-1.216 5.067-3.288 9.931-5.037 14.866-.359 1.012-.886 1.964-1.335 2.944 1.249-.077 2.691.227 3.713-.295 5.191-2.648 10.651-3.458 16.403-3.17 1.432.071 3.075-.29 4.325-.985 7.625-4.243 15.256-8.488 22.707-13.024 8.828-5.373 13.19-14.686 18.754-22.764 3.736-5.424 5.809-11.993 8.966-18.779zm-506.816 78.577c3.009 0 6.017.134 8.99-.123.539-.047 1.56-1.966 1.302-2.567-1.886-4.396-3.89-8.761-6.209-12.94-.649-1.169-2.38-2.028-3.786-2.434-5.489-1.584-11.187-2.538-16.549-4.45-9.281-3.31-17.307-8.387-21.53-17.957-.452-1.024-1.862-2.393-2.691-2.306-1.255.133-2.889 1.132-3.493 2.237-3.231 5.918.265 20.08 5.755 24.203 1.324.994 2.578 2.088 3.943 3.021 10.399 7.106 20.401 15.238 34.268 13.316zm227.319-189.127c-.882.327-1.229.386-1.495.565-14.075 9.469-29.431 16.395-45.049 22.82-.191.078-.16 1.7.215 1.964 1.21.852 2.575 1.57 3.98 2.045 6.195 2.093 9.093 6.235 8.584 12.851-.116 1.505.594 3.073.924 4.611 1.495-.834 3.489-1.304 4.409-2.56 9.777-13.335 19.393-26.788 28.979-40.262.255-.356-.336-1.311-.547-2.034zm-230.212 163.315c.944-1.714 1.862-2.591 1.73-3.26-1.624-8.216-3.653-16.359-5.016-24.614-.546-3.306-1.38-3.617-3.977-2.085-4.515 2.664-9.141 5.143-13.619 7.866-1.703 1.035-4.372 2.502-4.401 3.819-.047 2.205 1.056 5.485 2.754 6.492 7.023 4.163 14.451 7.643 22.529 11.782zm506.686-197.696c-1.154-5.342-1.881-11.315-3.801-16.876-2.022-5.854-5.156-11.327-7.875-16.932-.499-1.028-1.335-1.893-2.016-2.833.022 1.277-.267 2.657.116 3.816 3.705 11.215 7.522 22.392 11.309 33.58.333.983.681 1.962 1.022 2.943l1.245-3.698zm-10.717-49.754l-1.431-1.501c-.383.396-1.065.786-1.072 1.188-.008.462.496 1.144.942 1.326.276.112.858-.532 1.561-1.013zm-.099 3.013l.194-.308-.308-.038.114.346zm-566.974 162.977l.164-.253-.256-.034.092.287z"/><path class="st4" d="M2110.501 216.131c15.688-.295 27.017 6.635 35.41 19.037 1.09 1.61 1.52 4.018 1.373 5.991-.096 1.292-1.571 2.99-2.835 3.499-.779.314-2.608-1.026-3.466-2.045-2.551-3.028-4.613-6.488-7.302-9.374-6.689-7.18-15.929-6.791-24.51-6.914-7.208-.103-14.596 1.033-21.625 2.759-8.604 2.113-16.919 5.404-25.344 8.229-.385.129-.629.681-.938 1.036.523.189 1.105.635 1.56.53 19.555-4.52 39.417-2.281 59.146-2.451 3.975-.034 8.119 2.125 11.874 3.923 1.273.61 1.585 3.225 2.337 4.923-1.766.581-3.811 2.055-5.253 1.603-12.429-3.893-25.273-2.652-37.617-1.478-19.714 1.875-40.06-.253-59.047 6.699-9.758 3.573-19.237 8.438-28.03 14.002-14.533 9.197-28.388 19.465-42.606 29.168-1.094.747-2.803.594-4.226.859.295-1.34.143-3.115.957-3.95 5.311-5.452 10.349-11.344 16.389-15.874 10.694-8.021 21.713-15.725 33.206-22.531 11.153-6.604 23.027-12.003 34.673-17.753 7.312-3.61 14.584-7.467 22.245-10.155 7.376-2.588 15.207-3.919 22.881-5.606 6.885-1.515 13.829-2.762 20.748-4.127zm199.167 181.9c-.335 3.202-.191 6.443-4.466 6.764-4.091.307-6.096-1.923-6.476-5.877-.269-2.798-.428-5.631-1.014-8.367-.563-2.63-1.59-5.163-2.461-7.723-.211-.621-.731-1.146-.902-1.771-1.574-5.761-2.952-11.581-4.699-17.288-1.181-3.86-2.684-7.649-4.37-11.319-2.089-4.548-4.525-8.937-6.797-13.403-2.788-5.479-5.669-10.913-8.318-16.459-6.503-13.615-15.013-25.913-24.731-37.363a214.692 214.692 0 00-16.033-16.953c-4.668-4.42-9.989-8.146-14.975-12.236-2.57-2.108-4.301-5.343-1.593-7.557 1.465-1.198 5.976-.454 7.919 1.004 13.131 9.85 25.738 20.436 35.674 33.603 6.609 8.759 12.301 18.223 18.192 27.505a246.439 246.439 0 0110.137 17.476c2.264 4.311 3.921 8.94 5.859 13.423 1.35 3.121 2.729 6.23 4.075 9.353 2.203 5.111 4.735 10.115 6.491 15.376 2.068 6.193 3.467 12.61 5.137 18.934 1.136 4.289 2.237 8.586 3.351 12.878zm-210.876-206.697c6.618.374 13.378.033 19.814 1.316 6.98 1.391 13.792 3.963 20.43 6.633 6.455 2.597 12.836 5.573 18.794 9.143 3.991 2.391 7.415 5.898 10.608 9.354 1.037 1.122.539 3.662.742 5.553-2.315.187-5.151 1.314-6.843.377-4.226-2.341-7.699-6.031-11.909-8.411-4.593-2.598-9.569-4.638-14.569-6.368-7.032-2.433-14.159-4.71-21.401-6.378-4.945-1.139-10.149-1.213-15.25-1.591-2.979-.221-6.091.36-8.94-.298-1.946-.449-3.542-2.414-5.294-3.701 1.326-1.532 2.379-3.844 4.039-4.427 3.052-1.072 6.46-1.127 9.72-1.606l.059.404zm-13.446 472.406c-11.992 1.157-18.7-6.172-24.512-14.17-2.569-3.536-3.453-8.333-4.927-12.618-1.342-3.899-2.891-7.103-6.687-9.773-4.639-3.264-8.384-8.027-11.798-12.668-1.032-1.403-.479-5.321.819-6.677 1.096-1.144 4.562-.852 6.537-.074 1.816.716 2.886 3.132 4.57 4.428 2.093 1.612 4.48 2.841 6.739 4.238 1.632 1.01 3.459 1.808 4.854 3.079 3.973 3.618 6.83 3.823 10.81.259 1.982-1.775 3.731-3.808 5.695-5.607 3.325-3.046 7.786-2.37 10.837.912 3.711 3.993 7.616 7.888 11.886 11.255 4.194 3.307 12.792.88 15.697-3.828 2.239-3.63 4.392-7.339 6.953-10.734 1.89-2.507 4.96-5.664 7.656-2.302 1.692 2.109 2.167 7.274.73 9.425-4.498 6.732-8.297 14.237-16.263 18.223-2.435 1.218-3.788 4.832-5.343 7.519-2.119 3.663-3.399 7.949-6.036 11.144-4.725 5.722-10.839 9.288-18.217 7.969zm15.281-24.58c-.278-.463-.729-1.981-1.746-2.776-4.526-3.538-9.412-6.638-13.766-10.366-2.494-2.135-4.143-2.279-6.189.164-2.991 3.57-6.46 6.156-11.505 5.742-2.61-.214-3.278 1.291-2.302 3.494 4.293 9.69 5.781 16.245 18.348 17.331 8.189.707 17.101-5.387 17.16-13.589z"/></svg>