<svg xmlns="http://www.w3.org/2000/svg" width="143.072" height="31.11"><path d="M12.648 8.3a.614.614 0 01.238.477.36.36 0 01-.408.407h-4.59v2.653a9.272 9.272 0 014.212 3.701 2.418 2.418 0 01.272 1.087q0 1.191-.816 1.462-.681.24-1.088-.748a13.86 13.86 0 00-2.584-4.521v4.624q0 3.026.051 8.108t.051 4.812c0 .18-.148.35-.442.51a2.361 2.361 0 01-1.122.238q-.714 0-.714-.51 0 .339.153-5t.153-8.194v-2.685a32.908 32.908 0 01-5.44 9.351c-.34.046-.533-.091-.578-.408A46.147 46.147 0 005.78 9.179h-3.2q-.442 0-1.8.171L.51 7.854a7.984 7.984 0 002.074.271h3.434V2.414A3.45 3.45 0 005.78.816c-.091-.137-.1-.249-.034-.34a.366.366 0 01.34-.1q1.428.239 2.958.646a.352.352 0 01.272.407.376.376 0 01-.374.374q-1.054.069-1.054.748v5.574h1.088a.505.505 0 00.374-.135l1.05-1.122a.431.431 0 01.646-.034A15.676 15.676 0 0112.648 8.3zm18.768-4.8q.441.41-.1.68-.34.171-.986.477c-.182.068-.272.26-.272.578v9.145q0 3.5.1 8.3t.1 4.454q0 3.163-3.4 3.979a3.986 3.986 0 00-1.071-1.955 4.679 4.679 0 00-2.3-.8q-.306-.443.136-.681 2.685.206 3.5.2.918 0 .918-.883V4.08H15.334v26.248q0 .782-1.564.782-.681 0-.68-.544 0 .816.136-8.959T13.362 6.8a16.646 16.646 0 00-.374-4.725.3.3 0 01.068-.374q.135-.137.374 0 1.326.748 2.38 1.36H27.4a.606.606 0 00.442-.137l1.02-1.053a.473.473 0 01.714-.035q.888.748 1.84 1.664zm-4.522 4.864a.652.652 0 01.2.475.33.33 0 01-.374.374h-8.16a15.663 15.663 0 00-1.8.2l-.272-1.5a7.986 7.986 0 002.074.273h4.658a.506.506 0 00.374-.136L24.65 6.9a.431.431 0 01.646-.034q.782.683 1.598 1.498zm-.51 5.3q.408.409-.136.68a5.14 5.14 0 00-.714.408q-.136.1-.136.51 0 1.6.085 4.9t.085 3.162c0 .181-.165.351-.493.51a2.428 2.428 0 01-1.075.238c-.408 0-.612-.182-.612-.544v-1.361h-3.6v2.584c0 .16-.159.312-.476.459a2.387 2.387 0 01-1.02.221q-.612 0-.612-.544 0 .171.085-3.365t.085-5.814a10.747 10.747 0 00-.272-3.2.311.311 0 01.068-.39.277.277 0 01.374-.017q.782.442 2.142 1.189h2.754a.606.606 0 00.442-.135q.237-.306.748-.85a.454.454 0 01.68 0q.614.513 1.598 1.362zm-2.992.647h-3.6v6.834h3.6zm48.076 1.873a.773.773 0 01.2.51c0 .271-.148.408-.443.408H49.776v2.787H67.15a.531.531 0 00.39-.152q.154-.154 1.038-1.071a.452.452 0 01.68 0q1.461 1.122 2.074 1.666.441.441-.17.748-.341.17-.986.475a.745.745 0 00-.476.647q-.408 4.894-1.36 6.561a5.188 5.188 0 01-3.978 2.347 4.361 4.361 0 00-1.037-1.9 4.771 4.771 0 00-2.16-.748c-.181-.294-.135-.522.137-.68a34.649 34.649 0 003.638.271q1.394 0 1.938-1.937a36.164 36.164 0 00.68-5.2H53.346v4.862h5.236v-2.21a3.461 3.461 0 00-.238-1.6c-.091-.135-.091-.249 0-.339a.266.266 0 01.34-.1q2.209.374 3.3.68a.332.332 0 01.272.408.337.337 0 01-.374.34q-1.055.1-1.054.782t.085 2.158Q61 27.369 61 27.438c0 .2-.182.391-.544.561a2.866 2.866 0 01-1.224.254c-.431 0-.646-.169-.646-.509v-.952H45.457v2.923q0 .306-.543.578a2.853 2.853 0 01-1.292.273.541.541 0 01-.612-.612q0-.1.1-2.738t.1-3.961a2.835 2.835 0 00-.238-1.393q-.136-.2 0-.34a.334.334 0 01.34-.1q1.9.341 3.3.714a.333.333 0 01.272.409.3.3 0 01-.34.339q-1.089.1-1.089.783v2.108h5.679V20.91h-1.36v.748c0 .2-.171.39-.51.56a2.712 2.712 0 01-1.225.255q-.679 0-.679-.544c0-.021.022-.736.068-2.141q.068-2.515.1-4.964.033-3.6.034-7.208a11.345 11.345 0 00-.374-3.706.287.287 0 01.068-.374.325.325 0 01.374-.035q.951.546 2.55 1.428h3.264a14.728 14.728 0 00.956-3.637 4.966 4.966 0 01.1-1.258.444.444 0 01.341 0q2.379 1.055 3.094 1.427a.369.369 0 01.2.477.343.343 0 01-.442.271.914.914 0 00-1.054.409 23.281 23.281 0 01-2.006 2.311h7.616a.506.506 0 00.374-.136q.339-.439.952-1.122c.158-.2.374-.214.646-.034A19.509 19.509 0 0166.368 5.3q.408.375-.068.613-.341.171-.952.509a.582.582 0 00-.272.578q0 1.974.136 4.5c.09 1.69.136 2.5.136 2.432 0 .182-.2.38-.595.6a2.637 2.637 0 01-1.275.323q-.612 0-.612-.511v-1.051h-13.09v2.789h17.442a.506.506 0 00.374-.136q.543-.612 1.292-1.5a.411.411 0 01.612 0 14.928 14.928 0 011.972 1.738zm-8.6-7.65V5.95H49.776v2.584zm0 3.74V9.553H49.776v2.721zm41.784 3.638q-.953 10.812-11.39 14.416a.565.565 0 01-.34-.85 16.911 16.911 0 005.848-4.318 16.586 16.586 0 003.162-9.18c.068-.771.1-1.484.1-2.143q0-6.357-3.808-6.357a4.16 4.16 0 00-3.349 2.057 6.4 6.4 0 00-1.343 4.2 14.121 14.121 0 00.986 4.317 2.172 2.172 0 01.238.885 1.532 1.532 0 01-.646 1.155 1.166 1.166 0 01-.748.374c-.431 0-.805-.395-1.122-1.189a15.143 15.143 0 01-1.088-5.746 21.614 21.614 0 01.952-6.019q.883-3.127.884-3.263a1.721 1.721 0 00-1.122-1.7q-.238-.51.238-.679a3.847 3.847 0 011.8.679 2.132 2.132 0 011.02 1.666 9.7 9.7 0 01-.816 2.857 13.075 13.075 0 00-.986 3.706 8.452 8.452 0 011.972-3.2 4.85 4.85 0 013.23-1.531A5.386 5.386 0 01103 8.006q1.716 2.092 1.717 6.138.003.849-.065 1.768zm38.42 6.388q0 4.114-4.59 6.053a21.135 21.135 0 01-7.582 1.5.546.546 0 01-.1-.885 15.277 15.277 0 006.63-2.141q2.958-1.869 2.958-4.523a4.74 4.74 0 00-1.139-3.195 3.659 3.659 0 00-2.907-1.326 5.287 5.287 0 00-3.57 1.53 8.827 8.827 0 00-1.972 2.55q-1.089 1.971-2.686 1.8-2.483-.239-2.482-3.706a34.048 34.048 0 01.544-4.386 33.691 33.691 0 00.544-5.067q0-.68-.034-1.257a2.493 2.493 0 011.6-2.754 10.437 10.437 0 013.2-.613q2.209-.17 2.21-1.563a3.187 3.187 0 00-1.6-2.347q-.069-.543.408-.577a8.3 8.3 0 012.924 1.666 3.887 3.887 0 011.666 2.787 1.7 1.7 0 01-.918 1.6 2.043 2.043 0 01-.952.271 4.954 4.954 0 01-1.411-.441 5.534 5.534 0 00-2.125-.442q-3.333 0-3.332 1.835a10.818 10.818 0 00.1 1.225 10.8 10.8 0 01.1 1.224 27.34 27.34 0 01-.425 4.2 28.83 28.83 0 00-.425 3.247q0 1.768 1.054 1.768a2.263 2.263 0 001.292-.579q1.291-.986 2.55-1.971a6.77 6.77 0 013.74-1.326 7.172 7.172 0 014.59 1.564 5.25 5.25 0 012.14 4.279z" fill="#5f648c" data-name="レイヤー 2"/></svg>