<svg xmlns="http://www.w3.org/2000/svg" width="382.232" height="23.766"><path d="M9.255.246a8.074 8.074 0 012.47.4 8.588 8.588 0 012.3 1.133A5.638 5.638 0 0115.751 3.7a5.324 5.324 0 01.659 2.628 5.264 5.264 0 01-1.468 3.489 7.712 7.712 0 01-3.331 2.312 92.315 92.315 0 005.678 8.262 5.436 5.436 0 001.678 1.52 5.689 5.689 0 002.294.589.931.931 0 01.062.554 1.757 1.757 0 01-.1.466 16.633 16.633 0 01-4.64-.422 5.112 5.112 0 01-1.723-.95 4.591 4.591 0 01-.563-.6q-.456-.615-2.258-3.287t-3.328-5.042a1.18 1.18 0 00-1.055-.419H5.793v6.539a11.477 11.477 0 00.175 2.6q.07.246.985.4a9.024 9.024 0 001.441.158.927.927 0 01.114.51.762.762 0 01-.114.51q-3.6-.177-4.113-.176-.544 0-4.149.176a.762.762 0 01-.114-.51.936.936 0 01.114-.51 9.035 9.035 0 001.442-.158q.913-.159.984-.4a13.676 13.676 0 00.176-2.6L2.716 4.324a11.46 11.46 0 00-.175-2.6q-.07-.246-.985-.4A9.024 9.024 0 00.115 1.16.918.918 0 010 .65.757.757 0 01.115.141q3.6.176 4.148.175.6 0 2.233-.035T9.255.246zm3.868 6.4a5.462 5.462 0 00-1.31-3.859 5.345 5.345 0 00-4.1-1.415q-1.6 0-1.758.352a10.555 10.555 0 00-.176 2.636l.018 7.348h1.88a5.66 5.66 0 003.806-1.415 4.59 4.59 0 001.64-3.648zm22.35-6.33q.51 0 4.113-.175A.757.757 0 0139.7.65a.936.936 0 01-.114.51 9.013 9.013 0 00-1.441.158q-.915.159-.985.405a11.437 11.437 0 00-.176 2.6v15.013a11.455 11.455 0 00.176 2.6q.071.246.985.4a9.013 9.013 0 001.441.158.936.936 0 01.114.51.762.762 0 01-.114.51q-3.6-.177-4.113-.176-.546 0-4.149.176a.762.762 0 01-.114-.51.936.936 0 01.114-.51 9.035 9.035 0 001.442-.158q.914-.159.984-.4a11.455 11.455 0 00.176-2.6V4.324a11.437 11.437 0 00-.176-2.6q-.07-.246-.984-.4a9.035 9.035 0 00-1.442-.158.936.936 0 01-.114-.516.757.757 0 01.114-.509q3.604.176 4.149.175zm22.262 19.02a6.846 6.846 0 00.211 2.531 1.526 1.526 0 00.783.3q.465.052 1.713.053h2a11.247 11.247 0 002.268-.238 5.006 5.006 0 001.846-.711 6.329 6.329 0 002.214-3.551q.054-.212.493-.211a1.29 1.29 0 01.879.211q-.159.456-.528 1.459t-.585 1.621q-.219.624-.457 1.415a10.832 10.832 0 00-.325 1.336q-1.81 0-5.678-.071t-6.31-.07q-.861 0-2.2.053t-1.987.053a.762.762 0 01-.114-.51.936.936 0 01.114-.51 9.035 9.035 0 001.442-.158q.913-.159.984-.4a11.455 11.455 0 00.176-2.6V4.324a11.437 11.437 0 00-.176-2.6q-.07-.246-.984-.4a9.035 9.035 0 00-1.442-.158.936.936 0 01-.114-.51.757.757 0 01.114-.509q3.6.176 4.149.175.51 0 4.113-.175a.757.757 0 01.114.509.936.936 0 01-.114.51 9.013 9.013 0 00-1.441.158q-.915.159-.985.405a9.772 9.772 0 00-.176 2.6zM83 18.527q4.641-11.936 6.786-17.4a2.332 2.332 0 01.624-.642 1.448 1.448 0 01.712-.378.2.2 0 01.114.044.718.718 0 00.1.062l7.154 18.771.9 2.321a1.77 1.77 0 001.1.87 4.17 4.17 0 001.292.325.969.969 0 01.105.519 2.357 2.357 0 01-.035.5q-3.516-.177-3.867-.176-.72 0-1.345.026t-1.4.079q-.774.052-1.336.071a.762.762 0 01-.114-.51.744.744 0 01.149-.51 5.952 5.952 0 001.081-.132 1.986 1.986 0 00.888-.325.686.686 0 00.14-.492 9.42 9.42 0 00-.6-2.189q-.6-1.713-1.2-3.19l-.6-1.477a.285.285 0 00-.211-.14q-.457-.036-3.481-.035-2.214 0-3.8.105l-.176.105q-.984 2.6-1.582 4.29a7.907 7.907 0 00-.492 2.5.6.6 0 00.325.509 2.283 2.283 0 00.791.308q.465.1.8.132c.222.023.392.035.509.035a.947.947 0 01.1.466 1.636 1.636 0 01-.026.554q-.51-.018-1.108-.071T84.2 23.37q-.51-.025-1.2-.026-.72 0-1.274.026t-1.222.079q-.668.052-1.265.071a.831.831 0 01-.071-.458 1.628 1.628 0 01.071-.562 4.939 4.939 0 001.16-.185 1.731 1.731 0 00.949-.483A14.541 14.541 0 0083 18.527zm6.894-14.168l-3.234 8.579c0 .093.023.14.07.14q1.828.071 3.2.07 1.319 0 2.953-.105a.1.1 0 00.071-.035.276.276 0 00.035-.106v-.035zM136.721.316q.51 0 4.114-.175a.87.87 0 01.114.562 1.068 1.068 0 01-.114.563 8.919 8.919 0 00-1.442.158q-.914.157-.984.4a9.737 9.737 0 00-.176 2.6v7a34.1 34.1 0 003.973-3.551q2.039-2.022 2.847-2.883t1.617-1.9a1.968 1.968 0 00.493-1.09.6.6 0 00-.053-.255.5.5 0 00-.158-.193 1.511 1.511 0 00-.229-.141 1.252 1.252 0 00-.281-.1 3.214 3.214 0 00-.598-.079 5.693 5.693 0 00-.272-.009h-.378a1.068 1.068 0 01-.088-.5 1.744 1.744 0 01.088-.589q.4.017 1.257.079t1.529.1q.677.036 1.257.036.914 0 2.2-.1t1.6-.114a1.713 1.713 0 01.061.624q-.009.465-.132.465l-.281.018a9.792 9.792 0 00-.51.044 6.1 6.1 0 00-.615.114 4.653 4.653 0 00-.712.22 5.061 5.061 0 00-.7.36 2.846 2.846 0 00-.659.545q-1.072 1.161-2.18 2.294t-1.81 1.82q-.7.686-2.066 1.986t-2.083 1.986a.249.249 0 000 .281q.23.264.985 1.152t1 1.169q.246.281.922 1.063l.958 1.108q.282.324.879 1t.923 1.028l.835.9q.51.549.879.932.369.378.8.808t.835.818a6.235 6.235 0 001.626 1.107 6.454 6.454 0 002.206.51.932.932 0 01.061.554 1.77 1.77 0 01-.1.466 19.4 19.4 0 01-4.992-.387 6.392 6.392 0 01-2.391-1.512q-.968-.949-7.91-8.894c-.047-.071-.153-.106-.317-.106a.709.709 0 00-.316.07v6.552a11.442 11.442 0 00.176 2.6q.07.246.984.4a8.941 8.941 0 001.442.159 1.061 1.061 0 01.114.562.875.875 0 01-.114.563q-3.6-.177-4.114-.176-.544 0-4.148.176a.875.875 0 01-.114-.563 1.051 1.051 0 01.114-.562 8.931 8.931 0 001.441-.159q.915-.158.985-.4a11.465 11.465 0 00.175-2.6V4.43a11.465 11.465 0 00-.175-2.6q-.071-.246-.985-.4a8.909 8.909 0 00-1.441-.158 1.058 1.058 0 01-.114-.572.87.87 0 01.114-.562q3.603.179 4.148.178zm32.458 0q.51 0 4.114-.175a.757.757 0 01.114.509.936.936 0 01-.114.51 9.035 9.035 0 00-1.442.158q-.913.159-.984.405a11.437 11.437 0 00-.176 2.6v15.013a11.455 11.455 0 00.176 2.6q.071.246.984.4a9.035 9.035 0 001.442.158.936.936 0 01.114.51.762.762 0 01-.114.51q-3.6-.177-4.114-.176-.544 0-4.148.176a.762.762 0 01-.114-.51.927.927 0 01.114-.51 9.024 9.024 0 001.441-.158q.915-.159.985-.4a11.477 11.477 0 00.175-2.6V4.324a11.46 11.46 0 00-.175-2.6q-.07-.246-.985-.4a9.024 9.024 0 00-1.441-.158.927.927 0 01-.114-.51.757.757 0 01.114-.509q3.603.17 4.148.169zM194.9.246a8.074 8.074 0 012.47.4 8.588 8.588 0 012.3 1.133A5.625 5.625 0 01201.4 3.7a5.314 5.314 0 01.66 2.628 5.264 5.264 0 01-1.468 3.489 7.712 7.712 0 01-3.331 2.312 92.315 92.315 0 005.678 8.262 5.425 5.425 0 001.678 1.52 5.689 5.689 0 002.294.589.931.931 0 01.062.554 1.8 1.8 0 01-.1.466 16.647 16.647 0 01-4.641-.422 5.106 5.106 0 01-1.722-.95 4.591 4.591 0 01-.563-.6q-.456-.615-2.259-3.287t-3.331-5.045a1.177 1.177 0 00-1.054-.422h-1.864v6.539a11.455 11.455 0 00.176 2.6q.071.246.985.4a9.013 9.013 0 001.441.158.936.936 0 01.114.51.762.762 0 01-.114.51q-3.6-.177-4.113-.176-.546 0-4.149.176a.762.762 0 01-.114-.51.936.936 0 01.114-.51 9.035 9.035 0 001.442-.158q.913-.159.984-.4a13.768 13.768 0 00.176-2.6l-.018-15.012a11.46 11.46 0 00-.175-2.6q-.07-.246-.985-.4a9.024 9.024 0 00-1.441-.158.926.926 0 01-.115-.51.763.763 0 01.115-.509q3.6.176 4.148.175.6 0 2.233-.035T194.9.246zm3.868 6.4a5.462 5.462 0 00-1.31-3.859 5.346 5.346 0 00-4.1-1.415q-1.6 0-1.757.352a10.5 10.5 0 00-.176 2.636l.017 7.348h1.881a5.66 5.66 0 003.806-1.415 4.59 4.59 0 001.643-3.648zm22.354-6.33q.508 0 4.113-.175a.757.757 0 01.114.509.936.936 0 01-.114.51 9.013 9.013 0 00-1.441.158q-.915.159-.985.405a11.437 11.437 0 00-.176 2.6v15.013a11.455 11.455 0 00.176 2.6q.071.246.985.4a9.013 9.013 0 001.441.158.936.936 0 01.114.51.762.762 0 01-.114.51q-3.6-.177-4.113-.176-.546 0-4.149.176a.762.762 0 01-.114-.51.936.936 0 01.114-.51 9.035 9.035 0 001.442-.158q.914-.159.984-.4a11.455 11.455 0 00.176-2.6V4.324a11.437 11.437 0 00-.176-2.6q-.07-.246-.984-.4a9.035 9.035 0 00-1.442-.158.936.936 0 01-.114-.51.757.757 0 01.114-.509q3.605.17 4.149.169zM245.3 0a11.223 11.223 0 011.451.088 9.264 9.264 0 011.116.2q.44.114 1.265.334t1.477.36q.228 1.53.492 4.993c.012.1-.07.2-.246.272a1.247 1.247 0 01-.492.114.526.526 0 01-.387-.14 5.9 5.9 0 00-.3-1.2 6.456 6.456 0 00-.668-1.336 7.371 7.371 0 00-.993-1.239 4.459 4.459 0 00-1.327-.9 3.9 3.9 0 00-1.635-.352 4.249 4.249 0 00-1.8.361 2.931 2.931 0 00-1.2.958 4.45 4.45 0 00-.624 1.248 4.5 4.5 0 00-.2 1.336 3.9 3.9 0 00.123.984 4.308 4.308 0 00.308.844 3.389 3.389 0 00.527.747q.343.378.624.641a7.14 7.14 0 00.774.607q.492.342.808.545t.888.545q.572.342.87.536.282.175.914.562t1.028.633q.4.246 1 .677a12.012 12.012 0 01.994.773 11.538 11.538 0 01.843.844 4.779 4.779 0 011.161 2.057 4.431 4.431 0 01.175 1.239 5.76 5.76 0 01-.615 2.628A6.132 6.132 0 01250 22.008a7.917 7.917 0 01-2.356 1.292 8.21 8.21 0 01-2.733.466 13.907 13.907 0 01-1.785-.124q-.957-.123-1.59-.246t-1.609-.351q-.975-.23-1.344-.3-.282-1.389-.51-3.208t-.229-2.241a1.277 1.277 0 01.914-.422.348.348 0 01.387.316 8.168 8.168 0 00.308 1.081 8.956 8.956 0 00.659 1.38 6.719 6.719 0 001.063 1.424 5.125 5.125 0 001.609 1.055 5.408 5.408 0 002.2.439 4.2 4.2 0 003.006-1.151 4.124 4.124 0 001.213-3.138 4.574 4.574 0 00-.106-1 3.922 3.922 0 00-.272-.826 2.952 2.952 0 00-.475-.694 5.434 5.434 0 00-1.283-1.09q-.449-.29-.773-.475t-.879-.483c-.37-.2-.665-.363-.888-.492q-.738-.439-.941-.554t-.905-.554q-.7-.44-.958-.641t-.844-.66a5.212 5.212 0 01-.835-.764q-.246-.308-.632-.8a3.614 3.614 0 01-.554-.932 9.283 9.283 0 01-.308-.993 4.62 4.62 0 01-.14-1.133 5.57 5.57 0 01.993-3.235 6.482 6.482 0 012.558-2.2A7.572 7.572 0 01245.3 0zm23.581.316q.51 0 4.113-.175a.87.87 0 01.114.562 1.048 1.048 0 01-.114.563 8.909 8.909 0 00-1.441.158q-.915.157-.985.4a11.465 11.465 0 00-.175 2.6v6.152l.07.106q5.167.1 5.519.1.633 0 5.379-.1a.2.2 0 00.071-.141V4.43a11.442 11.442 0 00-.176-2.6q-.07-.246-.984-.4a8.919 8.919 0 00-1.442-.158 1.068 1.068 0 01-.114-.572.87.87 0 01.114-.562q3.6.176 4.149.175.508 0 4.113-.175a.87.87 0 01.114.562 1.068 1.068 0 01-.114.563 8.919 8.919 0 00-1.442.158q-.913.157-.984.4a11.442 11.442 0 00-.176 2.6v14.8a11.442 11.442 0 00.176 2.6q.071.246.984.4a8.941 8.941 0 001.442.159 1.061 1.061 0 01.114.562.875.875 0 01-.114.563q-3.6-.177-4.113-.176-.546 0-4.149.176a.875.875 0 01-.114-.563 1.061 1.061 0 01.114-.562 8.941 8.941 0 001.442-.159q.913-.158.984-.4a11.442 11.442 0 00.176-2.6V12.27l-.071-.141q-.422-.018-2.381-.079t-3-.062a32.711 32.711 0 00-5.554.211l-.035.071v6.96a11.465 11.465 0 00.175 2.6q.071.246.985.4a8.931 8.931 0 001.441.159 1.041 1.041 0 01.114.562.875.875 0 01-.114.563q-3.6-.177-4.113-.176-.544 0-4.149.176a.875.875 0 01-.114-.563 1.061 1.061 0 01.114-.562 8.93 8.93 0 001.442-.159q.914-.158.984-.4a11.442 11.442 0 00.176-2.6V4.43a11.442 11.442 0 00-.176-2.6q-.071-.246-.984-.4a8.908 8.908 0 00-1.442-.158 1.068 1.068 0 01-.112-.572.87.87 0 01.114-.562q3.605.179 4.149.178zm34.883 0q.51 0 4.114-.175a.757.757 0 01.114.509.936.936 0 01-.114.51 9.023 9.023 0 00-1.442.158q-.913.159-.984.405a11.437 11.437 0 00-.176 2.6v15.013a11.455 11.455 0 00.176 2.6q.071.246.984.4a9.023 9.023 0 001.442.158.936.936 0 01.114.51.762.762 0 01-.114.51q-3.6-.177-4.114-.176-.544 0-4.148.176a.762.762 0 01-.114-.51.918.918 0 01.114-.51 9.024 9.024 0 001.441-.158q.915-.159.985-.4a11.477 11.477 0 00.175-2.6V4.324a11.46 11.46 0 00-.175-2.6q-.07-.246-.985-.4a9.024 9.024 0 00-1.441-.158.918.918 0 01-.116-.516.757.757 0 01.114-.509q3.605.176 4.15.175zm20.716 0q.913 0 2.847-.175.3.948 1.591 4.043T332 11.54q1.792 4.263 2.777 6.741a.143.143 0 00.141.071.184.184 0 00.176-.141q5.133-13.236 5.379-13.852l1.55-4.218q2.25.14 2.777.14 2.179 0 3.937-.14l.106 1.019a7.489 7.489 0 00-1.433.2q-.94.2-1.063.431a3.558 3.558 0 00-.176 1.336q.035 1.072.1 3.788t.14 6.363q.079 3.648.115 5.212a12.17 12.17 0 00.421 3.41q.106.316 1.011.457a9.921 9.921 0 001.45.141 1.073 1.073 0 01.123.545 1.513 1.513 0 01-.052.475q-3.516-.177-4.184-.176-.72 0-1.371.026t-1.477.079q-.825.052-1.371.071a.786.786 0 01-.079-.431 1.566 1.566 0 01.079-.589 9.168 9.168 0 001.213-.114 3.482 3.482 0 001.072-.273q.317-.175.317-1.476 0-.246-.035-1.011c-.024-.51-.035-.853-.035-1.028q-.3-10.828-.457-15.047a1.528 1.528 0 00-.08-.448q-.078-.255-.237-.255c-.047 0-.105.082-.176.246q-.808 2-7.418 18.6a8.012 8.012 0 01-.632 1.064q-.457.677-.7.729a.8.8 0 01-.316-.07l-8.585-20.532q-.071 3.375-.185 7.778t-.193 7.225q-.079 2.822-.079 2.891a3.244 3.244 0 00.14 1.09q.141.334 1.161.484a11.86 11.86 0 001.617.149.792.792 0 01.123.51 1.664 1.664 0 01-.053.51q-.474-.018-1.178-.071t-1.283-.079q-.581-.025-1.265-.026-.721 0-1.345.026t-1.415.079q-.792.052-1.354.071a.786.786 0 01-.079-.431 1.566 1.566 0 01.079-.589 10.757 10.757 0 001.609-.167q1.028-.166 1.239-.466a3.424 3.424 0 00.422-1.758q.492-13.131.492-16.8a4.71 4.71 0 00-.141-1.407q-.087-.28-1.045-.509a6.8 6.8 0 00-1.416-.229c-.035 0-.052-.161-.052-.483a1.323 1.323 0 01.052-.536q.617.035 1.24.079t1.142.07q.519.023 1.24.022zm38.874 18.211q4.64-11.936 6.785-17.4a2.332 2.332 0 01.624-.642 1.448 1.448 0 01.712-.378.2.2 0 01.114.044.718.718 0 00.1.062l7.154 18.773.9 2.321a1.77 1.77 0 001.1.87 4.17 4.17 0 001.292.325.969.969 0 01.105.519 2.357 2.357 0 01-.035.5q-3.514-.177-3.867-.176-.72 0-1.345.026t-1.4.079q-.774.052-1.336.071a.762.762 0 01-.114-.51.744.744 0 01.149-.51 5.952 5.952 0 001.081-.132 1.986 1.986 0 00.888-.325.685.685 0 00.141-.492 9.444 9.444 0 00-.6-2.189q-.6-1.713-1.195-3.19l-.6-1.477a.285.285 0 00-.211-.14q-.458-.036-3.48-.035-2.215 0-3.8.105l-.176.105q-.984 2.6-1.582 4.29a7.907 7.907 0 00-.492 2.5.6.6 0 00.325.509 2.283 2.283 0 00.791.308q.465.1.8.132c.222.023.392.035.509.035a.935.935 0 01.1.466 1.636 1.636 0 01-.026.554q-.51-.018-1.108-.071t-1.107-.079q-.51-.025-1.195-.026-.721 0-1.275.026t-1.222.079q-.668.052-1.265.071a.834.834 0 01-.07-.458 1.633 1.633 0 01.07-.562 4.932 4.932 0 001.16-.185 1.731 1.731 0 00.949-.483 14.577 14.577 0 001.652-3.31zm6.89-14.168l-3.234 8.579c0 .093.023.14.07.14q1.829.071 3.2.07 1.319 0 2.953-.105a.1.1 0 00.071-.035.276.276 0 00.035-.106v-.035z" fill="#5f648c" data-name="レイヤー 2"/></svg>