<svg xmlns="http://www.w3.org/2000/svg" width="312.263" height="60.553"><g fill="#5f648c" data-name="レイヤー 2"><path d="M4.708 51.838a2.978 2.978 0 01.913.147 3.161 3.161 0 01.85.419 2.07 2.07 0 01.636.711 1.9 1.9 0 01-.3 2.259 2.841 2.841 0 01-1.231.855 34.129 34.129 0 002.1 3.052 1.981 1.981 0 00.62.561 2.087 2.087 0 00.848.218.354.354 0 01.022.2.609.609 0 01-.036.172 6.138 6.138 0 01-1.714-.156 1.881 1.881 0 01-.636-.351 1.628 1.628 0 01-.208-.221q-.17-.227-.835-1.213t-1.23-1.865a.437.437 0 00-.39-.156h-.688v2.416a4.171 4.171 0 00.065.961c.017.062.138.11.363.149a3.338 3.338 0 00.533.059.345.345 0 01.042.189.285.285 0 01-.042.188q-1.332-.064-1.52-.065t-1.533.065a.285.285 0 01-.042-.188.355.355 0 01.042-.189A3.327 3.327 0 001.87 60c.225-.039.346-.087.364-.149a5.062 5.062 0 00.065-.961l-.007-5.546a4.183 4.183 0 00-.065-.961c-.017-.06-.138-.11-.363-.149a3.338 3.338 0 00-.533-.059.339.339 0 01-.042-.188.287.287 0 01.042-.189q1.332.066 1.533.066.221 0 .825-.013t1.019-.013zM6.137 54.2a2.015 2.015 0 00-.484-1.426 1.972 1.972 0 00-1.516-.523q-.591 0-.65.13a3.916 3.916 0 00-.065.974l.007 2.715h.695a2.085 2.085 0 001.405-.523 1.7 1.7 0 00.608-1.347zm7.725-2.335q.188 0 1.519-.066a.28.28 0 01.043.189.346.346 0 01-.043.188 3.317 3.317 0 00-.532.059c-.225.039-.347.089-.364.149a4.244 4.244 0 00-.065.961v5.546a4.232 4.232 0 00.065.961c.017.062.139.11.364.149a3.317 3.317 0 00.532.059.353.353 0 01.043.189.279.279 0 01-.043.188q-1.331-.064-1.519-.065t-1.533.065a.285.285 0 01-.042-.188.345.345 0 01.042-.189 3.327 3.327 0 00.533-.06c.225-.039.346-.087.364-.149a4.232 4.232 0 00.065-.961v-5.545a4.244 4.244 0 00-.065-.961c-.018-.06-.139-.11-.364-.149a3.327 3.327 0 00-.533-.059.339.339 0 01-.042-.188.287.287 0 01.042-.189q1.332.066 1.533.066zm7.693 7.026a2.568 2.568 0 00.077.936.572.572 0 00.289.11q.173.02.634.02h.74a4.211 4.211 0 00.838-.088 1.879 1.879 0 00.682-.263 2.349 2.349 0 00.818-1.313c.013-.051.074-.077.182-.077a.485.485 0 01.325.077c-.039.114-.1.293-.2.539s-.164.448-.218.6-.11.328-.169.524a4.092 4.092 0 00-.12.493q-.669 0-2.1-.026t-2.324-.023c-.212 0-.483.007-.812.019s-.573.02-.734.02a.285.285 0 01-.042-.188.355.355 0 01.042-.189A3.327 3.327 0 0020 60c.225-.039.346-.087.364-.149a4.232 4.232 0 00.065-.961v-5.545a4.244 4.244 0 00-.065-.961c-.018-.06-.139-.11-.364-.149a3.327 3.327 0 00-.533-.059.348.348 0 01-.042-.188.287.287 0 01.042-.189q1.332.066 1.533.066t1.52-.066a.287.287 0 01.042.189.339.339 0 01-.042.188 3.338 3.338 0 00-.533.059c-.225.039-.346.089-.363.149a3.576 3.576 0 00-.065.961zm8.802-.299q1.716-4.409 2.507-6.428a.865.865 0 01.231-.238.531.531 0 01.263-.139.072.072 0 01.042.016.223.223 0 00.036.023l2.643 6.935.331.858a.656.656 0 00.406.321 1.541 1.541 0 00.477.12.359.359 0 01.039.191.87.87 0 01-.013.186q-1.3-.064-1.428-.065c-.178 0-.344 0-.5.009s-.326.017-.517.03-.355.021-.493.026a.28.28 0 01-.042-.188.274.274 0 01.055-.189 2.167 2.167 0 00.4-.049.721.721 0 00.328-.12.251.251 0 00.052-.182 3.435 3.435 0 00-.221-.808q-.221-.633-.441-1.179l-.221-.545a.106.106 0 00-.078-.053 36.9 36.9 0 00-1.286-.012c-.545 0-1.013.012-1.4.039l-.065.039q-.363.962-.584 1.585a2.923 2.923 0 00-.182.922.225.225 0 00.12.188.865.865 0 00.292.114c.115.023.214.04.3.048a1.837 1.837 0 00.188.013.349.349 0 01.036.172.618.618 0 01-.01.2c-.125 0-.262-.013-.409-.026s-.284-.023-.409-.03-.273-.009-.442-.009-.334 0-.47.009-.287.017-.452.03-.32.021-.467.026c-.018-.018-.026-.073-.026-.169a.592.592 0 01.026-.208 1.8 1.8 0 00.429-.068.643.643 0 00.35-.178 5.378 5.378 0 00.605-1.217zm2.543-5.234l-1.2 3.17c0 .034.009.052.026.052q.676.026 1.182.025.488 0 1.091-.039a.036.036 0 00.026-.013.088.088 0 00.013-.039V56.5zm16.239-1.493q.189 0 1.52-.066a.329.329 0 01.042.208.386.386 0 01-.042.208 3.338 3.338 0 00-.533.059c-.225.039-.346.089-.363.149a3.576 3.576 0 00-.065.961v2.585a12.6 12.6 0 001.468-1.312q.753-.745 1.051-1.065t.6-.7a.731.731 0 00.182-.4.223.223 0 00-.02-.094.181.181 0 00-.058-.071.483.483 0 00-.085-.052.409.409 0 00-.1-.036 1.07 1.07 0 00-.106-.02c-.033 0-.071-.008-.114-.009h-.246a.4.4 0 01-.033-.186.649.649 0 01.033-.218c.1.005.253.015.464.03s.4.027.565.036.321.012.464.012c.225 0 .5-.011.812-.035s.513-.038.591-.043a.671.671 0 01.023.231c0 .115-.019.173-.049.173h-.1a2.627 2.627 0 00-.416.059 1.847 1.847 0 00-.263.081 1.791 1.791 0 00-.259.134 1.019 1.019 0 00-.244.2q-.4.428-.8.848t-.669.672q-.26.253-.763.733l-.77.734a.094.094 0 000 .1l.364.426.37.431.341.393.354.409.325.37c.148.17.26.294.34.38l.309.335a17.95 17.95 0 00.62.644c.106.107.209.207.309.3a2.3 2.3 0 00.6.41 2.388 2.388 0 00.815.188.345.345 0 01.023.2.709.709 0 01-.035.172 7.189 7.189 0 01-1.845-.143 2.355 2.355 0 01-.883-.558q-.357-.352-2.922-3.286c-.018-.027-.057-.039-.118-.039a.247.247 0 00-.116.026v2.415a4.188 4.188 0 00.065.962c.017.06.138.11.363.148a3.338 3.338 0 00.533.059.391.391 0 01.042.208.327.327 0 01-.042.208q-1.331-.064-1.52-.065t-1.533.065a.327.327 0 01-.042-.208.4.4 0 01.042-.208 3.327 3.327 0 00.533-.059c.225-.038.346-.088.364-.148a4.249 4.249 0 00.065-.962v-5.46a4.244 4.244 0 00-.065-.961c-.018-.06-.139-.11-.364-.149a3.327 3.327 0 00-.533-.059.4.4 0 01-.042-.208.329.329 0 01.042-.208q1.323.066 1.524.066zm11.461 0q.188 0 1.519-.066a.286.286 0 01.043.189.346.346 0 01-.043.188 3.317 3.317 0 00-.532.059c-.225.039-.347.089-.364.149a4.244 4.244 0 00-.065.961v5.546a4.232 4.232 0 00.065.961c.017.062.139.11.364.149a3.317 3.317 0 00.532.059.353.353 0 01.043.189.285.285 0 01-.043.188q-1.331-.064-1.519-.065c-.135 0-.645.022-1.533.065a.285.285 0 01-.042-.188.345.345 0 01.042-.189A3.327 3.327 0 0059.6 60c.225-.039.346-.087.363-.149a4.232 4.232 0 00.065-.961v-5.545a4.244 4.244 0 00-.065-.961c-.017-.06-.138-.11-.363-.149a3.327 3.327 0 00-.533-.059.339.339 0 01-.042-.188.287.287 0 01.042-.189 58.23 58.23 0 001.533.066zm8.97-.027a2.969 2.969 0 01.913.147 3.181 3.181 0 01.851.419 2.08 2.08 0 01.636.711 1.967 1.967 0 01.243.97 1.938 1.938 0 01-.542 1.289 2.835 2.835 0 01-1.231.855 34.129 34.129 0 002.1 3.052 1.981 1.981 0 00.62.561 2.087 2.087 0 00.848.218.346.346 0 01.022.2.621.621 0 01-.035.172 6.142 6.142 0 01-1.715-.156 1.881 1.881 0 01-.636-.351 1.628 1.628 0 01-.208-.221q-.169-.227-.834-1.213t-1.231-1.865a.436.436 0 00-.389-.156h-.689v2.416a4.232 4.232 0 00.065.961c.017.062.139.11.364.149a3.317 3.317 0 00.532.059.345.345 0 01.042.189.285.285 0 01-.042.188q-1.331-.064-1.52-.065t-1.532.065a.274.274 0 01-.042-.188.345.345 0 01.042-.189 3.317 3.317 0 00.53-.055c.226-.039.347-.087.364-.149a5.062 5.062 0 00.065-.961l-.007-5.546a4.183 4.183 0 00-.065-.961c-.017-.06-.138-.11-.363-.149a3.327 3.327 0 00-.533-.059.348.348 0 01-.042-.188.287.287 0 01.042-.189q1.332.066 1.533.066.221 0 .825-.013c.403-.008.742-.013 1.019-.013zM71 54.2a2.015 2.015 0 00-.484-1.426 1.972 1.972 0 00-1.516-.52c-.394 0-.611.043-.649.13a3.864 3.864 0 00-.065.974l.006 2.715h.7a2.088 2.088 0 001.406-.523A1.7 1.7 0 0071 54.2zm7.725-2.335q.188 0 1.519-.066a.286.286 0 01.043.189.346.346 0 01-.043.188 3.317 3.317 0 00-.532.059c-.225.039-.347.089-.364.149a4.244 4.244 0 00-.065.961v5.546a4.232 4.232 0 00.065.961c.017.062.139.11.364.149a3.317 3.317 0 00.532.059.353.353 0 01.043.189.285.285 0 01-.043.188q-1.331-.064-1.519-.065c-.135 0-.645.022-1.533.065a.28.28 0 01-.042-.188.345.345 0 01.042-.189 3.327 3.327 0 00.533-.06c.225-.039.346-.087.363-.149a4.232 4.232 0 00.065-.961v-5.545a4.244 4.244 0 00-.065-.961c-.017-.06-.138-.11-.363-.149a3.327 3.327 0 00-.533-.059.339.339 0 01-.042-.188.281.281 0 01.042-.189c.888.044 1.398.066 1.533.066zm8.4-.117a4.12 4.12 0 01.536.032 3.555 3.555 0 01.412.075l.468.123c.2.055.385.1.545.134q.084.564.182 1.844c0 .039-.026.072-.091.1A.466.466 0 0189 54.1a.19.19 0 01-.143-.053 2.2 2.2 0 00-.11-.441 2.391 2.391 0 00-.247-.493 2.662 2.662 0 00-.367-.458 1.65 1.65 0 00-.49-.335 1.454 1.454 0 00-.6-.13 1.574 1.574 0 00-.666.134 1.091 1.091 0 00-.445.353 1.632 1.632 0 00-.305.955 1.424 1.424 0 00.046.364 1.59 1.59 0 00.113.311 1.252 1.252 0 00.195.276c.085.093.161.172.231.238a2.65 2.65 0 00.285.223c.121.085.221.152.3.2s.187.117.328.2.248.15.322.2.181.113.337.208l.38.233c.1.062.221.145.37.25a4.554 4.554 0 01.367.287 4.32 4.32 0 01.312.311 2.02 2.02 0 01.266.36 1.919 1.919 0 01.162.4 1.615 1.615 0 01.065.458 2.121 2.121 0 01-.227.971 2.272 2.272 0 01-.607.756 2.911 2.911 0 01-.87.478 3.049 3.049 0 01-1.01.172 5.249 5.249 0 01-.659-.046 9.551 9.551 0 01-1.182-.221c-.24-.057-.406-.093-.5-.11-.069-.342-.132-.736-.188-1.185s-.085-.724-.085-.828a.473.473 0 01.338-.156.129.129 0 01.143.117 3.188 3.188 0 00.113.4 3.36 3.36 0 00.244.509 2.566 2.566 0 00.393.527 1.884 1.884 0 00.594.389 2 2 0 00.812.162 1.55 1.55 0 001.111-.425 1.525 1.525 0 00.447-1.16 1.652 1.652 0 00-.039-.37 1.426 1.426 0 00-.1-.3 1.062 1.062 0 00-.176-.257 2.324 2.324 0 00-.21-.211 2.356 2.356 0 00-.264-.192c-.11-.072-.2-.129-.285-.175l-.325-.179a10.656 10.656 0 01-.328-.182c-.182-.108-.3-.176-.347-.2s-.162-.1-.335-.2-.291-.187-.354-.237-.166-.131-.311-.243a1.9 1.9 0 01-.309-.283c-.06-.076-.139-.174-.234-.3a1.356 1.356 0 01-.2-.344 3.578 3.578 0 01-.114-.367 1.688 1.688 0 01-.052-.419 2.059 2.059 0 01.367-1.2 2.391 2.391 0 01.945-.811 2.8 2.8 0 011.223-.283zm8.175.117q.189 0 1.52-.066a.329.329 0 01.042.208.386.386 0 01-.042.208 3.317 3.317 0 00-.532.059c-.226.039-.347.089-.364.149a4.183 4.183 0 00-.065.961v2.274l.026.038q1.91.039 2.039.039.234 0 1.987-.039a.074.074 0 00.026-.052v-2.26a4.244 4.244 0 00-.065-.961c-.017-.06-.139-.11-.363-.149a3.338 3.338 0 00-.533-.059.386.386 0 01-.042-.208.329.329 0 01.042-.208q1.331.066 1.533.066.188 0 1.519-.066a.316.316 0 01.042.208.386.386 0 01-.042.208 3.317 3.317 0 00-.532.059c-.226.039-.347.089-.364.149a4.244 4.244 0 00-.065.961v5.468a4.249 4.249 0 00.065.962c.017.06.138.11.364.148a3.317 3.317 0 00.532.059.391.391 0 01.042.208.314.314 0 01-.042.208q-1.331-.064-1.519-.065t-1.533.065a.327.327 0 01-.042-.208.391.391 0 01.042-.208 3.338 3.338 0 00.533-.059c.224-.038.346-.088.363-.148a4.249 4.249 0 00.065-.962v-2.571l-.026-.052q-.156-.008-.88-.029a35.426 35.426 0 00-1.107-.023 12.247 12.247 0 00-2.052.077l-.013.027v2.571a4.188 4.188 0 00.065.962c.017.06.138.11.364.148a3.317 3.317 0 00.532.059.391.391 0 01.042.208.327.327 0 01-.042.208q-1.331-.064-1.52-.065t-1.532.065a.314.314 0 01-.042-.208.382.382 0 01.042-.208 3.328 3.328 0 00.532-.059c.225-.038.346-.088.364-.148a4.249 4.249 0 00.065-.962v-5.468a4.244 4.244 0 00-.065-.961c-.018-.06-.139-.11-.364-.149a3.328 3.328 0 00-.532-.059.377.377 0 01-.042-.208.316.316 0 01.042-.208q1.332.066 1.532.066zm12.36 0q.189 0 1.52-.066a.287.287 0 01.042.189.339.339 0 01-.042.188 3.338 3.338 0 00-.533.059c-.225.039-.346.089-.363.149a4.183 4.183 0 00-.065.961v5.546a4.171 4.171 0 00.065.961c.017.062.138.11.363.149a3.338 3.338 0 00.533.059.345.345 0 01.042.189.285.285 0 01-.042.188q-1.331-.064-1.52-.065t-1.533.065a.285.285 0 01-.042-.188.355.355 0 01.042-.189 3.327 3.327 0 00.533-.06c.225-.039.346-.087.364-.149a4.232 4.232 0 00.065-.961v-5.545a4.244 4.244 0 00-.065-.961c-.018-.06-.139-.11-.364-.149a3.327 3.327 0 00-.533-.059.348.348 0 01-.042-.188.287.287 0 01.042-.189q1.332.066 1.533.066zm7.121 0q.337 0 1.052-.066.111.352.588 1.494t1.14 2.718q.661 1.575 1.025 2.49a.054.054 0 00.053.027.07.07 0 00.065-.052q1.9-4.891 1.987-5.118l.571-1.559q.831.053 1.026.053.806 0 1.455-.053l.039.377a2.826 2.826 0 00-.53.075c-.231.05-.362.1-.392.159a1.3 1.3 0 00-.065.494q.012.395.036 1.4t.051 2.351l.043 1.926a4.463 4.463 0 00.156 1.259c.025.078.15.135.373.169a3.616 3.616 0 00.536.052.4.4 0 01.045.2.559.559 0 01-.019.176q-1.3-.064-1.546-.065-.265 0-.507.009c-.16.007-.341.017-.545.03s-.373.021-.506.026a.28.28 0 01-.03-.159.574.574 0 01.03-.218 3.389 3.389 0 00.447-.042 1.257 1.257 0 00.4-.1q.117-.064.117-.545c0-.061-.005-.185-.013-.373s-.013-.316-.013-.38q-.111-4-.169-5.559a.557.557 0 00-.03-.166c-.019-.062-.048-.094-.087-.094-.018 0-.039.031-.065.091q-.3.739-2.741 6.87a2.934 2.934 0 01-.233.394c-.113.166-.2.256-.26.269a.323.323 0 01-.117-.026l-3.169-7.585q-.025 1.246-.068 2.873t-.072 2.67l-.029 1.067a1.189 1.189 0 00.052.4q.053.123.429.178a4.478 4.478 0 00.6.055.3.3 0 01.046.189.611.611 0 01-.02.188c-.117 0-.262-.013-.435-.026s-.331-.023-.474-.03-.3-.009-.468-.009-.343 0-.5.009-.329.017-.523.03-.362.021-.5.026a.28.28 0 01-.03-.159.574.574 0 01.03-.218 3.958 3.958 0 00.594-.061q.379-.063.458-.172a1.279 1.279 0 00.156-.65q.181-4.851.181-6.209a1.769 1.769 0 00-.051-.519c-.022-.069-.151-.132-.387-.188a2.55 2.55 0 00-.523-.085c-.013 0-.019-.059-.019-.178a.5.5 0 01.019-.2l.458.03.422.026c.126.011.275.014.456.014zm13.83 6.727q1.714-4.409 2.507-6.428a.843.843 0 01.23-.238.535.535 0 01.263-.139.072.072 0 01.042.016.223.223 0 00.036.023l2.643 6.935.332.858a.653.653 0 00.405.321 1.553 1.553 0 00.477.12.349.349 0 01.039.191.966.966 0 01-.012.186q-1.3-.064-1.429-.065c-.178 0-.343 0-.5.009s-.326.017-.516.03-.355.021-.494.026a.285.285 0 01-.042-.188.28.28 0 01.055-.189 2.167 2.167 0 00.4-.049.715.715 0 00.327-.12.25.25 0 00.053-.182 3.489 3.489 0 00-.221-.808q-.22-.633-.442-1.179l-.221-.545a.1.1 0 00-.078-.053 36.866 36.866 0 00-1.285-.012c-.546 0-1.014.012-1.4.039l-.065.039q-.364.962-.585 1.585a2.919 2.919 0 00-.181.922.223.223 0 00.12.188.849.849 0 00.292.114c.115.023.213.04.3.048a1.853 1.853 0 00.189.013.353.353 0 01.035.172.6.6 0 01-.009.2c-.126 0-.262-.013-.41-.026s-.283-.023-.409-.03-.272-.009-.441-.009-.335 0-.471.009-.287.017-.451.03-.321.021-.468.026a.31.31 0 01-.026-.169.617.617 0 01.026-.208 1.792 1.792 0 00.429-.068.646.646 0 00.351-.178 5.42 5.42 0 00.605-1.217zm2.546-5.234l-1.2 3.17c0 .034.009.052.027.052q.675.026 1.181.025.487 0 1.092-.039a.038.038 0 00.026-.013.1.1 0 00.012-.039V56.5zm18.226 3.65q2.7-.143 3.13-.156c.061 0 .091.039.091.117a1.636 1.636 0 01-.168.7q-.267.019-3.131.143c-.06 0-.091-.047-.091-.143a1.6 1.6 0 01.169-.661zm18.227-5.143c.225 0 .577-.022 1.053-.066q.109.352.588 1.494t1.139 2.718q.663 1.575 1.026 2.49a.052.052 0 00.052.027.068.068 0 00.065-.052l1.988-5.118.571-1.559q.831.053 1.026.053.805 0 1.454-.053l.039.377a2.818 2.818 0 00-.529.075q-.346.075-.393.159a1.322 1.322 0 00-.064.494q.012.395.035 1.4t.052 2.351l.042 1.926a4.5 4.5 0 00.156 1.259c.026.078.151.135.374.169a3.6 3.6 0 00.535.052.388.388 0 01.046.2.552.552 0 01-.02.176c-.865-.043-1.381-.065-1.545-.065s-.347 0-.507.009-.342.017-.545.03-.373.021-.507.026a.292.292 0 01-.029-.159.556.556 0 01.029-.218 3.4 3.4 0 00.448-.042 1.248 1.248 0 00.4-.1q.117-.064.117-.545c0-.061 0-.185-.013-.373s-.013-.316-.013-.38q-.109-4-.169-5.559a.553.553 0 00-.029-.166c-.019-.062-.048-.094-.087-.094-.018 0-.039.031-.065.091q-.3.739-2.741 6.87a2.856 2.856 0 01-.234.394c-.112.166-.2.256-.26.269a.323.323 0 01-.116-.026l-3.169-7.585q-.027 1.246-.069 2.873t-.071 2.67l-.029 1.067a1.189 1.189 0 00.052.4q.051.123.428.178a4.476 4.476 0 00.6.055.3.3 0 01.045.189.654.654 0 01-.019.188c-.117 0-.262-.013-.435-.026s-.332-.023-.474-.03-.3-.009-.468-.009-.343 0-.5.009-.328.017-.523.03-.361.021-.5.026a.292.292 0 01-.029-.159.575.575 0 01.029-.218 3.969 3.969 0 00.595-.061.766.766 0 00.458-.172 1.28 1.28 0 00.155-.65q.181-4.851.182-6.209a1.725 1.725 0 00-.052-.519c-.022-.069-.15-.132-.387-.188a2.543 2.543 0 00-.522-.085c-.013 0-.02-.059-.02-.178a.486.486 0 01.02-.2l.457.03.423.026c.124.011.277.014.454.014zm13.83 6.727q1.714-4.409 2.507-6.428a.843.843 0 01.23-.238.535.535 0 01.263-.139.072.072 0 01.042.016.278.278 0 00.036.023l2.643 6.935.332.858a.653.653 0 00.405.321 1.551 1.551 0 00.478.12.359.359 0 01.039.191.944.944 0 01-.013.186q-1.3-.064-1.429-.065c-.178 0-.343 0-.5.009s-.326.017-.516.03-.355.021-.494.026a.285.285 0 01-.042-.188.274.274 0 01.056-.189 2.167 2.167 0 00.4-.049.726.726 0 00.328-.12.255.255 0 00.052-.182 3.489 3.489 0 00-.221-.808q-.221-.633-.442-1.179l-.22-.545a.107.107 0 00-.079-.053 36.866 36.866 0 00-1.285-.012c-.546 0-1.013.012-1.4.039l-.065.039q-.365.962-.585 1.585a2.919 2.919 0 00-.181.922.223.223 0 00.12.188.849.849 0 00.292.114c.115.023.213.04.3.048a1.853 1.853 0 00.189.013.353.353 0 01.035.172.6.6 0 01-.009.2c-.126 0-.262-.013-.409-.026s-.284-.023-.41-.03-.272-.009-.441-.009-.335 0-.471.009-.287.017-.451.03-.321.021-.468.026a.31.31 0 01-.026-.169.617.617 0 01.026-.208 1.792 1.792 0 00.429-.068.646.646 0 00.351-.178 5.42 5.42 0 00.604-1.217zm2.546-5.234l-1.195 3.17c0 .034.008.052.026.052q.675.026 1.182.025.486 0 1.091-.039a.038.038 0 00.026-.013.1.1 0 00.012-.039V56.5zm9.147-1.532q.624 0 .987-.027.325.507 2.338 2.958t2.754 3.485V53.32c0-.269-.007-.462-.02-.578a.728.728 0 00-.11-.319c-.035-.06-.177-.119-.426-.175a2.818 2.818 0 00-.561-.084.352.352 0 01-.049-.2.411.411 0 01.023-.181q1.3.065 1.494.065c.177 0 .334 0 .47-.01s.287-.016.451-.029.321-.022.468-.026a.387.387 0 010 .377 3.129 3.129 0 00-.568.078c-.258.051-.406.112-.445.181a.776.776 0 00-.107.312 5.02 5.02 0 00-.023.571v5.286q0 1.118.026 1.793c-.008.052-.065.077-.168.077a.476.476 0 01-.205-.071.78.78 0 01-.25-.226l-5.663-7.158v5.9c0 .268.006.462.019.578a.737.737 0 00.111.318c.034.061.174.119.419.176a2.715 2.715 0 00.555.084.368.368 0 01.049.2.432.432 0 01-.023.182q-1.3-.064-1.481-.065c-.177 0-.334 0-.47.009s-.288.017-.452.03-.32.021-.467.026a.387.387 0 010-.377 3.11 3.11 0 00.567-.078c.258-.052.407-.112.445-.182a.758.758 0 00.108-.311 5.1 5.1 0 00.022-.572v-5.64a5.123 5.123 0 00-.022-.573.763.763 0 00-.108-.311c-.038-.069-.187-.13-.445-.182a3.3 3.3 0 00-.567-.078.385.385 0 010-.376q.207.006.642.035c.29.02.518.03.682.03zm18.097 6.298a4.233 4.233 0 00-.065-.96c-.018-.061-.137-.111-.358-.15a3.169 3.169 0 00-.526-.057.348.348 0 01-.042-.189.282.282 0 01.042-.188q1.332.064 1.52.064.123 0 1.455-.064a.282.282 0 01.042.188.357.357 0 01-.042.189 2.882 2.882 0 00-.5.057c-.209.039-.323.089-.34.15a4.172 4.172 0 00-.065.96v.923a.815.815 0 00.065.315.784.784 0 01.065.2.138.138 0 01-.049.1 1.029 1.029 0 01-.211.13q-.39.209-.653.322a4.71 4.71 0 01-.9.234 7.692 7.692 0 01-1.426.12 4.484 4.484 0 01-1.76-.345 4.088 4.088 0 01-1.377-.922 4.342 4.342 0 01-1.2-2.994 4.582 4.582 0 01.331-1.723 4.528 4.528 0 01.9-1.429 4.19 4.19 0 011.4-.968 4.353 4.353 0 011.76-.36 13.08 13.08 0 012.754.272q.3 1.794.3 1.923c0 .038-.027.076-.092.113a.379.379 0 01-.194.056.286.286 0 01-.156-.039 2.259 2.259 0 00-2.546-1.9 2.649 2.649 0 00-1.662.571 3.668 3.668 0 00-1.124 1.429 4.321 4.321 0 00-.383 1.779 5.554 5.554 0 00.13 1.205 4.415 4.415 0 00.406 1.113 3.807 3.807 0 00.669.922 2.89 2.89 0 00.951.631 3.147 3.147 0 001.221.233 3.517 3.517 0 001.572-.416.2.2 0 00.091-.194zm6.563.468q1.714-4.409 2.506-6.428a.865.865 0 01.231-.238.531.531 0 01.263-.139.072.072 0 01.042.016.223.223 0 00.036.023l2.643 6.935.331.858a.656.656 0 00.406.321 1.547 1.547 0 00.477.12.359.359 0 01.039.191.87.87 0 01-.013.186q-1.3-.064-1.428-.065c-.178 0-.344 0-.5.009s-.326.017-.516.03-.355.021-.494.026a.28.28 0 01-.042-.188.274.274 0 01.055-.189 2.167 2.167 0 00.4-.049.721.721 0 00.328-.12.251.251 0 00.052-.182 3.435 3.435 0 00-.221-.808q-.22-.633-.441-1.179l-.221-.545a.106.106 0 00-.078-.053 36.9 36.9 0 00-1.286-.012c-.545 0-1.013.012-1.4.039l-.064.039q-.364.962-.585 1.585a2.923 2.923 0 00-.182.922.224.224 0 00.121.188.849.849 0 00.292.114c.114.023.213.04.295.048a1.837 1.837 0 00.188.013.349.349 0 01.036.172.618.618 0 01-.01.2c-.125 0-.261-.013-.409-.026s-.284-.023-.409-.03-.273-.009-.441-.009-.335 0-.471.009-.287.017-.452.03-.32.021-.467.026c-.018-.018-.026-.073-.026-.169a.592.592 0 01.026-.208 1.8 1.8 0 00.429-.068.639.639 0 00.35-.178 5.414 5.414 0 00.61-1.217zm2.545-5.234l-1.195 3.17c0 .034.009.052.026.052q.677.026 1.182.025.487 0 1.091-.039a.036.036 0 00.026-.013.088.088 0 00.013-.039V56.5zm15.346 5.234q1.715-4.409 2.507-6.428a.858.858 0 01.23-.238.537.537 0 01.264-.139.077.077 0 01.042.016.224.224 0 00.035.023l2.643 6.935.332.858a.653.653 0 00.406.321 1.541 1.541 0 00.477.12.359.359 0 01.039.191.944.944 0 01-.013.186q-1.3-.064-1.429-.065c-.177 0-.343 0-.5.009s-.325.017-.516.03-.355.021-.494.026a.285.285 0 01-.042-.188.274.274 0 01.056-.189 2.167 2.167 0 00.4-.049.721.721 0 00.328-.12.255.255 0 00.052-.182 3.489 3.489 0 00-.221-.808q-.221-.633-.442-1.179l-.22-.545a.107.107 0 00-.078-.053 36.946 36.946 0 00-1.286-.012c-.546 0-1.013.012-1.4.039l-.065.039q-.365.962-.584 1.585a2.923 2.923 0 00-.182.922.225.225 0 00.12.188.849.849 0 00.292.114c.115.023.213.04.3.048a1.837 1.837 0 00.188.013.361.361 0 01.036.172.618.618 0 01-.01.2c-.126 0-.262-.013-.409-.026s-.284-.023-.409-.03-.273-.009-.442-.009-.334 0-.471.009-.287.017-.451.03-.321.021-.468.026a.314.314 0 01-.025-.169.622.622 0 01.025-.208 1.792 1.792 0 00.429-.068.646.646 0 00.351-.178 5.42 5.42 0 00.605-1.217zm2.546-5.234l-1.195 3.17c0 .034.008.052.026.052q.675.026 1.182.025.486 0 1.091-.039a.038.038 0 00.026-.013.1.1 0 00.013-.039V56.5zm11.251-1.52a2.969 2.969 0 01.913.147 3.181 3.181 0 01.851.419 2.08 2.08 0 01.636.711 1.968 1.968 0 01.244.97 1.943 1.943 0 01-.542 1.289 2.841 2.841 0 01-1.231.855 33.892 33.892 0 002.1 3.052 1.992 1.992 0 00.62.561 2.087 2.087 0 00.848.218.346.346 0 01.022.2.621.621 0 01-.035.172 6.147 6.147 0 01-1.715-.156 1.891 1.891 0 01-.636-.351 1.693 1.693 0 01-.208-.221q-.169-.227-.834-1.213t-1.231-1.865a.436.436 0 00-.389-.156h-.694v2.416a4.232 4.232 0 00.065.961c.017.062.139.11.364.149a3.317 3.317 0 00.532.059.353.353 0 01.043.189.285.285 0 01-.043.188q-1.331-.064-1.519-.065c-.135 0-.645.022-1.533.065a.28.28 0 01-.042-.188.345.345 0 01.042-.189 3.338 3.338 0 00.533-.059c.225-.039.346-.087.363-.149a4.972 4.972 0 00.065-.961l-.007-5.546a4.267 4.267 0 00-.064-.961c-.018-.06-.139-.11-.364-.149a3.328 3.328 0 00-.532-.059.331.331 0 01-.042-.188.275.275 0 01.042-.189q1.331.066 1.532.066.22 0 .825-.013c.405-.004.74-.009 1.021-.009zm1.429 2.362a2.015 2.015 0 00-.484-1.426 1.972 1.972 0 00-1.516-.523c-.394 0-.611.043-.649.13a3.864 3.864 0 00-.065.974l.006 2.715h.695a2.088 2.088 0 001.406-.523 1.7 1.7 0 00.607-1.347zm12.2-2.387a1.731 1.731 0 00.4-.065 1.772 1.772 0 00.377-.13.26.26 0 01.247-.026q.156 1.358.338 2.234a.3.3 0 01-.247.09.21.21 0 01-.182-.064 2.872 2.872 0 00-.461-1.153.95.95 0 00-.786-.432h-1.65v6.624a4.232 4.232 0 00.065.961c.018.062.139.11.364.149a3.327 3.327 0 00.533.059.355.355 0 01.042.189.285.285 0 01-.042.188q-1.332-.064-1.52-.065t-1.532.065a.279.279 0 01-.043-.188.344.344 0 01.043-.189 3.317 3.317 0 00.534-.06c.225-.039.346-.087.364-.149a4.232 4.232 0 00.065-.961v-6.623h-1.676a.951.951 0 00-.786.432 2.872 2.872 0 00-.461 1.153.209.209 0 01-.181.064.3.3 0 01-.247-.09q.181-.876.337-2.234a.354.354 0 01.3.038 1.626 1.626 0 00.351.124 1.57 1.57 0 00.376.059zm6.582.052q.189 0 1.52-.066a.287.287 0 01.042.189.339.339 0 01-.042.188 3.317 3.317 0 00-.532.059c-.225.039-.347.089-.364.149a4.183 4.183 0 00-.065.961v5.546a4.171 4.171 0 00.065.961c.017.062.139.11.364.149a3.317 3.317 0 00.532.059.345.345 0 01.042.189.285.285 0 01-.042.188q-1.331-.064-1.52-.065t-1.532.065a.274.274 0 01-.042-.188.345.345 0 01.042-.189 3.317 3.317 0 00.532-.059c.226-.039.347-.087.364-.149a4.232 4.232 0 00.065-.961v-5.546a4.244 4.244 0 00-.065-.961c-.017-.06-.138-.11-.364-.149a3.317 3.317 0 00-.532-.059.339.339 0 01-.042-.188.275.275 0 01.042-.189q1.331.066 1.532.066zm8.401-.117a4.1 4.1 0 01.535.032 3.537 3.537 0 01.413.075l.467.123c.2.055.386.1.546.134q.084.564.182 1.844c0 .039-.027.072-.091.1a.466.466 0 01-.182.043.189.189 0 01-.143-.053 2.139 2.139 0 00-.111-.441 2.384 2.384 0 00-.246-.493 2.71 2.71 0 00-.367-.458 1.654 1.654 0 00-.491-.335 1.448 1.448 0 00-.6-.13 1.573 1.573 0 00-.665.134 1.091 1.091 0 00-.445.353 1.631 1.631 0 00-.23.461 1.648 1.648 0 00-.075.494 1.47 1.47 0 00.045.364 1.656 1.656 0 00.114.311 1.22 1.22 0 00.195.276c.084.093.161.172.23.238a2.782 2.782 0 00.286.223c.121.085.221.152.3.2s.187.117.328.2.248.15.321.2l.338.208.38.233c.1.062.221.145.37.25a4.554 4.554 0 01.367.287 4.32 4.32 0 01.312.311 2.02 2.02 0 01.266.36 1.919 1.919 0 01.162.4 1.615 1.615 0 01.065.458 2.134 2.134 0 01-.227.971 2.272 2.272 0 01-.607.756 2.9 2.9 0 01-.871.478 3.039 3.039 0 01-1.009.172 5.236 5.236 0 01-.659-.046 9.551 9.551 0 01-1.183-.221 10.797 10.797 0 00-.5-.11c-.069-.342-.132-.736-.189-1.185s-.084-.724-.084-.828a.473.473 0 01.338-.156.129.129 0 01.143.117 3.027 3.027 0 00.113.4 3.36 3.36 0 00.244.509 2.53 2.53 0 00.393.527 1.884 1.884 0 00.594.389 2 2 0 00.812.162 1.546 1.546 0 001.11-.425 1.522 1.522 0 00.448-1.16 1.652 1.652 0 00-.039-.37 1.426 1.426 0 00-.1-.3 1.062 1.062 0 00-.176-.257 2.2 2.2 0 00-.211-.211 2.428 2.428 0 00-.263-.192c-.11-.072-.2-.129-.286-.175s-.188-.1-.324-.179-.246-.134-.328-.182q-.273-.162-.348-.2c-.049-.028-.161-.1-.334-.2s-.291-.187-.354-.237-.166-.131-.312-.243a1.885 1.885 0 01-.308-.283 12.067 12.067 0 01-.234-.3 1.363 1.363 0 01-.2-.344 3.354 3.354 0 01-.113-.367 1.688 1.688 0 01-.052-.419 2.059 2.059 0 01.367-1.2 2.391 2.391 0 01.945-.811 2.8 2.8 0 011.228-.282zm12.654.065a1.723 1.723 0 00.4-.065 1.772 1.772 0 00.377-.13.26.26 0 01.247-.026q.156 1.358.338 2.234a.3.3 0 01-.247.09.21.21 0 01-.182-.064 2.872 2.872 0 00-.461-1.153.95.95 0 00-.786-.432h-1.649v6.624a4.171 4.171 0 00.065.961c.017.062.138.11.363.149a3.327 3.327 0 00.533.059.345.345 0 01.042.189.285.285 0 01-.042.188q-1.332-.064-1.52-.065t-1.532.065a.279.279 0 01-.043-.188.344.344 0 01.043-.189 3.317 3.317 0 00.532-.059c.225-.039.346-.087.364-.149a4.232 4.232 0 00.065-.961v-6.624h-1.674a.951.951 0 00-.786.432 2.886 2.886 0 00-.461 1.153.208.208 0 01-.181.064.3.3 0 01-.247-.09q.181-.876.338-2.234a.352.352 0 01.3.038 1.626 1.626 0 00.351.124 1.57 1.57 0 00.376.059z" stroke="#5f648c" stroke-miterlimit="10" stroke-width=".05"/><path d="M12.207 8.006a.6.6 0 01.23.461.348.348 0 01-.394.393h-4.43v2.56A8.948 8.948 0 0111.682 15a2.331 2.331 0 01.263 1.05q0 1.149-.788 1.41c-.438.155-.787-.087-1.05-.722a13.389 13.389 0 00-2.494-4.363v4.462q0 2.922.049 7.827t.049 4.636q0 .264-.426.492a2.248 2.248 0 01-1.083.231q-.688 0-.689-.492 0 .327.148-4.825t.147-7.906v-2.591a31.726 31.726 0 01-5.25 9.024.429.429 0 01-.558-.395A44.548 44.548 0 005.579 8.86H2.494q-.428 0-1.739.164L.492 7.581a7.731 7.731 0 002 .261h3.316V2.331A3.35 3.35 0 005.579.788C5.491.657 5.48.547 5.546.459a.36.36 0 01.328-.1Q7.253.59 8.729.985a.34.34 0 01.262.394.363.363 0 01-.361.36q-1.017.067-1.017.722v5.381h1.05a.485.485 0 00.361-.131l1.018-1.082a.415.415 0 01.623-.033 15.492 15.492 0 011.542 1.41zm18.114-4.627q.426.4-.1.657a50.45 50.45 0 01-.951.461c-.176.064-.263.252-.263.556v8.828q0 3.381.1 8.006t.1 4.3q0 3.053-3.281 3.84a3.859 3.859 0 00-1.034-1.887 4.533 4.533 0 00-2.215-.771c-.2-.284-.153-.5.131-.657q2.592.2 3.38.2.887 0 .886-.854V3.938H14.8v25.334q0 .753-1.509.754c-.438 0-.656-.176-.656-.526q0 .789.131-8.646T12.9 6.563A16.047 16.047 0 0012.535 2a.288.288 0 01.066-.361c.087-.088.208-.088.361 0q1.279.721 2.3 1.313h11.19a.585.585 0 00.427-.131l.984-1.018a.457.457 0 01.689-.033q.848.73 1.769 1.609zm-4.364 4.694a.63.63 0 01.2.459.318.318 0 01-.36.361h-7.88a14.943 14.943 0 00-1.739.2l-.263-1.443a7.775 7.775 0 002 .262h4.5a.484.484 0 00.36-.131l1.018-1.115a.415.415 0 01.623-.034q.753.654 1.541 1.441zm-.493 5.119q.395.393-.131.656a4.742 4.742 0 00-.689.395c-.088.064-.131.228-.131.492q0 1.541.082 4.724t.082 3.051q0 .264-.476.492a2.325 2.325 0 01-1.034.231c-.394 0-.59-.174-.59-.526V21.4H19.1v2.494c0 .154-.153.3-.459.443a2.3 2.3 0 01-.985.213c-.393 0-.59-.173-.59-.525q0 .167.082-3.248t.082-5.611a10.338 10.338 0 00-.263-3.084.3.3 0 01.066-.377.266.266 0 01.361-.018q.755.428 2.067 1.149h2.658a.585.585 0 00.427-.131c.152-.2.394-.471.722-.821a.437.437 0 01.656 0q.589.487 1.54 1.308zm-2.887.623H19.1v6.6h3.479zM71.6 15.62a.748.748 0 01.2.492q0 .395-.426.394H50.666V19.2h16.768a.514.514 0 00.377-.149c.1-.1.432-.443 1-1.033a.437.437 0 01.656 0q1.412 1.081 2 1.608.426.427-.164.722c-.219.11-.536.262-.951.459a.718.718 0 00-.46.623q-.394 4.726-1.312 6.334a5.01 5.01 0 01-3.84 2.264 4.2 4.2 0 00-1-1.838 4.613 4.613 0 00-2.083-.723.412.412 0 01.131-.656 33.223 33.223 0 003.511.264q1.345 0 1.87-1.871a34.688 34.688 0 00.657-5.02H54.111v4.692h5.054v-2.135a3.335 3.335 0 00-.23-1.543c-.088-.131-.088-.241 0-.328a.261.261 0 01.328-.1q2.133.36 3.183.656a.322.322 0 01.263.395.325.325 0 01-.361.328c-.679.064-1.017.316-1.017.754s.026 1.133.082 2.084.082 1.449.082 1.492c0 .2-.176.379-.526.543a2.748 2.748 0 01-1.181.246c-.416 0-.623-.164-.623-.492v-.92H46.5v2.824q0 .3-.525.559a2.773 2.773 0 01-1.247.261.522.522 0 01-.591-.589q0-.1.1-2.643t.1-3.822A2.745 2.745 0 0044.1 21.1c-.088-.131-.088-.24 0-.328a.321.321 0 01.328-.1q1.838.329 3.183.688a.32.32 0 01.262.394.29.29 0 01-.328.328q-1.05.1-1.05.754v2.036h5.48v-4.69h-1.309v.718c0 .2-.165.377-.493.541a2.614 2.614 0 01-1.181.246c-.438 0-.656-.174-.656-.524q0-.032.065-2.068.066-2.428.1-4.791.033-3.477.033-6.957a10.966 10.966 0 00-.361-3.576.277.277 0 01.065-.361.318.318 0 01.361-.034q.918.528 2.462 1.379h3.149a14.16 14.16 0 00.919-3.511 4.741 4.741 0 01.1-1.213.412.412 0 01.328 0q2.3 1.015 2.986 1.377a.355.355 0 01.2.461.331.331 0 01-.426.261.882.882 0 00-1.018.4 22.271 22.271 0 01-1.936 2.23h7.351a.484.484 0 00.36-.131c.219-.285.526-.644.919-1.084.153-.2.361-.207.624-.031a18.491 18.491 0 012.062 1.606q.393.36-.066.589c-.218.11-.525.274-.918.493a.564.564 0 00-.263.558q0 1.9.132 4.348t.131 2.346c0 .175-.192.367-.574.574a2.534 2.534 0 01-1.231.312q-.591 0-.591-.492v-1.017H50.666v2.691H67.5a.484.484 0 00.36-.131q.525-.591 1.247-1.445a.4.4 0 01.591 0A14.492 14.492 0 0171.6 15.62zm-8.3-7.383V5.743H50.666v2.494zm0 3.609V9.221H50.666v2.625zm40.328 3.512q-.918 10.436-10.993 13.914a.547.547 0 01-.328-.822 16.3 16.3 0 005.644-4.166A16.015 16.015 0 00101 15.422q.1-1.113.1-2.066 0-6.135-3.676-6.137a4.013 4.013 0 00-3.232 1.987 6.168 6.168 0 00-1.3 4.052 13.618 13.618 0 00.952 4.166 2.1 2.1 0 01.229.854 1.477 1.477 0 01-.623 1.115 1.123 1.123 0 01-.722.361q-.624 0-1.083-1.148a14.629 14.629 0 01-1.05-5.545 20.843 20.843 0 01.919-5.809q.852-3.016.853-3.15a1.661 1.661 0 00-1.077-1.641q-.23-.492.23-.656a3.732 3.732 0 011.739.656 2.055 2.055 0 01.984 1.608 9.334 9.334 0 01-.787 2.758A12.615 12.615 0 0092.5 10.4a8.162 8.162 0 011.9-3.084 4.672 4.672 0 013.118-1.477 5.191 5.191 0 014.512 1.887 9.144 9.144 0 011.657 5.922c.007.552-.015 1.118-.059 1.71zm37.737 6.168q0 3.972-4.43 5.842a20.388 20.388 0 01-7.318 1.443.527.527 0 01-.1-.854 14.721 14.721 0 006.4-2.066q2.854-1.8 2.854-4.365a4.576 4.576 0 00-1.1-3.084 3.531 3.531 0 00-2.805-1.279 5.1 5.1 0 00-3.446 1.476 8.506 8.506 0 00-1.9 2.461q-1.051 1.905-2.593 1.738-2.4-.228-2.395-3.576a32.922 32.922 0 01.525-4.232 32.422 32.422 0 00.525-4.891c0-.435-.011-.842-.033-1.213a2.406 2.406 0 011.542-2.658 10.021 10.021 0 013.085-.59q2.133-.163 2.133-1.51a3.079 3.079 0 00-1.543-2.268c-.044-.35.087-.535.393-.557a8.023 8.023 0 012.822 1.608 3.75 3.75 0 011.608 2.691 1.642 1.642 0 01-.885 1.541 1.964 1.964 0 01-.919.264 4.8 4.8 0 01-1.362-.428 5.37 5.37 0 00-2.051-.426q-3.216 0-3.216 1.772a10.558 10.558 0 00.1 1.181 10.387 10.387 0 01.1 1.182 26.419 26.419 0 01-.41 4.053 27.889 27.889 0 00-.41 3.132q0 1.708 1.017 1.708a2.184 2.184 0 001.247-.559q1.246-.95 2.461-1.9a6.526 6.526 0 013.61-1.28 6.912 6.912 0 014.429 1.51 5.064 5.064 0 012.065 4.134zm44.956-19.787L158.1 29.959l-1.083-1.082L185.238.657zm23.626 6.17q-1.246 3.314-2.494 6.6-2.4 6.367-2.526 7.219-.033.329-.033.69a11.079 11.079 0 00.656 3.314q.82 2.493.853 2.658.3 1.444-1.411 1.641-1.476.164-1.476-.951 0-.165.082-1.477t.082-2.2a10.037 10.037 0 00-.23-2.461 2.059 2.059 0 00-.886-1.379 5.166 5.166 0 00-1.673-.459.431.431 0 01.1-.689q1.87.132 2.363-.557a52.08 52.08 0 003.412-6.531q2.068-4.43 2.56-5.676.49-.203.621.258zm-4.594 3.019a2.327 2.327 0 01.263 1.049 1.9 1.9 0 01-.263.953.824.824 0 01-.754.459c-.285 0-.537-.24-.755-.723a11.183 11.183 0 00-2.987-4 .41.41 0 01.394-.557q3.183 1.079 4.102 2.819zm2.691-7.744a2.142 2.142 0 01.427 1.279q0 1.281-.887 1.28-.426 0-.787-.623a10.652 10.652 0 00-3.708-3.61q-.132-.492.328-.592 3.383.56 4.627 2.266zm23.266 23.922a5.045 5.045 0 00-2.625 2.494 28.255 28.255 0 01-8.631-3.184q-4.693 2.822-12.436 3.61a.4.4 0 01-.034-.656 31.532 31.532 0 0010.928-3.905 18.46 18.46 0 01-4.758-4.824h-2.724q-.426 0-1.739.164l-.263-1.443a7.787 7.787 0 002 .262H223.3a.564.564 0 00.361-.131c.24-.2.568-.481.984-.854a.435.435 0 01.624 0 20.369 20.369 0 011.9 1.707.6.6 0 01.2.426c0 .285-.153.426-.459.426h-.788a1.1 1.1 0 00-.984.492 16 16 0 01-3.577 3.709 28.228 28.228 0 009.749 1.707zm-1.247-14.9q.426.393-.131.657a8.817 8.817 0 00-.788.361.469.469 0 00-.263.459c0 .373.028 1.121.082 2.248s.082 1.711.082 1.756c0 .2-.169.389-.508.574a2.131 2.131 0 01-1.034.279c-.416 0-.623-.175-.623-.525v-.559h-14.931v.592c0 .174-.148.344-.443.508a2.169 2.169 0 01-1.067.246c-.393 0-.59-.176-.59-.525q0-.1.066-2.035t.065-3.051a7.368 7.368 0 00-.229-2.1.341.341 0 01.065-.361.348.348 0 01.361 0q.721.329 2.133 1.115h14.012a.487.487 0 00.361-.131l.919-.984a.432.432 0 01.623 0 18.535 18.535 0 011.838 1.477zm-14.373 4.267v-3.642h-3.741v3.642zm11.419-13.945c.329.283.022.635-.919 1.049-.175.066-.262.242-.262.525q0 .657.082 3.135t.082 2.64c0 .155-.17.313-.508.477a2.359 2.359 0 01-1.034.246q-.591 0-.591-.492v-.592h-9.352v.428c0 .174-.148.349-.443.523a2.046 2.046 0 01-1.066.264c-.394 0-.591-.176-.591-.525l.082-2.149c.055-1.455.082-2.7.082-3.725a8.537 8.537 0 00-.328-2.921.286.286 0 01.049-.36.331.331 0 01.378-.033q1.408.722 2.2 1.182h8.367a.49.49 0 00.362-.133q.3-.36.886-.985c.152-.2.36-.207.623-.031a18.116 18.116 0 011.901 1.477zm-3.15 2.722V3.184h-9.352V5.25zm0 3.282v-2.3h-9.352v2.3zm-.659 12.109h-8.467a15.274 15.274 0 004.89 3.938 14.924 14.924 0 003.577-3.938zm-2.1-4.168v-3.642h-3.577v3.642zm5.677 0v-3.642h-3.741v3.642zm43.81-13.453a.687.687 0 01.23.492q0 .36-.394.36H257.5v5.252h3.15a.489.489 0 00.361-.133q.459-.457 1.181-1.213a.42.42 0 01.624.033 19.257 19.257 0 011.9 1.705c.262.264.229.5-.1.723a6.784 6.784 0 01-.886.426q-.263.1-.262.591v1.705q0 2.793.164 7.121t.164 4.038c0 .24-.2.437-.607.589a3.251 3.251 0 01-1.165.231q-.624 0-.624-.492v-1.905h-9.91v2.364q0 .262-.541.476a2.8 2.8 0 01-1.033.213q-.657 0-.657-.592 0 .559.131-3.74t.132-8.762a15.341 15.341 0 00-.361-4.429.271.271 0 01.049-.344.246.246 0 01.344-.018q.984.559 2.4 1.413h3.478V3.872h-10.997c-.307 0-.9.056-1.772.164l-.263-1.411a7.939 7.939 0 002 .262h21.757a.487.487 0 00.361-.131l1.509-1.509a.35.35 0 01.558-.032q1.282 1.05 2.102 1.805zm-.3 4.986a.351.351 0 01-.361.328q-1.052.1-1.051.69v3.512q0 4.857.181 10.943t.181 5.66c0 .2-.2.379-.591.543a2.979 2.979 0 01-1.148.246c-.46 0-.69-.187-.69-.558v-1.608h-20.87v1.477c0 .2-.18.383-.541.556a2.487 2.487 0 01-1.1.264q-.688 0-.689-.592 0 .329.132-4.642t.131-7.729v-8.17a2.965 2.965 0 00-.263-1.543c-.087-.131-.087-.24 0-.328a.26.26 0 01.329-.1q1.476.264 3.117.657a.318.318 0 01.262.392q0 .3-.328.328-1.05.1-1.05.756v17.69h20.87V8.926a3.352 3.352 0 00-.229-1.543c-.088-.131-.088-.24 0-.328a.258.258 0 01.328-.1q1.443.264 3.117.657a.32.32 0 01.268.394zm-14.964 7.252v-5.15h-3.933v5.15zm0 6.3v-5.315h-3.933v5.316zm5.977-11.45h-3.9v5.15h3.9zm0 11.451v-5.316h-3.9v5.316zm50.863 3.578a5.94 5.94 0 00-3.15 2.2 17.645 17.645 0 01-5.907-5.152 25 25 0 01-4.758-11.846h-.623a28.424 28.424 0 01-2.724 2.036 20.438 20.438 0 013.38 4.955 14.086 14.086 0 011.542 6.07 6.657 6.657 0 01-1.837 5.119 6.174 6.174 0 01-4.4 1.51 3.661 3.661 0 00-.754-1.789 5.776 5.776 0 00-2.068-1.067q-.2-.492.23-.656a14.416 14.416 0 003.971.69 2.554 2.554 0 002.116-1.1 4.441 4.441 0 00.837-2.772 20.066 20.066 0 00-.131-2.33 34.839 34.839 0 01-7.745 4.823 48.538 48.538 0 01-7.711 2.855.413.413 0 01-.164-.656 53.03 53.03 0 007.842-3.871 34.162 34.162 0 007.318-5.58 16.116 16.116 0 00-.722-2.033 43.4 43.4 0 01-14.274 7.185.427.427 0 01-.2-.656A47.29 47.29 0 00295.79 14.7a17.642 17.642 0 00-1.411-1.9 40.2 40.2 0 01-10.8 4.5.4.4 0 01-.2-.623 42.618 42.618 0 0011.157-6.334H289.1a15.874 15.874 0 00-1.772.2l-.263-1.444a7.946 7.946 0 002 .262h13.323a.487.487 0 00.361-.131q.492-.591 1.247-1.41c.153-.2.349-.209.59-.033a14.584 14.584 0 011.871 1.705.67.67 0 01.23.461c0 .262-.143.392-.427.392h-6.86a20.267 20.267 0 002.2 6.727 18.2 18.2 0 004.725-4.363 4.285 4.285 0 01.624-1.215.314.314 0 01.328.066q1.116.885 2.494 2.166a.319.319 0 01.065.459.361.361 0 01-.492.164 2.11 2.11 0 00-.656-.23 1.366 1.366 0 00-.755.361 31.654 31.654 0 01-5.906 3.315 17.263 17.263 0 0010.236 7.342zm-.394-18.771a.673.673 0 01-.755.164 2.149 2.149 0 00-1.64.263q-1.609.918-3.118 1.969-.525.033-.525-.459a31.36 31.36 0 001.51-2.922h-20.247q-.361 5.482-3.216 5.809a1.563 1.563 0 01-1.1-.231.889.889 0 01-.41-.753 1.155 1.155 0 01.59-.985 7.026 7.026 0 002.249-2.721 11.784 11.784 0 001.2-3.807.418.418 0 01.689 0 14.928 14.928 0 01.033 1.705h8.893V2.331a2.962 2.962 0 00-.263-1.543.3.3 0 010-.329.327.327 0 01.328-.1 26.479 26.479 0 013.282.689.318.318 0 01.262.393.351.351 0 01-.361.328q-1.05.1-1.05.756V4.4h8.959a.605.605 0 00.393-.131c.328-.262.744-.611 1.247-1.051a.458.458 0 01.657.034q1.673 1.608 2.4 2.46a.439.439 0 01-.007.654z"/></g></svg>