<svg xmlns="http://www.w3.org/2000/svg" width="466.732" height="91.71"><path d="M15.886 77.337a4.926 4.926 0 011.51.242 5.262 5.262 0 011.406.693 3.417 3.417 0 011.052 1.177 3.136 3.136 0 01-.494 3.738 4.71 4.71 0 01-2.035 1.413 56.173 56.173 0 003.47 5.049 3.308 3.308 0 001.026.929 3.472 3.472 0 001.4.36.576.576 0 01.038.338 1.087 1.087 0 01-.06.285 10.159 10.159 0 01-2.836-.258 3.143 3.143 0 01-1.053-.58 2.783 2.783 0 01-.343-.365q-.281-.377-1.38-2.009t-2.036-3.083a.719.719 0 00-.645-.258H13.77v4a7.034 7.034 0 00.107 1.59c.028.1.229.183.6.247a5.448 5.448 0 00.881.1.561.561 0 01.07.311.465.465 0 01-.07.312q-2.2-.106-2.513-.108-.333 0-2.535.108a.465.465 0 01-.07-.312.561.561 0 01.07-.311 5.426 5.426 0 00.88-.1q.559-.1.6-.247A8.318 8.318 0 0011.9 89l-.01-9.174a7 7 0 00-.108-1.589c-.028-.1-.229-.183-.6-.248a5.518 5.518 0 00-.881-.1.572.572 0 01-.071-.312.473.473 0 01.071-.311q2.2.106 2.535.107.364 0 1.364-.021t1.686-.015zm2.363 3.91a3.332 3.332 0 00-.8-2.357 3.263 3.263 0 00-2.508-.865q-.976 0-1.074.215a6.487 6.487 0 00-.107 1.611l.011 4.49h1.149a3.457 3.457 0 002.326-.865 2.806 2.806 0 001.003-2.229zm11.899-3.867q.311 0 2.513-.107a.463.463 0 01.069.311.557.557 0 01-.069.312 5.518 5.518 0 00-.881.1c-.372.065-.573.147-.6.248a6.939 6.939 0 00-.108 1.589V89a6.95 6.95 0 00.108 1.59c.028.1.229.183.6.247a5.425 5.425 0 00.881.1.553.553 0 01.069.311.466.466 0 01-.069.312q-2.2-.106-2.513-.108-.333 0-2.536.108a.466.466 0 01-.069-.312.562.562 0 01.069-.311 5.425 5.425 0 00.881-.1q.558-.1.6-.247A7.034 7.034 0 0029.2 89v-9.171a7.023 7.023 0 00-.1-1.589c-.029-.1-.23-.183-.6-.248a5.518 5.518 0 00-.881-.1.566.566 0 01-.069-.312.463.463 0 01.069-.311q2.195.111 2.529.111zM41.992 89a4.169 4.169 0 00.129 1.547.93.93 0 00.478.183q.285.031 1.048.032h1.224a6.962 6.962 0 001.386-.145 3.076 3.076 0 001.128-.435 3.871 3.871 0 001.353-2.17c.022-.086.122-.129.3-.129a.788.788 0 01.537.129l-.322.892-.36.993q-.133.382-.28.865a6.948 6.948 0 00-.2.816q-1.105 0-3.47-.043T41.09 91.5q-.527 0-1.343.033t-1.214.032a.466.466 0 01-.069-.312.562.562 0 01.069-.311 5.425 5.425 0 00.881-.1q.558-.1.6-.247A7.034 7.034 0 0040.123 89v-9.171a7.023 7.023 0 00-.107-1.589c-.029-.1-.23-.183-.6-.248a5.518 5.518 0 00-.881-.1.566.566 0 01-.069-.312.463.463 0 01.069-.311q2.2.106 2.535.107.312 0 2.514-.107a.463.463 0 01.069.311.566.566 0 01-.069.312 5.518 5.518 0 00-.881.1c-.372.065-.573.147-.6.248a5.944 5.944 0 00-.108 1.589zm13.682-.491q2.836-7.293 4.146-10.635a1.47 1.47 0 01.381-.392.889.889 0 01.436-.231.119.119 0 01.07.028.43.43 0 00.059.037l4.372 11.472q.537 1.386.548 1.418a1.072 1.072 0 00.671.532 2.567 2.567 0 00.79.2.588.588 0 01.064.316 1.5 1.5 0 01-.021.307q-2.149-.106-2.364-.108a20.921 20.921 0 00-1.676.065c-.316.022-.586.036-.816.043a.471.471 0 01-.07-.312.456.456 0 01.091-.311 3.79 3.79 0 00.661-.08 1.225 1.225 0 00.543-.2.423.423 0 00.086-.3 5.746 5.746 0 00-.366-1.338q-.364-1.046-.73-1.949l-.365-.9a.174.174 0 00-.129-.086q-.28-.021-2.127-.021-1.355 0-2.321.064l-.107.065q-.6 1.589-.967 2.621a4.852 4.852 0 00-.3 1.525.371.371 0 00.2.312 1.412 1.412 0 00.482.188c.19.039.354.066.489.08a3.062 3.062 0 00.312.022.565.565 0 01.058.285.99.99 0 01-.015.338c-.208-.007-.434-.022-.677-.043s-.469-.037-.677-.049-.451-.016-.73-.016-.553.006-.779.016-.474.027-.747.049-.53.036-.773.043a.512.512 0 01-.043-.279 1.013 1.013 0 01.043-.344 2.976 2.976 0 00.709-.113 1.053 1.053 0 00.58-.3 8.892 8.892 0 001.009-2.019zm4.211-8.658l-1.977 5.242c0 .058.015.086.043.086q1.117.042 1.955.043.806 0 1.8-.064a.06.06 0 00.043-.022.149.149 0 00.021-.064v-.022zm25.096-2.471q.314 0 2.514-.107a.536.536 0 01.07.343.651.651 0 01-.07.344 5.425 5.425 0 00-.881.1c-.372.064-.573.146-.6.247a5.952 5.952 0 00-.108 1.59v4.275A20.762 20.762 0 0088.333 82q1.246-1.234 1.74-1.761t.988-1.161a1.2 1.2 0 00.3-.666.363.363 0 00-.032-.156.3.3 0 00-.1-.117.793.793 0 00-.311-.146 2.126 2.126 0 00-.365-.047c-.071-.003-.127-.006-.166-.006h-.232a.658.658 0 01-.054-.307 1.064 1.064 0 01.054-.359q.247.011.769.049c.346.024.658.044.933.058s.533.022.769.022q.558 0 1.343-.059t.977-.07a1.072 1.072 0 01.038.381q-.006.285-.081.285l-.172.01a3.462 3.462 0 00-.687.097 2.708 2.708 0 00-.435.135 2.923 2.923 0 00-.429.22 1.7 1.7 0 00-.4.333q-.654.708-1.332 1.4t-1.106 1.111q-.429.42-1.262 1.214t-1.273 1.214a.15.15 0 000 .172l.6.7c.306.358.512.6.613.715s.288.331.563.65l.586.676c.114.133.294.337.537.613s.432.485.565.628.3.327.509.554.387.415.537.568l.489.5c.175.18.345.342.51.5a3.847 3.847 0 00.994.676 3.954 3.954 0 001.348.312.568.568 0 01.038.338 1.1 1.1 0 01-.059.285 11.9 11.9 0 01-3.051-.236 3.912 3.912 0 01-1.461-.924q-.591-.581-4.834-5.436c-.028-.043-.093-.064-.193-.064a.425.425 0 00-.194.043v4a6.956 6.956 0 00.108 1.59c.028.1.229.182.6.247a5.518 5.518 0 00.881.1.653.653 0 01.07.344.54.54 0 01-.07.344q-2.2-.106-2.514-.108-.331 0-2.535.108a.541.541 0 01-.069-.344.646.646 0 01.069-.344 5.518 5.518 0 00.881-.1q.558-.1.6-.247a7.041 7.041 0 00.107-1.59v-9.05a7.034 7.034 0 00-.107-1.59q-.043-.151-.6-.247a5.425 5.425 0 00-.881-.1.643.643 0 01-.069-.344.538.538 0 01.069-.343q2.204.11 2.537.11zm18.076 0q.312 0 2.513-.107a.462.462 0 01.07.311.565.565 0 01-.07.312 5.5 5.5 0 00-.88.1c-.373.065-.574.147-.6.248a7 7 0 00-.108 1.589V89a7.012 7.012 0 00.108 1.59q.042.151.6.247a5.4 5.4 0 00.88.1.561.561 0 01.07.311.465.465 0 01-.07.312q-2.2-.106-2.513-.108-.333 0-2.535.108a.465.465 0 01-.07-.312.552.552 0 01.07-.311 5.426 5.426 0 00.88-.1c.372-.064.574-.146.6-.247a7.034 7.034 0 00.107-1.59v-9.171A7.023 7.023 0 00102 78.24c-.028-.1-.23-.183-.6-.248a5.519 5.519 0 00-.88-.1.556.556 0 01-.07-.312.462.462 0 01.07-.311q2.203.111 2.537.111zm13.961-.043a4.915 4.915 0 011.509.242 5.253 5.253 0 011.407.693 3.417 3.417 0 011.052 1.177 3.136 3.136 0 01-.494 3.738 4.71 4.71 0 01-2.035 1.412 56.173 56.173 0 003.47 5.049 3.308 3.308 0 001.026.929 3.471 3.471 0 001.4.36.567.567 0 01.039.338 1.132 1.132 0 01-.06.285 10.154 10.154 0 01-2.832-.26 3.143 3.143 0 01-1.053-.58 2.783 2.783 0 01-.343-.365q-.28-.377-1.38-2.009t-2.036-3.083a.721.721 0 00-.645-.258H114.9v4a7.012 7.012 0 00.108 1.59c.028.1.229.183.6.247a5.425 5.425 0 00.881.1.561.561 0 01.07.311.465.465 0 01-.07.312q-2.2-.106-2.513-.108-.333 0-2.536.108a.472.472 0 01-.069-.312.562.562 0 01.069-.311 5.425 5.425 0 00.881-.1c.372-.064.574-.146.6-.247a8.41 8.41 0 00.107-1.59l-.01-9.174a7 7 0 00-.108-1.589c-.028-.1-.229-.183-.6-.248a5.508 5.508 0 00-.88-.1.572.572 0 01-.071-.312.467.467 0 01.071-.311q2.2.106 2.535.107.364 0 1.364-.021t1.689-.02zm2.363 3.91a3.332 3.332 0 00-.8-2.357 3.263 3.263 0 00-2.508-.865c-.651 0-1.01.071-1.074.215a6.487 6.487 0 00-.107 1.611l.01 4.49h1.15a3.457 3.457 0 002.326-.865 2.806 2.806 0 001.003-2.229zm11.898-3.867q.312 0 2.514-.107a.463.463 0 01.069.311.566.566 0 01-.069.312 5.518 5.518 0 00-.881.1c-.372.065-.573.147-.6.248a6.939 6.939 0 00-.108 1.589V89a6.95 6.95 0 00.108 1.59c.028.1.229.183.6.247a5.425 5.425 0 00.881.1.562.562 0 01.069.311.466.466 0 01-.069.312q-2.2-.106-2.514-.108-.332 0-2.535.108a.466.466 0 01-.069-.312.562.562 0 01.069-.311 5.425 5.425 0 00.881-.1q.558-.1.6-.247a7.034 7.034 0 00.107-1.59v-9.171a7.023 7.023 0 00-.107-1.589c-.029-.1-.23-.183-.6-.248a5.518 5.518 0 00-.881-.1.566.566 0 01-.069-.312.463.463 0 01.069-.311q2.202.111 2.535.111zm13.016-.193a6.709 6.709 0 01.887.054 5.611 5.611 0 01.681.124c.179.045.437.114.774.2s.637.163.9.22q.14.934.3 3.051c.007.065-.043.12-.15.166a.76.76 0 01-.3.07.322.322 0 01-.237-.085 3.656 3.656 0 00-.182-.731 3.939 3.939 0 00-.409-.816 4.47 4.47 0 00-.606-.758 2.778 2.778 0 00-.811-.553 2.4 2.4 0 00-1-.215 2.606 2.606 0 00-1.1.221 1.785 1.785 0 00-.735.585 2.679 2.679 0 00-.5 1.579 2.4 2.4 0 00.075.6 2.561 2.561 0 00.188.515 2.005 2.005 0 00.323.457c.138.154.266.284.381.392a4.256 4.256 0 00.472.37c.2.141.365.251.494.334s.31.193.543.332.41.249.532.328.3.187.558.344.467.286.629.387.365.238.611.414a5.94 5.94 0 011.123.988 2.9 2.9 0 01.709 1.256 2.7 2.7 0 01.108.758 3.51 3.51 0 01-.376 1.605 3.737 3.737 0 01-1 1.252 4.78 4.78 0 01-1.44.789 4.962 4.962 0 01-1.669.285 8.588 8.588 0 01-1.09-.075c-.391-.05-.715-.1-.973-.15s-.586-.122-.982-.215-.672-.154-.823-.183q-.171-.847-.311-1.961t-.14-1.369a.782.782 0 01.559-.258.213.213 0 01.236.194 5.119 5.119 0 00.188.66 5.646 5.646 0 00.4.844 4.162 4.162 0 00.649.87 3.117 3.117 0 00.984.644 3.3 3.3 0 001.343.269 2.572 2.572 0 001.837-.7 2.521 2.521 0 00.741-1.918 2.824 2.824 0 00-.065-.613 2.412 2.412 0 00-.166-.5 1.742 1.742 0 00-.291-.423 3.837 3.837 0 00-.348-.35 3.965 3.965 0 00-.435-.316c-.184-.119-.341-.215-.473-.291s-.312-.173-.537-.3-.407-.222-.543-.3c-.3-.179-.492-.292-.574-.338s-.268-.16-.554-.339-.481-.309-.585-.391-.276-.217-.515-.4a3.114 3.114 0 01-.511-.468q-.151-.187-.387-.488a2.256 2.256 0 01-.339-.569 6.062 6.062 0 01-.187-.607 2.776 2.776 0 01-.086-.693 3.4 3.4 0 01.607-1.977 3.96 3.96 0 011.563-1.342 4.63 4.63 0 012.035-.465zm12.65.193q.312 0 2.514-.107a.531.531 0 01.069.343.643.643 0 01-.069.344 5.425 5.425 0 00-.881.1c-.372.064-.573.146-.6.247a6.95 6.95 0 00-.108 1.59v3.76l.043.064q3.159.064 3.373.065.387 0 3.287-.065a.123.123 0 00.043-.086v-3.741a7.034 7.034 0 00-.107-1.59q-.043-.151-.6-.247a5.425 5.425 0 00-.881-.1.643.643 0 01-.069-.344.538.538 0 01.069-.343q2.2.106 2.536.107.312 0 2.513-.107a.53.53 0 01.07.343.641.641 0 01-.07.344 5.425 5.425 0 00-.881.1c-.372.064-.573.146-.6.247a7.012 7.012 0 00-.108 1.59v9.045a7.018 7.018 0 00.108 1.59c.028.1.229.182.6.247a5.518 5.518 0 00.881.1.644.644 0 01.07.344.533.533 0 01-.07.344q-2.2-.106-2.513-.108-.333 0-2.536.108a.541.541 0 01-.069-.344.646.646 0 01.069-.344 5.518 5.518 0 00.881-.1q.558-.1.6-.247a7.041 7.041 0 00.107-1.59v-4.254l-.043-.086q-.258-.011-1.456-.049t-1.831-.037a19.918 19.918 0 00-3.394.129l-.022.043v4.254a6.956 6.956 0 00.108 1.59c.028.1.229.182.6.247a5.518 5.518 0 00.881.1.646.646 0 01.069.344.534.534 0 01-.069.344q-2.2-.106-2.514-.108-.332 0-2.535.108a.534.534 0 01-.069-.344.646.646 0 01.069-.344 5.518 5.518 0 00.881-.1q.558-.1.6-.247a7.041 7.041 0 00.107-1.59v-9.045a7.034 7.034 0 00-.107-1.59q-.043-.151-.6-.247a5.425 5.425 0 00-.881-.1.643.643 0 01-.069-.344.531.531 0 01.069-.343q2.202.11 2.535.11zm19.555 0q.312 0 2.514-.107a.469.469 0 01.069.311.566.566 0 01-.069.312 5.518 5.518 0 00-.881.1c-.372.065-.574.147-.6.248a7.023 7.023 0 00-.107 1.589V89a7.034 7.034 0 00.107 1.59c.028.1.23.183.6.247a5.425 5.425 0 00.881.1.562.562 0 01.069.311.472.472 0 01-.069.312q-2.2-.106-2.514-.108-.333 0-2.535.108a.471.471 0 01-.07-.312.561.561 0 01.07-.311 5.425 5.425 0 00.881-.1c.372-.064.573-.146.6-.247a6.95 6.95 0 00.108-1.59v-9.171a6.939 6.939 0 00-.108-1.589c-.028-.1-.229-.183-.6-.248a5.518 5.518 0 00-.881-.1.565.565 0 01-.07-.312.468.468 0 01.07-.311q2.205.111 2.535.111zm10.9 0q.558 0 1.741-.107.183.579.971 2.47T192 84.24q1.095 2.6 1.7 4.119a.088.088 0 00.086.043.114.114 0 00.108-.086q3.135-8.09 3.287-8.465l.945-2.578q1.375.085 1.7.086 1.332 0 2.407-.086l.064.623a4.574 4.574 0 00-.876.123c-.383.083-.6.171-.649.264a2.156 2.156 0 00-.108.816c.015.436.034 1.209.06 2.314s.053 2.4.086 3.889.054 2.548.069 3.186a7.392 7.392 0 00.258 2.084q.065.192.618.279a6.1 6.1 0 00.886.086.657.657 0 01.075.333.934.934 0 01-.032.29q-2.149-.106-2.557-.108c-.294 0-.573.006-.838.016s-.565.027-.9.049-.616.036-.838.043a.479.479 0 01-.048-.264.937.937 0 01.048-.359 5.557 5.557 0 00.741-.071 2.087 2.087 0 00.656-.166c.128-.071.193-.372.193-.9 0-.1-.007-.307-.022-.617s-.021-.522-.021-.629q-.183-6.617-.279-9.2a.982.982 0 00-.048-.274c-.034-.1-.081-.156-.146-.156-.028 0-.064.05-.107.15q-.493 1.226-4.533 11.366a5.022 5.022 0 01-.387.65c-.187.275-.329.424-.43.445a.476.476 0 01-.193-.043l-5.242-12.546q-.043 2.063-.113 4.753t-.119 4.414l-.048 1.768a1.974 1.974 0 00.086.666q.087.2.709.3a7.049 7.049 0 00.988.092.481.481 0 01.076.311 1.035 1.035 0 01-.032.312c-.194-.007-.434-.022-.72-.043s-.548-.037-.784-.049-.5-.016-.774-.016c-.294 0-.567.006-.821.016s-.543.027-.865.049-.6.036-.828.043a.482.482 0 01-.047-.264.939.939 0 01.047-.359 6.561 6.561 0 00.984-.1c.418-.068.671-.163.757-.285a2.1 2.1 0 00.257-1.074q.3-8.025.3-10.27a2.854 2.854 0 00-.086-.859c-.036-.114-.249-.219-.639-.312a4.231 4.231 0 00-.864-.139c-.022 0-.033-.1-.033-.3a.785.785 0 01.033-.328q.375.021.756.049t.7.043c.203.01.455.016.747.016zm22 11.129q2.837-7.293 4.147-10.635a1.438 1.438 0 01.381-.392.892.892 0 01.435-.231.122.122 0 01.071.028.506.506 0 00.058.037l4.372 11.472q.538 1.386.548 1.418a1.077 1.077 0 00.672.532 2.556 2.556 0 00.789.2.588.588 0 01.064.316 1.43 1.43 0 01-.021.307q-2.149-.106-2.363-.108a20.974 20.974 0 00-1.676.065c-.315.022-.587.036-.816.043a.47.47 0 01-.071-.312.456.456 0 01.092-.311 3.781 3.781 0 00.66-.08 1.219 1.219 0 00.543-.2.418.418 0 00.086-.3 5.777 5.777 0 00-.365-1.338q-.364-1.046-.731-1.949l-.365-.9a.174.174 0 00-.129-.086q-.279-.021-2.127-.021-1.353 0-2.32.064l-.107.065q-.6 1.589-.967 2.621a4.852 4.852 0 00-.3 1.525.37.37 0 00.2.312 1.409 1.409 0 00.483.188c.19.039.353.066.489.08a3.046 3.046 0 00.311.022.561.561 0 01.059.285.958.958 0 01-.016.338c-.208-.007-.433-.022-.676-.043s-.469-.037-.677-.049-.451-.016-.731-.016-.552.006-.779.016-.473.027-.746.049-.53.036-.773.043c-.029-.028-.043-.122-.043-.279a.988.988 0 01.043-.344 2.983 2.983 0 00.709-.113 1.056 1.056 0 00.58-.3 8.94 8.94 0 001.007-2.019zm4.211-8.658l-1.976 5.242c0 .058.015.086.043.086q1.118.042 1.955.043.805 0 1.8-.064a.058.058 0 00.043-.022.154.154 0 00.022-.064v-.022zm23.109 6.037q4.469-.236 5.178-.258c.1 0 .15.065.15.194a2.705 2.705 0 01-.279 1.16q-.441.032-5.178.236c-.1 0-.151-.079-.151-.236a2.627 2.627 0 01.28-1.096zm24.43-8.508q.56 0 1.741-.107.183.579.971 2.47t1.886 4.5q1.1 2.6 1.7 4.119a.088.088 0 00.086.043.114.114 0 00.108-.086q3.135-8.09 3.287-8.465l.945-2.578q1.376.085 1.7.086 1.332 0 2.407-.086l.064.623a4.574 4.574 0 00-.876.123q-.575.124-.649.264a2.156 2.156 0 00-.108.816c.015.436.034 1.209.06 2.314s.053 2.4.086 3.889.054 2.548.069 3.186a7.392 7.392 0 00.258 2.084q.065.192.618.279a6.1 6.1 0 00.886.086.657.657 0 01.075.333.934.934 0 01-.032.29q-2.149-.106-2.557-.108c-.294 0-.573.006-.838.016s-.565.027-.9.049-.616.036-.838.043a.479.479 0 01-.048-.264.937.937 0 01.048-.359 5.557 5.557 0 00.741-.071 2.087 2.087 0 00.656-.166c.128-.071.193-.372.193-.9 0-.1-.007-.307-.022-.617s-.021-.522-.021-.629q-.183-6.617-.279-9.2a.982.982 0 00-.048-.274c-.033-.1-.081-.156-.146-.156-.028 0-.064.05-.107.15q-.493 1.226-4.533 11.366a5.022 5.022 0 01-.387.65c-.187.275-.329.424-.43.445a.476.476 0 01-.193-.043l-5.242-12.546q-.043 2.063-.113 4.753t-.119 4.414l-.048 1.768a1.974 1.974 0 00.086.666q.087.2.709.3a7.048 7.048 0 00.989.092.488.488 0 01.075.311 1.035 1.035 0 01-.032.312c-.194-.007-.434-.022-.72-.043s-.548-.037-.784-.049-.494-.016-.774-.016-.567.006-.821.016-.543.027-.865.049-.6.036-.828.043a.482.482 0 01-.047-.264.939.939 0 01.047-.359 6.561 6.561 0 00.984-.1c.418-.068.671-.163.757-.285a2.1 2.1 0 00.258-1.074q.3-8.025.3-10.27a2.854 2.854 0 00-.086-.859c-.036-.114-.249-.219-.639-.312a4.231 4.231 0 00-.864-.139c-.022 0-.033-.1-.033-.3a.785.785 0 01.033-.328c.251.014.5.03.756.049s.488.031.7.043.454.013.748.013zm21.997 11.129q2.835-7.293 4.146-10.635a1.47 1.47 0 01.381-.392.892.892 0 01.435-.231.122.122 0 01.071.028.506.506 0 00.058.037l4.372 11.472q.538 1.386.548 1.418a1.077 1.077 0 00.672.532 2.563 2.563 0 00.789.2.587.587 0 01.065.316 1.411 1.411 0 01-.022.307q-2.149-.106-2.363-.108a20.882 20.882 0 00-1.676.065c-.316.022-.587.036-.816.043a.47.47 0 01-.071-.312.456.456 0 01.092-.311 3.781 3.781 0 00.66-.08 1.219 1.219 0 00.543-.2.418.418 0 00.086-.3 5.777 5.777 0 00-.365-1.338q-.364-1.046-.73-1.949l-.366-.9a.174.174 0 00-.129-.086q-.279-.021-2.127-.021-1.353 0-2.32.064l-.107.065q-.6 1.589-.967 2.621a4.852 4.852 0 00-.3 1.525.372.372 0 00.2.312 1.409 1.409 0 00.483.188c.19.039.353.066.489.08a3.044 3.044 0 00.312.022.577.577 0 01.058.285.958.958 0 01-.016.338c-.207-.007-.433-.022-.676-.043s-.469-.037-.677-.049-.451-.016-.73-.016-.553.006-.78.016-.473.027-.746.049-.53.036-.773.043c-.029-.028-.043-.122-.043-.279a.988.988 0 01.043-.344 2.983 2.983 0 00.709-.113 1.053 1.053 0 00.58-.3 8.934 8.934 0 001.008-2.019zm4.21-8.658l-1.976 5.242c0 .058.015.086.043.086q1.118.042 1.955.043.805 0 1.805-.064a.062.062 0 00.043-.022.164.164 0 00.021-.064v-.022zm14.251-2.535q1.032 0 1.633-.043.539.837 3.867 4.892t4.555 5.764v-8.143a10 10 0 00-.032-.956 1.212 1.212 0 00-.183-.526c-.057-.1-.292-.2-.7-.29a4.647 4.647 0 00-.93-.14.591.591 0 01-.08-.322.686.686 0 01.038-.3q2.148.108 2.47.108a17.77 17.77 0 001.526-.065 15 15 0 01.773-.043.642.642 0 010 .623 5.309 5.309 0 00-.945.125c-.427.086-.672.187-.737.3a1.291 1.291 0 00-.177.516 8.261 8.261 0 00-.038.945v8.744q0 1.848.043 2.965-.021.129-.279.129a.8.8 0 01-.338-.118 1.3 1.3 0 01-.414-.376l-9.36-11.834v9.754a10 10 0 00.032.956 1.212 1.212 0 00.183.526c.057.1.288.2.693.29a4.49 4.49 0 00.918.14.585.585 0 01.08.322.7.7 0 01-.037.3q-2.149-.106-2.449-.108a17.77 17.77 0 00-1.526.065 15 15 0 01-.773.043.642.642 0 010-.623 5.309 5.309 0 00.939-.129c.427-.086.672-.187.737-.3a1.292 1.292 0 00.178-.516 8.569 8.569 0 00.037-.945v-9.324a8.569 8.569 0 00-.037-.945 1.292 1.292 0 00-.178-.516c-.065-.114-.31-.215-.737-.3a5.309 5.309 0 00-.939-.129.642.642 0 010-.623c.23.007.584.028 1.063.059s.852.048 1.124.048zm29.054 10.42a7.034 7.034 0 00-.107-1.59q-.043-.151-.591-.247a5.238 5.238 0 00-.87-.1.563.563 0 01-.07-.311.471.471 0 01.07-.312q2.2.106 2.513.107.2 0 2.407-.107a.471.471 0 01.07.312.572.572 0 01-.07.311 4.743 4.743 0 00-.832.1q-.522.1-.565.247a7.034 7.034 0 00-.107 1.59v1.525a1.389 1.389 0 00.107.522 1.257 1.257 0 01.108.337.234.234 0 01-.08.172 1.887 1.887 0 01-.35.215c-.43.23-.789.406-1.08.531a7.707 7.707 0 01-1.483.387 12.644 12.644 0 01-2.357.2 7.422 7.422 0 01-2.911-.569 6.787 6.787 0 01-2.278-1.525 7.168 7.168 0 01-1.987-4.953 7.671 7.671 0 012.041-5.214 6.956 6.956 0 012.31-1.6 7.213 7.213 0 012.911-.6 21.6 21.6 0 014.555.451q.493 2.966.494 3.18c.007.065-.043.127-.151.188a.643.643 0 01-.322.091.461.461 0 01-.258-.064q-.612-3.136-4.211-3.137a4.392 4.392 0 00-2.75.946 6.068 6.068 0 00-1.858 2.363 7.131 7.131 0 00-.634 2.943 9.2 9.2 0 00.215 1.992 7.367 7.367 0 00.672 1.843 6.343 6.343 0 001.1 1.526 4.811 4.811 0 001.575 1.042 5.192 5.192 0 002.019.386 5.839 5.839 0 002.6-.687.324.324 0 00.15-.322zm9.976.773q2.835-7.293 4.146-10.635a1.47 1.47 0 01.381-.392.889.889 0 01.436-.231.119.119 0 01.07.028.506.506 0 00.058.037l4.371 11.472q.537 1.386.547 1.418a1.077 1.077 0 00.672.532 2.569 2.569 0 00.789.2.587.587 0 01.065.316 1.411 1.411 0 01-.022.307q-2.148-.106-2.363-.108a20.921 20.921 0 00-1.676.065c-.316.022-.587.036-.816.043a.471.471 0 01-.07-.312.451.451 0 01.091-.311 3.781 3.781 0 00.66-.08 1.23 1.23 0 00.544-.2.423.423 0 00.085-.3 5.777 5.777 0 00-.365-1.338q-.364-1.046-.73-1.949l-.365-.9a.178.178 0 00-.129-.086q-.281-.021-2.127-.021-1.355 0-2.321.064l-.107.065q-.6 1.589-.967 2.621a4.852 4.852 0 00-.3 1.525.371.371 0 00.2.312 1.4 1.4 0 00.482.188c.19.039.353.066.489.08a3.044 3.044 0 00.312.022.565.565 0 01.058.285.99.99 0 01-.015.338c-.208-.007-.434-.022-.677-.043s-.469-.037-.677-.049-.451-.016-.73-.016-.553.006-.78.016-.473.027-.746.049-.53.036-.773.043a.512.512 0 01-.043-.279 1.013 1.013 0 01.043-.344 2.976 2.976 0 00.709-.113 1.053 1.053 0 00.58-.3 8.892 8.892 0 001.011-2.019zm4.211-8.658l-1.977 5.242c0 .058.015.086.043.086q1.118.042 1.955.043.805 0 1.805-.064a.06.06 0 00.043-.022.164.164 0 00.021-.064v-.022zm23.625 8.658q2.835-7.293 4.146-10.635a1.47 1.47 0 01.381-.392.892.892 0 01.435-.231.122.122 0 01.071.028.506.506 0 00.058.037l4.373 11.472q.537 1.386.547 1.418a1.077 1.077 0 00.672.532 2.563 2.563 0 00.789.2.587.587 0 01.065.316 1.411 1.411 0 01-.022.307q-2.148-.106-2.363-.108a20.921 20.921 0 00-1.676.065c-.316.022-.587.036-.816.043a.471.471 0 01-.07-.312.451.451 0 01.091-.311 3.781 3.781 0 00.66-.08 1.214 1.214 0 00.543-.2.418.418 0 00.086-.3 5.777 5.777 0 00-.365-1.338q-.364-1.046-.73-1.949l-.366-.9a.173.173 0 00-.129-.086q-.279-.021-2.126-.021-1.355 0-2.321.064l-.107.065q-.6 1.589-.967 2.621a4.852 4.852 0 00-.3 1.525.372.372 0 00.2.312 1.409 1.409 0 00.483.188c.19.039.353.066.489.08a3.044 3.044 0 00.312.022.565.565 0 01.058.285.99.99 0 01-.015.338c-.208-.007-.434-.022-.677-.043s-.469-.037-.677-.049-.451-.016-.73-.016-.553.006-.78.016-.473.027-.746.049-.53.036-.773.043a.512.512 0 01-.043-.279 1.013 1.013 0 01.043-.344 2.983 2.983 0 00.709-.113 1.053 1.053 0 00.58-.3 8.892 8.892 0 001.008-2.019zm4.211-8.658l-1.977 5.242c0 .058.015.086.043.086q1.118.042 1.955.043.805 0 1.805-.064a.062.062 0 00.043-.022.164.164 0 00.021-.064v-.022zm17.731-2.514a4.926 4.926 0 011.51.242 5.247 5.247 0 011.406.693 3.42 3.42 0 011.053 1.177 3.14 3.14 0 01-.494 3.738 4.718 4.718 0 01-2.036 1.412 56.383 56.383 0 003.47 5.049 3.31 3.31 0 001.027.929 3.467 3.467 0 001.4.36.568.568 0 01.038.338 1.046 1.046 0 01-.06.285 10.151 10.151 0 01-2.83-.26 3.133 3.133 0 01-1.053-.58 2.789 2.789 0 01-.344-.365q-.281-.377-1.38-2.009t-2.036-3.083a.718.718 0 00-.644-.258H388.3v4a7.034 7.034 0 00.107 1.59q.043.151.6.247a5.425 5.425 0 00.881.1.562.562 0 01.069.311.466.466 0 01-.069.312q-2.2-.106-2.514-.108-.333 0-2.535.108a.466.466 0 01-.069-.312.553.553 0 01.069-.311 5.425 5.425 0 00.881-.1c.372-.064.573-.146.6-.247a8.37 8.37 0 00.108-1.59l-.011-9.174a6.939 6.939 0 00-.108-1.589c-.028-.1-.229-.183-.6-.248a5.518 5.518 0 00-.881-.1.574.574 0 01-.07-.312.468.468 0 01.07-.311q2.2.106 2.535.107c.243 0 .7-.007 1.364-.021s1.231-.02 1.689-.02zm2.363 3.91a3.327 3.327 0 00-.8-2.357 3.262 3.262 0 00-2.507-.865q-.978 0-1.074.215a6.411 6.411 0 00-.108 1.611l.011 4.49h1.149a3.457 3.457 0 002.326-.865 2.806 2.806 0 001.003-2.229zm19.3-3.953a2.871 2.871 0 00.666-.107 3.039 3.039 0 00.623-.215.428.428 0 01.408-.043q.258 2.245.559 3.695a.49.49 0 01-.408.151.346.346 0 01-.3-.108 4.73 4.73 0 00-.763-1.906 1.564 1.564 0 00-1.3-.715h-2.729V89a7.034 7.034 0 00.107 1.59q.043.151.6.247a5.425 5.425 0 00.881.1.569.569 0 01.07.311.471.471 0 01-.07.312q-2.2-.106-2.514-.108-.332 0-2.535.108a.471.471 0 01-.07-.312.569.569 0 01.07-.311 5.425 5.425 0 00.881-.1c.372-.064.573-.146.6-.247a6.95 6.95 0 00.108-1.59V78.046h-2.772a1.564 1.564 0 00-1.3.715 4.73 4.73 0 00-.763 1.906.347.347 0 01-.3.108.49.49 0 01-.408-.151q.3-1.449.558-3.695a.584.584 0 01.5.064 2.749 2.749 0 00.58.2 2.617 2.617 0 00.623.1zm10.008.086q.312 0 2.514-.107a.469.469 0 01.069.311.566.566 0 01-.069.312 5.518 5.518 0 00-.881.1c-.372.065-.573.147-.6.248a7.023 7.023 0 00-.107 1.589V89a7.034 7.034 0 00.107 1.59q.043.151.6.247a5.425 5.425 0 00.881.1.562.562 0 01.069.311.472.472 0 01-.069.312q-2.2-.106-2.514-.108-.333 0-2.535.108a.465.465 0 01-.07-.312.561.561 0 01.07-.311 5.425 5.425 0 00.881-.1c.372-.064.573-.146.6-.247a7.012 7.012 0 00.108-1.59v-9.171a7 7 0 00-.108-1.589c-.028-.1-.229-.183-.6-.248a5.518 5.518 0 00-.881-.1.565.565 0 01-.07-.312.462.462 0 01.07-.311q2.202.111 2.535.111zm13.013-.193a6.683 6.683 0 01.886.054 5.632 5.632 0 01.682.124c.179.045.436.114.773.2s.638.163.9.22q.139.934.3 3.051c.006.065-.044.12-.151.166a.753.753 0 01-.3.07.321.321 0 01-.236-.085 3.6 3.6 0 00-.183-.731 3.884 3.884 0 00-.408-.816 4.571 4.571 0 00-.606-.758 2.769 2.769 0 00-.812-.553 2.389 2.389 0 00-1-.215 2.6 2.6 0 00-1.1.221 1.788 1.788 0 00-.736.585 2.679 2.679 0 00-.5 1.579 2.4 2.4 0 00.076.6 2.5 2.5 0 00.188.515 2 2 0 00.322.457c.139.154.267.284.381.392a4.281 4.281 0 00.473.37 14.127 14.127 0 001.037.666c.234.139.409.249.531.328s.3.187.559.344.467.286.629.387.365.238.611.414a6.024 6.024 0 011.123.988 2.927 2.927 0 01.709 1.256 2.738 2.738 0 01.107.758 3.51 3.51 0 01-.376 1.605 3.735 3.735 0 01-1 1.252 4.792 4.792 0 01-1.44.789 4.968 4.968 0 01-1.67.285 8.6 8.6 0 01-1.09-.075c-.39-.05-.715-.1-.972-.15s-.586-.122-.983-.215-.672-.154-.822-.183c-.114-.565-.219-1.219-.311-1.961s-.14-1.2-.14-1.369a.78.78 0 01.558-.258.214.214 0 01.237.194 5.106 5.106 0 00.187.66 5.567 5.567 0 00.4.844 4.162 4.162 0 00.649.87 3.112 3.112 0 00.983.644 3.311 3.311 0 001.343.269 2.568 2.568 0 001.837-.7 2.521 2.521 0 00.741-1.918 2.824 2.824 0 00-.064-.613 2.472 2.472 0 00-.166-.5 1.742 1.742 0 00-.291-.423 3.712 3.712 0 00-.349-.35 3.939 3.939 0 00-.434-.316c-.184-.119-.341-.215-.473-.291s-.312-.173-.537-.3-.407-.222-.543-.3q-.452-.269-.574-.338t-.554-.339q-.429-.268-.585-.391l-.516-.4a3.1 3.1 0 01-.51-.468q-.151-.187-.387-.488a2.226 2.226 0 01-.339-.569 5.812 5.812 0 01-.187-.607 2.776 2.776 0 01-.086-.693 3.4 3.4 0 01.607-1.977 3.957 3.957 0 011.562-1.342 4.634 4.634 0 012.04-.465zm20.054.107a2.871 2.871 0 00.666-.107 3 3 0 00.623-.215.43.43 0 01.409-.043q.258 2.245.558 3.695a.49.49 0 01-.408.151.347.347 0 01-.3-.108 4.744 4.744 0 00-.762-1.906 1.567 1.567 0 00-1.3-.715h-2.73V89a6.95 6.95 0 00.108 1.59c.028.1.229.183.6.247a5.425 5.425 0 00.881.1.569.569 0 01.07.311.471.471 0 01-.07.312q-2.2-.106-2.514-.108-.332 0-2.535.108a.471.471 0 01-.07-.312.569.569 0 01.07-.311 5.425 5.425 0 00.881-.1q.558-.1.6-.247a7.034 7.034 0 00.107-1.59V78.046h-2.768a1.565 1.565 0 00-1.3.715 4.73 4.73 0 00-.763 1.906.346.346 0 01-.3.108.49.49 0 01-.408-.151q.3-1.449.559-3.695a.582.582 0 01.494.064 2.749 2.749 0 00.58.2 2.617 2.617 0 00.623.1zM17.335 11.369a.842.842 0 01.326.653.494.494 0 01-.559.559h-6.291v3.635q4.427 2.331 5.778 5.079a3.318 3.318 0 01.373 1.491q0 1.632-1.118 2-.933.327-1.491-1.025a18.991 18.991 0 00-3.542-6.2v6.337q0 4.148.07 11.114t.069 6.594q0 .372-.6.7a3.234 3.234 0 01-1.538.326q-.98 0-.979-.7 0 .463.21-6.851t.21-11.229v-3.675A45.053 45.053 0 01.792 32.991c-.466.063-.731-.124-.792-.558a63.291 63.291 0 007.922-19.852H3.541q-.6 0-2.47.234L.7 10.764a10.962 10.962 0 002.842.373h4.706V3.308a4.73 4.73 0 00-.326-2.19C7.8.932 7.782.777 7.875.652a.51.51 0 01.466-.14Q10.3.839 12.4 1.4a.483.483 0 01.372.559.517.517 0 01-.512.512c-.964.064-1.445.4-1.445 1.025v7.643H12.3a.7.7 0 00.513-.187l1.444-1.538a.592.592 0 01.886-.046 21.857 21.857 0 012.192 2.001zM43.058 4.8q.6.559-.141.933-.466.232-1.351.652-.374.139-.373.792v12.534q0 4.8.14 11.37t.14 6.105q0 4.332-4.659 5.452a5.479 5.479 0 00-1.469-2.68 6.418 6.418 0 00-3.145-1.094q-.42-.607.186-.933 3.681.279 4.8.28 1.257 0 1.258-1.212V5.591H21.016v35.975q0 1.072-2.144 1.072-.931 0-.932-.746 0 1.119.187-12.278t.187-20.294q0-5.313-.513-6.478a.408.408 0 01.093-.513q.186-.185.512 0 1.818 1.026 3.262 1.865h15.891a.827.827 0 00.605-.187l1.4-1.444a.65.65 0 01.979-.047q1.21 1.024 2.515 2.284zm-6.2 6.664a.9.9 0 01.281.653.454.454 0 01-.513.512H25.443a21.056 21.056 0 00-2.47.28l-.372-2.05a10.95 10.95 0 002.842.372h6.384a.693.693 0 00.513-.187l1.444-1.584a.592.592 0 01.886-.047q1.071.932 2.189 2.05zm-.7 7.27q.56.558-.185.931a6.742 6.742 0 00-.979.56c-.125.093-.186.326-.186.7q0 2.191.116 6.711t.116 4.333c0 .249-.226.483-.676.7a3.32 3.32 0 01-1.468.326q-.837 0-.838-.745v-1.868H27.12v3.542q0 .325-.652.629a3.285 3.285 0 01-1.4.3q-.839 0-.839-.746 0 .234.117-4.614t.116-7.967a14.739 14.739 0 00-.372-4.381.427.427 0 01.093-.535.379.379 0 01.512-.024q1.071.606 2.936 1.631h3.774a.831.831 0 00.607-.187q.324-.419 1.024-1.165a.624.624 0 01.933 0q.839.702 2.191 1.868zm-4.1.884H27.12v9.368h4.94zm74.281 2.563a1.058 1.058 0 01.279.7c0 .372-.2.559-.6.559h-29.4v3.82h23.813a.724.724 0 00.535-.21c.141-.14.613-.629 1.422-1.468a.623.623 0 01.932 0q2 1.539 2.842 2.284.606.606-.233 1.025-.466.234-1.351.652a1.019 1.019 0 00-.652.886q-.559 6.711-1.864 8.993-1.446 2.562-5.452 3.216a6 6 0 00-1.421-2.61A6.565 6.565 0 0092.22 39c-.249-.4-.187-.715.185-.932a47.36 47.36 0 004.987.373q1.91 0 2.656-2.657a49.372 49.372 0 00.931-7.129H81.5v6.664h7.176v-3.03a4.738 4.738 0 00-.326-2.189q-.186-.281 0-.466a.368.368 0 01.465-.141q3.03.515 4.521.933a.454.454 0 01.372.559.461.461 0 01-.512.466q-1.446.139-1.445 1.072t.117 2.959q.115 2.026.116 2.12 0 .419-.746.769a3.9 3.9 0 01-1.676.349q-.886 0-.886-.7v-1.3H70.69v4.007c0 .28-.249.543-.745.792a3.917 3.917 0 01-1.771.373.741.741 0 01-.838-.839q0-.139.14-3.751t.139-5.429a3.885 3.885 0 00-.326-1.91q-.187-.279 0-.467a.459.459 0 01.466-.139q2.609.466 4.52.978a.455.455 0 01.373.56.412.412 0 01-.466.466q-1.491.14-1.492 1.072v2.889h7.783v-6.664h-1.865v1.025q0 .42-.7.769a3.719 3.719 0 01-1.678.349q-.933 0-.932-.745 0-.045.094-2.936.091-3.447.139-6.8.046-4.938.047-9.879a15.555 15.555 0 00-.513-5.079.4.4 0 01.093-.513.445.445 0 01.513-.047q1.3.747 3.5 1.957h4.474a20.22 20.22 0 001.3-4.985 6.761 6.761 0 01.14-1.725.611.611 0 01.466 0Q86.813 1.492 87.792 2a.5.5 0 01.28.653.472.472 0 01-.606.373 1.25 1.25 0 00-1.444.559 31.89 31.89 0 01-2.749 3.168H93.71a.693.693 0 00.513-.185c.31-.4.746-.916 1.3-1.538q.327-.42.886-.047a26.411 26.411 0 012.936 2.283q.559.515-.093.839-.468.234-1.305.7a.8.8 0 00-.373.792q0 2.7.187 6.175t.186 3.331q0 .373-.815.816a3.612 3.612 0 01-1.748.443q-.839 0-.839-.7V18.22H76.608v3.821h23.906a.694.694 0 00.512-.186q.746-.84 1.771-2.051a.565.565 0 01.839 0 20.476 20.476 0 012.703 2.377zM94.549 11.7V8.155H76.608V11.7zm0 5.126v-3.732H76.608v3.728zm63.793 4.982q-1.305 14.819-15.611 19.758a.774.774 0 01-.465-1.165 23.173 23.173 0 008.014-5.918q3.681-4.612 4.334-12.582.139-1.584.14-2.936 0-8.712-5.219-8.714-2.564 0-4.591 2.82a8.765 8.765 0 00-1.84 5.754 19.366 19.366 0 001.351 5.918 2.95 2.95 0 01.326 1.212 2.1 2.1 0 01-.884 1.584 1.6 1.6 0 01-1.026.513q-.887 0-1.538-1.631a20.775 20.775 0 01-1.491-7.875 29.59 29.59 0 011.306-8.248q1.209-4.286 1.21-4.474a2.356 2.356 0 00-1.537-2.33q-.327-.7.327-.931a5.283 5.283 0 012.469.931 2.921 2.921 0 011.4 2.284 13.287 13.287 0 01-1.117 3.915 17.882 17.882 0 00-1.352 5.079 11.61 11.61 0 012.7-4.381 6.65 6.65 0 014.427-2.1 7.375 7.375 0 016.407 2.68q2.352 2.865 2.354 8.411 0 1.167-.094 2.426zm56.385 8.761q0 5.637-6.291 8.295a28.974 28.974 0 01-10.391 2.049.748.748 0 01-.145-1.213 20.9 20.9 0 009.087-2.935q4.054-2.562 4.055-6.2a6.5 6.5 0 00-1.562-4.381 5.021 5.021 0 00-3.984-1.817 7.249 7.249 0 00-4.893 2.1 12.117 12.117 0 00-2.7 3.5q-1.491 2.7-3.68 2.47-3.4-.327-3.4-5.08a46.832 46.832 0 01.746-6.011 46.046 46.046 0 00.745-6.943q0-.931-.045-1.725a3.416 3.416 0 012.187-3.778 14.24 14.24 0 014.381-.839q3.027-.231 3.028-2.144 0-1.582-2.189-3.215-.094-.744.558-.792a11.409 11.409 0 014.008 2.284q2.283 1.956 2.283 3.821a2.33 2.33 0 01-1.257 2.189 2.793 2.793 0 01-1.305.373 6.818 6.818 0 01-1.935-.605 7.6 7.6 0 00-2.912-.606q-4.568 0-4.566 2.516a14.883 14.883 0 00.14 1.678 15.088 15.088 0 01.139 1.678 37.41 37.41 0 01-.582 5.754 39.706 39.706 0 00-.583 4.451q0 2.422 1.444 2.423a3.106 3.106 0 001.772-.792q1.77-1.352 3.494-2.7a9.276 9.276 0 015.126-1.817 9.829 9.829 0 016.291 2.144 7.2 7.2 0 012.936 5.868zm67.573-28.1l-40.079 40.075-1.538-1.537L280.758.932zm35.41 8.761q-1.773 4.707-3.542 9.366-3.4 9.041-3.588 10.252a9.878 9.878 0 00-.047.978 15.737 15.737 0 00.933 4.707q1.162 3.543 1.211 3.775.418 2.049-2 2.33-2.1.231-2.1-1.352 0-.234.116-2.1t.118-3.122a14.263 14.263 0 00-.327-3.495 2.908 2.908 0 00-1.258-1.957 7.267 7.267 0 00-2.376-.653.611.611 0 01.139-.978q2.656.186 3.355-.793a73.672 73.672 0 004.847-9.273q2.935-6.291 3.634-8.061.698-.277.885.376zm-6.524 4.287a3.318 3.318 0 01.373 1.491 2.7 2.7 0 01-.373 1.352 1.175 1.175 0 01-1.072.652q-.606 0-1.072-1.025A15.867 15.867 0 00304.8 12.3a.584.584 0 01.559-.792q4.522 1.538 5.827 4.009zm3.821-11a3.046 3.046 0 01.605 1.817q0 1.818-1.258 1.818-.606 0-1.118-.886a15.127 15.127 0 00-5.265-5.126q-.187-.7.465-.839 4.8.799 6.571 3.219zm33.039 33.971a7.173 7.173 0 00-3.729 3.541 40.136 40.136 0 01-12.255-4.52q-6.662 4.01-17.662 5.129a.569.569 0 01-.047-.933q9.972-1.956 15.518-5.545a26.2 26.2 0 01-6.757-6.849h-3.868q-.6 0-2.47.232l-.372-2.05a10.962 10.962 0 002.842.373h17.429a.8.8 0 00.512-.187q.512-.418 1.4-1.211a.62.62 0 01.886 0 28.947 28.947 0 012.7 2.423.847.847 0 01.279.605q0 .608-.652.607h-1.118a1.566 1.566 0 00-1.4.7 22.7 22.7 0 01-5.079 5.267 40.1 40.1 0 0013.843 2.421zm-1.772-21.157q.606.56-.186.933-.374.14-1.118.512a.668.668 0 00-.373.652q0 .793.117 3.192t.116 2.493q0 .42-.723.816a3.007 3.007 0 01-1.467.4q-.885 0-.885-.746v-.793h-21.2v.839q0 .373-.629.722a3.076 3.076 0 01-1.515.349c-.558 0-.839-.248-.839-.745q0-.139.094-2.889t.093-4.333a10.385 10.385 0 00-.326-2.983.483.483 0 01.094-.512.5.5 0 01.512 0q1.024.465 3.029 1.584h19.9a.689.689 0 00.512-.187l1.3-1.4a.618.618 0 01.886 0 26.43 26.43 0 012.608 2.099zm-20.41 6.058V18.22h-5.312v5.172zm16.217-19.8q.7.6-1.305 1.491c-.249.093-.373.342-.373.745q0 .934.117 4.451t.117 3.751c0 .217-.241.443-.723.675a3.33 3.33 0 01-1.468.35q-.839 0-.839-.7v-.839h-13.281v.606q0 .373-.629.746a2.913 2.913 0 01-1.514.373c-.559 0-.838-.248-.838-.747q0 .049.116-3.051t.116-5.289A12.09 12.09 0 00321.111 2a.409.409 0 01.071-.512.469.469 0 01.535-.046q2 1.025 3.122 1.676h11.883a.692.692 0 00.512-.185q.42-.513 1.259-1.4.325-.418.885-.046a25.986 25.986 0 012.703 2.101zm-4.474 3.867V4.52h-13.281v2.935zm0 4.661V8.854h-13.281v3.262zm-.931 17.2h-12.023A21.7 21.7 0 00331.6 34.9a21.222 21.222 0 005.076-5.589zm-2.983-5.919V18.22h-5.08v5.172zm8.062 0V18.22h-5.313v5.172zm64.073-19.112a.985.985 0 01.326.7c0 .342-.186.512-.559.512H387.1v7.456h4.472a.693.693 0 00.513-.186q.653-.652 1.678-1.725a.6.6 0 01.886.047 27.5 27.5 0 012.7 2.423c.373.373.326.716-.14 1.025a9.11 9.11 0 01-1.258.607q-.374.139-.373.838v2.424q0 3.96.234 10.111t.232 5.732q0 .513-.862.838a4.661 4.661 0 01-1.654.326q-.885 0-.885-.7v-2.7h-14.076v3.355q0 .373-.768.676a4 4 0 01-1.468.3q-.933 0-.932-.839 0 .792.186-5.312t.187-12.442q0-5.126-.513-6.291a.389.389 0 01.07-.489.35.35 0 01.489-.024q1.4.793 3.4 2h4.939V5.5h-15.61a24.854 24.854 0 00-2.517.234l-.372-2a11.314 11.314 0 002.842.366h30.9a.7.7 0 00.512-.187l2.144-2.143a.5.5 0 01.792-.047q1.816 1.492 2.98 2.563zm-.42 7.083a.5.5 0 01-.511.467q-1.494.139-1.492.979V17.8q0 6.9.256 15.541t.256 8.038q0 .42-.838.77a4.243 4.243 0 01-1.632.348c-.652 0-.978-.263-.978-.792v-2.283h-29.637v2.1q0 .42-.768.793a3.556 3.556 0 01-1.562.372q-.978 0-.978-.839 0 .466.186-6.594t.187-10.973v-11.6a4.189 4.189 0 00-.373-2.189q-.187-.28 0-.466a.368.368 0 01.465-.141q2.1.373 4.428.933a.453.453 0 01.372.558c0 .281-.155.436-.466.467q-1.491.139-1.491 1.072v25.11h29.637V12.674a4.722 4.722 0 00-.326-2.189q-.186-.28 0-.466a.369.369 0 01.466-.141q2.05.373 4.427.933a.453.453 0 01.372.558zm-21.249 10.3v-7.317h-5.592v7.316zm0 8.948v-7.55h-5.592v7.55zm8.482-16.264H387.1v7.316h5.545zm0 16.264v-7.55H387.1v7.55zm74.091 5.083a8.43 8.43 0 00-4.473 3.122 25.082 25.082 0 01-8.388-7.317 35.529 35.529 0 01-6.757-16.822h-.885a40.36 40.36 0 01-3.868 2.89 29.056 29.056 0 014.8 7.036 20 20 0 012.191 8.621q0 4.846-2.61 7.269a8.764 8.764 0 01-6.245 2.144 5.2 5.2 0 00-1.071-2.54 8.219 8.219 0 00-2.936-1.515q-.279-.7.326-.931a20.457 20.457 0 005.639.978 3.627 3.627 0 003-1.561 6.309 6.309 0 001.189-3.938 28.381 28.381 0 00-.187-3.308 49.455 49.455 0 01-11 6.85 69 69 0 01-10.951 4.054.588.588 0 01-.233-.932 75.435 75.435 0 0011.137-5.5 48.483 48.483 0 0010.392-7.922 22.78 22.78 0 00-1.026-2.888q-7.922 6.336-20.27 10.205a.609.609 0 01-.28-.932q12.255-5.4 19.106-11.883a25.154 25.154 0 00-2-2.7 57.16 57.16 0 01-15.331 6.384.569.569 0 01-.279-.885 60.6 60.6 0 0015.843-8.994h-7.735a22.472 22.472 0 00-2.517.28l-.373-2.05a11.328 11.328 0 002.843.373h18.919a.694.694 0 00.513-.187q.7-.84 1.77-2 .327-.418.839-.047a20.7 20.7 0 012.656 2.424.946.946 0 01.327.652c0 .372-.2.559-.606.559h-9.739a28.781 28.781 0 003.122 9.553 25.915 25.915 0 006.71-6.2 6.05 6.05 0 01.886-1.724.444.444 0 01.465.094q1.584 1.257 3.542 3.075a.453.453 0 01.093.652.516.516 0 01-.7.234 2.963 2.963 0 00-.932-.327 1.934 1.934 0 00-1.071.513 44.953 44.953 0 01-8.389 4.706q4.666 7.494 14.544 10.435zm-.558-26.66a.955.955 0 01-1.072.233 3.046 3.046 0 00-2.33.373q-2.284 1.3-4.427 2.8-.745.047-.745-.653a45.239 45.239 0 002.143-4.147h-28.752q-.513 7.782-4.566 8.248a2.247 2.247 0 01-1.562-.326 1.273 1.273 0 01-.582-1.073 1.644 1.644 0 01.839-1.4 9.979 9.979 0 003.191-3.868 16.711 16.711 0 001.7-5.405.6.6 0 01.978 0 21.076 21.076 0 01.047 2.423h12.628V3.308a4.2 4.2 0 00-.373-2.19.421.421 0 010-.466.464.464 0 01.467-.14 37.914 37.914 0 014.659.979.454.454 0 01.373.559.5.5 0 01-.513.466q-1.491.141-1.491 1.072v2.656h12.724a.87.87 0 00.559-.186q.7-.559 1.771-1.491a.648.648 0 01.932.046q2.376 2.283 3.4 3.5a.624.624 0 01.002.927z" fill="#5f648c" data-name="レイヤー 2"/></svg>