<svg xmlns="http://www.w3.org/2000/svg" width="441.737" height="10.875"><path d="M1.945.4q.227 0 1.828-.075a.4.4 0 01.051.25.478.478 0 01-.051.25A4.1 4.1 0 003.132.9q-.406.07-.437.18a4.279 4.279 0 00-.078 1.156v3.11a15.275 15.275 0 001.765-1.583q.906-.9 1.266-1.282t.719-.843a.883.883 0 00.218-.485.26.26 0 00-.023-.113.224.224 0 00-.07-.086.749.749 0 00-.1-.062.483.483 0 00-.127-.043 1.291 1.291 0 00-.129-.024C6.1.82 6.051.816 6 .813s-.093 0-.122 0H5.71a.476.476 0 01-.039-.226.782.782 0 01.039-.262c.12.005.306.017.559.035s.479.033.68.043.386.016.558.016c.271 0 .6-.015.977-.043S9.1.33 9.2.325A.778.778 0 019.222.6c0 .138-.022.207-.058.207l-.125.01c-.084.005-.16.012-.227.02a2.472 2.472 0 00-.273.051 2.037 2.037 0 00-.317.1 2.322 2.322 0 00-.312.16 1.24 1.24 0 00-.293.243q-.477.509-.969 1.016t-.8.809l-.918.883-.93.882a.107.107 0 000 .125l.437.512c.224.263.372.437.445.52l.411.472.425.492c.083.1.214.246.391.446s.313.352.41.457l.371.4q.227.246.391.414a28.4 28.4 0 00.726.723 2.791 2.791 0 00.723.492 2.893 2.893 0 00.98.227.408.408 0 01.028.246.822.822 0 01-.043.207 8.657 8.657 0 01-2.219-.172 2.836 2.836 0 01-1.062-.672Q5.983 9.45 2.9 5.919c-.021-.031-.068-.047-.141-.047a.317.317 0 00-.14.031v2.906A5.1 5.1 0 002.7 9.966q.03.11.437.179a4 4 0 00.641.071.478.478 0 01.051.25.4.4 0 01-.051.25q-1.6-.078-1.828-.078-.243 0-1.844.078a.389.389 0 01-.051-.25.478.478 0 01.051-.25 4 4 0 00.641-.071q.405-.069.437-.179a5.1 5.1 0 00.078-1.157V2.231a5.09 5.09 0 00-.078-1.156Q1.148.966.742.9A4.1 4.1 0 00.1.825a.478.478 0 01-.05-.25.389.389 0 01.05-.25Q1.7.4 1.945.4zM17.65.4q.227 0 1.829-.078a.34.34 0 01.05.227.42.42 0 01-.05.226 3.976 3.976 0 00-.641.071q-.407.069-.438.179a5.09 5.09 0 00-.078 1.156v6.675a5.1 5.1 0 00.078 1.157c.021.073.167.132.438.179a3.976 3.976 0 00.641.071.42.42 0 01.05.226.34.34 0 01-.05.227q-1.6-.078-1.829-.078t-1.843.078a.334.334 0 01-.051-.227.4.4 0 01.051-.226 3.989 3.989 0 00.64-.071c.271-.047.417-.106.438-.179a5.1 5.1 0 00.078-1.157V2.184a5.09 5.09 0 00-.078-1.156q-.032-.11-.438-.179a3.989 3.989 0 00-.64-.071.4.4 0 01-.051-.226.334.334 0 01.051-.227Q17.408.4 17.65.4zM30.364.372a3.6 3.6 0 011.1.176 3.814 3.814 0 011.024.5 2.509 2.509 0 01.766.855 2.369 2.369 0 01.293 1.168 2.34 2.34 0 01-.653 1.551 3.428 3.428 0 01-1.48 1.027 40.817 40.817 0 002.523 3.672 2.423 2.423 0 00.743.679 2.544 2.544 0 001.02.262.417.417 0 01.027.246.778.778 0 01-.043.207 7.383 7.383 0 01-2.062-.188 2.264 2.264 0 01-.766-.422 2.04 2.04 0 01-.25-.265q-.2-.274-1-1.461t-1.48-2.242a.525.525 0 00-.469-.188h-.828v2.907a5.1 5.1 0 00.078 1.157c.02.073.166.132.437.179a4 4 0 00.641.071.418.418 0 01.051.226.345.345 0 01-.051.227q-1.6-.078-1.828-.078-.243 0-1.844.078a.34.34 0 01-.051-.227.418.418 0 01.051-.226 4 4 0 00.641-.071c.27-.047.416-.106.437-.179a6.047 6.047 0 00.078-1.157l-.007-6.672a5.068 5.068 0 00-.079-1.156q-.032-.11-.437-.179A3.988 3.988 0 0026.3.778a.411.411 0 01-.05-.226.34.34 0 01.05-.227Q27.9.4 28.145.4q.265 0 .992-.015c.485-.008.893-.013 1.227-.013zm1.719 2.844A2.431 2.431 0 0031.5 1.5a2.38 2.38 0 00-1.824-.628q-.711 0-.781.156a4.7 4.7 0 00-.078 1.172l.008 3.266h.836a2.516 2.516 0 001.691-.629 2.041 2.041 0 00.731-1.621zM43.3.4q.227 0 1.828-.078a.345.345 0 01.051.227.418.418 0 01-.051.226 4 4 0 00-.641.071q-.406.069-.437.179a5.09 5.09 0 00-.078 1.156v6.675a5.1 5.1 0 00.078 1.157c.02.073.166.132.437.179a4 4 0 00.641.071.418.418 0 01.051.226.345.345 0 01-.051.227q-1.6-.078-1.828-.078-.243 0-1.844.078a.34.34 0 01-.051-.227.418.418 0 01.051-.226 4 4 0 00.641-.071c.27-.047.416-.106.437-.179a5.1 5.1 0 00.078-1.157V2.184a5.09 5.09 0 00-.078-1.156q-.034-.11-.441-.179a4 4 0 00-.641-.071.418.418 0 01-.052-.226.34.34 0 01.051-.227Q43.054.4 43.3.4zM55.322.263a4.834 4.834 0 01.644.037 3.9 3.9 0 01.5.09l.563.148c.245.065.463.118.656.16q.1.68.219 2.219c.005.047-.031.087-.109.121a.558.558 0 01-.219.051.23.23 0 01-.172-.063 2.623 2.623 0 00-.133-.531 2.913 2.913 0 00-.3-.594 3.311 3.311 0 00-.441-.551 2.006 2.006 0 00-.59-.4 1.74 1.74 0 00-.727-.156 1.9 1.9 0 00-.8.16 1.3 1.3 0 00-.535.426 1.947 1.947 0 00-.368 1.148 1.713 1.713 0 00.055.438 1.89 1.89 0 00.137.375 1.525 1.525 0 00.234.332c.1.112.194.207.277.285a3.039 3.039 0 00.344.269q.219.153.36.243c.093.059.225.14.394.242s.3.181.387.238.219.136.406.25l.457.281c.117.073.266.173.445.3a5.349 5.349 0 01.442.344 5.078 5.078 0 01.375.375 2.352 2.352 0 01.32.433 2.321 2.321 0 01.2.481 1.973 1.973 0 01.079.551 2.567 2.567 0 01-.274 1.168 2.726 2.726 0 01-.73.91 3.516 3.516 0 01-1.047.574 3.65 3.65 0 01-1.215.207 6.153 6.153 0 01-.793-.055 11.427 11.427 0 01-1.422-.265 18.115 18.115 0 00-.6-.133q-.125-.616-.226-1.426t-.1-1a.568.568 0 01.407-.187.153.153 0 01.171.14 3.743 3.743 0 00.137.481 3.971 3.971 0 00.287.621 3 3 0 00.473.633 2.264 2.264 0 00.715.469 2.423 2.423 0 00.976.2 1.866 1.866 0 001.336-.512 1.828 1.828 0 00.539-1.394 2.007 2.007 0 00-.047-.446 1.717 1.717 0 00-.121-.367 1.312 1.312 0 00-.211-.308 2.635 2.635 0 00-.254-.254 2.821 2.821 0 00-.316-.231c-.133-.086-.248-.156-.344-.211s-.226-.126-.39-.215-.3-.161-.395-.218q-.328-.2-.418-.246t-.4-.247a4.861 4.861 0 01-.426-.285l-.375-.293a2.265 2.265 0 01-.371-.34 25.85 25.85 0 01-.281-.355 1.592 1.592 0 01-.246-.414 3.8 3.8 0 01-.137-.441 2.035 2.035 0 01-.063-.5 2.47 2.47 0 01.439-1.45A2.873 2.873 0 0153.837.6a3.369 3.369 0 011.485-.337zM67.083.4q.225 0 1.828-.078a.39.39 0 01.05.25.47.47 0 01-.05.25A4.083 4.083 0 0068.27.9q-.407.07-.437.18a5.007 5.007 0 00-.079 1.156v2.73l.032.047q2.3.046 2.453.046.28 0 2.39-.046a.092.092 0 00.032-.063V2.231a5.153 5.153 0 00-.078-1.156Q72.552.966 72.145.9A4.083 4.083 0 0071.5.825a.47.47 0 01-.05-.25.39.39 0 01.05-.25Q73.106.4 73.348.4q.227 0 1.828-.078a.389.389 0 01.051.25.468.468 0 01-.051.25 4.073 4.073 0 00-.64.07q-.406.07-.438.18a5.09 5.09 0 00-.078 1.156v6.581a5.1 5.1 0 00.08 1.157q.032.11.438.179a3.978 3.978 0 00.64.071.468.468 0 01.051.25.389.389 0 01-.051.25q-1.6-.078-1.828-.078-.242 0-1.844.078a.39.39 0 01-.05-.25.47.47 0 01.05-.25 3.988 3.988 0 00.641-.071q.407-.069.438-.179a5.158 5.158 0 00.078-1.157V5.716l-.032-.063-1.058-.035q-.871-.027-1.332-.027a14.626 14.626 0 00-2.469.093l-.016.032v3.093a5.012 5.012 0 00.079 1.157q.03.11.437.179a3.988 3.988 0 00.641.071.47.47 0 01.05.25.39.39 0 01-.05.25q-1.6-.078-1.828-.078-.243 0-1.844.078a.382.382 0 01-.051-.25.468.468 0 01.051-.25 3.989 3.989 0 00.64-.071q.407-.069.438-.179a5.1 5.1 0 00.081-1.157V2.231a5.09 5.09 0 00-.078-1.156Q66.286.966 65.879.9a4.085 4.085 0 00-.64-.07.468.468 0 01-.051-.25.382.382 0 01.051-.25q1.6.07 1.844.07zm16.783 0q.227 0 1.828-.078a.334.334 0 01.051.227.409.409 0 01-.051.226 3.978 3.978 0 00-.64.071q-.406.069-.438.179a5.09 5.09 0 00-.078 1.156v6.675a5.1 5.1 0 00.078 1.157c.021.073.167.132.438.179a3.978 3.978 0 00.64.071.409.409 0 01.051.226.334.334 0 01-.051.227q-1.6-.078-1.828-.078t-1.843.078a.334.334 0 01-.051-.227.4.4 0 01.051-.226 3.989 3.989 0 00.64-.071c.271-.047.417-.106.438-.179a5.158 5.158 0 00.078-1.157V2.184a5.153 5.153 0 00-.079-1.156q-.031-.11-.438-.179a3.989 3.989 0 00-.64-.071.4.4 0 01-.051-.226.334.334 0 01.051-.227Q83.624.4 83.866.4zm10.487 0a15.6 15.6 0 001.266-.078q.132.421.707 1.8t1.374 3.27q.8 1.893 1.234 3a.064.064 0 00.063.031.082.082 0 00.078-.063q2.28-5.883 2.39-6.156l.685-1.879q1 .063 1.234.063.969 0 1.75-.063l.047.453a3.381 3.381 0 00-.637.09c-.278.06-.436.124-.472.191a1.586 1.586 0 00-.078.594q.015.477.043 1.684t.062 2.828l.051 2.316a5.394 5.394 0 00.187 1.519c.032.094.181.161.45.2a4.38 4.38 0 00.644.063.479.479 0 01.055.242.656.656 0 01-.024.211q-1.563-.078-1.859-.078-.321 0-.609.011t-.657.035q-.368.024-.609.032a.344.344 0 01-.035-.192.681.681 0 01.035-.261 4.049 4.049 0 00.539-.051 1.556 1.556 0 00.477-.121q.139-.078.14-.657c0-.073 0-.222-.015-.449s-.016-.379-.016-.457q-.133-4.812-.2-6.687a.69.69 0 00-.035-.2c-.024-.076-.059-.114-.106-.114-.021 0-.047.036-.078.11q-.36.89-3.3 8.265a3.527 3.527 0 01-.281.473q-.2.3-.312.324a.364.364 0 01-.141-.031l-3.813-9.124q-.032 1.5-.082 3.457t-.086 3.211l-.035 1.285a1.416 1.416 0 00.063.484q.061.149.515.215a5.306 5.306 0 00.719.067.353.353 0 01.055.226.723.723 0 01-.024.227c-.14 0-.315-.016-.523-.032s-.4-.027-.57-.035-.36-.011-.563-.011-.413 0-.6.011-.4.02-.629.035-.435.027-.6.032a.344.344 0 01-.035-.192.681.681 0 01.035-.261 4.714 4.714 0 00.715-.075c.305-.049.488-.118.551-.207a1.521 1.521 0 00.187-.781q.219-5.836.219-7.469a2.087 2.087 0 00-.063-.625c-.026-.083-.181-.159-.464-.226a3.038 3.038 0 00-.629-.1c-.016 0-.024-.071-.024-.215a.571.571 0 01.024-.238l.55.035c.185.013.354.024.508.032s.338.006.552.006zm18.557 8.1q2.063-5.3 3.016-7.734a1.041 1.041 0 01.274-.289.644.644 0 01.317-.168.089.089 0 01.05.02.332.332 0 00.043.027l3.18 8.344q.39 1.008.4 1.031a.787.787 0 00.489.387 1.842 1.842 0 00.574.145.43.43 0 01.047.23 1.089 1.089 0 01-.016.223q-1.563-.078-1.719-.078c-.213 0-.413 0-.6.011s-.392.02-.621.035-.428.027-.594.032a.334.334 0 01-.051-.227.33.33 0 01.067-.226 2.673 2.673 0 00.48-.059.878.878 0 00.395-.145.305.305 0 00.062-.218 4.2 4.2 0 00-.266-.973q-.266-.762-.531-1.418l-.265-.656a.128.128 0 00-.094-.063q-.2-.015-1.547-.015-.984 0-1.688.047l-.078.046q-.438 1.157-.7 1.907a3.514 3.514 0 00-.219 1.109.269.269 0 00.145.227 1.011 1.011 0 00.352.136c.137.029.256.048.355.059a2.179 2.179 0 00.227.016.426.426 0 01.043.207.767.767 0 01-.012.246c-.152 0-.316-.016-.492-.032s-.342-.027-.493-.035-.328-.011-.531-.011-.4 0-.566.011-.345.02-.543.035-.385.027-.563.032a.38.38 0 01-.031-.2.743.743 0 01.031-.25 2.227 2.227 0 00.516-.082.772.772 0 00.422-.215 6.48 6.48 0 00.735-1.469zm3.063-6.3l-1.438 3.813c0 .042.01.062.031.062q.813.032 1.422.031.587 0 1.313-.047a.043.043 0 00.031-.015.128.128 0 00.016-.044v-.019zM141.556.372a3.6 3.6 0 011.1.176 3.814 3.814 0 011.024.5 2.5 2.5 0 01.765.855 2.358 2.358 0 01.293 1.168 2.338 2.338 0 01-.652 1.551 3.428 3.428 0 01-1.48 1.027 40.61 40.61 0 002.523 3.672 2.412 2.412 0 00.746.676 2.544 2.544 0 001.02.262.417.417 0 01.027.246.778.778 0 01-.043.207 7.378 7.378 0 01-2.062-.188 2.264 2.264 0 01-.766-.422 2.04 2.04 0 01-.25-.265q-.2-.274-1-1.461t-1.48-2.242a.525.525 0 00-.469-.188h-.828v2.91a5.1 5.1 0 00.078 1.157c.02.073.166.132.437.179a4 4 0 00.641.071.418.418 0 01.051.226.345.345 0 01-.051.227q-1.6-.078-1.828-.078-.243 0-1.844.078a.334.334 0 01-.051-.227.418.418 0 01.051-.226 4 4 0 00.641-.071c.27-.047.416-.106.437-.179a6.047 6.047 0 00.078-1.157l-.008-6.672a5.09 5.09 0 00-.078-1.156q-.031-.11-.437-.179a4 4 0 00-.641-.071.418.418 0 01-.051-.226.345.345 0 01.051-.227q1.6.075 1.837.075.266 0 .992-.015c.485-.008.893-.013 1.227-.013zm1.718 2.844a2.426 2.426 0 00-.582-1.715 2.376 2.376 0 00-1.824-.629q-.711 0-.781.156a4.7 4.7 0 00-.078 1.172l.008 3.266h.836a2.516 2.516 0 001.691-.629 2.04 2.04 0 00.73-1.621zM154.488.4q.227 0 1.828-.078a.345.345 0 01.051.227.418.418 0 01-.051.226 4 4 0 00-.641.071q-.407.069-.437.179a5.09 5.09 0 00-.078 1.156v6.675a5.1 5.1 0 00.078 1.157c.02.073.166.132.437.179a4 4 0 00.641.071.418.418 0 01.051.226.345.345 0 01-.051.227q-1.6-.078-1.828-.078-.243 0-1.844.078a.334.334 0 01-.051-.227.418.418 0 01.051-.226 4 4 0 00.641-.071c.27-.047.416-.106.437-.179a5.1 5.1 0 00.078-1.157V2.184a5.09 5.09 0 00-.078-1.156q-.032-.11-.437-.179a4 4 0 00-.641-.071.418.418 0 01-.051-.226.334.334 0 01.051-.227q1.601.075 1.844.075zm11.174 8.456a3.012 3.012 0 00.094 1.125.662.662 0 00.348.133q.206.024.761.024h.891a5.051 5.051 0 001.008-.106 2.23 2.23 0 00.82-.316 2.815 2.815 0 00.984-1.578c.016-.063.089-.094.219-.094a.572.572 0 01.391.094q-.07.2-.235.648t-.261.723a9.986 9.986 0 00-.2.629 4.668 4.668 0 00-.145.593q-.805 0-2.523-.031t-2.805-.031q-.382 0-.977.023t-.882.024a.334.334 0 01-.051-.227.4.4 0 01.051-.226 3.989 3.989 0 00.64-.071c.271-.047.417-.106.438-.179a5.158 5.158 0 00.078-1.157V2.184a5.153 5.153 0 00-.078-1.156q-.031-.11-.438-.179a3.989 3.989 0 00-.64-.071.4.4 0 01-.05-.226.334.334 0 01.051-.227q1.6.078 1.843.078.226 0 1.828-.078a.334.334 0 01.051.227.409.409 0 01-.051.226 3.978 3.978 0 00-.64.071q-.406.069-.438.179a4.322 4.322 0 00-.078 1.156zm12.511-.356q2.063-5.3 3.016-7.734a1.026 1.026 0 01.277-.286.642.642 0 01.316-.168.089.089 0 01.051.02.276.276 0 00.043.027l3.18 8.344q.39 1.008.4 1.031a.788.788 0 00.488.387 1.846 1.846 0 00.575.145.43.43 0 01.047.23 1.089 1.089 0 01-.016.223q-1.563-.078-1.719-.078-.321 0-.6.011t-.621.035q-.344.024-.593.032a.334.334 0 01-.051-.227.325.325 0 01.066-.226 2.672 2.672 0 00.481-.059.867.867 0 00.394-.145.3.3 0 00.063-.218 4.2 4.2 0 00-.266-.973q-.266-.762-.531-1.418l-.266-.656a.125.125 0 00-.093-.063q-.2-.015-1.547-.015-.985 0-1.688.047l-.078.046q-.438 1.157-.7 1.907a3.514 3.514 0 00-.219 1.109.269.269 0 00.145.227 1.014 1.014 0 00.351.136c.138.029.257.048.356.059a2.164 2.164 0 00.226.016.414.414 0 01.043.207.746.746 0 01-.011.246c-.152 0-.316-.016-.493-.032s-.341-.027-.492-.035-.328-.011-.531-.011-.4 0-.567.011-.345.02-.542.035-.386.027-.563.032a.38.38 0 01-.031-.2.743.743 0 01.031-.25 2.235 2.235 0 00.516-.082.772.772 0 00.422-.215 6.523 6.523 0 00.731-1.472zm3.062-6.3L179.8 6.013c0 .042.01.062.031.062q.813.032 1.422.031.586 0 1.313-.047a.043.043 0 00.031-.015.122.122 0 00.013-.044v-.019zM218.008.247a4.951 4.951 0 011.953.4 5.125 5.125 0 011.625 1.082 5 5 0 011.106 1.683 5.564 5.564 0 01.41 2.137 5.27 5.27 0 01-.41 2.051 5.325 5.325 0 01-1.1 1.687 5.214 5.214 0 01-1.629 1.125 4.756 4.756 0 01-1.953.418 4.937 4.937 0 01-1.949-.394 4.934 4.934 0 01-2.707-2.762 5.549 5.549 0 01-.406-2.125 5.452 5.452 0 011.5-3.746 5.2 5.2 0 011.611-1.134 4.684 4.684 0 011.949-.422zm-.234.531a2.873 2.873 0 00-1.238.262 2.754 2.754 0 00-.93.691 4.045 4.045 0 00-.629 1.008 5.235 5.235 0 00-.371 1.2 6.965 6.965 0 00-.113 1.266 6.631 6.631 0 00.254 1.82 6.24 6.24 0 00.714 1.633 3.686 3.686 0 001.192 1.188 2.986 2.986 0 001.605.453 2.905 2.905 0 001.243-.262 2.718 2.718 0 00.933-.7 4.228 4.228 0 00.633-1.016 5.215 5.215 0 00.375-1.207 7.175 7.175 0 00.113-1.273 6.529 6.529 0 00-.258-1.817 6.16 6.16 0 00-.722-1.621 3.721 3.721 0 00-1.2-1.176 3.009 3.009 0 00-1.601-.449zM231.862.4q.7 0 2.426-.054t2.606-.055q.061.453.238 1.2c.117.495.188.805.215.93a.4.4 0 01-.282.078c-.13 0-.2-.036-.218-.109a2.04 2.04 0 00-.676-1.168 1.952 1.952 0 00-1.137-.3h-1.344q-1.023 0-1.078.172a4.769 4.769 0 00-.078 1.109v2.919c0 .036.055.062.18.074s.289.02.492.02h.828c.26 0 .464 0 .61-.008a2.493 2.493 0 00.41-.047.738.738 0 00.277-.1.715.715 0 00.164-.175.882.882 0 00.121-.27c.029-.1.064-.234.106-.39a.859.859 0 01.031-.133c.016-.073.094-.11.234-.11a.374.374 0 01.266.078v2.952a.361.361 0 01-.25.062c-.136 0-.219-.042-.25-.125a6.188 6.188 0 00-.242-.785.572.572 0 00-.2-.246 5.426 5.426 0 00-1.656-.125q-1.125 0-1.125.14v2.922a5.1 5.1 0 00.078 1.157c.021.073.189.132.5.179a5.34 5.34 0 00.731.071.418.418 0 01.051.226.345.345 0 01-.051.227q-1.6-.078-1.985-.078c-.255 0-.578.012-.968.039s-.683.039-.875.039a.334.334 0 01-.051-.227.4.4 0 01.051-.226 3.989 3.989 0 00.64-.071c.271-.047.417-.106.438-.179a5.158 5.158 0 00.078-1.157V2.184a5.153 5.153 0 00-.078-1.156q-.032-.11-.438-.179a3.989 3.989 0 00-.64-.071.4.4 0 01-.051-.226.334.334 0 01.051-.227Q231.62.4 231.862.4zm13.8 0q.7 0 2.425-.054t2.606-.055q.061.453.238 1.2t.215.93a.4.4 0 01-.281.078c-.131 0-.2-.036-.219-.109a2.04 2.04 0 00-.676-1.168 1.951 1.951 0 00-1.136-.3h-1.344q-1.025 0-1.078.172a4.711 4.711 0 00-.078 1.109v2.919c-.006.036.054.062.179.074s.289.02.492.02h.829q.39 0 .609-.008a2.493 2.493 0 00.41-.047.724.724 0 00.277-.1.7.7 0 00.164-.175.883.883 0 00.122-.27l.1-.39a.994.994 0 01.031-.133c.016-.073.094-.11.235-.11a.371.371 0 01.265.078v2.952a.361.361 0 01-.25.062c-.135 0-.218-.042-.25-.125a6.188 6.188 0 00-.242-.785.578.578 0 00-.195-.246 5.436 5.436 0 00-1.656-.125q-1.125 0-1.125.14v2.922a5.034 5.034 0 00.078 1.157c.02.073.188.132.5.179a5.328 5.328 0 00.73.071.418.418 0 01.051.226.345.345 0 01-.051.227q-1.6-.078-1.984-.078c-.256 0-.578.012-.969.039s-.683.039-.875.039a.334.334 0 01-.051-.227.418.418 0 01.051-.226 4 4 0 00.641-.071c.27-.047.416-.106.437-.179a5.1 5.1 0 00.078-1.157V2.184a5.09 5.09 0 00-.078-1.156q-.031-.11-.437-.179a4 4 0 00-.641-.071.418.418 0 01-.051-.226.334.334 0 01.051-.227q1.61.075 1.853.075zm13.799 0q.226 0 1.828-.078a.345.345 0 01.051.227.418.418 0 01-.051.226 4 4 0 00-.641.071q-.407.069-.437.179a5.09 5.09 0 00-.078 1.156v6.675a5.1 5.1 0 00.078 1.157c.02.073.166.132.437.179a4 4 0 00.641.071.418.418 0 01.051.226.345.345 0 01-.051.227q-1.6-.078-1.828-.078-.243 0-1.844.078a.345.345 0 01-.051-.227.418.418 0 01.051-.226 4 4 0 00.641-.071c.27-.047.416-.106.437-.179a5.1 5.1 0 00.078-1.157V2.184a5.09 5.09 0 00-.078-1.156q-.031-.11-.437-.179a4 4 0 00-.641-.071.418.418 0 01-.051-.226.345.345 0 01.051-.227q1.602.075 1.844.075zM273.44.247a15.638 15.638 0 013.312.328q.36 2.157.36 2.313c0 .046-.031.092-.11.136a.474.474 0 01-.234.067.332.332 0 01-.187-.047q-.445-2.282-3.063-2.281a3.192 3.192 0 00-2 .687 4.4 4.4 0 00-1.351 1.719 5.177 5.177 0 00-.461 2.14 6.529 6.529 0 00.16 1.45 5.424 5.424 0 00.492 1.34 4.562 4.562 0 00.805 1.109 3.5 3.5 0 001.144.758 3.755 3.755 0 001.461.281 3.014 3.014 0 002.063-.75 3.274 3.274 0 00.953-1.813.779.779 0 01.5.125 7.353 7.353 0 01-.2 1.211 2.65 2.65 0 01-.348 1.039 6.854 6.854 0 01-3.36.7 5.407 5.407 0 01-2.117-.414 4.934 4.934 0 01-1.656-1.11 5.209 5.209 0 01-1.445-3.6 5.571 5.571 0 011.484-3.793 5.028 5.028 0 011.68-1.164 5.228 5.228 0 012.118-.431zM285.935.4q.227 0 1.828-.078a.345.345 0 01.051.227.418.418 0 01-.051.226 3.978 3.978 0 00-.64.071q-.406.069-.438.179a5.09 5.09 0 00-.078 1.156v6.675a5.1 5.1 0 00.078 1.157c.021.073.167.132.438.179a3.978 3.978 0 00.64.071.418.418 0 01.051.226.345.345 0 01-.051.227q-1.6-.078-1.828-.078-.243 0-1.844.078a.34.34 0 01-.05-.227.411.411 0 01.05-.226 3.988 3.988 0 00.641-.071c.27-.047.416-.106.437-.179a5.073 5.073 0 00.079-1.157V2.184a5.068 5.068 0 00-.079-1.156q-.031-.11-.437-.179a3.988 3.988 0 00-.641-.071.411.411 0 01-.05-.226.34.34 0 01.05-.227q1.602.075 1.844.075zm9.432 8.1q2.063-5.3 3.016-7.734a1.041 1.041 0 01.277-.286.644.644 0 01.317-.168.089.089 0 01.05.02.332.332 0 00.043.027l3.18 8.341q.39 1.008.4 1.031a.787.787 0 00.489.387 1.842 1.842 0 00.574.145.43.43 0 01.047.23 1.089 1.089 0 01-.016.223q-1.563-.078-1.719-.078c-.213 0-.413 0-.6.011s-.392.02-.621.035-.428.027-.594.032a.334.334 0 01-.051-.227.33.33 0 01.067-.226 2.673 2.673 0 00.48-.059.878.878 0 00.395-.145.305.305 0 00.062-.218 4.2 4.2 0 00-.266-.973q-.266-.762-.531-1.418l-.265-.656a.128.128 0 00-.094-.063q-.2-.015-1.547-.015-.984 0-1.688.047l-.078.046q-.438 1.157-.7 1.907a3.514 3.514 0 00-.219 1.109.269.269 0 00.145.227 1.011 1.011 0 00.352.136c.137.029.256.048.355.059a2.179 2.179 0 00.227.016.426.426 0 01.043.207.767.767 0 01-.012.246c-.152 0-.316-.016-.492-.032s-.342-.027-.493-.035-.328-.011-.531-.011-.4 0-.566.011-.345.02-.543.035-.385.027-.563.032a.38.38 0 01-.031-.2.743.743 0 01.031-.25 2.227 2.227 0 00.516-.082.772.772 0 00.422-.215 6.48 6.48 0 00.732-1.469zm3.063-6.3l-1.438 3.813c0 .042.01.062.031.062q.813.032 1.422.031.587 0 1.313-.047a.043.043 0 00.031-.015.128.128 0 00.016-.044v-.019zm13.916 6.656a3.012 3.012 0 00.094 1.125.662.662 0 00.348.133q.206.024.761.024h.891a5.051 5.051 0 001.008-.106 2.223 2.223 0 00.82-.316 2.815 2.815 0 00.984-1.578c.016-.063.089-.094.219-.094a.572.572 0 01.391.094q-.071.2-.235.648t-.261.723a9.986 9.986 0 00-.2.629 4.668 4.668 0 00-.145.593q-.805 0-2.523-.031t-2.805-.031q-.382 0-.977.023t-.882.024a.334.334 0 01-.051-.227.4.4 0 01.051-.226 3.989 3.989 0 00.64-.071c.271-.047.417-.106.438-.179a5.158 5.158 0 00.078-1.157V2.184a5.153 5.153 0 00-.078-1.156q-.032-.11-.438-.179a3.989 3.989 0 00-.64-.071.4.4 0 01-.051-.226.334.334 0 01.051-.227q1.6.078 1.843.078Q311.9.4 313.5.325a.334.334 0 01.051.227.409.409 0 01-.051.226 3.978 3.978 0 00-.64.071q-.406.069-.438.179a4.322 4.322 0 00-.078 1.156zm22.638-.356Q337.047 3.2 338 .766a1.026 1.026 0 01.277-.286.642.642 0 01.316-.168.089.089 0 01.051.02.276.276 0 00.043.027l3.18 8.344q.39 1.008.4 1.031a.788.788 0 00.488.387 1.846 1.846 0 00.575.145.43.43 0 01.047.23 1.089 1.089 0 01-.016.223q-1.563-.078-1.719-.078-.321 0-.6.011t-.622.035q-.344.024-.593.032a.334.334 0 01-.051-.227.325.325 0 01.066-.226 2.672 2.672 0 00.481-.059.867.867 0 00.394-.145.3.3 0 00.063-.218 4.2 4.2 0 00-.266-.973q-.265-.762-.531-1.418l-.266-.656a.125.125 0 00-.093-.063q-.2-.015-1.547-.015-.986 0-1.688.047l-.078.046q-.438 1.157-.7 1.907a3.514 3.514 0 00-.219 1.109.269.269 0 00.145.227 1.014 1.014 0 00.351.136c.138.029.257.048.356.059a2.164 2.164 0 00.226.016.414.414 0 01.043.207.746.746 0 01-.011.246c-.152 0-.316-.016-.493-.032s-.341-.027-.492-.035-.328-.011-.531-.011-.4 0-.566.011-.346.02-.543.035-.386.027-.563.032a.38.38 0 01-.031-.2.743.743 0 01.031-.25 2.235 2.235 0 00.516-.082.772.772 0 00.422-.215 6.523 6.523 0 00.732-1.472zm3.062-6.3l-1.437 3.813c0 .042.01.062.031.062q.813.032 1.422.031.586 0 1.313-.047a.043.043 0 00.031-.015.122.122 0 00.015-.044v-.019zM354.768.247a15.651 15.651 0 013.312.328q.359 2.157.36 2.313c0 .046-.032.092-.11.136a.474.474 0 01-.234.067.338.338 0 01-.188-.047q-.445-2.282-3.062-2.281a3.192 3.192 0 00-2 .687 4.4 4.4 0 00-1.352 1.719 5.193 5.193 0 00-.461 2.14 6.529 6.529 0 00.16 1.45 5.466 5.466 0 00.493 1.34 4.585 4.585 0 00.8 1.109 3.505 3.505 0 001.145.758 3.752 3.752 0 001.461.281 3.012 3.012 0 002.062-.75 3.267 3.267 0 00.953-1.813.776.776 0 01.5.125 7.241 7.241 0 01-.2 1.211 2.657 2.657 0 01-.347 1.039 6.857 6.857 0 01-3.36.7 5.4 5.4 0 01-2.117-.414 4.924 4.924 0 01-1.656-1.11 5.216 5.216 0 01-1.446-3.6 5.5 5.5 0 01.4-2.075 5.428 5.428 0 011.086-1.718A5.034 5.034 0 01352.65.681a5.236 5.236 0 012.118-.434zm15.971 0a15.638 15.638 0 013.312.328q.36 2.157.36 2.313c0 .046-.032.092-.11.136a.474.474 0 01-.234.067.338.338 0 01-.188-.047q-.444-2.282-3.062-2.281a3.192 3.192 0 00-2 .687 4.413 4.413 0 00-1.352 1.719 5.193 5.193 0 00-.465 2.14 6.529 6.529 0 00.161 1.45 5.424 5.424 0 00.492 1.34 4.585 4.585 0 00.8 1.109 3.505 3.505 0 001.145.758 3.755 3.755 0 001.461.281 3.01 3.01 0 002.062-.75 3.268 3.268 0 00.954-1.813.779.779 0 01.5.125 7.281 7.281 0 01-.2 1.211 2.639 2.639 0 01-.347 1.039 6.854 6.854 0 01-3.36.7 5.4 5.4 0 01-2.117-.414 4.934 4.934 0 01-1.656-1.11 5.209 5.209 0 01-1.445-3.6 5.571 5.571 0 011.484-3.793 5.028 5.028 0 011.68-1.164 5.228 5.228 0 012.125-.431zm15.768 0a4.951 4.951 0 011.953.4 5.136 5.136 0 011.625 1.082 5.017 5.017 0 011.105 1.683 5.545 5.545 0 01.411 2.137 5.253 5.253 0 01-.411 2.051 5.323 5.323 0 01-1.1 1.687 5.214 5.214 0 01-1.629 1.125 4.756 4.756 0 01-1.953.418 4.934 4.934 0 01-1.949-.394 4.926 4.926 0 01-2.707-2.762 5.55 5.55 0 01-.407-2.125 5.464 5.464 0 011.5-3.746 5.192 5.192 0 011.613-1.134 4.684 4.684 0 011.949-.422zm-.234.531a2.874 2.874 0 00-1.239.262 2.76 2.76 0 00-.929.691 4.045 4.045 0 00-.629 1.008 5.235 5.235 0 00-.371 1.2 6.965 6.965 0 00-.114 1.266 6.669 6.669 0 00.254 1.82 6.208 6.208 0 00.715 1.633 3.674 3.674 0 001.191 1.188 2.987 2.987 0 001.606.453 2.9 2.9 0 001.243-.267 2.731 2.731 0 00.934-.7 4.194 4.194 0 00.632-1.016 5.12 5.12 0 00.375-1.207 7.083 7.083 0 00.114-1.273 6.529 6.529 0 00-.258-1.817 6.162 6.162 0 00-.723-1.621 3.718 3.718 0 00-1.195-1.176 3.009 3.009 0 00-1.606-.444zM400.111.4q.226 0 1.829-.078a.34.34 0 01.05.227.42.42 0 01-.05.226 3.976 3.976 0 00-.641.071q-.406.069-.438.179a5.09 5.09 0 00-.078 1.156v3.86a4.531 4.531 0 00.766 2.875 2.594 2.594 0 002.141.906q2.969 0 3.031-3.437V2.153c0-.323-.008-.554-.024-.695a.884.884 0 00-.132-.383c-.042-.073-.2-.143-.481-.211a3 3 0 00-.644-.1.419.419 0 01-.059-.235.5.5 0 01.027-.219q1.563.078 1.735.079c.213 0 .4 0 .566-.012s.345-.02.543-.035.385-.027.563-.032a.468.468 0 010 .454 3.9 3.9 0 00-.684.093q-.465.095-.535.219a.919.919 0 00-.129.375 5.876 5.876 0 00-.027.688v4.217a4.478 4.478 0 01-1.079 3.313 4.088 4.088 0 01-3 1.062 3.868 3.868 0 01-2.789-1.031 3.871 3.871 0 01-1.148-2.953V2.184a5.09 5.09 0 00-.078-1.156q-.032-.11-.438-.179a3.989 3.989 0 00-.64-.071.4.4 0 01-.051-.226.334.334 0 01.051-.227q1.601.075 1.843.075zm16.667-.044q.75 0 1.187-.031.392.609 2.813 3.559t3.312 4.191V2.153c0-.323-.007-.554-.023-.695a.885.885 0 00-.133-.383c-.042-.073-.212-.143-.512-.211a3.406 3.406 0 00-.675-.1.419.419 0 01-.059-.235.5.5 0 01.027-.219q1.563.078 1.8.079.321 0 .567-.012c.164-.008.344-.02.543-.035s.385-.027.562-.032a.468.468 0 010 .454 3.886 3.886 0 00-.683.093c-.311.063-.489.136-.536.219a.949.949 0 00-.129.375 6.111 6.111 0 00-.027.688V8.5q0 1.344.031 2.156c-.01.063-.078.094-.2.094a.578.578 0 01-.246-.086.95.95 0 01-.3-.273l-6.812-8.61v7.091q0 .485.023.7a.885.885 0 00.133.383c.042.073.21.144.5.211a3.322 3.322 0 00.668.1.433.433 0 01.059.234.515.515 0 01-.028.219q-1.563-.078-1.781-.078c-.214 0-.4 0-.566.011s-.346.02-.543.035-.386.027-.563.032a.466.466 0 010-.453 3.932 3.932 0 00.684-.094c.309-.063.488-.136.535-.219a.949.949 0 00.129-.375 6.1 6.1 0 00.027-.687V2.106a6.09 6.09 0 00-.027-.687.949.949 0 00-.129-.375c-.047-.083-.226-.156-.535-.219a3.932 3.932 0 00-.684-.094.466.466 0 010-.453c.167 0 .424.02.774.043s.619.035.817.035zm23.268-.015a2.123 2.123 0 00.484-.078 2.2 2.2 0 00.453-.157.314.314 0 01.3-.031q.188 1.634.407 2.688a.357.357 0 01-.3.109.252.252 0 01-.219-.078 3.465 3.465 0 00-.555-1.387 1.137 1.137 0 00-.945-.519h-1.984v7.968a5.034 5.034 0 00.078 1.157c.02.073.166.132.437.179a4 4 0 00.641.071.418.418 0 01.051.226.345.345 0 01-.051.227q-1.6-.078-1.828-.078-.243 0-1.844.078a.334.334 0 01-.051-.227.418.418 0 01.051-.226 4 4 0 00.641-.071c.27-.047.416-.106.437-.179a5.1 5.1 0 00.078-1.157V.888h-2.015a1.138 1.138 0 00-.946.519 3.451 3.451 0 00-.554 1.387.254.254 0 01-.219.078.355.355 0 01-.3-.109q.217-1.056.406-2.688a.425.425 0 01.36.047 1.954 1.954 0 00.421.148 1.893 1.893 0 00.454.071z" fill="#5f648c" stroke="#5f648c" stroke-linejoin="round" stroke-width=".1" data-name="レイヤー 2"/></svg>