<svg xmlns="http://www.w3.org/2000/svg" width="179.924" height="42.017"><path d="M9.619.271a.379.379 0 00-.362.034 2.363 2.363 0 01-.471.161 2.145 2.145 0 01-.5.082H1.793a1.982 1.982 0 01-.469-.074A2.016 2.016 0 01.885.32.5.5 0 00.461.27a.047.047 0 00-.029.039C.3 1.458.155 2.417 0 3.161a.053.053 0 00.013.045.429.429 0 00.312.133h.039a.311.311 0 00.274-.1.042.042 0 00.008-.018 3.624 3.624 0 01.58-1.454 1.168 1.168 0 01.964-.532h2.093v8.41A5.4 5.4 0 014.2 10.86c-.006.02-.053.09-.425.157a4.441 4.441 0 01-.672.073.05.05 0 00-.04.019.464.464 0 00-.064.27.4.4 0 00.066.275.05.05 0 00.038.017c1.106-.054 1.782-.083 1.957-.083s.834.029 1.939.083a.052.052 0 00.038-.017.4.4 0 00.065-.275.473.473 0 00-.063-.27.051.051 0 00-.04-.019 4.428 4.428 0 01-.672-.073c-.373-.067-.42-.137-.426-.158a5.443 5.443 0 01-.081-1.214V1.228h2.066a1.168 1.168 0 01.964.532 3.639 3.639 0 01.581 1.454.042.042 0 00.008.018.3.3 0 00.268.1.447.447 0 00.355-.131.047.047 0 00.013-.045c-.154-.744-.3-1.7-.43-2.852a.05.05 0 00-.026-.033zm10.36 10.819a3.563 3.563 0 01-.617-.073c-.331-.066-.376-.136-.381-.158a5.356 5.356 0 01-.081-1.214V7.819c0-.508-.016-.945-.049-1.3a4.987 4.987 0 00-.189-.989 1.822 1.822 0 00-.389-.725 1.655 1.655 0 00-.633-.411 2.655 2.655 0 00-.931-.144 2.45 2.45 0 00-1.246.431 4.832 4.832 0 00-1.031.8l-.014.013V1.76A4.576 4.576 0 0114.6.332V.321a.365.365 0 00-.072-.214.208.208 0 00-.161-.107.045.045 0 00-.02 0A7.609 7.609 0 0112 .666c-.061.016-.072.095-.075.162a1.96 1.96 0 000 .218c.007.094.012.149.066.149.707 0 .916.146.967.269a2.781 2.781 0 01.079.844v7.337a5.4 5.4 0 01-.081 1.215c-.006.021-.05.091-.381.157a3.574 3.574 0 01-.617.073.051.051 0 00-.04.019.475.475 0 00-.064.27.4.4 0 00.066.275.052.052 0 00.038.017c.166-.006.362-.018.584-.033.246-.018.448-.03.617-.037s.356-.013.558-.013c.052 0 .715.031 1.774.083a.052.052 0 00.038-.017.4.4 0 00.066-.275.475.475 0 00-.064-.27.051.051 0 00-.04-.019 3.574 3.574 0 01-.617-.073c-.331-.066-.375-.136-.381-.158a5.379 5.379 0 01-.081-1.214V6.176c0-.006.007-.066.243-.26a3.638 3.638 0 01.639-.409 1.47 1.47 0 01.645-.195 1.324 1.324 0 011.248.553 4.686 4.686 0 01.33 2.12v1.66a5.46 5.46 0 01-.081 1.215c-.006.021-.051.091-.381.157a3.584 3.584 0 01-.618.073.053.053 0 00-.04.019.475.475 0 00-.064.27.4.4 0 00.067.275.05.05 0 00.037.017c.165-.006.361-.018.583-.033.247-.018.448-.03.618-.037s.356-.013.557-.013c.052 0 .716.031 1.774.083a.05.05 0 00.037-.017.4.4 0 00.067-.275.475.475 0 00-.064-.27.053.053 0 00-.03-.019zm5.535.664a2.631 2.631 0 00.893-.153 2.591 2.591 0 00.732-.389 4.339 4.339 0 00.5-.453 2.931 2.931 0 00.338-.441.636.636 0 00.106-.324.3.3 0 00-.034-.138.319.319 0 00-.073-.1c-.036-.032-.054-.042-.075-.042a.05.05 0 00-.038.017 2.961 2.961 0 01-.731.579 2.024 2.024 0 01-1.057.284 2.539 2.539 0 01-1.919-.819 3.133 3.133 0 01-.734-2.275c.2 0 .812-.017 1.981-.046 1.2-.03 1.93-.054 2.155-.07a.38.38 0 00.356-.233 1.549 1.549 0 00.09-.6 2.074 2.074 0 00-.067-.5 2.668 2.668 0 00-.246-.6 2.352 2.352 0 00-.449-.59 2.194 2.194 0 00-.739-.438 2.915 2.915 0 00-1.039-.177 2.434 2.434 0 00-1.152.317 4.046 4.046 0 00-1.067.835 4.282 4.282 0 00-.79 1.278 4.117 4.117 0 00-.311 1.571 3.51 3.51 0 00.947 2.5 3.213 3.213 0 002.423 1.007zm-.332-6.807a1.1 1.1 0 01.612.175 1.247 1.247 0 01.416.431 2.5 2.5 0 01.219.5 1.234 1.234 0 01.065.4c-.015.229-.121.335-.332.335h-2.657c0-.025.013-.068.029-.139a2.9 2.9 0 01.163-.476 3.562 3.562 0 01.3-.566 1.539 1.539 0 01.5-.469 1.284 1.284 0 01.685-.191zm9.368 6.724a.052.052 0 00.038-.017.4.4 0 00.066-.275.475.475 0 00-.064-.27.05.05 0 00-.04-.019 7.013 7.013 0 01-.835-.074c-.506-.07-.542-.147-.545-.157a5.443 5.443 0 01-.081-1.214V7.089a1.692 1.692 0 01.414-.9 1.125 1.125 0 01.865-.549 1.054 1.054 0 01.587.192l.168.119a1.759 1.759 0 00.248.153.518.518 0 00.225.051.549.549 0 00.4-.246 1.016 1.016 0 00.2-.667 1.454 1.454 0 00-.073-.474.975.975 0 00-.424-.359 1.4 1.4 0 00-.632-.146 1.68 1.68 0 00-1.131.595 4.193 4.193 0 00-.844 1.155c0-.113.021-.358.049-.73.034-.438.055-.683.067-.755a.38.38 0 00-.07-.192c-.052-.083-.106-.123-.163-.123a.046.046 0 00-.023.006 7.042 7.042 0 01-2.358.691.05.05 0 00-.035.024.468.468 0 00-.045.259c0 .163.028.21.052.234a.048.048 0 00.035.014c.1 0 .2 0 .317.013a2.254 2.254 0 01.433.085c.158.045.256.1.283.171a2.748 2.748 0 01.079.844v3.09a6.519 6.519 0 01-.081 1.216c-.005.021-.05.091-.38.157a3.584 3.584 0 01-.618.073.053.053 0 00-.04.019.475.475 0 00-.064.27.4.4 0 00.067.275c.01.012.027.011.04.017a96.098 96.098 0 011.857-.083c.239 0 .95.029 2.056.083zm9.65-1.917c-.035-.032-.053-.042-.074-.042a.049.049 0 00-.038.017 2.98 2.98 0 01-.731.579 2.025 2.025 0 01-1.058.284 2.538 2.538 0 01-1.918-.819 3.133 3.133 0 01-.742-2.273c.2 0 .812-.017 1.981-.046 1.2-.03 1.93-.054 2.155-.07a.377.377 0 00.355-.233 1.527 1.527 0 00.091-.6 2.029 2.029 0 00-.068-.5 2.661 2.661 0 00-.245-.6 2.352 2.352 0 00-.449-.59 2.194 2.194 0 00-.739-.438 2.915 2.915 0 00-1.039-.177 2.434 2.434 0 00-1.152.317 4.051 4.051 0 00-1.068.835 4.323 4.323 0 00-.79 1.278 4.116 4.116 0 00-.31 1.571 3.51 3.51 0 00.947 2.5 3.211 3.211 0 002.423 1 2.631 2.631 0 00.893-.153 2.591 2.591 0 00.732-.389 4.242 4.242 0 00.5-.453 2.875 2.875 0 00.339-.441.636.636 0 00.106-.324.3.3 0 00-.034-.138.306.306 0 00-.067-.095zm-2.8-4.807a1.1 1.1 0 01.612.175 1.244 1.244 0 01.415.431 2.452 2.452 0 01.22.5 1.262 1.262 0 01.065.4c-.016.229-.121.335-.333.335h-2.657c0-.025.012-.068.029-.139a2.808 2.808 0 01.163-.476 3.637 3.637 0 01.3-.566 1.549 1.549 0 01.495-.469 1.287 1.287 0 01.691-.191zm13.436-2.341a.871.871 0 00.879-.88.88.88 0 10-1.759 0 .871.871 0 00.88.88zm-1.677 2.839c.1 0 .2 0 .316.013a2.276 2.276 0 01.434.085c.158.045.256.1.282.171a2.737 2.737 0 01.08.844v3.086a6.616 6.616 0 01-.081 1.216c-.006.021-.05.091-.381.157a3.574 3.574 0 01-.617.073.051.051 0 00-.04.019.475.475 0 00-.064.27.4.4 0 00.066.275.052.052 0 00.038.017c.165-.006.361-.018.583-.033.247-.018.449-.03.618-.037s.356-.013.558-.013c.052 0 .715.031 1.774.083a.052.052 0 00.038-.017.4.4 0 00.066-.275.475.475 0 00-.064-.27.051.051 0 00-.04-.019 3.574 3.574 0 01-.617-.073c-.331-.066-.375-.136-.381-.158a5.379 5.379 0 01-.081-1.214V5.628a9.734 9.734 0 01.116-1.1.377.377 0 00-.062-.188c-.053-.083-.106-.123-.163-.123a.05.05 0 00-.024.006 7.043 7.043 0 01-2.357.691.052.052 0 00-.036.024.477.477 0 00-.045.259c0 .163.029.21.052.234a.051.051 0 00.032.014zM63.94 9.463a1.5 1.5 0 00-.06-.426 1.232 1.232 0 00-.2-.389c-.1-.125-.18-.226-.256-.31a1.9 1.9 0 00-.354-.29c-.152-.1-.268-.181-.349-.234s-.208-.13-.38-.229-.283-.164-.332-.191a15.944 15.944 0 00-.357-.2 7.244 7.244 0 01-.354-.21 6.527 6.527 0 01-.275-.2 1.116 1.116 0 01-.242-.246 1.3 1.3 0 01-.131-.284 1.07 1.07 0 01-.061-.369.955.955 0 01.288-.719 1.177 1.177 0 01.841-.277 1.048 1.048 0 01.824.467 2.86 2.86 0 01.523 1.023.047.047 0 00.016.025.469.469 0 00.314.095c.179 0 .216-.072.216-.135a10.071 10.071 0 00-.2-1.835.053.053 0 00-.044-.039 14.22 14.22 0 01-.768-.119 5.627 5.627 0 00-.93-.1 2.7 2.7 0 00-1.716.579 1.826 1.826 0 00-.741 1.5 1.628 1.628 0 00.348 1.05 3.268 3.268 0 00.934.762c.115.072.3.175.568.314s.451.242.577.321a4.559 4.559 0 01.427.316 1.17 1.17 0 01.33.414 1.226 1.226 0 01.1.5 1.107 1.107 0 01-.321.84 1.154 1.154 0 01-.825.306 1.532 1.532 0 01-1.086-.481 2.383 2.383 0 01-.658-1.06.05.05 0 00-.021-.028.313.313 0 00-.177-.042.541.541 0 00-.329.11.049.049 0 00-.02.04 6.075 6.075 0 00.092.908 4.467 4.467 0 00.193.836.05.05 0 00.038.031c.138.026.334.068.616.133s.5.107.693.138a4.352 4.352 0 00.643.046 2.73 2.73 0 001.829-.663 2.127 2.127 0 00.777-1.678zm14.594 2.023a3.371 3.371 0 00.611-.409l.009-.012a.655.655 0 00.09-.34c0-.152-.063-.183-.116-.183-.021 0-.039.012-.07.037a.534.534 0 01-.055.042.87.87 0 01-.078.047 1.293 1.293 0 01-.1.048.592.592 0 01-.111.03.732.732 0 01-.136.012c-.312 0-.465-.239-.465-.731v-3.42a2.511 2.511 0 00-.555-1.641 1.655 1.655 0 00-1.3-.683 3.666 3.666 0 00-1.679.445 6.134 6.134 0 00-1.383.937.676.676 0 00-.087.212.924.924 0 00-.039.216.851.851 0 00.167.51.533.533 0 00.448.237c.451 0 .731-.282.829-.838a1.682 1.682 0 01.285-.754.692.692 0 01.579-.234 1.214 1.214 0 01.97.484 1.627 1.627 0 01.408 1.06v.448a.659.659 0 01-.032.267.246.246 0 01-.138.1c-.148.068-.383.16-.7.272-.3.108-.681.243-1.207.424-.479.165-.815.282-1 .349a1.329 1.329 0 00-.592.5 1.476 1.476 0 00-.271.872 1.886 1.886 0 00.576 1.393 1.947 1.947 0 001.417.566 2.412 2.412 0 001.118-.443 6.889 6.889 0 00.895-.623 1.686 1.686 0 00.365.68.892.892 0 00.676.353 1.5 1.5 0 00.671-.23zm-1.78-3.55v2.191c0 .026-.036.13-.492.367-.722.374-1.264.351-1.655-.069a1.114 1.114 0 01-.31-.78 1.147 1.147 0 01.258-.751 1.728 1.728 0 01.723-.5c.164-.06.647-.211 1.476-.458zm15.605.712c-.1-.125-.18-.226-.256-.31a1.887 1.887 0 00-.353-.29c-.153-.1-.269-.181-.35-.234s-.208-.13-.38-.229l-.331-.191-.358-.2a7.244 7.244 0 01-.354-.21 6.527 6.527 0 01-.275-.2 1.116 1.116 0 01-.242-.246 1.3 1.3 0 01-.131-.284 1.07 1.07 0 01-.06-.369.954.954 0 01.287-.719 1.178 1.178 0 01.842-.277 1.048 1.048 0 01.823.467 2.844 2.844 0 01.523 1.023.047.047 0 00.016.025.471.471 0 00.314.095c.179 0 .216-.072.216-.135a10.071 10.071 0 00-.2-1.835.053.053 0 00-.044-.039 14.22 14.22 0 01-.768-.119 5.627 5.627 0 00-.93-.1 2.7 2.7 0 00-1.716.579 1.826 1.826 0 00-.741 1.5 1.628 1.628 0 00.351 1.05 3.268 3.268 0 00.934.762c.116.072.3.175.568.314s.451.242.577.321a4.432 4.432 0 01.427.316 1.17 1.17 0 01.33.414 1.226 1.226 0 01.1.5 1.107 1.107 0 01-.321.84 1.154 1.154 0 01-.825.306 1.532 1.532 0 01-1.086-.481 2.391 2.391 0 01-.658-1.06.05.05 0 00-.021-.028.311.311 0 00-.177-.042.541.541 0 00-.329.11.052.052 0 00-.02.04 6.075 6.075 0 00.092.908 4.549 4.549 0 00.193.836.05.05 0 00.039.031c.137.026.333.068.615.133s.5.107.693.138a4.362 4.362 0 00.643.046 2.728 2.728 0 001.829-.663 2.127 2.127 0 00.777-1.678 1.5 1.5 0 00-.06-.426 1.212 1.212 0 00-.203-.389zm8.688 1.67a.638.638 0 00.107-.324.3.3 0 00-.034-.138.306.306 0 00-.074-.1c-.036-.032-.054-.042-.075-.042a.052.052 0 00-.038.017 2.961 2.961 0 01-.731.579 2.024 2.024 0 01-1.057.284 2.537 2.537 0 01-1.918-.819 3.138 3.138 0 01-.739-2.275c.2 0 .812-.017 1.982-.046a77.82 77.82 0 002.155-.07.378.378 0 00.355-.233 1.527 1.527 0 00.091-.6 2.078 2.078 0 00-.068-.5 2.661 2.661 0 00-.245-.6 2.375 2.375 0 00-.449-.59 2.19 2.19 0 00-.74-.438 2.91 2.91 0 00-1.038-.177 2.437 2.437 0 00-1.153.317 4.046 4.046 0 00-1.067.835 4.3 4.3 0 00-.79 1.278 4.116 4.116 0 00-.31 1.571 3.51 3.51 0 00.947 2.5 3.21 3.21 0 002.423 1 2.626 2.626 0 00.892-.153 2.591 2.591 0 00.732-.389 4.339 4.339 0 00.5-.453 2.8 2.8 0 00.342-.434zm-2.8-5.371a1.1 1.1 0 01.611.175 1.238 1.238 0 01.416.431 2.507 2.507 0 01.22.5 1.229 1.229 0 01.064.4c-.015.229-.12.335-.332.335h-2.655c0-.025.013-.068.029-.139a3 3 0 01.163-.476 3.646 3.646 0 01.3-.566 1.549 1.549 0 01.5-.469 1.287 1.287 0 01.686-.191zm10.978 5.812a2.931 2.931 0 00.338-.441.638.638 0 00.107-.324.3.3 0 00-.035-.138.319.319 0 00-.073-.1c-.06-.053-.089-.052-.113-.025a2.926 2.926 0 01-.7.563 1.951 1.951 0 01-1.024.267 2.682 2.682 0 01-1.9-.692 2.713 2.713 0 01-.736-2.064 3.236 3.236 0 01.563-1.975 1.577 1.577 0 011.248-.75 1.483 1.483 0 01.469.06 2.105 2.105 0 01.45.248 2.419 2.419 0 01.272.223 2.808 2.808 0 00.359.283.66.66 0 00.359.116.653.653 0 00.476-.21.883.883 0 00.2-.637.811.811 0 00-.057-.279.606.606 0 00-.131-.228 2.705 2.705 0 00-1.522-.406 3.506 3.506 0 00-1.1.188 4.4 4.4 0 00-1.1.555 5.068 5.068 0 00-.951.851 3.9 3.9 0 00-.682 1.143 3.744 3.744 0 00-.256 1.364 3.428 3.428 0 00.417 1.654 3.371 3.371 0 002.986 1.749 2.631 2.631 0 00.893-.153 2.591 2.591 0 00.732-.389 4.339 4.339 0 00.511-.453zm6.775.912a.05.05 0 00.037-.017.407.407 0 00.067-.275.475.475 0 00-.064-.27.053.053 0 00-.04-.019 7.026 7.026 0 01-.836-.074c-.506-.07-.542-.147-.544-.157a5.379 5.379 0 01-.081-1.214V7.089a1.689 1.689 0 01.413-.9 1.125 1.125 0 01.865-.549 1.054 1.054 0 01.587.192c.016.011.073.05.168.119a1.759 1.759 0 00.248.153.521.521 0 00.225.051.549.549 0 00.4-.246 1.016 1.016 0 00.2-.667 1.454 1.454 0 00-.073-.474.978.978 0 00-.423-.359 1.4 1.4 0 00-.633-.146 1.68 1.68 0 00-1.131.595 4.188 4.188 0 00-.843 1.155c0-.113.02-.358.048-.73.034-.438.056-.683.067-.755a.38.38 0 00-.07-.192c-.052-.083-.105-.123-.163-.123a.046.046 0 00-.023.006 7.043 7.043 0 01-2.357.691.05.05 0 00-.036.024.477.477 0 00-.045.259c0 .163.028.21.052.234a.05.05 0 00.035.014c.1 0 .2 0 .317.013a2.254 2.254 0 01.433.085c.159.045.256.1.283.171a2.737 2.737 0 01.08.844v3.09a6.716 6.716 0 01-.081 1.216c-.006.021-.051.091-.381.157a3.585 3.585 0 01-.617.073.05.05 0 00-.04.019.459.459 0 00-.064.27.4.4 0 00.066.275.05.05 0 00.038.017c1.09-.054 1.75-.083 1.857-.083.239 0 .951.029 2.056.083zm9.646-1.917c-.036-.032-.054-.042-.075-.042a.05.05 0 00-.038.017 2.961 2.961 0 01-.731.579 2.024 2.024 0 01-1.057.284 2.539 2.539 0 01-1.919-.819 3.133 3.133 0 01-.738-2.269c.2 0 .812-.017 1.981-.046 1.2-.03 1.93-.054 2.155-.07a.38.38 0 00.356-.233 1.549 1.549 0 00.09-.6 2.074 2.074 0 00-.067-.5 2.668 2.668 0 00-.246-.6 2.352 2.352 0 00-.449-.59 2.194 2.194 0 00-.739-.438 2.915 2.915 0 00-1.039-.177 2.434 2.434 0 00-1.152.317 4.046 4.046 0 00-1.067.835 4.282 4.282 0 00-.79 1.278 4.117 4.117 0 00-.311 1.571 3.51 3.51 0 00.947 2.5 3.213 3.213 0 002.423 1 2.631 2.631 0 00.893-.153 2.591 2.591 0 00.732-.389 4.339 4.339 0 00.5-.453 2.931 2.931 0 00.338-.441.636.636 0 00.106-.324.3.3 0 00-.034-.138.319.319 0 00-.069-.099zm-2.8-4.807a1.1 1.1 0 01.612.175 1.247 1.247 0 01.416.431 2.5 2.5 0 01.219.5 1.234 1.234 0 01.065.4c-.015.229-.121.335-.332.335h-2.657c0-.025.013-.068.029-.139a2.9 2.9 0 01.163-.476 3.646 3.646 0 01.3-.566 1.539 1.539 0 01.5-.469 1.284 1.284 0 01.687-.191zm9.497.183a.047.047 0 00.035-.015.75.75 0 00.247-.533c0-.154-.044-.232-.133-.232H130.4V2.225c0-.027-.011-.075-.088-.1a.28.28 0 00-.137 0 .291.291 0 00-.125.07l-.2.218q-.181.2-.431.469c-.17.183-.3.324-.384.429a.048.048 0 00-.011.032v1h-.565a.046.046 0 00-.035.014 5.548 5.548 0 00-.252.281c-.18.207-.194.255-.194.286 0 .173.083.2.132.2h.914v4.77a2.432 2.432 0 00.148.9 1.31 1.31 0 00.419.578 1.734 1.734 0 00.564.281 2.319 2.319 0 00.645.085 1.768 1.768 0 00.777-.191 2.738 2.738 0 00.6-.373 4.433 4.433 0 00.371-.364.386.386 0 00.081-.284.163.163 0 00-.077-.161.051.051 0 00-.052 0 1.791 1.791 0 01-1.05.373c-.7 0-1.046-.429-1.046-1.311V5.13zm12.95 6.011a2.127 2.127 0 00.777-1.678 1.5 1.5 0 00-.06-.426 1.232 1.232 0 00-.2-.389c-.1-.125-.18-.226-.256-.31a1.9 1.9 0 00-.354-.29c-.152-.1-.268-.181-.349-.234s-.208-.13-.38-.229-.283-.164-.332-.191a14.498 14.498 0 00-.358-.2c-.2-.115-.3-.177-.353-.21a5.924 5.924 0 01-.275-.2 1.116 1.116 0 01-.242-.246 1.352 1.352 0 01-.132-.284 1.094 1.094 0 01-.06-.369.955.955 0 01.281-.727 1.176 1.176 0 01.841-.277 1.048 1.048 0 01.824.467 2.842 2.842 0 01.522 1.023.049.049 0 00.017.025.469.469 0 00.314.095c.179 0 .216-.072.216-.135a10.071 10.071 0 00-.2-1.835.053.053 0 00-.044-.039 14.22 14.22 0 01-.768-.119 5.628 5.628 0 00-.931-.1 2.7 2.7 0 00-1.715.579 1.824 1.824 0 00-.742 1.5 1.629 1.629 0 00.356 1.058 3.268 3.268 0 00.934.762c.115.072.3.175.567.314s.452.242.578.321a4.434 4.434 0 01.426.316 1.162 1.162 0 01.331.414 1.226 1.226 0 01.1.5 1.107 1.107 0 01-.321.84 1.154 1.154 0 01-.825.306 1.532 1.532 0 01-1.086-.481 2.394 2.394 0 01-.659-1.06.045.045 0 00-.02-.028.315.315 0 00-.177-.042.541.541 0 00-.329.11.049.049 0 00-.02.04 6.075 6.075 0 00.092.908 4.467 4.467 0 00.193.836.05.05 0 00.038.031c.138.026.334.068.616.133s.5.107.693.138a4.348 4.348 0 00.642.046 2.731 2.731 0 001.83-.663zm7.601-.332a.39.39 0 00.081-.284.163.163 0 00-.077-.161.051.051 0 00-.052 0 1.793 1.793 0 01-1.05.373c-.7 0-1.046-.429-1.046-1.311V5.13h1.942a.049.049 0 00.036-.015.75.75 0 00.247-.533c0-.154-.045-.232-.133-.232h-2.092V2.225c0-.027-.011-.075-.088-.1a.284.284 0 00-.138 0 .281.281 0 00-.124.07l-.2.218q-.181.2-.431.469c-.17.183-.295.324-.383.429a.049.049 0 00-.012.032v1h-.564a.046.046 0 00-.035.014 5.548 5.548 0 00-.252.281c-.18.207-.195.255-.195.286 0 .173.083.2.133.2h.913v4.77a2.431 2.431 0 00.149.9 1.31 1.31 0 00.419.578 1.725 1.725 0 00.564.281 2.314 2.314 0 00.645.085 1.775 1.775 0 00.777-.191 2.738 2.738 0 00.6-.373 4.592 4.592 0 00.366-.365zm5.89-6.576a3.392 3.392 0 00-2.56 1.091 3.822 3.822 0 00-1.024 2.711 3.725 3.725 0 00.99 2.653 3.455 3.455 0 002.629 1.049 3.349 3.349 0 002.548-1.1 3.886 3.886 0 001.02-2.737 3.683 3.683 0 00-.981-2.636 3.462 3.462 0 00-2.622-1.031zm1.9 5.411a2.287 2.287 0 01-.614 1.028 1.507 1.507 0 01-1.086.418 1.69 1.69 0 01-1.218-.517 3.2 3.2 0 01-.784-1.279 5.244 5.244 0 01-.079-2.963 2.285 2.285 0 01.614-1.032 1.5 1.5 0 011.086-.418 1.683 1.683 0 011.21.52 3.279 3.279 0 01.788 1.292 5.161 5.161 0 01.083 2.951zm9.364-5.231a1.4 1.4 0 00-.632-.146 1.68 1.68 0 00-1.131.595 4.214 4.214 0 00-.844 1.155c0-.113.021-.358.049-.73.034-.438.055-.683.067-.755a.38.38 0 00-.07-.192c-.052-.083-.106-.123-.163-.123a.046.046 0 00-.023.006 7.042 7.042 0 01-2.358.691.05.05 0 00-.035.024.477.477 0 00-.045.259c0 .163.028.21.052.234a.05.05 0 00.035.014c.1 0 .2 0 .317.013a2.254 2.254 0 01.433.085c.158.045.256.1.283.171a2.737 2.737 0 01.08.844v3.086a6.716 6.716 0 01-.081 1.216c-.006.021-.051.091-.381.157a3.584 3.584 0 01-.618.073.053.053 0 00-.04.019.475.475 0 00-.064.27.407.407 0 00.067.275c.01.012.023.011.04.017a96.098 96.098 0 011.857-.083c.239 0 .951.029 2.056.083a.05.05 0 00.038-.017.4.4 0 00.066-.275.459.459 0 00-.064-.27.05.05 0 00-.04-.019 7.03 7.03 0 01-.835-.074c-.506-.07-.542-.147-.544-.157a5.379 5.379 0 01-.081-1.214V7.089a1.689 1.689 0 01.413-.9 1.125 1.125 0 01.865-.549 1.054 1.054 0 01.587.192l.168.119a1.759 1.759 0 00.248.153.521.521 0 00.225.051.549.549 0 00.4-.246 1.016 1.016 0 00.2-.667 1.454 1.454 0 00-.073-.474.975.975 0 00-.424-.355zm9.834-.008a.049.049 0 00-.046-.022 14.32 14.32 0 01-1.39.083 11.4 11.4 0 01-1.487-.083c-.017 0-.034 0-.045.016a.484.484 0 00-.07.307c0 .077 0 .258.108.258a1.443 1.443 0 01.674.136.381.381 0 01.239.345 1.328 1.328 0 01-.1.513c-.406 1-.887 2.23-1.432 3.649l-1.71-4.367a.091.091 0 01-.012-.044c0-.06.086-.1.158-.132a1.436 1.436 0 01.34-.084c.112-.01.2-.016.266-.016.091 0 .116-.125.128-.248a.661.661 0 00-.016-.3c-.009-.02-.032-.037-.052-.029a14.325 14.325 0 01-1.654.083 15.785 15.785 0 01-1.655-.083.049.049 0 00-.04.014c-.022.022-.04.058-.04.288 0 .212.01.279.075.279.48 0 .772.1.867.3.625 1.358 1.5 3.468 2.6 6.274a7.739 7.739 0 01-.329.79 5.012 5.012 0 01-.455.853 2.322 2.322 0 01-.818.769 2.632 2.632 0 01-1.018.158.053.053 0 00-.038.018.808.808 0 00-.211.513.681.681 0 00.772.764 1.823 1.823 0 001.486-.951 5.772 5.772 0 00.485-.854c.14-.3.3-.7.483-1.182s.3-.791.357-.929a607.618 607.618 0 012.49-5.992.73.73 0 01.448-.4 1.672 1.672 0 01.552-.13c.082 0 .108-.118.124-.247a.484.484 0 00-.034-.317zM18.891 31.741a.047.047 0 00.035-.015.748.748 0 00.247-.533c0-.154-.045-.232-.133-.232h-2.092v-2.125c0-.027-.011-.074-.088-.095a.307.307 0 00-.137 0 .289.289 0 00-.125.07l-.2.218-.432.469a10.8 10.8 0 00-.383.43.045.045 0 00-.012.032v1h-.564a.047.047 0 00-.035.015 4.75 4.75 0 00-.252.281c-.18.207-.2.255-.2.285 0 .174.083.2.133.2h.913v4.765a2.429 2.429 0 00.149.9 1.3 1.3 0 00.419.578 1.757 1.757 0 00.564.282 2.357 2.357 0 00.645.085 1.773 1.773 0 00.777-.192 2.738 2.738 0 00.6-.373 4.759 4.759 0 00.371-.363.389.389 0 00.081-.284.161.161 0 00-.077-.161.051.051 0 00-.052 0 1.791 1.791 0 01-1.05.373c-.7 0-1.046-.428-1.046-1.311v-4.3zm10.25 5.959a3.467 3.467 0 01-.617-.073c-.331-.066-.375-.136-.381-.157a5.385 5.385 0 01-.081-1.214v-1.825a14.4 14.4 0 00-.05-1.3 4.959 4.959 0 00-.189-.989 1.826 1.826 0 00-.389-.726 1.655 1.655 0 00-.633-.411 2.655 2.655 0 00-.931-.144 2.459 2.459 0 00-1.246.431 4.832 4.832 0 00-1.031.8l-.014.013v-3.73a4.576 4.576 0 01.18-1.428v-.01a.366.366 0 00-.071-.214.21.21 0 00-.162-.108.045.045 0 00-.02 0 7.6 7.6 0 01-2.35.662c-.061.016-.072.095-.074.162a1.96 1.96 0 000 .218c.007.094.012.15.066.15.707 0 .916.145.967.268a2.781 2.781 0 01.079.844v7.338a5.4 5.4 0 01-.081 1.215c-.006.02-.05.09-.381.156a3.467 3.467 0 01-.617.073.051.051 0 00-.04.02.469.469 0 00-.064.269.4.4 0 00.067.276.051.051 0 00.037.016c.165-.006.361-.017.583-.033.246-.018.448-.029.617-.037s.356-.013.558-.013c.052 0 .715.031 1.774.083a.055.055 0 00.038-.016.407.407 0 00.066-.276.469.469 0 00-.064-.269.048.048 0 00-.04-.02 3.468 3.468 0 01-.616-.073c-.331-.066-.376-.136-.382-.157a5.449 5.449 0 01-.081-1.214v-3.47c0-.006.007-.065.243-.26a3.736 3.736 0 01.639-.409 1.47 1.47 0 01.646-.194 1.323 1.323 0 011.247.552 4.691 4.691 0 01.33 2.121v1.66a5.467 5.467 0 01-.081 1.215c-.006.02-.051.09-.381.156a3.487 3.487 0 01-.617.073.048.048 0 00-.04.02.454.454 0 00-.064.269.407.407 0 00.066.276.053.053 0 00.038.016c.164-.006.36-.017.582-.033.247-.018.448-.029.618-.037s.356-.013.557-.013c.053 0 .716.031 1.774.083a.051.051 0 00.037-.016.4.4 0 00.067-.276.469.469 0 00-.064-.269.051.051 0 00-.024-.021zm8.424-.547c-.021 0-.039.012-.07.037a.422.422 0 01-.055.042.684.684 0 01-.078.047 1.007 1.007 0 01-.1.048.471.471 0 01-.111.03.732.732 0 01-.136.012c-.312 0-.465-.239-.465-.73v-3.42a2.512 2.512 0 00-.55-1.642 1.655 1.655 0 00-1.3-.683 3.656 3.656 0 00-1.679.446 6.133 6.133 0 00-1.383.936.687.687 0 00-.087.212.924.924 0 00-.039.216.854.854 0 00.167.511.534.534 0 00.448.236c.451 0 .731-.282.829-.838a1.682 1.682 0 01.285-.754.692.692 0 01.579-.234 1.214 1.214 0 01.97.484 1.629 1.629 0 01.408 1.06v.448a.67.67 0 01-.032.268.245.245 0 01-.138.1c-.148.069-.383.16-.7.273-.3.107-.681.242-1.207.424-.479.165-.815.282-1 .348a1.329 1.329 0 00-.592.5 1.476 1.476 0 00-.271.872 1.884 1.884 0 00.576 1.393 1.944 1.944 0 001.417.566 2.408 2.408 0 001.118-.442 6.974 6.974 0 00.9-.624 1.686 1.686 0 00.365.68.889.889 0 00.676.353 1.5 1.5 0 00.668-.234 3.366 3.366 0 00.611-.41l.009-.011a.661.661 0 00.09-.341c-.007-.148-.07-.179-.123-.179zm-2.374-2.6v2.19c0 .027-.036.13-.492.367-.722.374-1.264.351-1.654-.069a1.109 1.109 0 01-.311-.779 1.152 1.152 0 01.258-.752 1.718 1.718 0 01.723-.5c.164-.065.647-.216 1.476-.462zm8.665-2.812a.049.049 0 00.035-.015.748.748 0 00.247-.533c0-.154-.045-.232-.133-.232h-2.092v-2.125c0-.027-.011-.074-.088-.095a.307.307 0 00-.137 0 .289.289 0 00-.125.07l-.2.218q-.181.2-.431.469c-.17.183-.3.324-.383.43a.045.045 0 00-.012.032v1h-.564a.047.047 0 00-.035.015 4.75 4.75 0 00-.252.281c-.18.207-.2.255-.2.285 0 .174.083.2.133.2h.913v4.765a2.429 2.429 0 00.149.9 1.3 1.3 0 00.419.578 1.747 1.747 0 00.564.282 2.351 2.351 0 00.645.085 1.777 1.777 0 00.777-.192 2.738 2.738 0 00.6-.373 4.759 4.759 0 00.371-.363.393.393 0 00.081-.284.161.161 0 00-.077-.161.051.051 0 00-.052 0 1.791 1.791 0 01-1.05.373c-.7 0-1.046-.428-1.046-1.311v-4.3zm12.431-.896a3.391 3.391 0 00-2.56 1.09 3.817 3.817 0 00-1.027 2.711 3.729 3.729 0 00.99 2.654 3.458 3.458 0 002.629 1.049 3.35 3.35 0 002.548-1.1 3.882 3.882 0 001.022-2.732 3.684 3.684 0 00-.981-2.637 3.461 3.461 0 00-2.621-1.035zm1.9 5.411a2.289 2.289 0 01-.614 1.027 1.507 1.507 0 01-1.086.418 1.69 1.69 0 01-1.218-.517 3.206 3.206 0 01-.785-1.279 5.255 5.255 0 01-.078-2.963 2.285 2.285 0 01.614-1.032 1.507 1.507 0 011.086-.418 1.681 1.681 0 011.21.521 3.265 3.265 0 01.788 1.292 5.161 5.161 0 01.083 2.951zM70.505 37.7a3.468 3.468 0 01-.616-.073c-.331-.066-.376-.136-.382-.157a5.449 5.449 0 01-.081-1.214v-1.825c0-.508-.016-.946-.049-1.3a5.031 5.031 0 00-.189-.989 1.839 1.839 0 00-.389-.726 1.671 1.671 0 00-.633-.411 2.655 2.655 0 00-.931-.144 2.459 2.459 0 00-1.246.431 4.83 4.83 0 00-1.028.793 8.41 8.41 0 01.1-.941.38.38 0 00-.069-.193c-.053-.083-.106-.123-.163-.123a.05.05 0 00-.024.006 7.043 7.043 0 01-2.357.691.052.052 0 00-.036.024.481.481 0 00-.045.26c0 .163.029.21.052.233a.048.048 0 00.036.015c.1 0 .2 0 .316.012a2.276 2.276 0 01.434.085c.158.045.256.1.282.171a3.081 3.081 0 01.08.91v3.022a5.4 5.4 0 01-.081 1.215c-.006.02-.05.09-.381.156a3.477 3.477 0 01-.617.073.049.049 0 00-.04.02.469.469 0 00-.064.269.407.407 0 00.066.276.055.055 0 00.038.016c.165-.006.362-.017.583-.033.246-.018.449-.029.618-.037s.356-.013.558-.013c.052 0 .715.031 1.774.083a.055.055 0 00.038-.016.407.407 0 00.066-.276.469.469 0 00-.064-.269.049.049 0 00-.04-.02 3.477 3.477 0 01-.617-.073c-.331-.066-.375-.136-.381-.157a5.385 5.385 0 01-.081-1.214v-3.47c0-.006.007-.065.243-.26a3.659 3.659 0 01.639-.409 1.467 1.467 0 01.645-.194 1.325 1.325 0 011.248.552 4.7 4.7 0 01.329 2.121v1.66a5.4 5.4 0 01-.081 1.215c-.006.02-.05.09-.381.156a3.467 3.467 0 01-.617.073.051.051 0 00-.04.02.469.469 0 00-.064.269.4.4 0 00.067.276.051.051 0 00.037.016c.165-.006.361-.017.583-.033.246-.018.448-.029.617-.037s.357-.013.558-.013c.052 0 .716.031 1.774.083a.053.053 0 00.038-.016.407.407 0 00.066-.276.454.454 0 00-.064-.269.048.048 0 00-.034-.021zm5.461 0a3.467 3.467 0 01-.617-.073c-.331-.066-.375-.136-.381-.157a5.385 5.385 0 01-.081-1.214v-7.885a4.546 4.546 0 01.18-1.428v-.01a.366.366 0 00-.067-.214.209.209 0 00-.161-.108.052.052 0 00-.021 0 7.6 7.6 0 01-2.349.662c-.061.016-.072.095-.075.162a1.955 1.955 0 00.005.218c.007.094.011.15.066.15.707 0 .915.145.966.268a2.737 2.737 0 01.08.844v7.338a5.4 5.4 0 01-.081 1.215c-.006.02-.05.09-.381.156a3.477 3.477 0 01-.617.073.048.048 0 00-.04.02.469.469 0 00-.064.269.407.407 0 00.066.276.055.055 0 00.038.016c.165-.006.362-.017.583-.033.247-.018.448-.029.618-.037s.356-.013.558-.013c.052 0 .715.031 1.773.083a.051.051 0 00.036-.012.4.4 0 00.067-.276.469.469 0 00-.064-.269.049.049 0 00-.037-.021zm9.44-6.706c-.546.055-1.013.083-1.39.083a11.414 11.414 0 01-1.487-.083.078.078 0 00-.045.017.479.479 0 00-.07.306c0 .077 0 .258.108.258a1.443 1.443 0 01.674.136.38.38 0 01.239.346 1.327 1.327 0 01-.1.512c-.405 1-.887 2.23-1.432 3.65l-1.714-4.368a.09.09 0 01-.012-.043c0-.061.087-.106.158-.132a1.341 1.341 0 01.341-.084c.111-.011.2-.017.265-.017.091 0 .116-.125.128-.248a.663.663 0 00-.016-.3.057.057 0 00-.052-.029 14.325 14.325 0 01-1.654.083 15.8 15.8 0 01-1.655-.083.044.044 0 00-.04.015c-.022.021-.04.057-.04.288 0 .212.011.278.075.278.48 0 .772.1.868.3.624 1.358 1.5 3.469 2.6 6.274a8.262 8.262 0 01-.329.79 5.149 5.149 0 01-.455.854 2.328 2.328 0 01-.819.768 2.624 2.624 0 01-1.017.159.052.052 0 00-.039.017.807.807 0 00-.21.514.68.68 0 00.772.763 1.823 1.823 0 001.485-.951 5.727 5.727 0 00.486-.854c.139-.3.3-.7.483-1.182s.3-.791.356-.929a675.701 675.701 0 012.49-5.992.732.732 0 01.449-.4 1.673 1.673 0 01.551-.13c.082 0 .108-.118.124-.247a.474.474 0 00-.033-.311c-.007-.022-.023-.022-.043-.028zm12.394.747a.049.049 0 00.036-.015.748.748 0 00.247-.533c0-.154-.045-.232-.133-.232h-2.091v-2.125c0-.027-.011-.074-.088-.095a.311.311 0 00-.138 0 .291.291 0 00-.124.07l-.2.218q-.181.2-.431.469c-.17.183-.3.324-.383.43a.045.045 0 00-.012.032v1h-.564a.049.049 0 00-.036.015 4.862 4.862 0 00-.251.281c-.18.207-.195.255-.195.285 0 .174.083.2.133.2h.913v4.765a2.429 2.429 0 00.149.9 1.3 1.3 0 00.419.578 1.747 1.747 0 00.564.282 2.349 2.349 0 00.644.085 1.777 1.777 0 00.778-.192 2.728 2.728 0 00.6-.373 4.608 4.608 0 00.363-.365.393.393 0 00.081-.284c0-.1-.042-.144-.078-.161a.049.049 0 00-.051 0 1.8 1.8 0 01-1.05.373c-.7 0-1.046-.428-1.046-1.311v-4.3zm8.326 4.624c-.036-.032-.054-.042-.075-.042a.048.048 0 00-.038.018 2.983 2.983 0 01-.731.578 2.024 2.024 0 01-1.057.284 2.538 2.538 0 01-1.919-.818 3.135 3.135 0 01-.738-2.27c.2 0 .812-.016 1.981-.046 1.2-.03 1.93-.053 2.155-.07a.38.38 0 00.356-.232 1.555 1.555 0 00.09-.6 2.086 2.086 0 00-.067-.5 2.668 2.668 0 00-.246-.6 2.37 2.37 0 00-.449-.59 2.211 2.211 0 00-.739-.438 2.938 2.938 0 00-1.039-.177 2.435 2.435 0 00-1.152.318 4.026 4.026 0 00-1.067.835 4.264 4.264 0 00-.79 1.277 4.117 4.117 0 00-.311 1.571 3.51 3.51 0 00.947 2.5 3.213 3.213 0 002.423 1 2.655 2.655 0 00.893-.152 2.618 2.618 0 00.732-.39 4.25 4.25 0 00.5-.453 2.924 2.924 0 00.338-.44.642.642 0 00.106-.325.3.3 0 00-.034-.137.336.336 0 00-.069-.101zm-2.8-4.806a1.1 1.1 0 01.612.174 1.256 1.256 0 01.416.431 2.525 2.525 0 01.219.5 1.234 1.234 0 01.065.4c-.015.229-.121.335-.332.335h-2.657c0-.025.013-.068.029-.138a2.939 2.939 0 01.163-.477 3.512 3.512 0 01.3-.565 1.531 1.531 0 01.5-.47 1.283 1.283 0 01.687-.19zm8.741 6.141a3.468 3.468 0 01-.616-.073c-.331-.066-.376-.136-.382-.157a5.449 5.449 0 01-.081-1.214v-7.885a4.542 4.542 0 01.181-1.428v-.01a.366.366 0 00-.071-.214.21.21 0 00-.161-.108.046.046 0 00-.021 0 7.593 7.593 0 01-2.35.662c-.061.016-.072.095-.074.162a1.96 1.96 0 000 .218c.007.094.012.15.067.15.706 0 .915.145.966.268a2.748 2.748 0 01.079.844v7.338a5.4 5.4 0 01-.081 1.215c0 .02-.05.09-.38.156a3.486 3.486 0 01-.618.073.051.051 0 00-.04.02.469.469 0 00-.064.269.4.4 0 00.067.276.051.051 0 00.037.016c.165-.006.361-.017.583-.033.246-.018.448-.029.617-.037s.356-.013.558-.013c.052 0 .715.031 1.774.083a.053.053 0 00.038-.016.407.407 0 00.066-.276.454.454 0 00-.064-.269.048.048 0 00-.03-.017zm5.594 0a3.458 3.458 0 01-.616-.073c-.332-.066-.376-.136-.382-.157a5.385 5.385 0 01-.081-1.214v-7.885a4.576 4.576 0 01.18-1.428v-.01a.36.36 0 00-.072-.214.207.207 0 00-.161-.108.045.045 0 00-.02 0 7.609 7.609 0 01-2.35.662c-.061.016-.072.095-.075.162a1.955 1.955 0 000 .218c.007.094.012.15.066.15.707 0 .916.145.967.268a2.781 2.781 0 01.079.844v7.338a5.4 5.4 0 01-.081 1.215c-.006.02-.05.09-.381.156a3.477 3.477 0 01-.617.073.049.049 0 00-.04.02.469.469 0 00-.064.269.407.407 0 00.066.276.055.055 0 00.038.016c.165-.006.361-.017.583-.033.246-.018.448-.029.617-.037s.356-.013.558-.013c.052 0 .715.031 1.774.083a.055.055 0 00.038-.016.407.407 0 00.066-.276.469.469 0 00-.064-.269.049.049 0 00-.028-.017zm6.949-2.44c-.1-.125-.18-.227-.256-.311a1.927 1.927 0 00-.353-.29c-.153-.1-.269-.181-.35-.233s-.208-.13-.38-.23-.283-.164-.331-.19l-.358-.2c-.2-.116-.306-.178-.354-.21s-.153-.109-.275-.2a1.116 1.116 0 01-.242-.246 1.315 1.315 0 01-.131-.285 1.07 1.07 0 01-.06-.369.954.954 0 01.287-.719 1.178 1.178 0 01.842-.277 1.048 1.048 0 01.823.467 2.844 2.844 0 01.528 1.015.054.054 0 00.016.026.475.475 0 00.314.094c.179 0 .216-.072.216-.134a10.061 10.061 0 00-.2-1.835.051.051 0 00-.044-.039 16.655 16.655 0 01-.768-.119 5.536 5.536 0 00-.93-.1 2.7 2.7 0 00-1.716.579 1.829 1.829 0 00-.741 1.5 1.631 1.631 0 00.351 1.057 3.283 3.283 0 00.934.761c.116.073.3.175.568.314s.451.242.577.321a4.3 4.3 0 01.427.317 1.161 1.161 0 01.33.414 1.219 1.219 0 01.1.5 1.107 1.107 0 01-.321.839 1.15 1.15 0 01-.825.306 1.535 1.535 0 01-1.086-.48 2.4 2.4 0 01-.658-1.061.048.048 0 00-.021-.027.311.311 0 00-.177-.042.54.54 0 00-.329.109.054.054 0 00-.02.04 6.063 6.063 0 00.092.908 4.529 4.529 0 00.193.836.051.051 0 00.039.032c.137.025.333.067.615.132s.5.108.693.138a4.362 4.362 0 00.643.046 2.728 2.728 0 001.829-.663 2.127 2.127 0 00.777-1.678 1.5 1.5 0 00-.06-.426 1.218 1.218 0 00-.208-.387zm16.317-4.266c-.546.055-1.013.083-1.389.083a11.431 11.431 0 01-1.488-.083.08.08 0 00-.044.017.479.479 0 00-.07.306c0 .077 0 .258.108.258a1.436 1.436 0 01.673.136.381.381 0 01.24.346 1.327 1.327 0 01-.1.512c-.405 1-.886 2.23-1.431 3.65l-1.715-4.368a.1.1 0 01-.011-.043c0-.061.086-.106.158-.132a1.345 1.345 0 01.34-.084c.112-.011.2-.017.265-.017.092 0 .117-.125.129-.248a.663.663 0 00-.016-.3.059.059 0 00-.052-.029 14.325 14.325 0 01-1.654.083 15.771 15.771 0 01-1.655-.083.047.047 0 00-.041.015c-.022.021-.039.057-.039.288 0 .212.01.278.074.278.481 0 .773.1.868.3.625 1.358 1.5 3.469 2.6 6.274a7.992 7.992 0 01-.329.79 5.149 5.149 0 01-.455.854 2.335 2.335 0 01-.818.768 2.63 2.63 0 01-1.018.159.05.05 0 00-.038.017.809.809 0 00-.211.514.68.68 0 00.772.763 1.82 1.82 0 001.485-.951 5.64 5.64 0 00.486-.854c.14-.3.3-.7.483-1.182s.3-.791.357-.929a618.308 618.308 0 012.49-5.992.73.73 0 01.448-.4 1.673 1.673 0 01.551-.13c.083 0 .109-.118.125-.247a.481.481 0 00-.033-.311.063.063 0 00-.045-.028zm5.624-.149a3.389 3.389 0 00-2.56 1.09 3.817 3.817 0 00-1.026 2.711 3.728 3.728 0 00.989 2.654 3.462 3.462 0 002.63 1.049 3.346 3.346 0 002.547-1.1 3.877 3.877 0 001.022-2.732 3.683 3.683 0 00-.98-2.637 3.461 3.461 0 00-2.622-1.035zm1.9 5.411a2.279 2.279 0 01-.613 1.027 1.511 1.511 0 01-1.086.418 1.69 1.69 0 01-1.218-.517 3.2 3.2 0 01-.785-1.279 5.231 5.231 0 01-.078-2.963 2.283 2.283 0 01.613-1.032 1.511 1.511 0 011.086-.418 1.679 1.679 0 011.21.521 3.267 3.267 0 01.789 1.292 5.148 5.148 0 01.082 2.951zm11.87 1.096c-.008 0-.061 0-.16-.008s-.2-.015-.311-.029a1.159 1.159 0 01-.307-.083c-.09-.039-.141-.085-.153-.139a6.04 6.04 0 01-.116-1.251v-3.487a3 3 0 01.112-1.056.059.059 0 000-.023.787.787 0 00-.066-.254c-.034-.09-.085-.194-.167-.194h-.014a8.918 8.918 0 01-2.262.33.048.048 0 00-.038.02.4.4 0 00-.055.259.353.353 0 00.06.239.054.054 0 00.035.013c.476 0 .774.1.886.306a2.074 2.074 0 01.127.873v3.587c0 .185-.152.376-.466.566a1.923 1.923 0 01-1.012.3 1.35 1.35 0 01-1.22-.6 3.7 3.7 0 01-.39-1.924v-2.442a3.322 3.322 0 01.111-1.123.051.051 0 00.005-.022.557.557 0 00-.067-.225c-.033-.067-.086-.157-.166-.157h-.014a8.918 8.918 0 01-2.262.33.048.048 0 00-.038.02.4.4 0 00-.055.259.353.353 0 00.06.239.054.054 0 00.035.013c.477 0 .774.1.886.306a2.074 2.074 0 01.127.873v2.125a8.261 8.261 0 00.045.89 5.237 5.237 0 00.185.884 2.893 2.893 0 00.363.8 1.817 1.817 0 001.532.777 2.967 2.967 0 001.309-.35 3.972 3.972 0 001.031-.706v.757a.5.5 0 00.041.2c.041.093.1.112.141.112h.014l.523-.149c.171-.049.335-.092.5-.132.181-.045.376-.083.577-.115s.392-.056.544-.067c.084 0 .125-.1.139-.139a.565.565 0 00.044-.176c0-.131-.024-.2-.077-.228a.059.059 0 00-.016.001zm3.459-.863a.968.968 0 00-.685.276.883.883 0 00-.294.67 1 1 0 00.979.98.891.891 0 00.672-.294.974.974 0 00.275-.686.944.944 0 00-.947-.946z" fill="#5f648c" data-name="レイヤー 2"/></svg>