<svg id="_レイヤー_2" data-name="レイヤー 2" xmlns="http://www.w3.org/2000/svg" viewBox="0 0 584.98 129.2"><defs><style>.cls-1{fill:#fff}</style></defs><g id="_背景" data-name="背景"><path class="cls-1" d="M163.84 36.83c.3-.6 1.1-1.61 3.09-1.61h2.69v14.97c0 2.44-1.14 2.5-1.15 2.5 0 0-.01 0-.01.01s0 .01.01.01h4.29s.01 0 .01-.01 0-.01-.01-.01-1.17-.08-1.17-2.5V35.22h2.69c1.99 0 2.79 1.01 3.09 1.61 0 0 .01.01.02 0 0 0 .01 0 0-.02l-.38-2.7s0-.01-.01-.01h-12.79s-.01 0-.01.01l-.38 2.7v.02h.02zm38.25 13.35V36.63c0-2.39 1.14-2.5 1.15-2.5 0 0 .01 0 .01-.01 0 0 0-.01-.01-.01h-4.29s-.01 0-.01.01c0 0 0 .01.01.01s1.17.14 1.17 2.5v6.22H190v-6.22c0-2.36 1.16-2.5 1.17-2.5 0 0 .01 0 .01-.01 0 0 0-.01-.01-.01h-4.29s-.01 0-.01.01c0 0 0 .01.01.01s1.15.14 1.15 2.5v13.55c0 2.39-1.14 2.5-1.15 2.5 0 0-.01 0-.01.01 0 0 0 .01.01.01h4.29s.01 0 .01-.01c0 0 0-.01-.01-.01s-1.17-.11-1.17-2.5v-6.11h10.12v6.11c0 2.39-1.16 2.5-1.17 2.5 0 0-.01 0-.01.01 0 0 0 .01.01.01h4.32s.01 0 .01-.01c0 0 0-.01-.01-.01s-1.17-.14-1.17-2.5zm22.71-.35c-.53 1.09-1.81 1.77-3.33 1.77h-4.2v-7.64h4.66c1.17 0 1.66.74 1.66.75h.02s.01 0 .01-.01v-2.62s0-.01-.01-.01h-.02s-.5.78-1.69.78h-4.63v-7.64h3.74c1.6 0 2.58.54 2.9 1.61 0 0 0 .01.01.01 0 0 .01 0 .01-.01v-2.7s0-.01-.01-.01h-9.77s-.01 0-.01.01 0 .01.01.01 1.15.17 1.15 2.6v13.25c0 2.57-1.14 2.68-1.15 2.69 0 0-.01 0-.01.01 0 0 0 .01.01.01h10.18s.01 0 .01-.01l.49-2.86v-.02h-.02zm-2.65-6.98c.09 0 .18-.02.26-.04-.08.02-.17.03-.26.04zm.75-.2s.05-.02.08-.03c-.02.01-.05.02-.08.03zm.08 1.54s-.02 0-.03-.01c0 0 .02 0 .03.01zm-.56-.19c-.08-.02-.16-.02-.24-.03.08 0 .17.02.24.03zm31.31 9.03c.12 0 .24-.02.35-.03.13 0 .26-.02.4-.03.24-.03.47-.06.7-.12l.36-.09c.22-.06.43-.14.64-.22.12-.05.24-.1.35-.16.19-.09.37-.2.54-.31.12-.08.24-.16.35-.25.08-.06.17-.11.24-.17.06-.06.11-.12.17-.18.14-.13.27-.27.39-.42a4.562 4.562 0 00.57-.87c.08-.16.16-.33.22-.51.06-.16.11-.33.16-.5.05-.19.09-.38.11-.57.03-.17.04-.35.05-.54 0-.1.03-.2.03-.31 0-1.39-.49-2.52-1.5-3.45-.87-.81-1.99-1.37-3.26-1.96l-.16-.08c-2.11-1-4.1-1.94-4.1-4.01 0-.88.32-1.71.91-2.33.63-.67 1.5-1.02 2.5-1.02 1.6 0 3.65.96 4.6 3.12h.01s.01 0 .01-.01v-2.93a8.647 8.647 0 00-4.54-1.3c-1.39 0-2.68.48-3.63 1.34-.98.9-1.52 2.16-1.52 3.56 0 2.18 1.26 3.61 4.49 5.11 1.5.7 2.46 1.25 3.11 1.81l.01.01c.09.08.17.16.25.24.67.68.96 1.44.96 2.46s-.37 1.9-1.05 2.57c-.68.67-1.6 1.03-2.6 1.03s-2.05-.31-2.92-.88c-.99-.65-1.76-1.61-2.22-2.78h-.01s-.01 0-.01.01v3.28c1.37.96 3.16 1.49 5.03 1.49zm23.64-.34s0-.01-.01-.01-1.17-.08-1.17-2.5V35.21h2.69c1.99 0 2.79 1.01 3.09 1.61 0 0 .01.01.02 0 0 0 .01 0 0-.02l-.38-2.7s0-.01-.01-.01h-12.79s-.01 0-.01.01l-.38 2.7v.02h.02c.3-.6 1.1-1.61 3.09-1.61h2.69v14.97c0 2.44-1.14 2.5-1.15 2.5 0 0-.01 0-.01.01s0 .01.01.01h4.29s.01 0 .01-.01zm32.61-9.5c0-2.92-.99-5.36-2.85-7.06-1.66-1.52-3.94-2.35-6.4-2.35-2.89 0-5.36.95-7.14 2.75-1.77 1.78-2.7 4.24-2.7 7.09s.99 5.36 2.85 7.06c1.66 1.52 3.94 2.35 6.4 2.35 2.89 0 5.36-.95 7.14-2.75 1.77-1.78 2.7-4.24 2.7-7.09zm-9.13 8.68c-2.16 0-4.14-.87-5.56-2.45s-2.2-3.78-2.2-6.2.67-4.52 1.95-6.02c1.26-1.48 2.99-2.26 5-2.26 2.16 0 4.14.87 5.56 2.46 1.42 1.58 2.2 3.78 2.2 6.2s-.67 4.52-1.95 6.02c-1.26 1.48-2.99 2.26-5 2.26zm30.97-1.78l-4.73-6.03s.12-.02.19-.04c.09-.02.19-.04.22-.04 1.26-.29 2.33-.96 3.1-1.93.72-.9 1.12-1.99 1.12-3.07 0-.1-.02-.19-.03-.28 0-.14-.02-.27-.04-.4-.02-.17-.05-.34-.09-.51-.04-.15-.08-.3-.13-.45-.05-.14-.1-.27-.16-.41-.06-.14-.14-.27-.22-.41-.08-.14-.17-.26-.27-.39-.08-.1-.16-.19-.24-.29-.06-.07-.11-.15-.18-.21-.05-.05-.12-.08-.18-.13-.16-.14-.34-.28-.53-.4-.14-.09-.29-.17-.44-.25-.17-.09-.35-.17-.55-.24-.2-.08-.4-.14-.62-.2-.18-.05-.36-.09-.55-.12-.26-.05-.52-.09-.8-.12-.18-.02-.37-.03-.57-.04-.16 0-.3-.03-.47-.03h-5.34s-.01 0-.01.01c0 0 0 .01.01.01s1.15.11 1.15 2.58v13.5c0 2.36-1.14 2.47-1.15 2.47 0 0-.01 0-.01.01 0 0 0 .01.01.01h4.29s.01 0 .01-.01 0-.01-.01-.01-1.17-.08-1.17-2.47V35.21h2.28c2.77 0 4.03 2.12 4.03 4.09 0 1.02-.37 2.03-1.03 2.76-.74.83-1.77 1.27-2.98 1.27h-1.63v.01l7.34 9.34h3.17s.01 0 .01-.01v-.02s-.73-.27-2.8-2.59zm11.87-13.4l4.61 8.01v5.48c0 2.22-.96 2.47-1.07 2.5 0 0-.01 0-.01.01 0 0 0 .01.01.01h4.1s.01 0 .01-.01 0-.01-.01-.01c-.04 0-1.07-.18-1.07-2.5v-5.45l4.67-8.01c1.34-2.32 2.14-2.56 2.29-2.58 0 0 .01 0 .01-.01 0 0 0-.01-.01-.01h-3.97s-.01 0-.01.01 0 .01.01.01c.15.02.9.17.9.96 0 .33-.05.85-.46 1.53l-3.9 6.75-3.9-6.86c-.42-.72-.67-1.19-.67-1.53s.11-.74.66-.85c0 0 .01 0 .01-.01 0 0 0-.01-.01-.01h-4.54s-.01 0-.01.01 0 .01.01.02c.94.32 1.87 1.74 2.34 2.56zm10.46-1.76s-.01-.1-.03-.14c.01.04.02.09.03.14zm-8.49-.74s-.05.02-.07.04c.03-.01.05-.03.07-.04zm42.94-.4c-2.93 0-5.41.94-7.19 2.72-.85.85-1.51 1.88-1.96 3.04-.46 1.17-.69 2.46-.69 3.84 0 2.89 1 5.35 2.89 7.13 1.73 1.63 4.07 2.53 6.58 2.53s4.79-.99 6-1.97v-1.32h-.02c-1.51 1.34-3.36 1.99-5.66 1.99-2.1 0-4.01-.8-5.38-2.26-1.45-1.55-2.22-3.74-2.22-6.31 0-2.3.69-4.37 1.95-5.84 1.34-1.56 3.23-2.38 5.49-2.38 2.4 0 4.69 1.27 5.82 3.23 0 0 0 .01.02 0 0 0 .01 0 .01-.01v-3.01c-1.12-.63-3-1.38-5.62-1.38zm25.75 0c-2.89 0-5.36.95-7.14 2.75-1.77 1.78-2.7 4.24-2.7 7.09s.99 5.36 2.85 7.06c1.66 1.52 3.94 2.35 6.4 2.35 2.89 0 5.36-.95 7.14-2.75 1.77-1.78 2.7-4.24 2.7-7.09s-.99-5.36-2.85-7.06c-1.66-1.52-3.94-2.35-6.4-2.35zm.11 18.08c-2.16 0-4.14-.87-5.56-2.45s-2.2-3.78-2.2-6.2.67-4.52 1.95-6.02c1.26-1.48 2.99-2.26 5-2.26 2.16 0 4.14.87 5.56 2.46 1.42 1.58 2.2 3.78 2.2 6.2s-.67 4.52-1.95 6.02c-1.26 1.48-2.99 2.26-5 2.26zm33.05-17.76s-.01 0-.01.01 0 .01.01.02c1.15.31 1.39 1.5 1.39 2.44v12.27l-12.63-14.74h-3.36s-.01 0-.01.01c0 0 0 .01.01.01 1.22.23 2.17 1.38 2.17 2.6v13.5c0 2-.88 2.38-1.15 2.44 0 0-.01 0-.01.02 0 0 0 .01.01.01h3.81s.01 0 .01-.01c0 0 0-.01-.01-.01-.65-.12-1.34-.81-1.34-2.42V37.37l13.8 16.09h.01V36.58c0-2.09.91-2.4 1.1-2.44 0 0 .01 0 .01-.02 0 0 0-.01-.01-.01h-3.81zm26.54 0h-12.79s-.01 0-.01.01l-.38 2.7v.02h.02c.3-.6 1.1-1.61 3.09-1.61h2.69V50.2c0 2.44-1.14 2.5-1.15 2.5 0 0-.01 0-.01.01s0 .01.01.01h4.29s.01 0 .01-.01 0-.01-.01-.01-1.17-.08-1.17-2.5V35.23h2.69c1.99 0 2.79 1.01 3.09 1.61 0 0 0 .01.02 0 0 0 .01 0 0-.02l-.38-2.7s0-.01-.01-.01zm14.18.03s.01 0 .01-.01c0 0 0-.01-.01-.01h-4.29s-.01 0-.01.01c0 0 0 .01.01.01s1.15.14 1.15 2.5v13.55c0 2.39-1.16 2.5-1.17 2.5 0 0-.01 0-.01.01 0 0 0 .01.01.01h4.32s.01 0 .01-.01c0 0 0-.01-.01-.01s-1.17-.11-1.17-2.5V36.64c0-2.36 1.16-2.5 1.17-2.5zm24.46-.03s-.01 0-.01.01 0 .01.01.02c1.15.31 1.39 1.5 1.39 2.44v12.27l-12.63-14.74h-3.36s-.01 0-.01.01c0 0 0 .01.01.01 1.22.23 2.17 1.38 2.17 2.6v13.5c0 2-.88 2.38-1.15 2.44 0 0-.01 0-.01.02 0 0 0 .01.01.01h3.81s.01 0 .01-.01c0 0 0-.01-.01-.01-.65-.12-1.34-.81-1.34-2.42V37.37l13.8 16.09h.01V36.58c0-2.09.91-2.4 1.1-2.44 0 0 .01 0 .01-.02 0 0 0-.01-.01-.01h-3.81zm30.36.01s0-.01-.01-.01h-3.89s-.01 0-.01.01c0 0 0 .01.01.01s1.17.11 1.17 2.5v9.74c0 1.77-.45 3.14-1.33 4.07-.83.87-2.01 1.32-3.49 1.32-3.18 0-4.93-1.94-4.93-5.46v-9.74c0-2.28 1.11-2.41 1.12-2.42 0 0 .01 0 .01-.01 0 0 0-.01-.01-.01h-4.21s-.01 0-.01.01c0 0 0 .01.01.01s1.12.11 1.12 2.5v9.66c0 .13.02.24.03.36 0 .27.03.54.06.79.02.2.05.4.09.59.06.29.12.57.21.83.05.15.1.29.15.43.1.27.22.52.36.76a5.502 5.502 0 00.7.99c.05.06.09.13.15.19s.13.1.19.15a4.987 4.987 0 001.06.76c.18.1.37.19.57.28.21.09.44.17.67.24.2.06.4.11.62.16.25.05.5.09.76.12.23.03.48.04.72.05.14 0 .26.03.4.03 1.93 0 3.56-.61 4.71-1.77 1.18-1.19 1.81-2.93 1.81-5.02v-9.61c0-2.36 1.16-2.5 1.17-2.5 0 0 .01 0 .01-.01zm20.57 18.58l.49-2.86v-.02h-.02c-.53 1.09-1.81 1.77-3.33 1.77h-4.2v-7.64h4.66c1.17 0 1.66.74 1.66.75h.02s.01 0 .01-.01v-2.62s0-.01-.01-.01h-.02s-.5.78-1.69.78h-4.63V35.2h3.74c1.6 0 2.58.54 2.9 1.61 0 0 0 .01.01.01 0 0 .01 0 .01-.01v-2.7s0-.01-.01-.01h-9.77s-.01 0-.01.01 0 .01.01.01 1.15.17 1.15 2.6v13.25c0 2.57-1.14 2.68-1.15 2.69 0 0-.01 0-.01.01 0 0 0 .01.01.01h10.18s.01 0 .01-.01zm-2.19-9.85c.09 0 .18-.02.26-.04-.08.02-.17.03-.26.04zm.75-.2s.05-.02.08-.03c-.02.01-.05.02-.08.03zm.08 1.54s-.02 0-.03-.01c0 0 .02 0 .03.01zm-.56-.19c-.08-.02-.16-.02-.24-.03.08 0 .17.02.24.03zm22.14 7.05a4.562 4.562 0 00.57-.87c.08-.16.16-.33.22-.51.06-.16.11-.33.16-.5.05-.19.09-.38.11-.57.03-.17.04-.35.05-.54 0-.1.03-.2.03-.31 0-1.39-.49-2.52-1.5-3.45-.87-.81-1.99-1.37-3.26-1.96l-.16-.08c-2.11-1-4.1-1.94-4.1-4.01 0-.88.32-1.71.91-2.33.63-.67 1.5-1.02 2.5-1.02 1.6 0 3.65.96 4.6 3.12h.01s.01 0 .01-.01v-2.93a8.647 8.647 0 00-4.54-1.3c-1.39 0-2.68.48-3.63 1.34-.98.9-1.52 2.16-1.52 3.56 0 2.18 1.26 3.61 4.49 5.11 1.5.7 2.46 1.25 3.11 1.81l.01.01c.09.08.17.16.25.24.67.68.96 1.44.96 2.46s-.37 1.9-1.05 2.57c-.68.67-1.6 1.03-2.6 1.03s-2.05-.31-2.92-.88c-.99-.65-1.76-1.61-2.22-2.78h-.02s-.01 0-.01.01v3.28c1.37.96 3.16 1.49 5.03 1.49.12 0 .24-.02.35-.03.13 0 .26-.02.4-.03.24-.03.47-.06.7-.12l.36-.09c.22-.06.44-.14.64-.22.12-.05.24-.1.35-.16.19-.09.37-.2.54-.31.12-.08.24-.16.35-.25.08-.06.17-.11.24-.17.06-.06.11-.12.17-.18.14-.13.27-.27.39-.42zM179.47 97.1l-6.99-16.84h-.02l-7.04 16.76c-1.1 2.59-1.87 2.66-1.96 2.66 0 0-.01 0-.01.01s0 .01.01.01h3.86s.01 0 .01-.01v-.02c-.55-.25-.8-.65-.8-1.26 0-.42.13-.96.4-1.64l1.72-4.28h6.7l1.89 4.58c.29.72.43 1.23.43 1.61 0 .47-.2.77-.67.99v.02c0 .02 0 .01.01.01h4.48s.01 0 .01-.01 0-.01-.01-.01c-.1-.02-1.03-.21-2.01-2.58zm-7.49-12.89l2.92 7.15h-5.79l2.87-7.15zm28.55 12.96c.08-.16.16-.33.22-.51.06-.16.11-.33.16-.5.05-.19.09-.38.11-.57.03-.17.04-.35.05-.54 0-.1.03-.2.03-.31 0-1.39-.49-2.52-1.5-3.45-.87-.81-1.99-1.37-3.26-1.96l-.16-.08c-2.11-1-4.1-1.94-4.1-4.01 0-.88.32-1.71.91-2.33.63-.67 1.5-1.02 2.5-1.02 1.6 0 3.65.96 4.6 3.12h.01c.01 0 .01 0 .01-.01v-2.93a8.647 8.647 0 00-4.54-1.3c-1.39 0-2.68.48-3.63 1.34-.98.9-1.52 2.16-1.52 3.56 0 2.18 1.26 3.61 4.49 5.11 1.5.7 2.46 1.25 3.11 1.81l.01.01c.09.08.17.16.25.24.67.68.96 1.44.96 2.46s-.37 1.9-1.05 2.57c-.68.67-1.6 1.03-2.6 1.03s-2.05-.31-2.92-.88c-.99-.65-1.76-1.61-2.22-2.78h-.01c-.01 0-.01 0-.01.01v3.28c1.37.96 3.16 1.49 5.03 1.49.12 0 .24-.02.35-.03.13 0 .26-.02.4-.03.24-.03.47-.06.7-.12l.36-.09c.22-.06.43-.14.64-.22.12-.05.24-.1.35-.16.19-.09.37-.2.54-.31.12-.08.24-.16.35-.25.08-.06.17-.11.24-.17.06-.06.11-.12.17-.18.14-.13.27-.27.39-.42a4.562 4.562 0 00.57-.87zm35.57-.35h-.01c-.53 1.09-1.81 1.77-3.33 1.77h-4.41V83.62c0-2.36 1.16-2.5 1.17-2.5 0 0 .01 0 .01-.01 0 0 0-.01-.01-.01h-4.29s-.01 0-.01.01c0 0 0 .01.01.01s1.15.14 1.15 2.5v13.36c0 2.57-1.14 2.68-1.15 2.69 0 0-.01 0-.01.01 0 0 0 .01.01.01h10.39s.01 0 .01-.01l.49-2.86v-.02zm18.79-16.03c-2.89 0-5.36.95-7.14 2.75-1.77 1.78-2.7 4.24-2.7 7.09s.99 5.36 2.85 7.06c1.66 1.52 3.94 2.35 6.4 2.35 2.89 0 5.36-.95 7.14-2.75 1.77-1.78 2.7-4.24 2.7-7.09s-.99-5.36-2.85-7.06c-1.66-1.52-3.94-2.35-6.4-2.35zm.11 18.08c-2.16 0-4.14-.87-5.56-2.45s-2.2-3.78-2.2-6.2.67-4.52 1.95-6.02c1.26-1.48 2.99-2.26 5-2.26 2.16 0 4.14.87 5.56 2.46 1.42 1.58 2.2 3.78 2.2 6.2s-.67 4.52-1.95 6.02c-1.26 1.48-2.99 2.26-5 2.26zm33.05-17.76s-.01 0-.01.01 0 .01.01.02c1.15.31 1.39 1.5 1.39 2.44v12.27l-12.63-14.74h-3.36s-.01 0-.01.01c0 0 0 .01.01.01 1.22.23 2.17 1.38 2.17 2.6v13.5c0 2-.88 2.38-1.15 2.44 0 0-.01 0-.01.02 0 0 0 .01.01.01h3.81s.01 0 .01-.01c0 0 0-.01-.01-.01-.65-.12-1.34-.81-1.34-2.42V84.37l13.8 16.09h.01V83.58c0-2.09.91-2.4 1.1-2.44 0 0 .01 0 .01-.02 0 0 0-.01-.01-.01h-3.81zm27.05 10.15s-.01 0-.01.01c0 0 0 .01.01.01s1.18.26 1.18 2.12v4.44c-1.14.55-2.6.89-3.93.89-2.14 0-4.1-.76-5.52-2.14-1.57-1.53-2.41-3.75-2.41-6.4 0-2.48.73-4.56 2.1-6.01 1.38-1.46 3.35-2.23 5.72-2.23 1.1 0 2.29.31 3.35.88 1.11.59 1.98 1.41 2.52 2.35h.02s.01 0 .01-.01v-3.01c-.41-.23-2.62-1.38-5.84-1.38-5.92 0-10.06 3.96-10.06 9.62 0 6.63 4.82 9.6 9.6 9.6 2.23 0 4.51-.65 6.4-1.84v-4.92c0-1.8 1.16-1.96 1.17-1.96 0 0 .01 0 .01-.01s0-.01-.01-.01h-4.32zm42.67 5.84l-6.99-16.84h-.02l-7.04 16.76c-1.1 2.59-1.87 2.66-1.96 2.66 0 0-.01 0-.01.01s0 .01.01.01h3.86s.01 0 .01-.01v-.02c-.55-.25-.8-.65-.8-1.26 0-.42.13-.96.4-1.64l1.72-4.28h6.7l1.89 4.58c.29.72.43 1.23.43 1.61 0 .47-.2.77-.67.99v.02c0 .02 0 .01.01.01h4.48s.01 0 .01-.01 0-.01-.01-.01c-.1-.02-1.03-.21-2.01-2.58zm-7.49-12.89l2.92 7.15h-5.79l2.87-7.15zm28.55 12.96c.08-.16.16-.33.22-.51.06-.16.11-.33.16-.5.05-.19.09-.38.11-.57.03-.17.04-.35.05-.54 0-.1.03-.2.03-.31 0-1.39-.49-2.52-1.5-3.45-.87-.81-1.99-1.37-3.26-1.96l-.16-.08c-2.11-1-4.1-1.94-4.1-4.01 0-.88.32-1.71.91-2.33.63-.67 1.5-1.02 2.5-1.02 1.6 0 3.65.96 4.6 3.12h.01c.01 0 .01 0 .01-.01v-2.93a8.647 8.647 0 00-4.54-1.3c-1.39 0-2.68.48-3.63 1.34-.98.9-1.52 2.16-1.52 3.56 0 2.18 1.26 3.61 4.49 5.11 1.5.7 2.46 1.25 3.11 1.81l.01.01c.09.08.17.16.25.24.67.68.96 1.44.96 2.46s-.37 1.9-1.05 2.57c-.68.67-1.6 1.03-2.6 1.03s-2.05-.31-2.92-.88c-.99-.65-1.76-1.61-2.22-2.78 0 0-.01-.01-.02 0 0 0-.01 0-.01.01v3.28c1.37.96 3.16 1.49 5.03 1.49.12 0 .24-.02.35-.03.13 0 .26-.02.4-.03.24-.03.47-.06.7-.12l.36-.09c.22-.06.44-.14.64-.22.12-.05.24-.1.35-.16.19-.09.37-.2.54-.31.12-.08.24-.16.35-.25.08-.06.17-.11.24-.17.06-.06.11-.12.17-.18.14-.13.27-.27.39-.42a4.562 4.562 0 00.57-.87zm34.15-16.06s-.01 0-.01.01 0 .01.01.01c.15.02.9.17.9.96 0 .33-.05.85-.46 1.53l-3.9 6.75-3.9-6.86c-.42-.72-.67-1.19-.67-1.53s.11-.74.66-.85c0 0 .01 0 .01-.01 0 0 0-.01-.01-.01h-4.54s-.01 0-.01.01 0 .01.01.02c.94.32 1.87 1.74 2.34 2.56l4.61 8.01v5.48c0 2.22-.96 2.47-1.07 2.5 0 0-.01 0-.01.01 0 0 0 .01.01.01h4.1s.01 0 .01-.01 0-.01-.01-.01c-.04 0-1.07-.18-1.07-2.5v-5.45l4.67-8.01c1.34-2.32 2.14-2.56 2.29-2.58 0 0 .01 0 .01-.01 0 0 0-.01-.01-.01h-3.97zm.89.82s-.01-.1-.03-.14c.01.04.02.09.03.14zm-8.49-.74s-.05.02-.07.04c.03-.01.05-.03.07-.04zm29.28-.4c-2.89 0-5.36.95-7.14 2.75-1.77 1.78-2.7 4.24-2.7 7.09s.99 5.36 2.85 7.06c1.66 1.52 3.94 2.35 6.4 2.35 2.89 0 5.36-.95 7.14-2.75 1.77-1.78 2.7-4.24 2.7-7.09s-.99-5.36-2.85-7.06c-1.66-1.52-3.94-2.35-6.4-2.35zm.11 18.08c-2.16 0-4.14-.87-5.56-2.45s-2.2-3.78-2.2-6.2.67-4.52 1.95-6.02c1.26-1.48 2.99-2.26 5-2.26 2.16 0 4.14.87 5.56 2.46 1.42 1.58 2.2 3.78 2.2 6.2s-.67 4.52-1.95 6.02c-1.26 1.48-2.99 2.26-5 2.26zm31.15-17.76s-.01 0-.01.01c0 0 0 .01.01.01s1.17.11 1.17 2.5v9.74c0 1.77-.45 3.14-1.33 4.07-.83.87-2.01 1.32-3.49 1.32-3.18 0-4.93-1.94-4.93-5.46v-9.74c0-2.28 1.11-2.41 1.12-2.42 0 0 .01 0 .01-.01 0 0 0-.01-.01-.01h-4.21s-.01 0-.01.01c0 0 0 .01.01.01s1.12.11 1.12 2.5v9.66c0 .13.02.24.03.36 0 .27.03.54.06.79.02.2.05.4.09.59.06.29.12.57.21.83.05.15.1.29.15.43.1.27.22.52.36.76a5.502 5.502 0 00.7.99c.05.06.09.13.15.19s.13.1.19.15a4.987 4.987 0 001.06.76c.18.1.37.19.57.28.21.09.44.17.67.24.2.06.4.11.62.16.25.05.5.09.76.12.23.03.48.04.72.05.14 0 .26.03.4.03 1.93 0 3.56-.61 4.71-1.77 1.18-1.19 1.81-2.93 1.81-5.02v-9.61c0-2.36 1.16-2.5 1.17-2.5 0 0 .01 0 .01-.01 0 0 0-.01-.01-.01h-3.89zm42.19 15.99l-6.99-16.84h-.02l-7.04 16.76c-1.1 2.59-1.87 2.66-1.96 2.66 0 0-.01 0-.01.01s0 .01.01.01h3.86s.01 0 .01-.01v-.02c-.55-.25-.8-.65-.8-1.26 0-.42.13-.96.4-1.64l1.72-4.28h6.7l1.89 4.58c.29.72.43 1.23.43 1.61 0 .47-.2.77-.67.99v.02c0 .02 0 .01.01.01h4.48s.01 0 .01-.01 0-.01-.01-.01c-.1-.02-1.03-.21-2.01-2.58zm-7.49-12.89l2.92 7.15h-5.79l2.87-7.15zm30.09 12.88l-4.73-6.03s.12-.02.19-.04c.09-.02.19-.04.22-.04 1.26-.29 2.33-.96 3.1-1.93.72-.9 1.12-1.99 1.12-3.07 0-.1-.02-.19-.03-.28 0-.14-.02-.27-.04-.4-.02-.17-.05-.34-.09-.51-.04-.15-.08-.3-.13-.45-.05-.14-.1-.27-.16-.41-.06-.14-.14-.27-.22-.41-.08-.14-.17-.26-.27-.39-.08-.1-.16-.19-.24-.29-.06-.07-.11-.15-.18-.21-.05-.05-.12-.08-.18-.13-.16-.14-.34-.28-.53-.4-.14-.09-.29-.17-.44-.25-.17-.09-.35-.17-.55-.24-.2-.08-.4-.14-.62-.2-.18-.05-.36-.09-.55-.12-.26-.05-.52-.09-.8-.12-.18-.02-.37-.03-.57-.04-.16 0-.3-.03-.47-.03h-5.34s-.01 0-.01.01c0 0 0 .01.01.01s1.15.11 1.15 2.58v13.5c0 2.36-1.14 2.47-1.15 2.47 0 0-.01 0-.01.01 0 0 0 .01.01.01h4.29s.01 0 .01-.01 0-.01-.01-.01-1.17-.08-1.17-2.47V82.21h2.28c2.77 0 4.03 2.12 4.03 4.09 0 1.02-.37 2.03-1.03 2.76-.74.83-1.77 1.27-2.98 1.27h-1.63v.01l7.34 9.34h3.17s.01 0 .01-.01v-.02s-.73-.27-2.8-2.59zm22.64-.27h-.01c-.53 1.09-1.81 1.77-3.33 1.77h-4.2v-7.64h4.66c1.17 0 1.66.74 1.66.75h.02s.01 0 .01-.01v-2.62s0-.01-.01-.01h-.02s-.5.78-1.69.78h-4.63V82.2h3.74c1.6 0 2.58.54 2.9 1.61h.02s.01 0 .01-.01v-2.7s0-.01-.01-.01h-9.77s-.01 0-.01.01 0 .01.01.01 1.15.17 1.15 2.6v13.25c0 2.57-1.14 2.68-1.15 2.69 0 0-.01 0-.01.01 0 0 0 .01.01.01h10.18s.01 0 .01-.01l.49-2.86v-.02zm-2.67-6.97c.09 0 .18-.02.26-.04-.08.02-.17.03-.26.04zm.76-.2s.05-.02.08-.03c-.02.01-.05.02-.08.03zm.07 1.54s-.02 0-.03-.01c0 0 .02 0 .03.01zm-.55-.19c-.08-.02-.16-.02-.24-.03.08 0 .17.02.24.03zm13.89 6.22c-.67 0-1.39.43-1.39 1.36s.7 1.39 1.39 1.39 1.39-.48 1.39-1.39-.72-1.36-1.39-1.36zM105.24 25.48a.594.594 0 00-.99.66 56.032 56.032 0 019.53 31.33v14.26c0 31.03-25.25 56.28-56.3 56.28-15.3 0-29.19-6.14-39.35-16.08.55-1.3 1.14-2.59 1.76-3.89 2.74-5.77 5.86-11.83 9.16-17.87h.51c4.28 0 8.67-1.74 12.51-4.87 5.14 0 10.37-1.62 13.31-3.61-.22 2.71.37 4.47 1.77 5.23.49.27 1.06.38 1.68.38 2.47 0 5.77-1.88 8.39-3.81-.29 1.24-.03 2.68 1.14 3.52.66.47 1.5.68 2.45.68 3.52 0 8.6-2.78 11.96-5.07.04.09.08.19.13.28-.17.21-.32.44-.45.69-.4.77-.41 1.76-.04 2.58.33.73.92 1.24 1.66 1.42.26.06.51.09.77.09 1.22 0 2.39-.65 3.22-1.19.3-.19.61-.43.93-.7.55.06 1.12.1 1.72.1 3.24 0 7.19-.94 11.23-3.63.27-.18.35-.55.17-.82a.584.584 0 00-.82-.16c-3.97 2.65-8 3.52-11.2 3.4.71-.86 1.3-1.89 1.51-3.02.21-1.15-.05-2.29-.73-3.14-.6-.75-1.47-1.18-2.45-1.22-2.41-.09-5.13 1.24-5.74 3.93-5.84 4.16-11.67 6.22-13.62 4.82-.9-.65-.93-1.92-.5-2.84.34-.72.83-1.38 1.43-1.97l.02-.02a9.02 9.02 0 012.68-1.78c.44-.2 1.07-.26 1.37-.02.3.25.23.87.15 1.21-.07.32.14.64.46.71.32.07.64-.14.71-.46.29-1.36-.15-2.04-.56-2.38-.72-.58-1.82-.49-2.6-.15-1.17.52-2.18 1.2-3.01 2.01-3.14 2.84-9.01 6.85-11.48 5.51-1.4-.75-1.32-3.31-1-5.32v-.13a.573.573 0 00-.15-.48.589.589 0 00-.84-.02c-2.17 2.05-7.12 3.87-12.24 4.16.57-.53 1.12-1.1 1.65-1.7 1.42-1.65 3.25-4.13 2.66-6.63-.27-1.01-.98-1.76-1.93-2.03-1.22-.42-3.11.07-4.79.59a.593.593 0 00.35 1.13c.83-.26 3.04-.95 4.08-.59.58.17.97.58 1.13 1.18.46 1.96-1.16 4.12-2.4 5.56-.82.92-1.69 1.76-2.58 2.52-.78-.01-1.55-.06-2.31-.16-2.14-.33-4.33-.59-6.48-.61 3.02-5.27 6.13-10.43 9.21-15.25.18-.28.1-.64-.18-.82a.587.587 0 00-.82.18c-3.21 5.02-6.45 10.41-9.59 15.92-1.39.06-2.75.24-4.05.61-1.32.37-2.98 1.28-3.29 2.64-.13.57-.07 1.43.96 2.34.78.61 1.81.91 2.67 1.07-3.23 5.92-6.28 11.85-8.97 17.51-.55 1.17-1.09 2.33-1.59 3.49C7.31 100.87 1.19 87 1.19 71.73V57.47c0-31.03 25.25-56.28 56.29-56.28 12.06 0 23.59 3.81 33.37 11.03a.6.6 0 00.83-.12c.2-.26.14-.64-.12-.83C81.58 3.89 69.8 0 57.48 0 25.79 0 0 25.78 0 57.47v14.26c0 15.78 6.4 30.09 16.73 40.49-1.38 3.42-2.37 6.88-2.3 10.51 0 .32.27.58.59.58h.01c.33 0 .59-.28.58-.61-.06-3.28.79-6.45 2.03-9.6 10.34 9.95 24.38 16.09 39.83 16.09 31.7 0 57.48-25.78 57.48-57.47V57.46c0-11.45-3.36-22.51-9.73-31.99zM84.37 86.43c-.51-.13-.76-.53-.87-.76-.22-.49-.22-1.09.01-1.54.05-.1.11-.19.17-.29.15.13.32.27.51.39.76.52 1.86.98 3.19 1.29-1.25.8-2.24 1.11-3.01.91zm4.02-7.94c.81.03 1.3.44 1.57.77.45.57.64 1.38.49 2.18-.21 1.15-.97 2.26-1.84 3.11-1.57-.22-2.86-.69-3.73-1.29-.12-.08-.24-.17-.34-.26.97-.71 2.33-1.14 3.51-1.32.32-.05.55-.35.5-.68a.599.599 0 00-.68-.5c-.7.11-2.59.48-4.03 1.53-.03-.1-.02-.19-.01-.29.03-.08.04-.17.03-.26.51-2.29 2.97-3.08 4.54-3zm-49.2 6.64c.34.04.69.07 1.04.1-3.31 2.41-6.96 3.74-10.54 3.75.82-1.49 1.65-2.97 2.49-4.45 2.29-.04 4.67.24 6.99.6zm-13.32 2.9c-.46-.4-.65-.79-.56-1.15.15-.68 1.16-1.4 2.45-1.76.97-.27 1.99-.43 3.03-.52-.81 1.43-1.61 2.86-2.4 4.3-1.06-.14-1.98-.45-2.52-.87z"/><path class="cls-1" d="M73.85 36.31c-3.01 3.91-5.96 8.67-8.43 13.37-.63.45-1.27.92-1.92 1.4-3.32 2.46-6.75 5-10.55 5.58-1.57.24-2.89-.12-3.82-1.03-1.22-1.2-1.74-3.26-1.43-5.66v-.15c0-.04 0-.07-.01-.1 0-.03-.03-.06-.04-.09a.413.413 0 00-.07-.11s0-.01-.01-.02c-.02-.02-.05-.03-.07-.05a.36.36 0 00-.1-.07.495.495 0 00-.13-.04c-.02 0-.05-.02-.07-.02h-.15c-.04 0-.07 0-.11.01-.03 0-.06.03-.08.04-.04.02-.08.04-.12.07h-.02c-3.98 3.5-5.83 2.26-8.16.67-2.85-1.93-6.04-4.09-13.09 1.97 2.15-3.33 4.13-6.24 4.83-7.07.4-.48.85-.67 1.57-.67h.05c.33 0 .59-.26.59-.59 0-.33-.26-.6-.59-.6-1.1 0-1.91.34-2.55 1.1-1.74 2.07-11.77 17.4-12.17 19.81-.05.32.16.63.49.68h.1a.6.6 0 00.59-.5c.15-.87 2.15-4.32 4.49-8.08a.62.62 0 00.17-.11c8.72-9.12 11.83-7.01 14.84-4.96 2.23 1.51 4.54 3.06 8.54.1-.02 2.18.62 4.06 1.86 5.27.98.96 2.25 1.45 3.72 1.45.36 0 .73-.03 1.11-.09 4.09-.63 7.64-3.26 11.07-5.8h.01c-3.49 7.06-5.72 13.65-5.25 16.6.05.29.3.5.59.5h.1c.32-.05.54-.36.49-.68-.45-2.81 2.14-10.19 6.21-17.99a.63.63 0 00.16-.3c2.37-4.51 5.23-9.15 8.28-13.11 7.85-10.2 18.41-19.78 22.3-22.82 2-1.57 3.71-2.62 5.08-3.13-.12 1.08 0 2.14.14 3.17.08.64.16 1.25.18 1.86.09 2.82-.93 5.36-3.11 7.76-2.71 2.98-5.76 4.85-9.33 5.72-.13.03-.31.03-.5.02-.57-.01-1.52-.05-2 1.14-.05.13-.06.27-.01.4.58 1.82-.72 3.19-2.47 4.79-1.39 1.27-3.08 2.1-4.86 2.98-.76.37-1.52.75-2.25 1.15-1.66.92-3.72 2.06-5.3 3.69a.598.598 0 00.42 1.01c.15 0 .31-.06.43-.18 1.46-1.5 3.43-2.6 5.02-3.48.72-.4 1.46-.76 2.2-1.13 1.78-.88 3.63-1.79 5.14-3.17 1.5-1.37 3.53-3.23 2.87-5.79.14-.23.31-.24.77-.22.25 0 .53.02.82-.05 3.75-.92 7.09-2.96 9.93-6.08 2.37-2.6 3.51-5.49 3.42-8.6-.02-.67-.11-1.33-.19-1.97-.13-1.02-.25-1.98-.14-2.93l.09-.82c.15-1.59.28-2.97 1.73-3.91.28-.18.35-.55.18-.82a.598.598 0 00-.82-.18c-1.76 1.14-2.06 2.8-2.23 4.34-1.6.47-3.59 1.64-5.95 3.49-3.93 3.07-14.59 12.75-22.51 23.03z"/><path class="cls-1" d="M81.37 48.78c.25.03 1 .13 1.27 1.77.05.32.35.53.68.49.32-.05.54-.36.49-.68-.34-2.07-1.43-2.65-2.28-2.76-2.61-.34-6.26 3.22-7.15 5.19-.63 1.2-.62 2.48 0 3.27.25.31.77.75 1.7.75.28 0 .59-.04.94-.13 1.33-.35 3.25-1.6 4.63-2.61.2 1.27.96 2.37 2.18 3.06.86.49 1.99.8 3.32.8 2.25 0 5.08-.89 8.2-3.33a.59.59 0 10-.73-.93c-4.5 3.52-8.31 3.5-10.2 2.43-1.19-.68-1.78-1.83-1.61-3.14 0-.06 0-.12-.01-.17v-.06c0-.02-.02-.04-.03-.06-.02-.05-.04-.1-.08-.15-.02-.02-.04-.03-.06-.05a.481.481 0 00-.11-.09c-.04-.02-.09-.03-.13-.05-.03 0-.05-.02-.08-.03a.562.562 0 00-.44.13c-1.13.91-3.65 2.73-5.13 3.11-.47.12-1.09.19-1.41-.21-.32-.41-.27-1.22.14-2 .82-1.8 4.13-4.77 5.93-4.53zM56.76 76.3c.05.32.24.48.62.48.96 0 1.73-.57 2-1.13.27-.62.23-1.12-.18-1.33-.32-.26-.95-.26-1.52.08-.29.14-.48.47-.44.77.08 0 .06.01.06.01q-.09.08-.18.14c-.32.26-.45.65-.36.98zm-8.14-31.09c.05.32.24.48.62.48.96 0 1.73-.57 2-1.13.27-.62.23-1.12-.18-1.33-.32-.26-.95-.26-1.52.08-.29.14-.48.47-.44.77.08 0 .06.01.06.01q-.09.08-.18.14c-.32.26-.45.65-.36.98z"/></g></svg>